<svg width="31" height="31" viewBox="0 0 31 31" fill="none" xmlns="http://www.w3.org/2000/svg">
<path d="M15.5 8.39583C20.3954 8.39583 24.7612 11.1471 26.8925 15.5C24.7612 19.8529 20.4083 22.6042 15.5 22.6042C10.5917 22.6042 6.23874 19.8529 4.10749 15.5C6.23874 11.1471 10.6046 8.39583 15.5 8.39583ZM15.5 5.8125C9.04165 5.8125 3.52624 9.82958 1.29166 15.5C3.52624 21.1704 9.04165 25.1875 15.5 25.1875C21.9583 25.1875 27.4737 21.1704 29.7083 15.5C27.4737 9.82958 21.9583 5.8125 15.5 5.8125ZM15.5 12.2708C17.2825 12.2708 18.7292 13.7175 18.7292 15.5C18.7292 17.2825 17.2825 18.7292 15.5 18.7292C13.7175 18.7292 12.2708 17.2825 12.2708 15.5C12.2708 13.7175 13.7175 12.2708 15.5 12.2708ZM15.5 9.6875C12.2967 9.6875 9.68749 12.2967 9.68749 15.5C9.68749 18.7033 12.2967 21.3125 15.5 21.3125C18.7033 21.3125 21.3125 18.7033 21.3125 15.5C21.3125 12.2967 18.7033 9.6875 15.5 9.6875Z" fill="#727695"/>
</svg>
