<svg width="31" height="30" viewBox="0 0 31 30" fill="none" xmlns="http://www.w3.org/2000/svg">
<path fill-rule="evenodd" clip-rule="evenodd" d="M28.9903 29.8237H17.8086C17.1703 29.8237 16.6523 29.3057 16.6523 28.6675C16.6523 28.0292 17.1703 27.5112 17.8086 27.5112H28.9903C29.6286 27.5112 30.1466 28.0292 30.1466 28.6675C30.1466 29.3057 29.6286 29.8237 28.9903 29.8237" fill="#444A61"/>
<mask id="mask0_422_1897" style="mask-type:luminance" maskUnits="userSpaceOnUse" x="0" y="0" width="27" height="30">
<path fill-rule="evenodd" clip-rule="evenodd" d="M0.0820312 0.625252H26.5688V29.8237H0.0820312V0.625252Z" fill="white"/>
</mask>
<g mask="url(#mask0_422_1897)">
<path fill-rule="evenodd" clip-rule="evenodd" d="M17.2098 3.73424L2.69502 21.8874C2.4314 22.2173 2.33427 22.6428 2.4314 23.0513L3.48127 27.499L8.1664 27.4405C8.61194 27.4358 9.02357 27.237 9.29644 26.8978C14.256 20.6926 23.711 8.86183 23.9793 8.51495C24.2321 8.10487 24.3308 7.5252 24.1982 6.96712C24.0625 6.39516 23.7064 5.90954 23.193 5.59966C23.0836 5.52412 20.4859 3.50762 20.4057 3.44441C19.4283 2.66124 18.0022 2.79691 17.2098 3.73424V3.73424ZM2.56916 29.8239C2.0342 29.8239 1.56862 29.457 1.44375 28.9343L0.181121 23.5832C-0.0794209 22.4748 0.179579 21.3308 0.890287 20.4428L15.4128 2.27892C15.419 2.27275 15.4236 2.26504 15.4297 2.25888C17.0223 0.354917 19.9021 0.0743334 21.8446 1.63296C21.9217 1.69308 24.5009 3.69725 24.5009 3.69725C25.4382 4.25533 26.1705 5.25279 26.448 6.43371C26.724 7.60229 26.5236 8.80788 25.8807 9.82692C25.8329 9.90246 25.7913 9.96721 11.1023 28.3439C10.3947 29.2257 9.334 29.7391 8.1947 29.753L2.58458 29.8239H2.56916Z" fill="#444A61"/>
</g>
<path fill-rule="evenodd" clip-rule="evenodd" d="M22.0105 14.0141C21.7639 14.0141 21.5172 13.9354 21.306 13.7751L12.9008 7.31861C12.3952 6.93011 12.2996 6.20552 12.6881 5.69677C13.0781 5.19111 13.8027 5.09707 14.3099 5.48557L22.7166 11.9405C23.2223 12.329 23.3179 13.0551 22.9278 13.5624C22.7012 13.8584 22.3574 14.0141 22.0105 14.0141" fill="#444A61"/>
</svg>
