<svg width="66" height="66" viewBox="0 0 66 66" fill="none" xmlns="http://www.w3.org/2000/svg">
<path d="M66 0.873016C66 0.390863 65.6091 0 65.127 0H0.873016C0.390863 0 0 0.390863 0 0.873016V65.127C0 65.6091 0.390863 66 0.873016 66H65.127C65.6091 66 66 65.6091 66 65.127V0.873016ZM58.6667 57.7937C58.6667 58.2758 58.2758 58.6667 57.7937 58.6667H8.20635C7.7242 58.6667 7.33333 58.2758 7.33333 57.7937V8.20635C7.33333 7.7242 7.7242 7.33333 8.20635 7.33333H57.7937C58.2758 7.33333 58.6667 7.7242 58.6667 8.20635V57.7937ZM40.8731 34.9766C40.5273 34.5166 39.8388 34.5111 39.4858 34.9656L30.77 46.1851C30.4277 46.6258 29.7655 46.6366 29.409 46.2073L23.61 39.2249C23.2538 38.796 22.5924 38.8063 22.2497 39.2461L13.9314 49.9238C13.4848 50.4971 13.8933 51.3333 14.6201 51.3333H51.4184C52.1382 51.3333 52.5488 50.5112 52.1163 49.9358L40.8731 34.9766Z" fill="white"/>
</svg>
