<svg width="33" height="33" viewBox="0 0 33 33" fill="none" xmlns="http://www.w3.org/2000/svg">
<g clip-path="url(#clip0_302_327)">
<path d="M32.1077 8.31166C31.9253 7.62556 31.566 6.99938 31.0656 6.49579C30.5653 5.9922 29.9414 5.62886 29.2565 5.44214C26.7351 4.76416 16.657 4.76416 16.657 4.76416C16.657 4.76416 6.57886 4.76416 4.05749 5.44214C3.37258 5.62886 2.74871 5.9922 2.24834 6.49579C1.74796 6.99938 1.38863 7.62556 1.2063 8.31166C0.531983 10.844 0.531982 16.125 0.531982 16.125C0.531982 16.125 0.531983 21.4059 1.2063 23.9382C1.38863 24.6243 1.74796 25.2505 2.24834 25.7541C2.74871 26.2577 3.37258 26.621 4.05749 26.8078C6.57886 27.4858 16.657 27.4858 16.657 27.4858C16.657 27.4858 26.7351 27.4858 29.2565 26.8078C29.9414 26.621 30.5653 26.2577 31.0656 25.7541C31.566 25.2505 31.9253 24.6243 32.1077 23.9382C32.782 21.4059 32.782 16.125 32.782 16.125C32.782 16.125 32.782 10.844 32.1077 8.31166Z" fill="#797E86"/>
<path d="M13.3587 20.9204V11.3297L21.7877 16.1251L13.3587 20.9204Z" fill="#1D2026"/>
</g>
<defs>
<clipPath id="clip0_302_327">
<rect width="32.25" height="32.25" fill="white" transform="translate(0.5)"/>
</clipPath>
</defs>
</svg>
