<svg width="74" height="63" viewBox="0 0 74 63" fill="none" xmlns="http://www.w3.org/2000/svg">
<path fill-rule="evenodd" clip-rule="evenodd" d="M16.295 0.284343C16.4974 0.441802 16.7287 0.725227 16.801 0.945669C16.8877 1.1976 16.8733 1.48103 16.7721 1.73296C16.6709 1.98489 16.2516 2.3313 15.5721 2.7092C14.907 3.07136 14.2564 3.60671 13.7649 4.15782C13.36 4.64594 12.8251 5.48047 12.5793 6.03157C12.348 6.56693 12.0878 7.43295 12.001 7.95256C11.9287 8.47218 11.8564 11.3537 11.8564 19.8407L12.3191 19.9351C12.5793 19.9981 13.1576 20.2343 13.5914 20.4705C14.0251 20.7067 14.748 21.2578 15.1817 21.6829C15.6155 22.1238 16.2371 22.8324 16.5552 23.2733C16.8733 23.7141 17.1769 24.0448 17.2347 24.0133C17.307 23.9661 17.3504 21.9664 17.3504 15.1956L15.8612 13.5738C14.5745 12.1724 14.3865 11.9048 14.401 11.4481C14.4106 11.1122 14.5311 10.8498 14.7624 10.6608C14.9504 10.5034 15.2829 10.3774 15.4998 10.3932C15.76 10.3932 16.1215 10.6136 16.5118 11.023C16.8588 11.3537 17.1769 11.6371 17.2347 11.6528C17.307 11.6528 17.3504 11.212 17.3504 10.6766C17.3504 9.87356 17.4227 9.62162 17.6829 9.32245C17.8564 9.11776 18.1745 8.97604 18.3913 8.97604C18.6227 8.97604 18.9552 9.14925 19.5191 9.76334V17.1639L19.9528 16.7702C20.1986 16.5498 20.56 16.3766 20.7769 16.3766C21.0082 16.3766 21.3263 16.534 21.5142 16.7387C21.7166 16.9434 21.8323 17.2741 21.8323 17.5575C21.8323 17.9354 21.601 18.2818 19.5191 20.5492V22.5175L20.3431 21.6357C20.8058 21.1633 21.4998 20.5335 21.9046 20.2343C22.2949 19.9509 23.1335 19.4628 24.8684 18.581V13.3534C24.8684 9.52715 24.8106 7.88958 24.6805 7.32273C24.5648 6.89759 24.2901 6.14179 24.0588 5.66942C23.8275 5.19704 23.307 4.45699 22.9166 4.01611C22.5118 3.59097 21.7889 3.02412 21.3263 2.77218C20.8492 2.52025 20.3431 2.18959 20.1986 2.06362C20.054 1.92191 19.9383 1.59125 19.9528 1.30782C19.9528 0.945669 20.0829 0.662244 20.3431 0.394564C20.5745 0.174123 20.8347 -0.0148273 20.9215 0.000918517C21.0227 0.000918517 21.6443 0.30009 22.2949 0.662244C23.119 1.11887 23.7986 1.65423 24.4492 2.36279C24.9696 2.92964 25.6202 3.8429 25.9238 4.40975C26.213 4.9766 26.5744 6.00008 26.7479 6.6929C27.0082 7.8266 27.0371 8.42494 27.0371 17.8724L29.0178 17.8882C30.5214 17.9039 31.2877 17.9827 32.0973 18.2188C32.6901 18.3921 33.6732 18.7857 35.3503 19.636L35.8274 17.1796C36.1021 15.8255 36.6081 13.6368 36.9551 12.3299C37.3021 11.0073 37.8226 9.25947 38.1117 8.47218C38.4009 7.66914 38.8346 6.58268 39.0804 6.06306C39.3117 5.54345 39.7888 4.67743 40.1358 4.14207C40.5117 3.55948 41.0611 2.96114 41.4515 2.67771C41.9864 2.31556 42.319 2.20534 42.8683 2.20534C43.4177 2.20534 43.7503 2.31556 44.2708 2.67771C44.7189 2.97688 45.225 3.55948 46.425 5.43323L47.2201 5.16555C47.6539 5.00809 48.478 4.8034 49.0418 4.70892C49.6201 4.61445 50.5888 4.56721 51.1816 4.61445C51.7743 4.66169 52.6852 4.81914 53.2057 4.96086C53.7261 5.10257 54.6659 5.49621 55.302 5.82688C55.9382 6.15754 56.8779 6.81886 57.3984 7.27549C57.9189 7.74787 58.6562 8.5824 59.0466 9.14925C59.4369 9.70035 59.9719 10.6608 60.2321 11.2592C60.4924 11.8575 60.8104 12.7865 60.9406 13.3061C61.0562 13.8258 61.1574 14.3926 61.1574 14.5658C61.1574 14.7705 61.4321 15.1012 61.9671 15.5106C62.4153 15.857 63.0369 16.4396 63.3405 16.8175C63.6586 17.1796 64.1357 17.8724 64.4104 18.3448C64.7478 18.9222 65.0128 19.2108 65.2056 19.2108C65.3646 19.2108 66.0008 19.384 66.608 19.6045C67.2297 19.8249 68.155 20.2658 68.6755 20.6122C69.1959 20.9429 70.0056 21.6042 70.4682 22.0608C70.9309 22.5332 71.5959 23.3362 71.9285 23.8559C72.2754 24.3755 72.7092 25.1628 72.9116 25.5879C73.114 26.0288 73.4176 26.9105 73.6056 27.5561C73.8803 28.5324 73.9525 29.0835 73.9381 30.7053C73.9381 32.1067 73.8658 32.9727 73.6778 33.697C73.5477 34.2639 73.2007 35.2401 72.926 35.8699C72.6514 36.484 72.1598 37.3815 71.8128 37.8382C71.4658 38.279 71.1477 38.7514 71.0899 38.8616C71.0321 38.9561 71.2056 39.523 71.4803 40.1213C71.755 40.7039 72.1453 41.7116 72.3477 42.3572C72.5646 43.0028 72.8827 44.1837 73.0417 44.9553C73.2297 45.8843 73.3598 47.1597 73.4032 48.6555C73.4465 50.1042 73.4176 51.2851 73.3019 51.8834C73.2152 52.4031 72.9839 53.1903 72.7959 53.6155C72.608 54.0564 72.2032 54.639 71.8995 54.9381C71.5959 55.2373 71.061 55.6152 70.6995 55.7884C70.3381 55.9616 69.6008 56.1506 68.0249 56.2923L67.9526 60.4649H73.1574L73.6056 60.9058C73.9815 61.2522 74.0537 61.4097 73.967 61.7718C73.9236 62.008 73.7068 62.3702 73.0851 63L0.868531 62.9843L0.434798 62.5119C0.189016 62.2599 0.00106523 61.882 0.00106523 61.6931C-0.0133925 61.4884 0.116727 61.1577 0.55046 60.5436L10.4107 60.4649V57.0796L8.8203 56.9693C7.95284 56.8906 6.7673 56.7332 6.21791 56.6072C5.65405 56.4812 4.82996 56.182 4.36731 55.9459C3.87575 55.6939 3.18177 55.1428 2.66129 54.576C2.1119 53.9619 1.62034 53.2376 1.33118 52.592C1.0854 52.0252 0.738411 50.9229 0.55046 50.1514C0.246847 48.8602 0.217932 48.3879 0.217932 44.7978C0.217932 41.6801 0.275763 40.5307 0.492629 39.2868C0.622749 38.4208 0.94082 36.8934 1.15769 35.9014C1.38901 34.9094 1.85166 33.2404 2.16973 32.2011C2.50226 31.1619 3.16732 29.4299 3.62997 28.3434C4.10707 27.257 4.91671 25.6981 5.40827 24.8793C5.91429 24.0606 6.68055 22.9741 7.09983 22.4545C7.53356 21.9506 8.28537 21.242 9.67331 20.2343L9.77452 7.48019L10.1649 6.22052C10.3673 5.52771 10.801 4.53572 11.1046 4.01611C11.4082 3.49649 12.0155 2.7092 12.4492 2.26832C12.8829 1.82744 13.5191 1.27633 13.8805 1.0244C14.242 0.772464 14.8492 0.457548 15.2251 0.30009C15.8757 0.0481563 15.948 0.0481559 16.295 0.284343ZM41.0756 7.08654C40.6852 7.90533 40.0925 9.43267 39.7599 10.4719C39.4274 11.5111 38.9503 13.2747 38.6756 14.4084C38.4009 15.5421 38.025 17.3371 37.8226 18.4235C37.6202 19.51 37.331 21.3523 37.172 22.5175C37.013 23.6827 36.7816 25.7139 36.666 27.005C36.5503 28.3119 36.4057 30.721 36.3479 32.3586C36.2901 34.2009 36.319 36.3423 36.4202 37.9484C36.5214 39.3812 36.7238 41.255 36.8828 42.121C37.0419 42.987 37.3744 44.1522 37.6057 44.7191C37.8515 45.2859 38.184 45.9158 38.3575 46.1047C38.531 46.3094 38.9358 46.6243 39.2539 46.7975C39.572 46.9865 40.2659 47.1754 40.8153 47.2227L41.784 47.3171V33.9332C38.6033 30.4691 38.4732 30.2644 38.4587 29.7133C38.4587 29.2567 38.5455 29.0677 38.8491 28.8158C39.0804 28.6268 39.3985 28.4851 39.572 28.5009C39.7744 28.5009 40.2804 28.8945 40.8443 29.4771L41.7985 30.4691C41.7696 28.0128 41.8274 27.7136 42.0732 27.3514C42.29 27.0365 42.478 26.9263 42.8683 26.9263C43.2587 26.9263 43.4467 27.0365 43.6635 27.3672C43.9527 27.7766 43.9671 27.997 43.9527 32.831L43.9382 37.8696C46.0057 35.6495 46.2804 35.4448 46.6563 35.429C46.9454 35.429 47.249 35.555 47.4225 35.744C47.5816 35.9172 47.7262 36.1848 47.7262 36.3266C47.7406 36.484 47.7406 36.7202 47.7117 36.8462C47.6972 36.9721 46.8442 38.0114 45.8177 39.1293L43.9527 41.1763V47.2384C45.0226 47.2384 45.5575 47.1754 45.8322 47.081C46.1069 47.0022 46.5695 46.7818 46.8298 46.5771C47.1045 46.3724 47.5093 45.9315 47.7262 45.5851C47.943 45.2387 48.29 44.4042 48.4924 43.7271C48.6948 43.0658 48.984 41.6487 49.1141 40.5779C49.2876 39.1766 49.3599 37.5075 49.3599 34.3268C49.3599 31.9492 49.2876 29.0362 49.1864 27.871C49.0852 26.7059 48.8394 24.5014 48.637 22.9898C48.4346 21.4782 48.0587 19.1321 47.7984 17.7937C47.4804 16.1561 47.3647 15.2271 47.437 14.9595C47.5093 14.739 47.7262 14.4713 47.9286 14.3769C48.131 14.2666 48.3768 14.1722 48.4635 14.1722C48.5647 14.1564 48.825 14.2981 49.0418 14.4871C49.3743 14.739 49.49 15.0382 49.678 16.0302C49.8081 16.6915 49.9527 17.3056 49.9816 17.4001C50.0249 17.4945 50.4587 17.1166 50.9502 16.5813C51.4273 16.0617 52.1502 15.4003 52.555 15.1327C52.9454 14.8492 53.7984 14.4556 54.4346 14.2352C55.4466 13.8887 55.7936 13.8415 57.2105 13.8887L58.8297 13.936C58.6996 13.3219 58.396 12.5818 58.0635 11.889C57.6586 11.0387 57.1671 10.3144 56.5309 9.63737C55.8803 8.94455 55.2297 8.44069 54.4346 8.01555C53.7984 7.66914 52.7864 7.29124 52.1936 7.14953C51.4707 6.97632 50.7478 6.92909 50.0249 6.99207C49.4322 7.03931 48.5936 7.18102 48.1743 7.32273C47.7695 7.4487 47.4225 7.63765 47.4225 7.71638C47.4225 7.79511 47.5527 8.23599 47.7117 8.66113C47.8707 9.10201 48.0009 9.68461 48.0009 9.96803C48.0153 10.2829 47.8996 10.5821 47.6972 10.7868C47.5382 10.96 47.2057 11.1017 46.9743 11.1017C46.743 11.1017 46.4394 10.96 46.2804 10.7868C46.1358 10.6136 45.7599 9.79483 45.4707 8.97604C45.1671 8.15726 44.6756 7.02356 44.3864 6.45671C44.0828 5.88986 43.6635 5.24428 43.4611 5.00809C43.2587 4.75616 42.984 4.56721 42.8539 4.56721C42.7382 4.56721 42.4491 4.8034 42.2033 5.08682C41.972 5.3545 41.4515 6.26776 41.0756 7.08654ZM53.6394 17.2426C53.2779 17.4945 52.6707 18.0456 52.2804 18.4865C51.9045 18.9274 51.3695 19.7934 51.0948 20.3918C50.6466 21.4153 50.6322 21.557 50.7478 22.36C50.8201 22.8324 50.9792 24.1865 51.1093 25.3517C51.2249 26.5169 51.384 28.5481 51.4707 29.8393C51.543 31.1462 51.6153 33.1616 51.6153 34.3268C51.6008 35.492 51.543 37.3343 51.4707 38.4208C51.3984 39.5072 51.2249 41.129 51.0948 42.0423L50.849 43.6956C51.4996 45.034 52.0346 45.8055 52.4394 46.2622C52.8731 46.7188 53.596 47.2857 54.102 47.5533C54.6081 47.8053 55.2297 48.0729 55.49 48.1359L55.9526 48.2619V35.9801C53.9141 33.7915 53.2346 32.957 53.1189 32.705C52.9888 32.4373 52.9599 32.1224 53.0177 31.8547C53.09 31.6343 53.2635 31.3509 53.4225 31.2249C53.5816 31.1147 53.8707 31.0202 54.0731 31.0202C54.29 31.0045 54.7093 31.2721 55.1141 31.65C55.5044 31.9965 55.837 32.2799 55.8803 32.2799C55.9237 32.2799 55.9526 31.839 55.9526 31.3036C55.9526 30.4691 55.996 30.2487 56.2707 29.9652C56.4586 29.7605 56.7623 29.6031 56.9647 29.6031C57.1671 29.5873 57.4851 29.729 57.6876 29.9023L58.049 30.2014L58.1213 37.7909C58.9598 37.1768 59.3068 36.9879 59.4225 36.9879C59.5382 36.9879 59.8129 37.1296 60.0297 37.3185C60.3478 37.5705 60.4345 37.7594 60.4345 38.2161C60.4201 38.7514 60.29 38.9561 59.2779 40.0741L58.1213 41.3337C58.1213 47.695 58.1502 48.1832 58.3382 48.1832C58.4538 48.1832 58.902 48.0415 59.3068 47.8525C59.7261 47.6793 60.1454 47.4431 60.2466 47.3486C60.3478 47.2384 60.5502 46.4511 60.6948 45.5851C60.8538 44.7191 61.1863 43.3335 61.4466 42.5147C61.7068 41.6959 62.1116 40.5937 62.3574 40.0741C62.5887 39.5544 62.9357 38.8616 63.1237 38.531L63.4707 37.9484L63.3984 21.494C62.6466 19.7934 62.2562 19.0376 62.0393 18.7385C61.8225 18.4393 61.2875 17.9039 60.8538 17.5575C60.4201 17.2111 59.6683 16.7702 59.1623 16.5813C58.4972 16.3136 57.9623 16.2191 57.0659 16.2349C56.343 16.2349 55.5623 16.3451 55.0852 16.5183C54.6514 16.66 54.0008 16.9907 53.6394 17.2426ZM25.519 20.8641C24.9552 21.0846 24.1455 21.494 23.7118 21.7774C23.2781 22.0451 22.3528 22.8796 21.6733 23.6197C20.719 24.6589 20.2998 25.2572 19.8371 26.265C19.5046 26.9735 19.2299 27.6663 19.2299 27.7923C19.2299 27.9183 19.36 28.3277 19.5335 28.7056L19.8371 29.3669C21.3263 27.7608 22.0492 27.1152 22.4106 26.9105C22.8877 26.6429 23.307 26.5484 24.001 26.5326C24.6949 26.5326 25.1142 26.6271 25.5913 26.8791C25.9528 27.068 26.6178 27.5876 27.066 28.0285L27.9046 28.8158C27.9768 24.7691 27.9913 24.6904 28.3383 24.3912C28.5407 24.218 28.8588 24.0763 29.0612 24.0763C29.2636 24.0763 29.5672 24.2495 29.7407 24.4385C29.9865 24.7061 30.0732 24.9896 30.0732 25.5564C30.0732 25.9658 30.1166 26.328 30.1744 26.3752C30.2467 26.4067 30.478 26.2335 30.7238 25.9658C31.0274 25.6351 31.3021 25.5092 31.6202 25.5092C31.8949 25.5092 32.213 25.6351 32.3865 25.8241C32.56 26.013 32.6756 26.3437 32.6756 26.6586C32.6612 27.0838 32.4588 27.3829 31.3744 28.5796L30.0732 29.9967C30.0732 32.4688 30.1311 32.768 30.7094 34.3741C31.0708 35.3346 31.5335 36.7832 31.7359 37.5547C31.9383 38.3263 32.213 39.6174 32.3286 40.389C32.4588 41.1605 32.5889 41.9006 32.6178 42.0108C32.6612 42.1368 32.9648 42.0423 33.6154 41.6959C34.2419 41.3495 34.531 41.1028 34.4828 40.9558C34.4539 40.8456 34.3383 39.2868 34.2371 37.4917C34.1069 34.9882 34.1069 33.4766 34.2371 30.8628C34.3383 29.0047 34.5118 26.5641 34.6274 25.4304C34.7431 24.2967 34.8587 23.1001 34.8877 22.7536L34.9166 22.1238C33.0082 21.0846 32.0684 20.6752 31.5913 20.5492C31.1142 20.4075 30.1311 20.2816 29.4226 20.2343C28.6997 20.2028 27.76 20.2343 27.3262 20.3288C26.8925 20.4075 26.0684 20.6595 25.519 20.8641ZM65.6393 35.744C66.2032 35.492 66.6225 35.429 66.9405 35.429C67.2586 35.429 67.7935 35.5708 68.1261 35.7597C68.4731 35.9487 68.9502 36.3108 69.2104 36.5942L69.6586 37.0824C70.3815 35.9801 70.7718 35.2401 71.0032 34.7205C71.2345 34.2009 71.5236 33.2404 71.6538 32.5948C71.8273 31.776 71.8706 31.036 71.8128 30.1542C71.7694 29.4141 71.5815 28.4064 71.3646 27.7136C71.1622 27.068 70.6851 26.0445 70.3092 25.4462C69.9188 24.8478 69.2827 24.0448 68.8923 23.6669C68.4875 23.289 67.649 22.6907 67.0128 22.3443C66.3767 21.9978 65.7839 21.7302 65.7116 21.7302C65.6104 21.7302 65.5815 24.1393 65.596 28.7371L65.6393 35.744ZM8.93597 23.8086C8.47332 24.3125 7.76489 25.273 7.36007 25.9343C6.94079 26.6114 6.29019 27.8396 5.89983 28.6583C5.52393 29.4771 4.94562 30.8628 4.64201 31.7288C4.32394 32.5948 3.84683 34.1536 3.57213 35.1929C3.29744 36.2321 2.92153 37.9641 2.73358 39.0506C2.44443 40.7669 2.40105 41.5227 2.40105 44.7978C2.40105 48.2934 2.41551 48.6713 2.73358 49.8365C2.90708 50.5293 3.23961 51.4426 3.45647 51.8677C3.65888 52.2928 4.09261 52.8754 4.41068 53.1746C4.72876 53.458 5.33598 53.8517 5.75526 54.0091C6.17453 54.1823 7.08537 54.387 7.77934 54.4815C8.47332 54.5602 9.35524 54.639 9.73114 54.639H10.4107L10.4251 49.2066C7.47573 45.9945 7.24441 45.6638 7.24441 45.223C7.24441 44.8923 7.36007 44.5774 7.59139 44.3254C7.7938 44.105 8.05404 43.9318 8.1697 43.9318C8.29982 43.9318 8.54561 44.0105 8.7191 44.105C8.89259 44.1995 9.35524 44.6089 9.73114 45.0183L10.4251 45.7426C10.4107 35.7755 10.4251 35.3188 10.6709 35.0039C10.801 34.7992 11.1191 34.5945 11.3504 34.5473C11.7119 34.4528 11.8709 34.5158 12.189 34.8464C12.5793 35.2558 12.5793 35.3188 12.5793 37.0824V38.8931C13.3167 38.405 13.4612 38.3893 13.8082 38.5467C14.054 38.6412 14.3287 38.9089 14.4299 39.1293C14.5311 39.3498 14.6034 39.6332 14.6034 39.7591C14.6034 39.8851 14.1552 40.5149 13.6058 41.129L12.5938 42.2785L12.5793 54.7177C14.9938 54.5287 16.0636 54.3713 16.5263 54.2453C16.9889 54.1193 17.5528 53.8989 17.7841 53.7729L18.2179 53.5368C17.495 52.8597 17.1769 52.529 17.0323 52.3558C16.8877 52.1826 16.5986 51.6787 16.3962 51.2536C16.1938 50.8127 15.9335 50.1514 15.8323 49.7578C15.7167 49.3641 15.5576 48.4036 15.4709 47.6321C15.3552 46.7503 15.3263 45.4277 15.3841 44.1207C15.442 42.8926 15.5576 41.8691 15.6733 41.6014C15.7889 41.3652 15.9769 41.129 16.107 41.0503C16.2371 40.9873 16.4974 40.9401 16.6709 40.9401C16.8444 40.9401 17.148 41.0975 17.3215 41.2865C17.6395 41.6329 17.654 41.6959 17.5673 43.9318C17.5094 45.3332 17.5383 46.7031 17.6395 47.4746C17.7263 48.1674 17.8853 49.0492 18.001 49.4428C18.1166 49.8365 18.4347 50.4348 18.695 50.7812C18.9697 51.1276 19.4757 51.537 19.8227 51.7102C20.1841 51.8677 21.0227 52.0409 21.7311 52.1039L23.0034 52.1984L22.9889 39.0506C23.5528 38.4365 23.8708 38.2633 24.0732 38.2633C24.2757 38.2633 24.6082 38.4365 24.7961 38.6569C25.1576 39.0506 25.1576 39.0506 25.1576 42.1525V45.2702C27.0082 43.2705 27.6732 42.6721 27.8323 42.6721C27.9913 42.6721 28.3094 42.7981 28.5262 42.987C28.8443 43.239 28.9166 43.4279 28.9166 43.8846C28.9166 44.4357 28.772 44.6404 27.0371 46.5299L25.172 48.5768L25.1576 52.1984C27.1238 52.0409 27.9479 51.8834 28.266 51.726C28.5841 51.5843 29.0033 51.3166 29.1913 51.1276C29.3793 50.9387 29.6829 50.4663 29.8564 50.0727C30.0443 49.679 30.2612 49.002 30.3479 48.5768C30.4347 48.1359 30.5359 47.1439 30.5937 46.3724C30.6515 45.5536 30.6226 44.2152 30.5214 43.2232C30.4347 42.2627 30.1889 40.6724 29.9865 39.6804C29.7841 38.6884 29.3937 37.1926 29.119 36.3738C28.8443 35.555 28.2949 34.2009 27.9046 33.3821C27.5287 32.5633 26.8636 31.3981 26.4443 30.7998C26.0106 30.2172 25.3744 29.5244 25.013 29.2724C24.666 29.0205 24.2323 28.8158 24.0732 28.8158C23.9142 28.8158 23.4949 29.0047 23.1335 29.2567C22.7865 29.5086 22.2227 30.0597 21.9046 30.4849C21.5865 30.91 21.0227 31.8232 20.6468 32.5161C20.2564 33.2089 19.6925 34.5158 19.36 35.429C19.0419 36.3423 18.6227 37.2398 18.4347 37.4288C18.2323 37.6335 17.9721 37.7909 17.8275 37.7909C17.6829 37.8067 17.3938 37.665 17.1769 37.476C16.8733 37.2398 16.7721 37.0351 16.7721 36.61C16.7721 36.3108 16.9745 35.5078 17.2203 34.8307C17.4805 34.1694 17.842 33.2561 18.0444 32.831C18.3046 32.2641 18.3769 31.9177 18.3046 31.5713C18.2468 31.3036 17.8275 30.2487 17.3648 29.2094C16.8877 28.1702 16.1649 26.7531 15.7456 26.076C15.3118 25.3832 14.5745 24.3912 14.0974 23.8559C13.6203 23.3362 12.9408 22.7379 12.5793 22.549C12.2323 22.36 11.7408 22.2025 11.495 22.2025C11.2637 22.2025 10.7721 22.36 10.4107 22.549C10.0637 22.7536 9.39861 23.3205 8.93597 23.8086ZM64.6851 40.3103C64.4393 40.7826 64.0056 41.8061 63.7309 42.5934C63.4417 43.3649 63.0803 44.7191 62.9213 45.5851C62.7622 46.4511 62.5887 47.695 62.5309 48.3406C62.4875 49.002 62.5165 50.0884 62.6032 50.7812C62.6899 51.474 62.8779 52.2928 63.0225 52.592C63.1671 52.8912 63.4418 53.2691 63.6442 53.4265C63.8321 53.584 64.3815 53.7572 64.8875 53.8202L65.7839 53.9304L65.8562 44.5301C66.4201 44.0578 66.767 43.916 66.9839 43.9318C67.2008 43.9318 67.5044 44.0735 67.6634 44.2467C67.9237 44.5301 67.9526 44.7663 67.9526 46.3724C67.9526 47.4274 68.0249 48.2147 68.0972 48.2619C68.1839 48.3091 68.3285 48.2304 68.4297 48.1044C68.5309 47.9627 68.82 47.8525 69.0803 47.8683C69.4273 47.8683 69.6297 47.9942 69.8465 48.2934C70.0056 48.5453 70.1357 48.9075 70.1212 49.1279C70.1212 49.3956 69.7742 49.8995 69.0369 50.7025L67.967 51.8834L67.9526 53.8517C69.0225 53.8517 69.6152 53.71 69.9477 53.5368C70.4249 53.2848 70.6273 53.0486 70.8875 52.466C71.1477 51.852 71.22 51.3796 71.2634 49.679C71.2923 48.2147 71.2489 47.2227 71.0755 46.2149C70.9453 45.4276 70.6417 44.1522 70.3959 43.3807C70.1646 42.5934 69.6875 41.3967 69.355 40.7039C69.0369 40.0111 68.4297 39.0663 68.0393 38.6254C67.5574 38.0691 67.1959 37.7909 66.955 37.7909C66.7237 37.7909 66.3622 38.0586 65.8707 38.6097C65.4658 39.0663 64.9309 39.8379 64.6851 40.3103ZM33.4997 44.3254L32.8057 44.5774C32.7045 47.1912 32.5744 48.4351 32.4732 49.0492C32.3576 49.6475 32.2853 50.1986 32.3286 50.2616C32.3576 50.3403 32.7335 50.4978 33.1527 50.6238C33.572 50.7497 34.3961 50.8915 34.9889 50.9544C35.7551 51.0174 36.4057 50.9702 37.1575 50.797C37.7648 50.6553 38.6322 50.3403 39.0804 50.1042C39.5431 49.868 39.919 49.6318 39.919 49.5531C39.919 49.4901 39.8178 49.4428 39.6876 49.4428C39.572 49.4428 39.1382 49.3011 38.719 49.1437C38.2997 48.9705 37.6057 48.4981 37.1864 48.0729C36.7527 47.6636 36.2322 47.0022 36.0298 46.6086C35.813 46.2149 35.4804 45.3962 35.2636 44.7663C34.9021 43.6641 34.8877 43.6484 34.5407 43.8688C34.3527 43.979 33.8901 44.1837 33.4997 44.3254ZM48.5792 48.1832V60.4649H51.037V48.1832C50.2418 47.1439 49.9527 46.7975 49.9093 46.7346C49.8515 46.6716 49.5334 46.9707 49.2008 47.3959L48.5792 48.1832ZM43.9527 49.6003V60.4649H46.4105V49.4428C45.9045 49.4901 45.3406 49.5373 44.8491 49.5531L43.9527 49.6003ZM53.2057 60.4649H55.9526L55.8803 50.6553C54.6514 50.3403 54.0442 50.1357 53.755 50.0097L53.2057 49.7578V60.4649ZM58.1213 50.6238V60.4649H65.7839L65.7984 56.2923C64.2803 56.1506 63.4851 55.9301 63.0514 55.7254C62.6321 55.5207 62.0393 55.0641 61.7502 54.7177C61.461 54.3713 61.0707 53.6785 60.8972 53.1746C60.7237 52.6865 60.5357 51.8047 60.4779 51.2221C60.3912 50.4506 60.3044 50.1514 60.1454 50.1357C60.0297 50.1199 59.5237 50.2301 59.0321 50.3718L58.1213 50.6238ZM40.1937 52.1669C39.6732 52.4345 38.8635 52.7652 38.3864 52.9069L37.519 53.1746L37.4467 60.4649H41.784C41.784 53.2691 41.7696 51.1749 41.7406 51.1749C41.7262 51.1749 41.5816 51.3008 41.4226 51.4268C41.2635 51.5685 40.7141 51.8992 40.1937 52.1669ZM30.1455 53.395L30.0009 60.4649H35.278V53.3793C33.4274 53.1116 32.4877 52.8754 31.9816 52.6707L31.0708 52.3243L30.1455 53.395ZM19.4612 55.505L19.5191 60.4649H22.9889V54.4815C21.413 54.4815 20.8781 54.4343 20.7769 54.387C20.6757 54.3398 20.3287 54.576 20.0251 54.9066L19.4612 55.505ZM25.1576 54.4658V60.4492H27.9046C27.9046 54.5602 27.8901 54.324 27.6588 54.3398C27.5142 54.3713 26.8925 54.4028 26.2853 54.4185L25.1576 54.4658ZM14.1986 56.9379L12.5649 57.0638L12.5793 60.4492H17.3504C17.3504 57.0166 17.2926 56.5285 17.1624 56.5442C17.0612 56.5442 16.7287 56.6072 16.4106 56.6859C16.0926 56.7489 15.095 56.8591 14.1986 56.9379Z" fill="#E75C54"/>
</svg>
