<svg width="136" height="140" viewBox="0 0 136 140" fill="none" xmlns="http://www.w3.org/2000/svg">
<path d="M36.3156 38.9995C36.5862 38.9995 37.1791 39.1461 37.6302 39.3346C38.0683 39.5231 38.6354 39.8164 38.8803 40.0049C39.1251 40.1725 39.5633 40.5704 39.8468 40.8846C40.1304 41.1988 40.8779 42.1833 41.5222 43.0839C42.1666 43.9846 43.0043 44.9691 43.391 45.2623C43.9838 45.7231 44.2931 45.8069 45.2597 45.8069C46.2649 45.8069 46.5227 45.7231 47.1284 45.2414C47.515 44.9272 48.3012 44.0056 48.8682 43.1887C49.4353 42.3718 50.2472 41.3245 50.6725 40.8637C51.0978 40.4029 51.8195 39.8373 52.2835 39.586C52.7474 39.3556 53.5336 39.1252 54.0233 39.0623C54.7064 38.9785 55.1703 39.0623 55.9565 39.3975C56.5235 39.6698 57.271 40.1096 57.619 40.4238C57.967 40.738 58.8433 41.8272 59.5521 42.8326C60.2739 43.838 61.176 44.9272 61.5626 45.2414C62.1684 45.7231 62.4261 45.8069 63.4313 45.8069C64.3979 45.8069 64.7072 45.7231 65.3001 45.2623C65.6867 44.9691 66.5373 43.9846 67.1688 43.0839C67.8003 42.1833 68.6251 41.136 68.9731 40.7589C69.3339 40.3819 69.9912 39.8583 70.4552 39.6069C70.9191 39.3556 71.731 39.1042 72.2594 39.0414C73.0198 38.9785 73.4322 39.0623 74.1926 39.4184C74.721 39.6698 75.4169 40.1096 75.7391 40.3819C76.0613 40.6333 76.6155 41.2616 76.9763 41.7643C77.3501 42.267 78.0202 43.1677 78.4584 43.7961C78.9095 44.4245 79.541 45.1157 79.8632 45.3461C80.1854 45.5765 80.8169 45.8069 81.2808 45.8698C81.9123 45.9535 82.3376 45.8698 83.0207 45.5346C83.6908 45.1995 84.129 44.8225 84.6961 44.0265C85.1214 43.461 85.8431 42.4765 86.307 41.8481C86.771 41.2407 87.4025 40.5076 87.7247 40.2562C88.0469 39.9839 88.6913 39.6069 89.181 39.3975C89.6578 39.167 90.3667 38.9995 90.7533 38.9995C91.1399 38.9995 91.823 39.1461 92.274 39.3346C92.7122 39.5231 93.3051 39.8583 93.5886 40.0468C93.8721 40.2562 94.4005 40.7799 94.7614 41.2198C95.1351 41.6806 95.8568 42.6441 96.3723 43.3772C96.9007 44.1312 97.6224 44.9481 97.9704 45.2204C98.3313 45.4718 99.0143 45.786 99.5169 45.8907C100.252 46.0373 100.471 46.163 100.715 46.6238C100.87 46.917 100.999 47.3569 100.999 47.5873C100.999 47.8177 100.922 48.2576 100.819 48.5718C100.728 48.9069 100.548 49.2211 100.432 49.3049C100.316 49.4096 99.9165 49.4725 99.5556 49.4725C99.1819 49.4725 98.5246 49.3258 98.0993 49.1373C97.674 48.9697 97.0038 48.5299 96.6172 48.1947C96.2306 47.8596 95.3542 46.7914 94.684 45.8069C94.0139 44.8434 93.1375 43.7961 92.7509 43.461C92.1194 42.9373 91.9003 42.8745 90.8177 42.8745C89.7609 42.8745 89.4903 42.9583 88.8846 43.4191C88.4979 43.7123 87.686 44.6758 87.0803 45.5346C86.4746 46.3725 85.7013 47.3988 85.3405 47.7968C84.9925 48.1948 84.3739 48.6975 83.9872 48.9279C83.4073 49.2839 82.9691 49.3677 81.6675 49.3677C80.3658 49.3677 79.9276 49.2839 79.3477 48.9279C78.961 48.6975 78.3553 48.1948 77.9945 47.7968C77.6465 47.3988 76.8603 46.3934 76.2546 45.5137C75.6489 44.6549 74.837 43.7123 74.4503 43.4191C73.8446 42.9583 73.5611 42.8745 72.5172 42.8745C71.4346 42.8745 71.2155 42.9373 70.584 43.461C70.1974 43.7961 69.321 44.8434 68.6509 45.8279C67.9807 46.7914 67.0528 47.9015 66.5888 48.2995C66.1249 48.6765 65.4032 49.1164 64.9779 49.263C64.501 49.4306 63.7278 49.4934 62.9803 49.4306C62.1641 49.3607 61.5197 49.1722 61.0471 48.865C60.6605 48.6137 60.0548 48.111 59.6939 47.713C59.3459 47.315 58.5856 46.3306 58.0185 45.5137C57.4515 44.6758 56.6653 43.7542 56.2787 43.44C55.6601 42.9373 55.4152 42.8745 54.3455 42.8745C53.2758 42.8745 53.031 42.9373 52.4124 43.44C52.0257 43.7542 51.2396 44.6758 50.6725 45.5137C50.1055 46.3306 49.2935 47.3779 48.8682 47.8177C48.4429 48.2785 47.8114 48.8022 47.4506 49.0116C46.9737 49.2839 46.3938 49.3677 45.1952 49.3677C43.8549 49.3468 43.4683 49.263 42.8754 48.886C42.4888 48.6346 41.9089 48.1529 41.5867 47.8177C41.2645 47.4826 40.517 46.4981 39.9113 45.6184C39.3056 44.7387 38.5323 43.7961 38.1714 43.5029C37.7719 43.1677 37.1533 42.8954 36.5605 42.7907C35.7485 42.6441 35.5423 42.5184 35.3104 42.0576C35.1428 41.7643 35.0139 41.2198 35.0011 40.8637C34.9882 40.3819 35.0913 40.0468 35.4006 39.6069C35.7099 39.1461 35.9419 38.9995 36.3156 38.9995ZM36.2383 56.1961C36.38 56.1752 36.8698 56.2799 37.3337 56.3846C37.7977 56.5103 38.571 56.9292 39.0736 57.3272C39.5762 57.7252 40.4654 58.7306 41.0583 59.5684C41.6511 60.4062 42.3471 61.3488 42.6048 61.663C42.8626 61.9772 43.3652 62.3961 43.7132 62.6056C44.1127 62.815 44.7313 62.9616 45.3241 62.9616C46.136 62.9616 46.4325 62.8569 47.1284 62.3123C47.5924 61.9562 48.3398 61.1184 48.8038 60.4481C49.2678 59.7569 49.8735 58.9191 50.157 58.542C50.4405 58.186 51.0463 57.5995 51.5102 57.2434C51.9999 56.8664 52.7732 56.5103 53.366 56.3637C54.1006 56.1961 54.629 56.1752 55.2992 56.3427C56.0209 56.5312 56.2787 56.6988 56.4978 57.1177C56.6653 57.411 56.7942 57.9137 56.7942 58.2698C56.7942 58.6258 56.6653 59.1285 56.4978 59.4427C56.2271 59.9664 56.1627 59.9873 54.6033 60.0292C53.2243 60.0502 52.915 60.1339 52.4124 60.5319C52.0902 60.7833 51.2267 61.8515 50.4792 62.8779C49.693 63.988 48.7522 65.0772 48.2238 65.4961C47.7341 65.8941 46.9737 66.3339 46.5484 66.4596C46.1232 66.5853 45.3112 66.6481 44.7442 66.5853C44.1771 66.5225 43.391 66.313 43.0043 66.0826C42.6177 65.8522 41.9733 65.3285 41.5867 64.9096C41.2 64.4907 40.4139 63.4853 39.8468 62.6684C39.2798 61.8515 38.5452 60.9508 38.1972 60.6576C37.8621 60.3853 37.2049 60.0711 36.7151 59.9664C36.2383 59.8826 35.7228 59.6941 35.5552 59.5475C35.4006 59.4218 35.2073 59.1285 35.1428 58.8981C35.0655 58.6677 35.0139 58.2698 35.0139 58.0184C35.0139 57.7461 35.1042 57.3272 35.2202 57.0549C35.3361 56.7826 35.5552 56.4893 35.7099 56.3846C35.8516 56.2799 36.0965 56.1961 36.2383 56.1961ZM72.9038 56.2799C73.4322 56.3218 74.2441 56.5522 74.7081 56.7826C75.1721 57.013 75.8938 57.5995 76.3191 58.0812C76.7444 58.563 77.5563 59.6312 78.1233 60.4272C78.6904 61.2441 79.4765 62.1447 79.8632 62.438C80.4431 62.8569 80.7653 62.9616 81.6675 62.9616C82.5696 62.9616 82.8918 62.8569 83.4717 62.438C83.8584 62.1447 84.6059 61.3069 85.1214 60.5529C85.6498 59.8197 86.4617 58.7515 86.9256 58.2069C87.4025 57.6623 88.1371 57.0339 88.5624 56.8035C88.9877 56.5941 89.6836 56.3637 90.1089 56.2799C90.5471 56.1961 91.3075 56.238 91.8487 56.3637C92.4416 56.5103 93.1633 56.8664 93.7175 57.3062C94.2716 57.767 95.1351 58.7515 95.9728 59.9454C96.7203 60.9927 97.558 62.04 97.8415 62.2495C98.1251 62.4799 98.7308 62.7731 99.1947 62.8779C99.6587 63.0035 100.161 63.1502 100.329 63.213C100.484 63.2549 100.703 63.5691 100.806 63.9252C100.909 64.2812 100.999 64.742 100.999 64.9725C100.999 65.2029 100.806 65.6846 100.574 66.0616C100.174 66.711 100.148 66.7319 99.2592 66.6062C98.7566 66.5434 98.0349 66.292 97.6482 66.0826C97.2616 65.8522 96.6172 65.3285 96.2306 64.9096C95.8439 64.4907 95.0578 63.4853 94.4907 62.6684C93.9237 61.8515 93.1633 60.9299 92.8153 60.6157C92.2354 60.113 92.0421 60.0502 90.8177 60.0502C89.5934 60.0502 89.4001 60.113 88.7557 60.6366C88.3691 60.9508 87.5185 61.9562 86.887 62.8988C86.2555 63.8204 85.3791 64.9096 84.9538 65.2866C84.5285 65.6846 83.781 66.1454 83.2784 66.3549C82.6469 66.5853 82.0541 66.6691 81.2808 66.5853C80.6751 66.5225 79.889 66.3339 79.541 66.1664C79.1801 65.9779 78.4584 65.3495 77.93 64.763C77.4016 64.1765 76.4995 63.0454 75.9324 62.2285C75.2494 61.265 74.6565 60.6157 74.1926 60.3225C73.6126 59.9873 73.2647 59.9245 72.3239 59.9873C71.396 60.0711 71.0351 60.1758 70.5196 60.6157C70.1587 60.9299 69.4112 61.8515 68.8442 62.6684C68.2771 63.4853 67.491 64.4907 67.1043 64.9096C66.7177 65.3285 66.0733 65.8731 65.6867 66.1035C65.1196 66.4387 64.6686 66.5225 63.4313 66.5225C62.1684 66.5225 61.7559 66.4387 61.176 66.0616C60.7894 65.8312 60.1192 65.2448 59.6939 64.7839C59.2686 64.3231 58.5856 63.4434 58.1861 62.836C57.5159 61.8306 57.4386 61.642 57.4386 60.888C57.4386 60.3015 57.5288 59.9035 57.735 59.5684C57.9283 59.2333 58.1603 59.1076 58.4954 59.1076C58.9078 59.1076 59.114 59.2961 59.8486 60.3853C60.3383 61.0975 61.0987 61.9562 61.5626 62.3123C62.2586 62.8569 62.555 62.9616 63.3669 62.9616C63.9597 62.9616 64.5784 62.815 64.9779 62.6056C65.3258 62.3961 65.8285 61.9772 66.0862 61.663C66.344 61.3488 67.0399 60.4062 67.6327 59.5684C68.2256 58.7306 69.1148 57.7252 69.6174 57.3272C70.1201 56.9292 70.8418 56.5103 71.2284 56.4056C71.615 56.2799 72.3754 56.238 72.9038 56.2799ZM36.728 73.4137C37.2435 73.4765 37.9781 73.7069 38.3648 73.9164C38.7514 74.1468 39.3958 74.6704 39.7824 75.0893C40.169 75.5083 40.9552 76.5137 41.5222 77.3515C42.0893 78.1684 42.8754 79.09 43.2621 79.3833C43.8163 79.8231 44.2158 79.9488 45.0664 80.0116C45.9298 80.0745 46.3165 79.9907 46.8706 79.6556C47.3346 79.3833 47.9274 78.7339 48.6105 77.7704C49.1775 76.9535 50.0797 75.8225 50.6081 75.236C51.1365 74.6495 51.8711 74.0211 52.219 73.8326C52.5799 73.665 53.3532 73.4765 53.9589 73.4137C54.7321 73.3299 55.3121 73.4137 55.9565 73.665C56.4591 73.8535 57.1808 74.2725 57.5674 74.6285C57.9541 74.9637 58.8304 76.0319 59.5006 77.0164C60.1708 78.0008 61.0471 79.0481 61.4338 79.3623C62.0781 79.886 62.2715 79.9488 63.4958 79.9488C64.733 79.9488 64.9005 79.9069 65.4934 79.3623C65.8542 79.0481 66.6017 78.1265 67.1688 77.3096C67.7358 76.4927 68.522 75.4873 68.9086 75.0684C69.2953 74.6704 69.9396 74.1468 70.3263 73.9164C70.7129 73.686 71.4991 73.4765 72.0661 73.4137C72.6332 73.3508 73.4451 73.4137 73.8704 73.5393C74.2957 73.665 75.0432 74.1049 75.5458 74.5029C76.0742 74.9218 77.015 76.011 77.8011 77.1211C78.5486 78.1475 79.4121 79.2157 79.7343 79.467C80.2498 79.886 80.5076 79.9488 82.0283 79.9488C83.7166 79.9488 83.7553 79.9697 84.0001 80.4725C84.1419 80.7657 84.2579 81.2475 84.245 81.5826C84.245 81.8968 84.1935 82.3366 84.1161 82.567C84.0388 82.7975 83.7939 83.1116 83.5748 83.2792C83.3429 83.4468 82.7758 83.6353 82.3118 83.7191C81.8479 83.8029 81.0746 83.761 80.572 83.6143C80.0694 83.4887 79.2961 83.0907 78.8322 82.7556C78.3682 82.3995 77.7625 81.813 77.479 81.4569C77.1954 81.0799 76.5897 80.2421 76.1257 79.5718C75.6618 78.9015 75.0045 78.1056 74.6437 77.8123C74.2957 77.5191 73.6513 77.2049 73.226 77.0792C72.7234 76.9745 72.2079 76.9745 71.7439 77.1211C71.3573 77.2468 70.8031 77.5191 70.5196 77.7495C70.2361 77.9589 69.3984 79.0062 68.6509 80.0535C67.8132 81.2475 66.9497 82.2319 66.3955 82.6927C65.88 83.0907 65.1068 83.4887 64.5912 83.6353C64.0886 83.761 63.3154 83.7819 62.8514 83.7191C62.3874 83.6353 61.6657 83.4049 61.2404 83.1745C60.8151 82.965 60.0805 82.3576 59.6037 81.792C59.1397 81.2475 58.3278 80.1792 57.7994 79.4461C57.2839 78.692 56.5364 77.8542 56.1498 77.561C55.5698 77.142 55.2348 77.0373 54.3455 77.0373C53.4563 77.0373 53.1212 77.142 52.5412 77.561C52.1546 77.8542 51.3685 78.7549 50.8014 79.5718C50.2343 80.3677 49.4224 81.436 48.9971 81.9177C48.5718 82.3995 47.8759 82.965 47.4506 83.1954C47.0253 83.4049 46.3294 83.6353 45.9041 83.7191C45.4659 83.8029 44.7055 83.761 44.1642 83.6353C43.5585 83.4887 42.8626 83.1326 42.2955 82.6718C41.7542 82.2529 40.8521 81.2056 40.0402 80.0535C39.2927 79.0062 38.455 77.9589 38.1714 77.7495C37.8879 77.5191 37.2822 77.2258 36.8182 77.1211C36.3543 76.9954 35.8516 76.8488 35.697 76.786C35.5295 76.7441 35.3104 76.4089 35.2073 76.0738C35.1042 75.7387 35.0139 75.2569 35.0268 75.0056C35.0268 74.7752 35.2073 74.2934 35.4264 73.9373C35.8001 73.3089 35.8388 73.288 36.728 73.4137ZM91.0755 73.4346C91.9132 73.4765 92.5447 73.6441 93.0731 73.9583C93.4984 74.2096 94.1299 74.7333 94.4907 75.1103C94.8387 75.5083 95.5991 76.4927 96.1661 77.3306C96.7332 78.1475 97.4807 79.0691 97.8415 79.3623C98.2411 79.6975 98.8468 79.9488 99.4525 80.0535C100.252 80.2002 100.471 80.3258 100.703 80.7657C100.87 81.0589 100.999 81.5616 100.999 81.8968C101.012 82.211 100.896 82.7137 100.741 83.0488C100.587 83.3839 100.316 83.6562 100.058 83.74C99.8391 83.8029 99.2463 83.74 98.7437 83.6143C98.2153 83.4887 97.4678 83.0907 96.9394 82.6718C96.4368 82.2738 95.5475 81.2684 94.9547 80.4306C94.3619 79.5927 93.6659 78.6502 93.4082 78.336C93.1504 78.0218 92.6478 77.6029 92.2998 77.3934C91.8874 77.163 91.2946 77.0373 90.6889 77.0583C89.9671 77.0583 89.5418 77.1839 89.0135 77.561C88.6268 77.8333 87.9309 78.5664 87.4669 79.1738C86.7968 80.0535 86.539 80.2839 86.1782 80.263C85.8946 80.263 85.624 80.0745 85.4307 79.7812C85.2245 79.467 85.1471 79.09 85.1471 78.5454C85.1471 77.8752 85.2374 77.6029 85.7529 76.8069C86.1008 76.3042 86.6035 75.613 86.887 75.2988C87.1705 74.9846 87.686 74.5238 88.0469 74.2515C88.3948 74.0002 88.949 73.686 89.2712 73.5812C89.5934 73.4556 90.4053 73.3927 91.0755 73.4346ZM36.4316 90.5475C36.8182 90.5265 37.4884 90.6731 37.9137 90.8616C38.339 91.0292 39.0091 91.4691 39.3958 91.8042C39.7824 92.1393 40.7103 93.2914 41.4578 94.3387C42.2053 95.386 42.8883 96.4752 42.9914 96.7893C43.1461 97.2502 43.1461 97.4387 42.9914 98.0461C42.8883 98.465 42.6435 98.9049 42.4244 99.0724C42.1151 99.3238 41.9604 99.3447 41.6511 99.1353C41.432 99.0096 40.7361 98.1508 40.1046 97.2292C39.4602 96.3076 38.5967 95.2603 38.1714 94.9252C37.6946 94.5272 37.0631 94.2339 36.496 94.1083C35.7614 93.9616 35.5423 93.836 35.2975 93.3752C35.1428 93.0819 35.0139 92.642 35.0139 92.4116C35.0139 92.1812 35.1042 91.7204 35.2073 91.3853C35.3104 91.0502 35.4779 90.736 35.5681 90.6731C35.6454 90.6103 36.045 90.5475 36.4316 90.5475ZM54.5388 90.6103C55.557 90.6522 56.1627 90.7779 56.6653 91.0711C57.0519 91.3015 57.6577 91.8042 58.0185 92.2022C58.3665 92.6002 59.1526 93.6265 59.7584 94.4643C60.3641 95.3231 61.176 96.2866 61.5626 96.5799C62.1684 97.0407 62.439 97.1245 63.4958 97.1245C64.5784 97.1245 64.7974 97.0616 65.4289 96.538C65.8156 96.2029 66.6919 95.1556 67.3621 94.1711C68.0323 93.2076 68.9602 92.0975 69.4241 91.6995C69.8881 91.3225 70.6098 90.8826 71.0351 90.736C71.5119 90.5684 72.2852 90.5056 73.0327 90.5684C73.8489 90.6382 74.4933 90.8267 74.9658 91.1339C75.3525 91.3853 75.9582 91.888 76.3191 92.286C76.667 92.6839 77.4274 93.6684 77.9945 94.4853C78.5615 95.3231 79.3477 96.2447 79.7343 96.5589C80.3529 97.0616 80.5978 97.1245 81.6675 97.1245C82.7371 97.1245 82.982 97.0616 83.6006 96.5589C83.9872 96.2447 84.7734 95.3231 85.3405 94.4853C85.9075 93.6684 86.655 92.6839 87.0159 92.286C87.3638 91.888 87.9824 91.3853 88.3691 91.1339C88.8416 90.8267 89.486 90.6382 90.3022 90.5684C91.0497 90.5056 91.823 90.5684 92.2998 90.736C92.7251 90.8826 93.4468 91.3225 93.9108 91.6995C94.3747 92.0975 95.3027 93.2076 95.9728 94.1711C96.643 95.1556 97.4807 96.1819 97.8415 96.4961C98.2411 96.8312 98.8468 97.0826 99.4525 97.2083C100.264 97.3549 100.471 97.4806 100.703 97.9414C100.87 98.2346 100.999 98.7583 100.999 99.1143C100.999 99.5333 100.87 99.9522 100.612 100.371C100.316 100.853 100.11 100.999 99.7103 100.999C99.4267 100.999 98.8339 100.853 98.3828 100.664C97.9446 100.476 97.3776 100.183 97.1327 99.9941C96.8878 99.8265 96.4497 99.4285 96.1661 99.1143C95.8826 98.8002 95.1222 97.8157 94.4907 96.915C93.8592 96.0143 93.0086 95.0299 92.622 94.7366C92.0292 94.2758 91.7328 94.192 90.7533 94.192C89.7609 94.192 89.4903 94.2758 88.8846 94.7576C88.4979 95.0718 87.7118 95.9934 87.1447 96.8103C86.5777 97.6272 85.7658 98.6745 85.3405 99.1353C84.9152 99.5961 84.1677 100.183 83.6651 100.434C83.0336 100.748 82.4278 100.895 81.6675 100.895C80.9071 100.895 80.3014 100.748 79.6699 100.434C79.1672 100.183 78.4198 99.5961 77.9945 99.1353C77.5692 98.6745 76.7572 97.6272 76.1902 96.8103C75.6231 95.9934 74.837 95.0718 74.4503 94.7576C73.8446 94.2758 73.574 94.192 72.5816 94.192C71.6022 94.192 71.3057 94.2758 70.7129 94.7366C70.3263 95.0299 69.5788 95.8677 69.0504 96.6218C68.5349 97.3549 67.8132 98.3184 67.4394 98.7792C67.0786 99.2191 66.5502 99.7427 66.2666 99.9522C65.9831 100.141 65.3903 100.476 64.9392 100.664C64.501 100.853 63.8051 100.999 63.3927 100.999C62.9803 100.999 62.207 100.769 61.6271 100.476C61.06 100.204 60.2481 99.5961 59.8228 99.1562C59.3975 98.6954 58.5856 97.6691 58.0185 96.8312C57.4515 96.0143 56.6653 95.0718 56.2787 94.7576C55.6601 94.2549 55.4281 94.192 54.3455 94.192C53.3918 94.192 52.9923 94.2968 52.5412 94.6319C52.219 94.8623 51.5875 95.5745 51.1365 96.2029C50.6983 96.8312 50.0281 97.7319 49.6544 98.2346C49.2935 98.7373 48.7394 99.3657 48.4172 99.617C48.095 99.8893 47.4248 100.308 46.9351 100.56C46.4453 100.79 45.7881 100.999 45.4788 100.999C45.0406 100.999 44.8602 100.874 44.5509 100.371C44.2931 99.9522 44.1642 99.5333 44.1642 99.1143C44.1642 98.7792 44.2158 98.3184 44.2802 98.1299C44.3318 97.9204 44.5509 97.6481 44.7571 97.5015C44.9633 97.3758 45.453 97.2083 45.8396 97.1454C46.2263 97.0616 46.832 96.7893 47.1928 96.538C47.5408 96.2657 48.327 95.3441 48.9327 94.4853C49.5384 93.6056 50.2859 92.6211 50.6081 92.265C50.9303 91.9089 51.3556 91.49 51.5747 91.3643C51.7937 91.2177 52.219 90.9873 52.5412 90.8197C52.915 90.6522 53.6238 90.5684 54.5388 90.6103Z" fill="#B2B8BD"/>
<rect x="1" y="0.999481" width="134" height="138" rx="39" stroke="#B7BFC8" stroke-width="2"/>
</svg>
