<svg width="58" height="59" viewBox="0 0 58 59" fill="none" xmlns="http://www.w3.org/2000/svg">
<g filter="url(#filter0_i_43_1243)">
<path fill-rule="evenodd" clip-rule="evenodd" d="M27.5043 0.390009C20.2487 -1.25914 12.8376 2.44118 9.79592 9.23164L1.3688 28.0448C-2.26516 36.1575 1.5983 45.6628 9.86163 48.9397L12.3319 49.9193C26.4612 53.2678 34.0925 39.1532 34.5285 31.7895V31.7576L31.807 33.5226L31.2573 31.7267L33.1021 29.1977L31.0863 22.6127L22.4243 28.5379L21.6913 26.1434L29.437 17.225L27.4213 10.6399C27.1171 9.6462 27.6737 8.59846 28.6674 8.29427C29.6612 7.99007 30.7089 8.54669 31.0131 9.54043L33.0289 16.1255L44.4396 19.1798L45.1726 21.5744L34.6781 21.5132L36.6939 28.0982L39.6382 29.1611L40.188 30.9571L36.8472 31.0197L37.1181 31.7895C40.3597 44.0801 37.6037 53.0164 34.0403 58.4179C42.7354 60.7662 51.8194 55.1964 53.4475 46.079L57.6571 22.5051C59.1229 14.2965 53.8795 6.38497 45.7484 4.53682L27.5043 0.390009ZM27.593 41.4066C28.8645 41.4066 29.8953 40.3758 29.8953 39.1043C29.8953 37.8328 28.8645 36.802 27.593 36.802C26.3215 36.802 25.2907 37.8328 25.2907 39.1043C25.2907 40.3758 26.3215 41.4066 27.593 41.4066ZM42.4972 34.7422C42.4972 35.3445 42.009 35.8328 41.4067 35.8328C40.8044 35.8328 40.3161 35.3445 40.3161 34.7422C40.3161 34.1399 40.8044 33.6517 41.4067 33.6517C42.009 33.6517 42.4972 34.1399 42.4972 34.7422ZM44.7993 50.3734C46.7401 50.3734 48.3133 48.8001 48.3133 46.8593C48.3133 44.9186 46.7401 43.3453 44.7993 43.3453C42.8586 43.3453 41.2853 44.9186 41.2853 46.8593C41.2853 48.8001 42.8586 50.3734 44.7993 50.3734Z" fill="url(#paint0_linear_43_1243)"/>
</g>
<defs>
<filter id="filter0_i_43_1243" x="0" y="0" width="57.9023" height="58.9553" filterUnits="userSpaceOnUse" color-interpolation-filters="sRGB">
<feFlood flood-opacity="0" result="BackgroundImageFix"/>
<feBlend mode="normal" in="SourceGraphic" in2="BackgroundImageFix" result="shape"/>
<feColorMatrix in="SourceAlpha" type="matrix" values="0 0 0 0 0 0 0 0 0 0 0 0 0 0 0 0 0 0 127 0" result="hardAlpha"/>
<feOffset dx="3.64286" dy="3.64286"/>
<feComposite in2="hardAlpha" operator="arithmetic" k2="-1" k3="1"/>
<feColorMatrix type="matrix" values="0 0 0 0 0.125 0 0 0 0 0.00104167 0 0 0 0 0.00104167 0 0 0 0.21 0"/>
<feBlend mode="normal" in2="shape" result="effect1_innerShadow_43_1243"/>
</filter>
<linearGradient id="paint0_linear_43_1243" x1="26.9042" y1="-0.0810529" x2="26.9042" y2="47.4873" gradientUnits="userSpaceOnUse">
<stop stop-color="#F88A4E"/>
<stop offset="1" stop-color="#CD4249"/>
</linearGradient>
</defs>
</svg>
