<svg width="57" height="57" viewBox="0 0 57 57" fill="none" xmlns="http://www.w3.org/2000/svg">
<circle cx="28.1633" cy="28.1633" r="28.1633" fill="url(#paint0_linear_342_982)"/>
<g clip-path="url(#clip0_342_982)">
<path d="M32.0921 30.4082H31.2054L30.8911 30.1051C31.9911 28.8255 32.6534 27.1643 32.6534 25.3571C32.6534 21.3276 29.387 18.0612 25.3574 18.0612C21.3278 18.0612 18.0615 21.3276 18.0615 25.3571C18.0615 29.3867 21.3278 32.6531 25.3574 32.6531C27.1646 32.6531 28.8258 31.9908 30.1054 30.8908L30.4085 31.2051V32.0918L36.0207 37.6929L37.6932 36.0204L32.0921 30.4082ZM25.3574 30.4082C22.5625 30.4082 20.3064 28.152 20.3064 25.3571C20.3064 22.5622 22.5625 20.3061 25.3574 20.3061C28.1523 20.3061 30.4085 22.5622 30.4085 25.3571C30.4085 28.152 28.1523 30.4082 25.3574 30.4082Z" fill="#E4ECF1"/>
</g>
<defs>
<linearGradient id="paint0_linear_342_982" x1="64" y1="-17" x2="-22.3393" y2="29.6917" gradientUnits="userSpaceOnUse">
<stop stop-color="#E6664C"/>
<stop offset="1" stop-color="#8C2009"/>
</linearGradient>
<clipPath id="clip0_342_982">
<rect width="26.9388" height="26.9388" fill="white" transform="translate(14.6943 14.6939)"/>
</clipPath>
</defs>
</svg>
