<svg width="33" height="33" viewBox="0 0 33 33" fill="none" xmlns="http://www.w3.org/2000/svg">
<path d="M6.28057 3.99075H5.76363L6.08459 4.39598L16.2652 17.2493L16.4608 17.4962L16.6569 17.2497L26.8783 4.39636L27.2009 3.99075H26.6826H6.28057ZM12.4012 18.5222C12.5986 18.3688 12.5986 18.3688 12.5985 18.3687L12.5982 18.3684L12.5972 18.367L12.5931 18.3617L12.5766 18.3406L12.5121 18.2575L12.2635 17.9377L11.3451 16.7561C10.5673 15.7554 9.48724 14.3661 8.2784 12.8117C5.86089 9.70313 2.92819 5.93397 0.867482 3.29178C-0.0450736 2.11014 0.795544 0.410339 2.28176 0.410339H30.6611C32.1473 0.410339 32.9879 2.11018 32.0753 3.29182C30.0145 5.93413 27.0869 9.70334 24.6745 12.8119C23.4682 14.3663 22.3907 15.7556 21.6147 16.7563L20.6986 17.9379L20.4507 18.2578L20.3863 18.3408L20.3699 18.3619L20.3658 18.3673L20.3648 18.3686L20.3645 18.369C20.3644 18.369 20.3644 18.3691 20.562 18.5222L20.3644 18.3691L20.312 18.4367V18.5222V30.7635C20.312 31.7475 19.5059 32.5537 18.5218 32.5537H14.4414C13.4574 32.5537 12.6512 31.7475 12.6512 30.7635V18.5222V18.4365L12.5986 18.3688L12.4012 18.5222Z" fill="#B4BBC1" stroke="#0E151B" stroke-width="0.5"/>
</svg>
