<svg width="138" height="142" viewBox="0 0 138 142" fill="none" xmlns="http://www.w3.org/2000/svg">
<path fill-rule="evenodd" clip-rule="evenodd" d="M86.9003 39.0006C87.2435 38.9874 87.9167 39.0928 88.4051 39.2378C88.9067 39.3695 89.6326 39.6462 90.0286 39.8439C90.4246 40.0415 91.1242 40.5685 91.5861 41.0165C92.1537 41.5699 92.5497 42.1101 92.8533 42.7426C93.1041 43.2564 93.3681 43.9811 93.4473 44.3632C93.5265 44.7322 93.5925 45.3514 93.5925 45.7072C93.5925 46.0761 93.5265 46.6822 93.4473 47.0643C93.3681 47.4332 93.1305 48.1184 92.9193 48.5664C92.7081 49.0407 92.2065 49.7522 91.7577 50.2134C91.2958 50.7141 90.649 51.2279 90.1474 51.4914C89.6854 51.7418 88.999 52.0185 88.6427 52.1239C88.2731 52.2161 87.5075 52.2952 86.9267 52.2952C86.3328 52.2952 85.554 52.2029 85.1448 52.0844C84.7488 51.9658 84.1152 51.7154 83.7589 51.531C83.3893 51.3597 82.7029 50.8063 82.2277 50.332C81.6865 49.7786 81.2246 49.1725 80.987 48.6718C80.789 48.237 80.5382 47.4991 80.4458 47.0248C80.3402 46.5504 80.261 45.9575 80.261 45.7072C80.261 45.4568 80.3402 44.8639 80.4458 44.3896C80.5382 43.9152 80.789 43.1774 80.987 42.7426C81.2246 42.2419 81.6733 41.6358 82.2277 41.0824C82.7029 40.6081 83.3629 40.0678 83.6929 39.9097C84.0228 39.7384 84.7356 39.4618 85.2768 39.3036C85.818 39.1324 86.5439 39.0006 86.8871 39.0006H86.9003ZM84.7884 41.728C84.4848 41.8861 84.0096 42.2419 83.7325 42.5054C83.4553 42.7821 83.1121 43.2696 82.9405 43.599C82.7821 43.9284 82.5841 44.5477 82.4917 44.9825C82.3597 45.6545 82.3729 45.918 82.5709 46.6954C82.6897 47.1961 82.9669 47.8812 83.1649 48.2106C83.3761 48.54 83.7457 48.9616 83.9964 49.1461C84.234 49.3306 84.696 49.6336 85.026 49.8049C85.5408 50.0816 85.8048 50.1211 86.9399 50.1211C88.0355 50.1211 88.3655 50.0684 88.8539 49.8313C89.1838 49.6732 89.7118 49.3174 90.0286 49.0407C90.3718 48.7377 90.7678 48.2106 91.0186 47.6836C91.375 46.9325 91.4278 46.6954 91.4278 45.7072C91.4278 44.719 91.375 44.4818 91.0186 43.7308C90.7678 43.2037 90.3718 42.6767 90.0286 42.3736C89.7118 42.097 89.1838 41.7412 88.8539 41.5831C88.4183 41.3854 87.9695 41.2932 87.1379 41.2669C86.5175 41.2537 85.8708 41.28 85.686 41.3459C85.5012 41.3986 85.092 41.5831 84.7884 41.728V41.728ZM58.3631 78.5286C58.5479 78.5154 58.8118 78.6208 58.9702 78.7526C59.1286 78.8712 59.947 79.8594 60.805 80.953C61.6629 82.0334 62.4021 83.0611 62.4681 83.2192C62.5473 83.4301 62.5209 83.6672 62.3889 83.9835C62.2569 84.2997 62.0853 84.471 61.8213 84.5237C61.6233 84.5632 61.333 84.5632 61.1614 84.5237C61.003 84.4841 60.5542 84.023 59.485 82.5868L59.419 85.8281L61.3989 87.8045C63.0621 89.4647 63.3789 89.8468 63.3789 90.1762C63.3789 90.4397 63.2601 90.69 63.0357 90.9009C62.8377 91.0985 62.5473 91.2303 62.3097 91.2303C62.0061 91.2303 61.6893 90.9799 59.419 88.7268V93.9972L60.607 94.2212C61.267 94.353 62.4681 94.6692 63.2733 94.9327C64.0916 95.1962 65.3324 95.6442 66.0188 95.9341C66.7051 96.224 68.0119 96.8432 68.9226 97.3176C69.8334 97.7787 71.1666 98.3848 71.8925 98.6747C72.6185 98.9514 73.8988 99.3598 74.7304 99.5838C75.562 99.7947 76.9347 100.071 77.7663 100.203C78.7431 100.361 80.0762 100.44 81.5281 100.44C82.7557 100.453 84.234 100.414 85.818 100.256V96.5007C85.818 94.432 85.7784 92.7455 85.7124 92.7455C85.6596 92.7455 84.9336 93.4306 84.102 94.2476C83.2705 95.0776 82.4257 95.8155 82.2145 95.8946C81.9769 96 81.7525 96 81.5281 95.9077C81.3434 95.8287 81.1058 95.6442 80.987 95.4729C80.855 95.2753 80.8154 95.0513 80.8682 94.7878C80.9342 94.5111 81.7129 93.6151 85.6992 89.5174L85.686 87.7386C85.686 86.7372 85.6464 86.0126 85.5804 86.0916C85.5144 86.1707 84.9732 86.8295 84.3924 87.5673C83.7985 88.3184 83.1913 88.9508 83.0461 88.9903C82.9009 89.0299 82.6501 89.0167 82.4785 88.9772C82.3201 88.9245 82.0825 88.7927 81.9505 88.6741C81.8053 88.5423 81.7129 88.2788 81.7261 88.0021C81.7261 87.6069 82.0429 87.1457 83.9041 84.8004C85.1316 83.2588 86.2272 82.0202 86.412 81.9412C86.6319 81.8533 86.8519 81.8533 87.0719 81.9412C87.2567 82.0202 88.3523 83.2588 89.5798 84.8004C91.2958 86.9612 91.7577 87.62 91.7577 87.9363C91.7577 88.1471 91.6785 88.4501 91.5861 88.5951C91.4805 88.74 91.243 88.8981 91.0582 88.9508C90.8602 89.0167 90.5698 89.0035 90.3982 88.9376C90.2398 88.8849 89.6062 88.1998 87.8639 86.0257L87.7979 89.5174L90.3058 92.0208C92.6025 94.3134 92.8137 94.5638 92.8137 94.9854C92.8137 95.2885 92.7081 95.552 92.5101 95.7496C92.3121 95.9473 92.0745 96.0395 91.7577 96.0395C91.3486 96.0263 91.111 95.855 87.9299 92.6796V99.8605L88.3523 99.7815C88.5899 99.7288 89.5006 99.4521 90.3718 99.1754C91.243 98.8855 92.6025 98.3453 93.4077 97.9632C94.1996 97.5811 95.3876 96.9618 96.0476 96.5665C96.6943 96.1713 97.7107 95.4993 98.2915 95.0645C98.8723 94.6297 99.7434 93.905 100.232 93.4438C100.879 92.8509 101.235 92.6137 101.486 92.6137C101.71 92.6006 102.001 92.7455 102.238 92.9695C102.555 93.2857 102.595 93.4043 102.529 93.8655C102.489 94.1553 102.317 94.5374 102.159 94.6955C101.987 94.8668 101.354 95.407 100.733 95.8946C100.113 96.3952 99.0702 97.1463 98.4235 97.5811C97.7635 98.0159 96.6943 98.6747 96.0476 99.0304C95.3876 99.3862 94.292 99.9396 93.6057 100.256C92.9193 100.559 91.5729 101.073 90.6358 101.376C89.6854 101.692 88.3259 102.061 87.5999 102.219C86.8739 102.364 85.7388 102.548 85.092 102.641C84.432 102.72 82.8877 102.786 81.6601 102.786C80.2478 102.786 78.8223 102.707 77.8323 102.575C76.9611 102.443 75.7468 102.232 75.1264 102.087C74.506 101.942 73.5821 101.705 73.0805 101.547C72.5657 101.389 71.5361 101.02 70.7706 100.717C70.005 100.401 68.3419 99.6234 67.0747 98.9777C65.57 98.2135 64.118 97.5943 62.9169 97.199C61.9005 96.8564 60.4354 96.4611 59.6434 96.3162C58.8646 96.1581 57.5051 95.9736 56.6075 95.8946C55.7232 95.8155 54.3768 95.7891 53.6113 95.8419C52.8457 95.8946 51.6313 96.0131 50.9054 96.1185C50.1794 96.224 49.0178 96.4611 48.3315 96.6324C47.6451 96.8037 46.3911 97.1858 45.5596 97.4757C44.728 97.7524 43.4213 98.2794 42.6557 98.6352C41.8901 98.9909 40.6758 99.6234 39.9498 100.019C39.2238 100.427 38.1547 101.033 37.5739 101.363C36.8611 101.771 36.3727 101.969 36.056 101.969C35.7656 101.969 35.4884 101.863 35.2904 101.666C35.1188 101.508 35 101.218 35 101.007C35 100.809 35.0528 100.533 35.132 100.388C35.198 100.243 35.6336 99.9264 36.0824 99.6892C36.5443 99.4521 37.8379 98.7142 38.9598 98.0686C40.0818 97.423 41.6525 96.6061 42.4577 96.2503C43.2497 95.8946 44.5036 95.407 45.2296 95.1567C45.9556 94.9064 47.1435 94.5638 47.8695 94.3793C48.5955 94.208 49.955 93.9709 50.9054 93.8523C52.1065 93.7073 53.3341 93.6546 57.3071 93.7337V91.3225C57.3071 89.5964 57.2675 88.9245 57.1487 88.9245C57.0695 88.9245 56.5811 89.3724 56.0664 89.9258C55.5516 90.4792 54.9312 91.0063 54.6936 91.1117C54.3372 91.2698 54.2184 91.2698 53.9016 91.1117C53.7037 91.0194 53.4661 90.7823 53.3737 90.5846C53.2417 90.3079 53.2549 90.163 53.4001 89.8072C53.5057 89.5833 54.4164 88.5555 57.3071 85.6963V84.2733C57.3071 83.4959 57.2675 82.8371 57.2015 82.7976C57.1487 82.7713 56.8451 83.1007 56.5151 83.5355C56.1852 83.9835 55.8156 84.3919 55.6836 84.4578C55.5648 84.5237 55.3272 84.5764 55.1556 84.5764C54.9972 84.5895 54.7068 84.471 54.4956 84.3129C54.2316 84.1152 54.1392 83.9439 54.1392 83.5882C54.1392 83.1929 54.39 82.7976 55.8552 80.953C56.8055 79.754 57.6767 78.7262 57.8087 78.6472C57.9275 78.5813 58.1783 78.5286 58.3631 78.5286V78.5286ZM55.6572 100.085C56.6735 100.111 58.1915 100.229 59.023 100.335C59.8546 100.44 60.9502 100.612 61.4649 100.717C62.1117 100.849 62.4549 100.994 62.6265 101.204C62.7585 101.376 62.8641 101.613 62.8509 101.732C62.8509 101.863 62.7717 102.127 62.6661 102.324C62.5737 102.535 62.3493 102.772 62.1777 102.878C61.9005 103.036 61.7157 103.023 60.871 102.838C60.3298 102.733 59.4058 102.575 58.8251 102.496C58.2443 102.417 56.8451 102.311 55.7232 102.272C54.5484 102.232 52.9513 102.259 51.9613 102.351C51.011 102.43 49.7702 102.588 49.1894 102.707C48.6087 102.812 47.9487 102.944 47.7375 102.983C47.4207 103.036 47.2623 102.97 46.9059 102.641C46.6815 102.417 46.4835 102.1 46.4835 101.929C46.4835 101.771 46.5759 101.508 46.6815 101.336C46.7871 101.178 46.9851 100.994 47.1039 100.928C47.2359 100.862 48.0807 100.677 48.9914 100.533C49.9022 100.374 51.3541 100.203 52.2253 100.137C53.0965 100.071 54.6408 100.045 55.6572 100.085V100.085ZM56.4755 47.1565C56.6471 47.1565 56.8847 47.2092 57.0035 47.2751C57.1355 47.341 59.4718 50.7272 62.1909 54.7854C64.91 58.8436 67.1671 62.1772 67.2067 62.1772C67.2463 62.1772 68.8171 60.7805 70.7046 59.0545C72.6053 57.3284 74.374 55.7209 74.638 55.4838C74.968 55.2071 75.2716 55.0621 75.5488 55.0621C75.892 55.049 76.09 55.1675 76.4463 55.5496C76.6971 55.8263 78.4659 58.0794 83.8381 65.0759L84.1548 64.8387C84.3264 64.7201 85.9104 63.3894 87.6527 61.8741C89.4082 60.3721 90.979 59.094 91.1638 59.0149C91.4014 58.9227 91.5993 58.9359 91.8501 59.0413C92.0877 59.1599 93.7113 61.4657 97.1959 66.657C99.9414 70.7547 102.225 74.22 102.278 74.365C102.317 74.5099 102.304 74.7866 102.265 74.9842C102.212 75.2214 102.027 75.4322 101.75 75.564C101.407 75.7485 101.261 75.7616 100.931 75.6299C100.615 75.5113 99.6642 74.1673 91.2958 61.5184L88.2995 64.1272C86.6627 65.5502 85.3032 66.7492 85.3032 66.7888C85.3032 66.8283 86.3592 68.2513 87.6659 69.951C89.6854 72.5994 90.0286 73.1133 90.0418 73.5085C90.0418 73.8116 89.9362 74.0751 89.7382 74.2727C89.5798 74.4309 89.3026 74.5626 89.1178 74.5626C88.9331 74.5626 88.6691 74.4836 88.5239 74.3913C88.3787 74.2859 85.4088 70.4912 81.9241 65.9455C78.4395 61.3998 75.562 57.6973 75.5224 57.6973C75.4828 57.6973 73.9384 59.094 72.0905 60.8069C70.2426 62.5198 68.7115 63.9691 68.6851 64.035C68.6719 64.1009 70.5198 66.8942 72.7901 70.2409C75.0736 73.6008 77.0007 76.4863 77.0931 76.6708C77.1855 76.8552 77.2251 77.1319 77.1855 77.29C77.1459 77.4613 76.9743 77.7117 76.8027 77.8566C76.6443 78.0147 76.3276 78.1201 76.0768 78.1201C75.7336 78.1201 75.5752 78.0147 75.2188 77.5536C74.968 77.2505 70.6914 70.9787 65.6888 63.6265C60.6994 56.2743 56.5679 50.2002 56.5283 50.1475C56.4887 50.0948 52.1461 56.2216 46.8795 63.7846C41.6129 71.3477 37.1779 77.659 37.0195 77.8171C36.8479 78.0016 36.5707 78.1201 36.3199 78.1201C36.0956 78.1201 35.8052 78.0016 35.66 77.8566C35.5016 77.6985 35.396 77.4086 35.396 77.1583C35.3828 76.8816 35.5544 76.4863 35.8712 76.012C36.1484 75.6167 40.7286 69.0287 46.0612 61.3866C51.3937 53.7445 55.8552 47.4069 55.974 47.3146C56.0796 47.2356 56.3171 47.1565 56.4755 47.1565V47.1565ZM56.5019 56.1162C56.6867 56.103 56.9771 56.2084 57.1223 56.3402C57.2807 56.472 57.8087 57.1571 58.2839 57.8554C58.7855 58.5933 59.155 59.2916 59.155 59.4761C59.155 59.6606 59.023 59.9504 58.8514 60.1217C58.6931 60.3062 58.4423 60.4643 58.2971 60.4775C58.1519 60.5038 57.8879 60.4775 57.7031 60.4248C57.5183 60.3852 57.1751 60.0558 56.9111 59.6737C56.6603 59.318 56.4227 59.0545 56.3831 59.094C56.3435 59.1335 54.9708 61.0704 53.3341 63.4025C51.6841 65.7347 50.2058 67.7111 50.0342 67.7902C49.823 67.8956 49.5986 67.9087 49.3874 67.8297C49.2026 67.777 48.9782 67.553 48.8858 67.3553C48.7803 67.1313 48.7407 66.8547 48.8066 66.657C48.8594 66.4725 50.3774 64.1931 52.1989 61.5843C54.0072 58.9754 55.644 56.6828 55.8288 56.472C56.0268 56.2743 56.3171 56.1162 56.5019 56.1162V56.1162ZM60.3958 65.0759C60.6598 65.0759 60.9106 65.1813 61.0822 65.3658C61.267 65.5634 61.5177 66.2486 61.7817 67.2499C62.0061 68.1195 62.2305 68.976 62.2965 69.1341C62.3493 69.3317 62.8905 69.7797 63.8013 70.3595C64.6724 70.9129 65.2928 71.4136 65.4116 71.6244C65.504 71.8352 65.7812 72.5599 66.0056 73.245C66.296 74.0883 66.4015 74.6021 66.3488 74.8261C66.296 75.0106 66.1244 75.2873 65.966 75.4586C65.8208 75.6167 65.5436 75.7616 65.3588 75.7616C65.174 75.7616 64.8704 75.643 64.6592 75.4849C64.3952 75.2873 64.2104 74.9184 63.4845 72.6521L62.1249 71.7957C61.3725 71.3213 60.6994 70.847 60.6334 70.7416C60.5674 70.6362 60.2374 69.5162 59.8942 68.2645C59.5642 67.0259 59.3266 65.9192 59.3662 65.8269C59.419 65.7479 59.5774 65.5371 59.7226 65.3658C59.8942 65.1945 60.145 65.0759 60.3958 65.0759V65.0759ZM44.2 76.539C44.5432 76.5258 44.7808 76.6181 44.9656 76.8157C45.2032 77.0661 45.2296 77.3164 45.322 81.3483L46.8267 83.1929C48.1335 84.8004 48.3183 85.1034 48.3315 85.525C48.3315 85.8544 48.2391 86.118 48.0675 86.2893C47.9091 86.4474 47.6319 86.5528 47.3679 86.5528C47.1435 86.5528 46.8531 86.4737 46.7343 86.3815C46.6287 86.2893 46.2724 85.8676 45.3616 84.6554L45.2956 86.7504L47.2755 88.7268C48.8462 90.3079 49.2554 90.7823 49.2554 91.059C49.2554 91.2961 49.1102 91.5728 48.8726 91.8232C48.6615 92.034 48.3711 92.2185 48.2391 92.2185C48.1071 92.2185 47.8167 92.0999 47.6055 91.9549C47.3811 91.8232 46.7871 91.2566 45.3616 89.7018L45.2956 90.914C45.2296 92.0076 45.2032 92.1394 44.86 92.4293C44.662 92.6006 44.3716 92.7455 44.2 92.7455C44.0416 92.7587 43.7513 92.6401 43.5401 92.482C43.1969 92.2316 43.1837 92.1789 43.1837 91.0326C43.1837 90.3738 43.1441 89.8468 43.0781 89.8468C43.0253 89.8468 42.4841 90.3475 41.8637 90.9536C41.1642 91.6519 40.5966 92.0999 40.3458 92.1526C40.0818 92.2053 39.8574 92.1657 39.6462 92.034C39.4878 91.9154 39.2898 91.6914 39.2106 91.5201C39.1314 91.362 39.105 91.0853 39.1578 90.9009C39.2106 90.7164 40.1346 89.6755 43.1837 86.6187V85.7227C43.1837 85.2352 43.1441 84.8135 43.0781 84.7872C43.0253 84.7477 42.6689 85.1298 42.2861 85.6436C41.6393 86.5001 41.5733 86.5528 41.0718 86.5528C40.7198 86.5528 40.4558 86.4649 40.2798 86.2893C40.1214 86.1311 40.0158 85.8544 40.0158 85.5646C40.0158 85.1693 40.2534 84.8004 43.1837 81.1506V79.1083C43.1837 77.2373 43.2101 77.0397 43.4477 76.8025C43.6193 76.6312 43.8964 76.539 44.2 76.539V76.539Z" fill="#ECEDEE"/>
<rect x="1" y="0.999481" width="135.556" height="140" rx="39" stroke="#B7BFC8" stroke-width="2"/>
</svg>
