<svg width="132" height="140" viewBox="0 0 132 140" fill="none" xmlns="http://www.w3.org/2000/svg">
<path fill-rule="evenodd" clip-rule="evenodd" d="M47.6785 38.9995C48.5746 38.9995 49.1922 39.0721 49.8582 39.2538C50.3789 39.3991 51.2387 39.7382 51.7715 40.0046C52.498 40.3678 53.0066 40.7674 53.7816 41.5303C54.6656 42.4143 54.9078 42.7413 55.3801 43.7221C55.6828 44.3518 55.9977 45.1874 56.252 46.2651H75.748L75.9055 45.5749C76.0023 45.1874 76.3172 44.3518 76.6199 43.7221C77.0922 42.7413 77.3223 42.4143 78.2184 41.5424C78.9813 40.7796 79.5262 40.3678 80.2285 40.0046C80.7613 39.726 81.6332 39.387 82.166 39.2417C82.941 39.0358 83.3891 38.9874 84.4063 39.0237C85.1328 39.06 85.9926 39.169 86.4043 39.2901C86.8039 39.3991 87.5668 39.726 88.0996 40.0046C88.8141 40.3678 89.3348 40.7674 90.1098 41.5303C90.9816 42.4022 91.2359 42.7534 91.7082 43.7221C92.0473 44.4124 92.35 45.2479 92.459 45.8049C92.568 46.362 92.6406 47.4034 92.6406 49.8979H96.1523L97 50.7456V75.3882C97 93.2979 96.9637 100.103 96.8668 100.309C96.7941 100.455 96.6125 100.673 96.4672 100.782C96.225 100.987 94.4449 100.999 66 100.999C37.5551 100.999 35.775 100.987 35.5328 100.782C35.3875 100.673 35.2059 100.455 35.1332 100.297C35.0363 100.103 35 93.31 35 75.4487C35 56.0374 35.0363 50.794 35.1453 50.5518C35.2301 50.3702 35.448 50.1522 35.6297 50.0674C35.8719 49.9464 36.4652 49.8979 39.3594 49.8979V48.3237C39.3594 47.4397 39.432 46.3378 39.541 45.8049C39.65 45.2237 39.9285 44.4487 40.2797 43.7221C40.752 42.7655 41.0184 42.4022 41.8902 41.5303C42.6652 40.7674 43.1859 40.3678 43.9004 40.0046C44.4332 39.726 45.1961 39.4112 45.5957 39.3022C45.9953 39.1932 46.3465 39.0842 46.3707 39.06C46.3949 39.0237 46.9883 38.9995 47.6785 38.9995V38.9995ZM45.1113 42.0874C44.6633 42.2932 44.0699 42.7413 43.5855 43.2257C43.0527 43.7585 42.6652 44.2872 42.423 44.812C42.2172 45.2479 41.9871 45.8897 41.9145 46.2288C41.8418 46.5799 41.7813 47.5366 41.7813 48.3479V49.8374C43.3313 49.9706 44.1063 50.1159 44.5059 50.2612C44.9055 50.3944 45.4746 50.6608 45.7773 50.8303C46.0801 51.012 46.6129 51.4237 46.9641 51.7628C47.3273 52.1018 47.7875 52.6467 47.9934 52.9858C48.2113 53.3128 48.5141 53.9424 48.6836 54.3784L48.9863 55.1655L49.0469 85.8628C50.0277 85.0151 50.7906 84.5428 51.3719 84.2522C52.1832 83.8526 52.4617 83.6589 52.5828 83.3803C52.6676 83.1745 52.9945 82.678 53.3094 82.2542L53.8906 81.5034C53.8906 52.0049 53.8543 46.6768 53.7574 46.2288C53.6848 45.8897 53.4547 45.2479 53.2488 44.812C53.0066 44.2872 52.6191 43.7585 52.0863 43.2257C51.5535 42.6928 51.0247 42.3053 50.5 42.0632C50.0641 41.8573 49.4223 41.6272 49.0711 41.5546C48.732 41.4819 48.1266 41.4214 47.7391 41.4335C47.3637 41.4335 46.7703 41.5061 46.4434 41.5909C46.1043 41.6635 45.5109 41.8936 45.1113 42.0874V42.0874ZM81.4395 42.0874C80.9914 42.2932 80.398 42.7413 79.9137 43.2257C79.3809 43.7585 78.9934 44.2872 78.7512 44.812C78.5453 45.2479 78.3152 45.8897 78.2426 46.2288C78.1457 46.6768 78.1094 52.0776 78.1094 64.4292V81.9878C78.8602 83.1624 79.0781 83.5257 79.0781 83.562C79.0781 83.5983 79.3082 83.6952 79.5867 83.78C79.8773 83.8768 80.4828 84.1432 80.943 84.3854C81.4152 84.6397 82.0449 85.0635 82.3719 85.3421L82.9531 85.8628L83.0137 55.1655C83.5223 53.8456 83.8855 53.1796 84.1277 52.8163C84.382 52.453 84.8664 51.9081 85.2055 51.6053C85.5566 51.3026 86.1016 50.903 86.4164 50.7214C86.7434 50.5397 87.4457 50.2854 87.9785 50.1401C88.5113 50.0069 89.2379 49.8979 89.577 49.8979H90.2188C90.2188 47.5487 90.1582 46.5799 90.0855 46.2288C90.0129 45.8897 89.7828 45.2479 89.577 44.812C89.3348 44.2872 88.9473 43.7585 88.4145 43.2257C87.8816 42.6928 87.3529 42.3053 86.8281 42.0632C86.3922 41.8573 85.7504 41.6272 85.3992 41.5546C85.0602 41.4819 84.4547 41.4214 84.0672 41.4335C83.6918 41.4335 83.0984 41.5061 82.7715 41.5909C82.4324 41.6635 81.8391 41.8936 81.4395 42.0874V42.0874ZM56.3125 64.3686C56.3125 79.2389 56.3246 80.0503 56.5184 79.9897C56.6395 79.9655 56.9785 79.8807 57.2813 79.8202C57.584 79.7475 58.0805 79.687 58.3953 79.687C58.9523 79.687 59.0008 79.6628 60.0664 78.5971L61.1563 77.5073C61.1563 73.935 61.2047 73.3053 61.3258 73.051C61.4105 72.8694 61.6285 72.6514 61.8102 72.5667C61.9797 72.494 62.234 72.4214 62.3672 72.4214C62.5004 72.4214 62.7547 72.494 62.9242 72.5667C63.1059 72.6514 63.3238 72.8694 63.4086 73.051C63.5297 73.2811 63.5781 73.8624 63.5781 74.9038C63.5781 76.2842 63.6023 76.4175 63.784 76.3569C63.9051 76.3327 64.3047 76.2479 64.668 76.1753C65.0313 76.1026 65.6488 76.0542 66.0242 76.0542C66.4117 76.0542 67.1504 76.1389 67.659 76.2479C68.216 76.3569 69.0879 76.6596 69.7539 76.9866C70.7348 77.4589 71.0617 77.701 71.9578 78.6214C72.7813 79.4448 73.0961 79.687 73.3504 79.687C73.5441 79.687 74.0164 79.7717 74.416 79.8565C74.8156 79.9534 75.2637 80.0624 75.409 80.0987L75.6875 80.1714V48.687H70.8438C70.8438 54.2694 70.8074 55.0565 70.6742 55.3108C70.5895 55.5046 70.3715 55.7225 70.1898 55.7952C70.0203 55.8799 69.766 55.9526 69.6328 55.9526C69.4996 55.9526 69.2453 55.8799 69.0758 55.7952C68.8941 55.7225 68.6762 55.5046 68.5914 55.3108C68.4582 55.0565 68.4219 54.2694 68.4219 51.8354V48.687H56.3125V64.3686ZM37.4219 91.4331C38.9719 91.4331 39.9285 91.3483 40.534 91.2514C41.1516 91.1546 42.302 90.8518 43.077 90.5975C43.8641 90.3311 44.857 90.0526 45.293 89.98C45.7289 89.9073 46.2012 89.8225 46.3465 89.7862L46.625 89.7378L46.5645 55.5288C46.0801 54.4995 45.7289 53.9546 45.4625 53.676C45.1961 53.3733 44.6512 52.9858 44.2031 52.7678L43.4281 52.3803L37.434 52.3077L37.4219 91.4331ZM87.4336 52.9374C87.143 53.119 86.707 53.4702 86.477 53.7245C86.2469 53.9788 85.9199 54.4874 85.7504 54.8628L85.4355 55.5288L85.375 89.7378C85.7988 89.8104 86.2832 89.9073 86.707 89.98C87.143 90.0526 88.148 90.3311 88.9473 90.5975C89.7465 90.8639 90.8969 91.1546 91.4902 91.2514C92.0957 91.3483 93.0281 91.4331 93.5852 91.4331H94.5781V52.3198C89.9039 52.3319 88.7898 52.3803 88.4629 52.4772C88.1965 52.562 87.7363 52.7678 87.4336 52.9374V52.9374ZM63.2754 79.1542C62.9484 79.3237 62.4277 79.6628 62.1371 79.905C61.8465 80.1471 61.35 80.7163 61.0473 81.1643C60.7445 81.6124 60.4176 82.012 60.3086 82.0604C60.2117 82.1089 59.5336 82.1573 58.7949 82.1573C57.6203 82.1694 57.3902 82.2057 56.7969 82.4842C56.4336 82.6538 55.8887 83.0292 55.598 83.3319C55.2711 83.6467 54.8957 84.2038 54.6656 84.7124C54.4598 85.1725 54.2055 85.6206 54.1207 85.6932C54.0238 85.7659 53.7332 85.8991 53.4668 85.9839C53.2004 86.0686 52.6555 86.2987 52.2559 86.5046C51.8563 86.6983 51.2266 87.1706 50.8633 87.546C50.4879 87.9214 50.052 88.4663 49.8824 88.769C49.7008 89.0596 49.5313 89.4229 49.4949 89.5561C49.4223 89.7741 49.4949 89.8104 50.2941 89.9436C50.7785 90.0284 51.7957 90.319 52.5586 90.5854C53.3336 90.8518 54.3871 91.1546 54.9199 91.2514C55.4527 91.3483 56.3852 91.4331 56.9785 91.4331C57.6445 91.4331 58.5285 91.3241 59.2188 91.1667C59.8605 91.0335 60.5629 90.9124 60.793 90.9245C61.1078 90.9245 61.3137 91.0335 61.5559 91.2999C61.7496 91.5178 61.8828 91.8085 61.8828 92.0022C61.8828 92.1839 61.7738 92.5108 61.6406 92.7288C61.459 93.0315 61.2531 93.1647 60.7688 93.31C60.4176 93.4069 59.6668 93.5764 59.0977 93.6733C58.5406 93.7702 57.5598 93.855 56.918 93.855C56.2883 93.855 55.2832 93.7702 54.6777 93.6612C54.0844 93.5643 52.8855 93.2374 52.0137 92.9467C51.1539 92.6561 50.0883 92.3534 49.6523 92.2807C49.2285 92.2202 48.4051 92.1596 47.8359 92.1596C47.2789 92.1596 46.4555 92.2202 46.0195 92.2807C45.5957 92.3534 44.5301 92.6561 43.6582 92.9467C42.7621 93.2495 41.5391 93.5522 40.8125 93.6612C40.1223 93.7702 39.0688 93.855 38.4875 93.855H37.4219V98.5776H94.5781V93.855C92.8465 93.855 91.793 93.7581 91.127 93.6612C90.4609 93.5522 89.2137 93.2253 88.3418 92.9346C87.482 92.6561 86.4164 92.3534 85.9805 92.2928C85.5566 92.2202 84.7332 92.1596 84.1641 92.1596C83.607 92.1596 82.7836 92.2202 82.3477 92.2807C81.9238 92.3534 80.8582 92.6561 79.9863 92.9467C79.1266 93.2374 77.9035 93.5643 77.2617 93.6733C76.4383 93.8186 75.6875 93.8671 74.5977 93.8186C73.6047 93.7823 72.6965 93.6612 71.9336 93.4796C71.2797 93.3221 70.6621 93.0921 70.5047 92.9467C70.3352 92.8014 70.202 92.4987 70.1535 92.2202C70.093 91.7964 70.1414 91.6753 70.432 91.3362C70.6984 91.0335 70.8922 90.9245 71.207 90.9245C71.4492 90.9124 72.1516 91.0335 72.7813 91.1667C73.4836 91.3241 74.3676 91.4331 75.0215 91.4331C75.627 91.4331 76.5473 91.3483 77.0801 91.2514C77.6129 91.1546 78.6785 90.8518 79.4414 90.5854C80.2164 90.319 81.2336 90.0284 81.718 89.9436C82.5051 89.8104 82.5898 89.7741 82.5172 89.5561C82.4809 89.4229 82.2992 89.0596 82.1297 88.769C81.9602 88.4663 81.5121 87.9214 81.1488 87.546C80.7734 87.1706 80.1316 86.6983 79.7199 86.4803C79.2961 86.2745 78.6422 86.0202 78.2668 85.9112C77.8793 85.8143 77.4918 85.6569 77.407 85.5842C77.3102 85.4995 77.0922 85.112 76.9105 84.7124C76.7289 84.3128 76.3656 83.7436 76.1113 83.453C75.8328 83.1503 75.3 82.7749 74.8398 82.5569C74.1738 82.23 73.8832 82.1573 72.8539 82.1089L71.643 82.0483C70.5895 80.6315 70.0688 80.0624 69.8145 79.8565C69.548 79.6385 69.0516 79.3358 68.7004 79.1542C68.3492 78.9846 67.7438 78.7546 67.3684 78.6577C66.9809 78.5487 66.3391 78.476 65.9395 78.476C65.5398 78.4882 64.9223 78.5729 64.5469 78.6698C64.1836 78.7667 63.6145 78.9846 63.2754 79.1542V79.1542ZM62.343 53.5307C62.4883 53.5307 62.7668 53.6034 62.9484 53.7003C63.1301 53.785 63.348 54.003 63.4328 54.1846C63.5418 54.4147 63.5781 55.9526 63.5781 60.5542C63.5781 65.1436 63.5418 66.6815 63.4328 66.9237C63.348 67.0932 63.1301 67.3112 62.9484 67.4081C62.7668 67.505 62.5004 67.5776 62.3672 67.5776C62.234 67.5776 61.9797 67.505 61.798 67.4081C61.6164 67.3112 61.3984 67.0932 61.3137 66.9237C61.1926 66.6815 61.1563 65.1436 61.1684 60.5178C61.1684 55.226 61.1926 54.4026 61.3621 54.1483C61.459 53.9909 61.6648 53.785 61.8102 53.7003C61.9555 53.6034 62.1855 53.5307 62.343 53.5307V53.5307ZM69.6086 60.7964C69.7539 60.7964 70.0324 60.869 70.2141 60.9659C70.3957 61.0507 70.6137 61.2686 70.6984 61.4503C70.8074 61.6803 70.8438 62.855 70.8438 66.0034C70.8438 69.3577 70.8074 70.3022 70.6742 70.5686C70.5895 70.7503 70.3715 70.9682 70.1898 71.053C70.0203 71.1378 69.766 71.2104 69.6328 71.2104C69.4996 71.2104 69.2453 71.1378 69.0758 71.053C68.9063 70.9682 68.6883 70.7503 68.5914 70.5686C68.4582 70.3022 68.4219 69.3698 68.434 65.9671C68.434 62.3221 68.4582 61.6561 68.6277 61.4139C68.7246 61.2565 68.9305 61.0507 69.0758 60.9659C69.2211 60.869 69.4512 60.7964 69.6086 60.7964V60.7964ZM65.9758 89.7378C66.1211 89.7378 66.3996 89.8104 66.5813 89.9073C66.7629 89.9921 66.9809 90.21 67.0656 90.3917C67.1504 90.5612 67.2109 90.8155 67.2109 90.9487C67.2109 91.0819 67.1383 91.3362 67.0414 91.5178C66.9566 91.6995 66.7387 91.9175 66.557 92.0022C66.3875 92.087 66.1332 92.1596 66 92.1596C65.8668 92.1596 65.6125 92.087 65.443 92.0022C65.2734 91.9175 65.0555 91.6995 64.9586 91.5178C64.8617 91.3362 64.7891 91.0698 64.8012 90.9124C64.8012 90.7671 64.8859 90.5128 64.9949 90.3553C65.0918 90.1979 65.2977 89.9921 65.443 89.9073C65.5883 89.8104 65.8184 89.7378 65.9758 89.7378V89.7378Z" fill="#B7BFC8"/>
<rect x="1" y="0.999481" width="130" height="138" rx="39" stroke="#B7BFC8" stroke-width="2"/>
</svg>
