<svg width="16" height="16" viewBox="0 0 16 16" fill="none" xmlns="http://www.w3.org/2000/svg">
<path d="M1.6 4.8H14.4V15.2C14.4 15.4122 14.3157 15.6157 14.1657 15.7657C14.0157 15.9157 13.8122 16 13.6 16H2.4C2.18783 16 1.98434 15.9157 1.83431 15.7657C1.68429 15.6157 1.6 15.4122 1.6 15.2V4.8ZM4 2.4V0.8C4 0.587827 4.08429 0.384344 4.23431 0.234315C4.38434 0.0842854 4.58783 0 4.8 0H11.2C11.4122 0 11.6157 0.0842854 11.7657 0.234315C11.9157 0.384344 12 0.587827 12 0.8V2.4H16V4H0V2.4H4ZM5.6 1.6V2.4H10.4V1.6H5.6ZM5.6 8V12.8H7.2V8H5.6ZM8.8 8V12.8H10.4V8H8.8Z" fill="#E75C54"/>
</svg>
