<svg width="62" height="62" viewBox="0 0 62 62" fill="none" xmlns="http://www.w3.org/2000/svg">
<rect width="62" height="62" rx="7" fill="#F5E1E0"/>
<path fill-rule="evenodd" clip-rule="evenodd" d="M30.9832 13.0007C31.3395 12.9939 31.595 13.0349 31.8571 13.1375C32.0588 13.2127 32.4555 13.3973 32.7311 13.5409C33.0067 13.6913 33.3832 13.9579 33.558 14.1357C33.7328 14.3135 33.9681 14.6485 34.0824 14.8741C34.237 15.1886 34.2908 15.4142 34.3244 15.8313C34.3513 16.2415 34.3311 16.4808 34.2437 16.7885C34.1832 17.0141 33.9681 17.52 33.7731 17.9166C33.5042 18.4567 33.316 18.7234 33.0403 18.9969C32.8319 19.1883 32.4756 19.4413 32.2471 19.5575C32.0118 19.6669 31.6286 19.7968 31.3866 19.8378C31.0571 19.8994 30.8286 19.8994 30.479 19.8378C30.2235 19.7968 29.8269 19.6669 29.605 19.5575C29.3832 19.4481 29.0672 19.243 28.9059 19.0994C28.7378 18.9558 28.4958 18.6687 28.3613 18.4636C28.2269 18.2585 28.0655 17.8893 27.9983 17.6431C27.9109 17.3149 27.884 17.0415 27.9042 16.5834C27.9311 16.0296 27.9647 15.8997 28.2471 15.2501C28.4218 14.8536 28.6773 14.3681 28.8185 14.163C28.9529 13.9648 29.2017 13.6981 29.3697 13.5682C29.5378 13.4451 29.8538 13.2674 30.0756 13.1717C30.3714 13.0486 30.6134 13.0076 30.9832 13.0007ZM29.8403 14.5254C29.7126 14.6553 29.4571 15.0792 29.2689 15.4689C28.9866 16.0706 28.9328 16.2415 28.9126 16.6517C28.8924 17.0073 28.9193 17.2261 29.0269 17.5064C29.1076 17.732 29.2756 18.0055 29.4504 18.1901C29.6118 18.3542 29.9076 18.5661 30.1092 18.6618C30.3782 18.7781 30.6 18.8259 30.916 18.8328C31.2655 18.8328 31.4403 18.7918 31.7899 18.6208C32.0319 18.5046 32.3143 18.3063 32.4218 18.1832C32.5294 18.0533 32.7647 17.6431 32.9529 17.2671C33.2756 16.6244 33.2958 16.5492 33.2958 16.0706C33.3025 15.674 33.2689 15.4963 33.1546 15.2843C33.0739 15.1339 32.9261 14.9288 32.8185 14.8331C32.7176 14.7305 32.3748 14.5186 32.0588 14.3613C31.6891 14.1767 31.3664 14.0605 31.1513 14.0468C30.9227 14.0263 30.6941 14.0605 30.4454 14.1494C30.2437 14.2246 29.9681 14.3955 29.8403 14.5254ZM23.0504 16.0706C23.4 16.0706 23.8168 16.1184 24.1261 16.2005C24.4017 16.2689 24.7983 16.4056 25 16.5013C25.2151 16.6039 25.5042 16.8227 25.6924 17.0209C25.8672 17.2124 26.0756 17.5132 26.1563 17.691C26.2639 17.9303 26.3109 18.1901 26.3513 19.2498L28.4151 20.2686C29.5513 20.8292 30.5866 21.3625 30.7143 21.4445C30.842 21.5266 31.0639 21.7112 31.1983 21.8548C31.3328 22.0052 31.5277 22.2923 31.6286 22.4975C31.7294 22.7026 31.837 23.0718 31.8773 23.3179C31.9176 23.564 31.958 23.7692 31.9714 23.776C31.9782 23.7897 32.4689 23.5435 33.0471 23.229C33.6319 22.9214 34.2437 22.6069 34.4118 22.5385C34.6202 22.4496 34.8756 22.4086 35.2185 22.4017C35.6151 22.4017 35.8034 22.4428 36.0924 22.5727C36.2941 22.6684 36.5966 22.8667 36.7513 23.0171C36.9193 23.1675 37.1345 23.4752 37.2555 23.7281C37.4437 24.111 37.4706 24.2409 37.4639 24.6853C37.4571 24.9862 37.4101 25.328 37.3429 25.5058C37.2824 25.6767 37.1076 25.9775 36.6975 26.5313L39.2588 32.0215C40.6706 35.0367 41.8941 37.669 42.1429 38.2228L42.963 37.963C43.4202 37.8194 43.8706 37.6416 43.9714 37.5664C44.0655 37.4981 44.1933 37.3613 44.2538 37.2656C44.3076 37.1699 44.4151 36.8896 44.4891 36.6297C44.5966 36.281 44.7042 36.0896 44.9462 35.8298C45.2084 35.5563 45.5714 35.3239 46.7815 34.6607C47.6151 34.2094 48.3681 33.8265 48.4622 33.806C48.5697 33.7787 48.6975 33.8197 48.8118 33.9086C48.9529 34.018 49 34.1137 49 34.2915C49 34.4282 48.9529 34.5786 48.879 34.647C48.8185 34.7154 48.1328 35.1051 47.3597 35.5221C46.5866 35.9392 45.8605 36.3699 45.7462 36.4793C45.6118 36.6092 45.4975 36.8143 45.4437 37.0263C45.3966 37.2109 45.3025 37.4844 45.2286 37.6211C45.1613 37.7647 45.0134 37.9835 44.9059 38.0997C44.805 38.2228 44.5697 38.4074 44.3882 38.5099C44.2067 38.6125 43.5882 38.8381 43.0168 39.0159C42.4454 39.1868 41.8807 39.3851 41.7731 39.4535C41.6655 39.5287 41.5311 39.6517 41.4773 39.7406C41.4235 39.8295 41.3429 40.2671 41.3025 40.7183C41.242 41.3063 41.1748 41.6277 41.0672 41.8464C40.9798 42.0174 40.8319 42.2567 40.7378 42.3797C40.6437 42.5096 40.4084 42.7079 40.2269 42.8241C39.9714 42.9882 39.5546 43.1181 38.479 43.3848C37.6992 43.5762 36.9933 43.7813 36.8992 43.8292C36.805 43.8839 35.8101 44.8411 34.6807 45.9624C32.8319 47.8084 32.6101 48.0067 32.4084 47.9998C32.2538 47.9998 32.1529 47.9451 32.0588 47.8084C31.9782 47.7058 31.9176 47.5486 31.9176 47.4529C31.9176 47.3161 32.3143 46.8922 35.521 43.6993L35.3059 43.5079C35.158 43.378 34.5462 42.325 33.4639 40.3423C32.5765 38.7082 31.7496 37.2041 31.6353 37.0058C31.5143 36.8075 31.3126 36.5682 31.1849 36.4793C31.0168 36.3563 30.5395 36.2127 29.5042 35.9665C28.7109 35.7819 28.0454 35.6247 28.0252 35.6247C28.005 35.6247 28.005 35.9118 28.0185 36.2605C28.0319 36.6024 28.005 37.0605 27.9647 37.2656C27.9244 37.4707 27.8101 37.8126 27.716 38.0177C27.6218 38.2228 26.8218 39.6722 24.3277 44.0685L24.2336 45.5043C24.1798 46.2974 24.1126 47.0153 24.0723 47.111C24.0387 47.2067 23.9244 47.3845 23.8168 47.5144C23.7092 47.6375 23.5076 47.8016 23.3664 47.8699C23.2252 47.9451 22.9765 47.9998 22.7815 47.9998C22.479 47.9998 22.237 47.8904 20.4756 46.9743C19.2655 46.3453 18.4252 45.8667 18.2908 45.7299C18.1697 45.6068 18.0218 45.3812 17.9681 45.2308C17.8941 45.053 17.8739 44.8206 17.8941 44.5471C17.921 44.1505 17.9882 44.0275 19.9513 40.6841C21.0807 38.7561 21.995 37.1288 22.0218 36.9921C22.0487 36.8417 22.0151 36.5887 21.9412 36.3084C21.8739 36.0623 21.8067 35.7409 21.7866 35.5905C21.7597 35.3649 21.7866 35.2897 21.9143 35.1598C22.0017 35.0777 22.1496 35.0025 22.2437 35.0025C22.3378 35.0025 22.479 35.0572 22.5597 35.1256C22.6605 35.2076 22.7681 35.4606 22.8824 35.864C22.9765 36.199 23.0504 36.6297 23.0504 36.8212C23.0504 37.0058 22.9899 37.3134 22.9294 37.5049C22.8622 37.6895 22.3782 38.6125 21.8471 39.556C21.316 40.4927 20.8252 41.3678 20.6303 41.7097L22.0756 42.4618C22.8689 42.872 23.5479 43.2139 23.5882 43.2139C23.6218 43.2139 23.8571 42.8515 24.1059 42.4071C24.3546 41.9695 25.0605 40.7115 25.6723 39.6244C26.2908 38.5373 26.8487 37.4707 26.9092 37.2656C26.9697 37.0605 27.0168 36.7049 27.0168 36.4793C27.0168 36.2195 26.8286 35.2213 26.4924 33.7308C26.2101 32.4454 25.9412 31.3652 25.9076 31.3242C25.8672 31.29 24.8857 30.8456 23.7227 30.3396C22.4118 29.7721 21.5782 29.4439 21.5378 29.485C21.4975 29.5192 21.4706 29.8884 21.4706 30.3123C21.4706 31.0302 21.4908 31.1464 21.7866 32.1514C21.9681 32.7531 22.0891 33.2864 22.0622 33.3479C22.042 33.4163 21.9748 33.5257 21.9143 33.5941C21.8538 33.6624 21.7261 33.7171 21.6185 33.7103C21.5176 33.7103 21.3899 33.6898 21.3294 33.6556C21.2689 33.6283 21.1882 33.5462 21.1479 33.471C21.1143 33.3958 20.9462 32.8898 20.7849 32.3429C20.5563 31.584 20.4756 31.2011 20.4487 30.702C20.4286 30.3259 20.442 29.8542 20.4891 29.5739C20.5361 29.314 20.6437 28.9312 20.8992 28.3774H20.5765C20.4017 28.3774 20.0655 28.3227 19.8235 28.2475C19.5681 28.1654 19.1849 27.9671 18.916 27.7757C18.6538 27.5911 18.2975 27.2766 18.116 27.0715C17.9412 26.8664 17.6857 26.504 17.5513 26.2579C17.4168 26.0117 17.2353 25.5673 17.1546 25.2665C17.0336 24.8563 17 24.5486 17 24.0358C17 23.6461 17.0471 23.1743 17.1008 22.9419C17.1613 22.7162 17.484 21.93 17.8269 21.1984C18.163 20.4668 18.5126 19.7968 18.5933 19.7079C18.6807 19.6259 18.8218 19.5575 18.9294 19.5575C19.0303 19.5575 19.1849 19.6259 19.2723 19.7148C19.3529 19.7968 19.4202 19.9404 19.4202 20.0361C19.4202 20.1318 19.1513 20.7745 18.8218 21.4719C18.4924 22.1693 18.1697 22.9214 18.116 23.147C18.0555 23.3726 18.0084 23.776 18.0084 24.0358C18.0084 24.2956 18.0555 24.699 18.116 24.9246C18.1697 25.1503 18.3176 25.5195 18.4319 25.7382C18.5529 25.9639 18.8151 26.3194 19.0235 26.5245C19.2319 26.7365 19.5613 26.9963 19.763 27.1125C20.0521 27.2698 20.2067 27.3176 20.5294 27.3176C20.8118 27.3176 21 27.2766 21.1613 27.1809C21.2891 27.1057 21.4706 26.9347 21.5714 26.8048C21.6723 26.6749 22.5529 24.8904 23.521 22.8393C24.9193 19.8994 25.2958 19.0379 25.3227 18.7712C25.3496 18.5046 25.3227 18.3542 25.195 18.0944C25.1076 17.9098 24.9395 17.6841 24.8319 17.6021C24.7176 17.5132 24.4487 17.3765 24.2269 17.2944C24.005 17.2192 23.6084 17.1372 23.3529 17.1167C23.084 17.0893 22.6941 17.1098 22.4454 17.1577C22.2034 17.2055 21.8269 17.3286 21.605 17.4312C21.3832 17.5337 21 17.7935 20.7445 18.0055C20.4622 18.2516 20.2336 18.3952 20.1261 18.3952C20.0319 18.3952 19.884 18.32 19.7899 18.2243C19.6958 18.1286 19.6218 17.9781 19.6218 17.8824C19.6218 17.7867 19.716 17.6021 19.837 17.4654C19.958 17.3286 20.2403 17.0825 20.4622 16.9184C20.684 16.7611 21 16.5629 21.1681 16.4876C21.3361 16.4124 21.6992 16.2894 21.9748 16.2142C22.2773 16.1321 22.7076 16.0774 23.0504 16.0706ZM26.0756 21.0548C25.9815 21.1232 25.8336 21.3283 25.7462 21.5129C25.6185 21.7727 25.5916 21.9231 25.6185 22.1898C25.6387 22.4564 25.8067 22.8325 26.3513 23.8786C26.7345 24.6238 27.0706 25.2323 27.0975 25.2323C27.1311 25.2323 27.6218 24.9725 28.1933 24.6511C28.7647 24.3298 29.2353 24.029 29.2353 23.9811C29.2286 23.9401 29 23.4547 28.7176 22.9077C28.4353 22.3607 28.1126 21.7454 27.9916 21.5403C27.8706 21.3352 27.6689 21.0959 27.5479 21.0138C27.4202 20.9318 27.1849 20.8497 27.0168 20.8292C26.8487 20.8087 26.6067 20.8292 26.479 20.8634C26.3513 20.9044 26.1697 20.9933 26.0756 21.0548ZM30.3849 23.9127C30.5328 24.1862 30.6672 24.3982 30.6941 24.3845C30.7277 24.3708 30.7882 24.2136 30.8353 24.029C30.9025 23.7623 30.9092 23.6187 30.842 23.3179C30.795 23.0991 30.674 22.8325 30.5529 22.6752C30.4387 22.5248 30.163 22.306 29.9412 22.183C29.7193 22.053 29.4975 21.9505 29.4437 21.9505C29.3832 21.9505 29.4908 22.2103 29.7395 22.6821C29.9546 23.0923 30.2437 23.6461 30.3849 23.9127ZM24.4218 23.3316C24.2874 23.6051 23.6756 24.8768 23.0706 26.1553C22.4655 27.4338 21.9815 28.4799 21.9882 28.4868C22.0017 28.4868 23.2924 28.9859 24.8655 29.5875L27.7227 30.6883L28.4622 29.1978C28.1462 28.9654 27.9378 28.7739 27.7899 28.6167C27.6084 28.4252 27.1311 27.5843 26.3109 26.0117C25.6521 24.74 25.0067 23.5025 24.8857 23.2632L24.6706 22.8393L24.4218 23.3316ZM32.9328 24.4665C31.9513 24.993 31.0571 25.4579 30.9496 25.4989C30.8017 25.5536 30.6672 25.5536 30.4588 25.5058C30.2908 25.4648 30.0824 25.3349 29.9412 25.1913C29.7261 24.9725 29.6924 24.9588 29.5513 25.0477C29.4706 25.1024 28.9866 25.3759 28.4756 25.663L27.5546 26.1827C28.1395 27.3244 28.4218 27.7757 28.5563 27.9193C28.6908 28.0629 28.9462 28.2611 29.1345 28.3569C29.3832 28.4868 29.605 28.5415 30.0084 28.562C30.4588 28.5893 30.6 28.5688 30.8824 28.4457C31.0639 28.3637 32.2605 27.7347 33.5378 27.051C34.8084 26.3673 35.9445 25.7314 36.0521 25.6357C36.1597 25.5468 36.2874 25.3759 36.3479 25.2596C36.4017 25.1503 36.4487 24.9041 36.4555 24.7127C36.4555 24.4597 36.4151 24.2888 36.2807 24.0632C36.1798 23.8854 35.9983 23.7008 35.8504 23.6119C35.7025 23.5299 35.4807 23.4478 35.3529 23.4273C35.2252 23.4068 35.0235 23.4205 34.916 23.4547C34.8017 23.482 33.9143 23.9401 32.9328 24.4665ZM30.9832 29.5123C30.7613 29.5807 30.3647 29.6286 29.9815 29.6354H29.3496C28.7647 30.8934 28.7647 30.9003 28.9126 30.9344C29 30.9481 29.9412 31.1532 31.0168 31.3788C32.0857 31.6045 33.1479 31.8506 33.3697 31.9258C33.5916 32.001 33.9412 32.1788 34.1429 32.3155C34.3445 32.4591 34.6471 32.7121 34.8084 32.883C34.9697 33.0539 35.9176 34.4419 36.9193 35.9597C37.921 37.4844 39.0706 39.1663 39.4807 39.7064C39.8908 40.2397 40.2336 40.6705 40.2471 40.6636C40.2538 40.65 40.2941 40.4243 40.3277 40.1508C40.3613 39.8774 40.4689 39.5082 40.5563 39.3304C40.6437 39.1526 40.8252 38.9065 40.9597 38.7834L41.2017 38.5578C37.1076 29.7926 35.884 27.1945 35.8504 27.1262C35.7899 27.0236 35.521 27.1535 33.5647 28.2064C32.3479 28.8628 31.1849 29.4508 30.9832 29.5123ZM27.3866 33.0744C27.5546 33.8129 27.716 34.4419 27.7429 34.4624C27.7697 34.4897 28.5025 34.6675 29.3697 34.8658C30.4924 35.1187 31.084 35.2828 31.4202 35.4469C31.6824 35.5768 31.9916 35.7888 32.1261 35.9392C32.2538 36.0828 32.7849 36.9101 33.2958 37.7715C33.8067 38.6398 34.2571 39.3851 34.3042 39.4261C34.358 39.4876 34.7412 39.4193 35.9244 39.1253C36.7714 38.9202 37.4773 38.7424 37.4908 38.7356C37.4975 38.7356 36.7916 37.6416 35.9176 36.3016C35.0437 34.9683 34.2303 33.7718 34.116 33.6488C34.0017 33.5189 33.7866 33.3343 33.6387 33.2249C33.4908 33.1223 33.2353 32.9787 33.0672 32.9172C32.8992 32.8625 31.5412 32.548 30.042 32.2335C28.5429 31.9121 27.2655 31.6455 27.1916 31.625C27.1244 31.6113 27.0706 31.625 27.0773 31.6592C27.0773 31.6934 27.2185 32.3292 27.3866 33.0744ZM34.9025 40.5064C34.8891 40.5474 35.1176 41.0533 35.4 41.6345C35.8101 42.4618 35.9647 42.7148 36.1059 42.7831C36.274 42.8583 36.4622 42.8242 37.6521 42.5233C38.405 42.3319 39.1311 42.1473 39.2655 42.1131C39.4202 42.0721 39.5546 41.9832 39.595 41.8943C39.6622 41.7644 39.6487 41.7029 39.5479 41.5319C39.474 41.4157 39.1311 40.9439 38.7815 40.4859C38.4319 40.0209 38.1092 39.6517 38.0756 39.6517C38.0353 39.6586 37.316 39.8363 36.4689 40.0483C35.6219 40.2671 34.916 40.4722 34.9025 40.5064ZM18.8689 44.7249C18.8756 44.8343 18.9429 44.971 19.037 45.0394C19.1176 45.1009 19.9916 45.5658 20.9664 46.0718C22.4655 46.8444 22.7748 46.9811 22.9092 46.9264C23.0101 46.8922 23.0975 46.7897 23.1244 46.6598C23.158 46.5504 23.1916 45.9555 23.1983 45.3402L23.2185 44.2189C20.8723 42.9609 20.1664 42.5917 20.1462 42.5917C20.1193 42.5917 19.8235 43.0293 19.4807 43.5626C19.0303 44.2599 18.8622 44.5813 18.8689 44.7249Z" fill="#E75C54"/>
</svg>
