<svg width="62" height="62" viewBox="0 0 62 62" fill="none" xmlns="http://www.w3.org/2000/svg">
<rect width="62" height="62" rx="7" fill="#F5E1E0"/>
<path fill-rule="evenodd" clip-rule="evenodd" d="M44.4998 17.0006C44.6725 16.9939 44.9714 17.047 45.1574 17.1067C45.35 17.1731 45.6422 17.3125 45.8016 17.4253C45.961 17.5315 46.1935 17.7704 46.3197 17.9562C46.4459 18.1354 46.592 18.454 46.6517 18.6531C46.7248 18.9052 46.7447 19.1442 46.7115 19.4163C46.6916 19.6353 46.5986 19.9604 46.5123 20.1463C46.4193 20.3255 46.2865 20.5378 46.0806 20.7436L46.2267 21.009C46.3595 21.2479 46.3728 21.3807 46.3861 22.3562C46.406 23.4181 46.406 23.4313 46.24 23.5973C46.1536 23.6902 46.0009 23.7632 45.9079 23.7632C45.8149 23.7632 45.6688 23.6902 45.5758 23.5973C45.4164 23.438 45.4098 23.4048 45.4098 22.5354C45.4098 22.0443 45.3832 21.5731 45.35 21.4868C45.2968 21.3475 45.257 21.3408 44.553 21.3408C43.9685 21.3408 43.7958 21.3607 43.7493 21.4404C43.7095 21.5001 43.6829 23.7101 43.6829 27.1013C43.6829 31.9924 43.6962 32.6561 43.7825 32.6561C43.8357 32.6561 44.1013 32.7424 44.3604 32.8485C44.626 32.9481 44.9714 33.114 45.4098 33.3861V25.4223L45.5758 25.2564C45.6621 25.1635 45.8149 25.0905 45.9079 25.0905C46.0009 25.0905 46.147 25.1635 46.406 25.4223V29.8223C46.3994 33.8706 46.406 34.2223 46.5123 34.3152C46.572 34.3683 46.7447 34.5807 46.8975 34.7798C47.0436 34.9789 47.2761 35.3704 47.4155 35.6425C47.5484 35.9146 47.741 36.4389 47.834 36.8039C48 37.4676 48 37.4742 48 40.5535C48 42.8166 47.9734 43.7059 47.9137 43.8983C47.8738 44.0377 47.7277 44.2766 47.6015 44.4226C47.4753 44.5686 47.2296 44.7544 47.0502 44.8407C46.8709 44.9336 46.6185 45 46.4525 45C46.2997 45 46.0407 44.9403 45.8747 44.8606C45.7086 44.781 45.4895 44.6416 45.3898 44.5421C45.2836 44.4492 45.1374 44.2501 45.0577 44.1041C44.9714 43.9382 44.9116 43.6528 44.8452 42.81H17.1495L17.1096 43.321C17.0831 43.6528 17.0233 43.9382 16.937 44.1041C16.8573 44.2501 16.7111 44.4492 16.6049 44.5421C16.5053 44.6416 16.2861 44.781 16.12 44.8606C15.954 44.9403 15.695 45 15.5356 45C15.3762 45 15.1238 44.9336 14.9378 44.8407C14.7651 44.7544 14.526 44.5753 14.4065 44.4425C14.2936 44.3098 14.1475 44.0908 14.0943 43.9581C14.0014 43.7391 13.9881 43.2745 14.008 40.454C14.0279 37.3813 14.0412 37.1756 14.174 36.7044C14.2471 36.4323 14.3999 36.0142 14.5128 35.7752C14.6257 35.5363 14.8249 35.178 14.9644 34.9789C15.0972 34.7798 15.2898 34.5209 15.5821 34.2157L15.602 27.7451C15.6219 21.7324 15.6286 21.2612 15.7348 21.0555C15.8544 20.8497 15.8544 20.8365 15.695 20.6241C15.602 20.5113 15.4625 20.2591 15.3828 20.0799C15.2699 19.8277 15.2301 19.622 15.2301 19.2503C15.2301 18.8588 15.2633 18.673 15.3961 18.3876C15.4891 18.1885 15.695 17.8899 15.8544 17.7239C16.0204 17.5647 16.3193 17.3589 16.5185 17.266C16.8041 17.1333 16.9967 17.1001 17.382 17.0935C17.8137 17.0935 17.9465 17.1267 18.3118 17.2992C18.5775 17.4319 18.8431 17.6244 18.9959 17.7969C19.1354 17.9562 19.3014 18.215 19.3745 18.3677C19.4475 18.527 19.5272 18.8389 19.5471 19.0645C19.5803 19.3565 19.5604 19.5954 19.4874 19.8476C19.4276 20.0467 19.2948 20.3321 19.1885 20.4781C19.0291 20.6905 19.0025 20.7701 19.0623 20.8763C19.0955 20.9493 19.142 21.0157 19.1486 21.0223C19.1619 21.0356 19.3944 20.8232 19.66 20.5577C19.9855 20.2325 20.3043 19.9936 20.6696 19.8012C20.9618 19.6485 21.44 19.4627 21.7322 19.3831C22.2569 19.2503 22.3964 19.2503 30.9974 19.2503C39.3393 19.2503 39.7511 19.257 40.2293 19.3764C40.5016 19.4428 40.92 19.5954 41.1591 19.7149C41.3982 19.8344 41.7568 20.06 41.9561 20.2126C42.1553 20.3653 42.421 20.6108 42.5339 20.7635C42.6535 20.9161 42.773 21.0422 42.7996 21.0422C42.8328 21.0422 42.8926 20.9692 42.9324 20.8763C42.9922 20.7701 42.9922 20.6971 42.9523 20.6772C42.9125 20.6573 42.8129 20.5312 42.7265 20.3918C42.6402 20.2591 42.5206 19.9671 42.4542 19.7481C42.3745 19.4693 42.3479 19.2437 42.3812 18.9982C42.4011 18.8123 42.4675 18.5402 42.5206 18.4009C42.5804 18.2681 42.7066 18.0425 42.8062 17.8965C42.9058 17.7571 43.1051 17.558 43.2512 17.4585C43.3973 17.3523 43.663 17.2129 43.849 17.1399C44.0283 17.0669 44.3205 17.0072 44.4932 17.0006H44.4998ZM43.7095 18.4009C43.5899 18.5203 43.4571 18.7526 43.4173 18.9185C43.3508 19.1442 43.3508 19.2835 43.4106 19.4826C43.4505 19.6286 43.5434 19.8277 43.6165 19.9273C43.6962 20.0334 43.8755 20.1728 44.0216 20.2458C44.1678 20.3188 44.4069 20.3785 44.553 20.3785C44.6991 20.3785 44.9382 20.3188 45.0843 20.2458C45.2304 20.1728 45.4098 20.0334 45.4828 19.9273C45.5625 19.8277 45.6555 19.6419 45.6953 19.5158C45.7352 19.3897 45.7485 19.1641 45.7219 19.0181C45.702 18.8721 45.6156 18.6597 45.5359 18.5402C45.4496 18.4208 45.2769 18.2681 45.1507 18.1951C45.0245 18.1221 44.812 18.0491 44.6858 18.0292C44.553 18.0093 44.3404 18.0292 44.1877 18.089C44.0416 18.142 43.829 18.2814 43.7095 18.4009ZM16.5717 18.4274C16.4588 18.5402 16.3193 18.7659 16.2728 18.9252C16.213 19.0977 16.1997 19.3101 16.2263 19.4494C16.2529 19.5755 16.3392 19.7879 16.4189 19.914C16.4986 20.0401 16.6979 20.2126 16.8639 20.2923C17.0233 20.3785 17.2558 20.4449 17.3687 20.4449C17.4882 20.4449 17.7008 20.3985 17.8336 20.3387C17.9731 20.2856 18.1457 20.1861 18.2122 20.1264C18.2786 20.0666 18.3915 19.8941 18.4579 19.7481C18.5243 19.6021 18.5841 19.3764 18.5841 19.2503C18.5841 19.1242 18.5177 18.8853 18.4313 18.7261C18.3516 18.5601 18.179 18.361 18.0528 18.2748C17.9266 18.1951 17.6875 18.1089 17.5214 18.089C17.3554 18.0757 17.1229 18.0956 17.0034 18.142C16.8838 18.1819 16.6912 18.3146 16.5717 18.4274ZM21.1079 20.6905C20.9087 20.8099 20.57 21.0754 20.3574 21.2877C20.1449 21.5001 19.8726 21.8651 19.7464 22.104C19.6202 22.343 19.4741 22.7411 19.4209 23C19.3346 23.3915 19.3147 24.1945 19.3147 27.9574V32.457L21.9381 32.4636C21.4134 31.9194 21.1544 31.5942 21.0216 31.3952C20.8888 31.1961 20.7028 30.8178 20.6164 30.5656C20.5235 30.3068 20.4305 29.9218 20.4106 29.7028C20.3773 29.4307 20.4039 29.1586 20.477 28.8401C20.5367 28.5813 20.6629 28.2295 20.7626 28.0504C20.8622 27.8778 21.1013 27.5858 21.2873 27.4066C21.4799 27.2274 21.8252 26.9885 22.051 26.8823C22.3499 26.7363 22.6089 26.67 22.9676 26.6368C23.2598 26.6169 23.5985 26.6301 23.7978 26.6766C23.9771 26.7164 24.2959 26.8491 24.4952 26.9686L24.8605 27.1876C25.3719 26.7363 25.6907 26.5505 25.8899 26.4775C26.0892 26.3979 26.4478 26.3249 26.6869 26.3049C26.9792 26.2784 27.2581 26.3049 27.5503 26.378C27.7894 26.4377 28.1149 26.5704 28.2809 26.6633C28.447 26.7629 28.7193 26.9885 28.8919 27.1611C29.0713 27.3336 29.2971 27.6654 29.41 27.8911C29.5229 28.13 29.6358 28.5016 29.6624 28.7405C29.6956 28.9795 29.6956 29.3644 29.669 29.6033C29.6425 29.8422 29.5561 30.2139 29.4831 30.4329C29.4034 30.6519 29.224 31.0235 29.0846 31.2624C28.9384 31.5013 28.6728 31.8663 28.4868 32.0721L28.1481 32.457H33.8599C33.3352 31.8663 33.0696 31.5013 32.9234 31.2624C32.784 31.0235 32.6046 30.6519 32.5249 30.4329C32.4519 30.2139 32.3655 29.8422 32.339 29.6033C32.3058 29.3644 32.3124 28.9795 32.339 28.7405C32.3722 28.5016 32.4917 28.1234 32.598 27.8911C32.7109 27.6654 32.9367 27.3336 33.1094 27.1611C33.2887 26.9885 33.561 26.7629 33.7271 26.6633C33.8931 26.5704 34.2186 26.4377 34.4577 26.378C34.7499 26.3049 35.0288 26.2784 35.3211 26.3049C35.5602 26.3249 35.9188 26.3979 36.1181 26.4775C36.3173 26.5505 36.6295 26.7363 36.8154 26.9022L37.1475 27.1876C37.7121 26.8491 38.0242 26.7164 38.2102 26.6766C38.4094 26.6301 38.7482 26.6169 39.0404 26.6368C39.3991 26.67 39.6581 26.7363 39.9503 26.8823C40.1828 26.9885 40.5281 27.2274 40.7141 27.4066C40.9067 27.5858 41.1458 27.8778 41.2454 28.0504C41.3451 28.2295 41.4713 28.5813 41.531 28.8401C41.6041 29.1586 41.6307 29.4307 41.5974 29.7028C41.5775 29.9218 41.4845 30.3068 41.3916 30.5656C41.3052 30.8178 41.1192 31.1961 40.9864 31.3952C40.8536 31.5942 40.5946 31.9194 40.4086 32.1119L40.0699 32.4636L42.6933 32.457C42.6933 24.1945 42.6734 23.3915 42.587 23C42.5339 22.7411 42.3878 22.343 42.2616 22.104C42.1354 21.8651 41.8698 21.5068 41.6705 21.3077C41.4713 21.1086 41.1392 20.8365 40.92 20.7104C40.7075 20.5843 40.3422 20.425 40.1031 20.3653C39.6979 20.2525 39.0935 20.2458 30.9708 20.2525C22.9609 20.2525 22.237 20.2657 21.8717 20.3719C21.6525 20.4316 21.3072 20.5776 21.1079 20.6905ZM17.1694 21.4138C16.6779 21.374 16.658 21.3807 16.6248 21.52C16.6049 21.6063 16.5916 24.3074 16.5916 27.5261V33.3861C17.0299 33.114 17.3753 32.9481 17.6343 32.8485C17.9 32.7424 18.1657 32.6561 18.2188 32.6561C18.3051 32.6561 18.3184 31.9991 18.3184 27.1146C18.3184 23.5508 18.2919 21.5267 18.252 21.4404C18.2122 21.3674 18.1657 21.3077 18.1325 21.3143C18.1059 21.3143 17.993 21.3475 17.8867 21.3807C17.7738 21.4205 17.455 21.4338 17.1694 21.4138ZM25.704 27.7783C25.4582 27.9973 25.2058 28.1632 25.073 28.1831C24.9601 28.2096 24.7675 28.203 24.6612 28.1764C24.5483 28.1565 24.3092 28.0304 24.1299 27.9043C23.8709 27.7252 23.7115 27.6654 23.3993 27.6323C23.1801 27.6123 22.8746 27.6323 22.7152 27.6721C22.5624 27.7119 22.3101 27.8446 22.1507 27.9641C21.9979 28.0835 21.8053 28.2893 21.719 28.4154C21.6326 28.5348 21.5197 28.8069 21.4599 29.006C21.3736 29.3179 21.367 29.4374 21.4334 29.8024C21.4799 30.0413 21.6127 30.4129 21.7256 30.632C21.8452 30.851 22.1307 31.2292 22.3698 31.4682C22.6089 31.7071 22.9875 32.0256 23.2133 32.1783L23.6318 32.457H26.6869C27.8758 31.2757 28.1149 30.9771 28.2942 30.632C28.427 30.3731 28.5732 30.0347 28.613 29.8688C28.6595 29.7028 28.6927 29.371 28.6861 29.1188C28.6794 28.8069 28.6329 28.5813 28.5267 28.3623C28.447 28.1897 28.2809 27.9508 28.1614 27.8313C28.0485 27.7119 27.8226 27.546 27.6632 27.473C27.4972 27.3867 27.2249 27.3203 26.9858 27.3071C26.7666 27.2938 26.481 27.3137 26.3548 27.3469C26.2286 27.3801 25.9364 27.5792 25.704 27.7783ZM34.0392 27.6588C33.8931 27.765 33.6872 27.9906 33.5743 28.1764C33.4348 28.4021 33.3551 28.6277 33.3286 28.8733C33.3087 29.0724 33.3153 29.4042 33.3419 29.6033C33.3684 29.8223 33.5013 30.2006 33.6673 30.5324C33.8998 31.0036 34.0592 31.2093 34.637 31.7734L35.3211 32.457H38.3762C39.0205 32.0256 39.3991 31.7071 39.6382 31.4682C39.9105 31.1961 40.1562 30.8642 40.289 30.5988C40.4086 30.3599 40.5348 29.9882 40.5813 29.7692C40.641 29.444 40.6344 29.3047 40.5481 29.006C40.4883 28.8069 40.3754 28.5348 40.289 28.4154C40.2027 28.2893 40.0101 28.0835 39.8507 27.9641C39.6979 27.8446 39.4455 27.7119 39.2861 27.6721C39.1334 27.6323 38.8412 27.6123 38.6353 27.619C38.3364 27.6389 38.1903 27.692 37.9047 27.8911C37.7054 28.0238 37.453 28.1565 37.3468 28.1764C37.2405 28.203 37.0479 28.203 36.9284 28.1831C36.8022 28.1565 36.5498 27.9906 36.3306 27.7915C36.0649 27.5592 35.8458 27.4199 35.6332 27.3602C35.4605 27.3203 35.2082 27.2805 35.0687 27.2805C34.9359 27.2872 34.7034 27.327 34.5573 27.3801C34.4112 27.4332 34.1787 27.5592 34.0392 27.6588ZM18.0528 33.7511C17.8867 33.8108 17.5613 33.9635 17.3222 34.0962C17.0831 34.2356 16.6647 34.5674 16.3857 34.8395C16.0802 35.1514 15.7813 35.5231 15.6286 35.8084C15.4824 36.0673 15.2965 36.4986 15.2101 36.7707C15.0707 37.1888 15.0441 37.4277 15.0242 38.2772L14.9976 39.2926C17.1561 39.2926 17.8336 39.3125 17.8934 39.3391C17.9531 39.3722 18.0461 39.4718 18.0926 39.5713C18.159 39.7041 18.1657 39.8036 18.1192 39.9231C18.0793 40.016 17.9863 40.1354 17.9 40.1885C17.7805 40.2682 17.4949 40.2881 16.3724 40.2881H14.9976C14.9976 43.2878 15.0109 43.5997 15.0972 43.7192C15.1504 43.8054 15.2699 43.8983 15.3629 43.9382C15.4824 43.9846 15.5887 43.978 15.7614 43.905C15.8876 43.8519 16.0204 43.7324 16.0603 43.6395C16.0935 43.5466 16.1267 43.2413 16.1267 42.956C16.1267 42.5644 16.1599 42.3985 16.2595 42.2259C16.3326 42.1131 16.4986 41.9671 16.6248 41.914C16.8307 41.8277 18.5775 41.8145 31.004 41.8145C43.4305 41.8145 45.1773 41.8277 45.3832 41.914C45.5094 41.9671 45.6754 42.1131 45.7485 42.2259C45.8481 42.3985 45.8813 42.5644 45.8813 42.956C45.8813 43.2413 45.9079 43.5466 45.9477 43.6395C45.9876 43.7324 46.1204 43.8519 46.2466 43.905C46.4193 43.978 46.5256 43.9846 46.6451 43.9382C46.7381 43.8983 46.8576 43.8054 46.9108 43.7192C46.9971 43.5997 47.0104 43.2878 47.0104 41.9273V40.2881C19.9058 40.2947 19.8792 40.2947 19.6933 40.1553C19.5604 40.0624 19.5139 39.9629 19.5139 39.8036C19.5139 39.6709 19.5671 39.5381 19.66 39.4452L19.8128 39.2926H47.0104C46.9639 37.4277 46.9373 37.1888 46.7979 36.7707C46.7115 36.4986 46.5256 36.0673 46.3794 35.8084C46.2267 35.5297 45.9278 35.1448 45.6223 34.8395C45.3168 34.5342 44.9316 34.2356 44.6526 34.0829C44.3936 33.9369 43.9619 33.7445 43.6896 33.6516L43.1914 33.4857C21.2939 33.4657 19.0756 33.479 18.7501 33.552C18.531 33.5985 18.2188 33.6914 18.0528 33.7511Z" fill="#E75C54"/>
</svg>
