<svg width="62" height="62" viewBox="0 0 62 62" fill="none" xmlns="http://www.w3.org/2000/svg">
<rect width="62" height="62" rx="7" fill="#F5E1E0"/>
<path fill-rule="evenodd" clip-rule="evenodd" d="M36.8876 14.0067C37.2799 14 37.4528 14.0333 37.8451 14.1996C38.1111 14.3127 38.4768 14.519 38.663 14.6587C38.8426 14.7984 39.175 15.1311 39.3878 15.4039C39.6073 15.6767 39.82 15.9362 39.8533 15.9828C39.9131 16.0493 39.973 16.0027 40.1193 15.7832C40.2257 15.6235 40.485 15.3174 40.6845 15.1045C40.8906 14.8916 41.2031 14.6188 41.3893 14.499C41.5689 14.3859 41.888 14.2262 42.0875 14.1464C42.3402 14.0466 42.5929 14 42.8855 14C43.1249 14 43.4507 14.0399 43.6169 14.0932C43.7832 14.1464 44.0957 14.2728 44.3151 14.3726C44.5346 14.4791 44.867 14.7186 45.0532 14.8982C45.2726 15.1045 45.4788 15.4039 45.6184 15.6967C45.8379 16.1491 45.8445 16.189 45.8445 16.9941C45.8445 17.6994 45.8179 17.899 45.6849 18.2916C45.5985 18.5444 45.399 19.0102 45.246 19.3229C45.0931 19.6356 44.7407 20.1879 44.4681 20.5538C44.1888 20.9198 43.6568 21.5186 43.2711 21.8845C42.8855 22.2505 42.3402 22.7229 42.0476 22.9292C41.7617 23.1354 41.2098 23.4881 40.8241 23.7076C40.4318 23.9405 40.0461 24.1135 39.9397 24.1135C39.84 24.1135 39.6006 24.0337 39.4078 23.9405C39.2216 23.8407 38.8226 23.6145 38.53 23.4282C38.2375 23.2485 37.7454 22.9025 37.4329 22.663C37.1203 22.4168 36.595 21.9511 36.2692 21.6184C35.9367 21.2857 35.4779 20.7468 35.2452 20.4141C35.0125 20.0881 34.68 19.5225 34.5004 19.1566C34.3276 18.7906 34.1347 18.2982 34.0749 18.0587C34.015 17.8192 33.9485 17.4466 33.9286 17.227C33.9086 17.0074 33.9286 16.6481 33.9685 16.4286C34.0084 16.209 34.1214 15.8697 34.2079 15.6834C34.301 15.4904 34.5137 15.1777 34.6866 14.9914C34.8662 14.8051 35.1255 14.5789 35.2718 14.4924C35.4181 14.4059 35.7306 14.2661 35.97 14.173C36.2692 14.0599 36.5485 14.0133 36.881 14.0067H36.8876ZM35.7771 15.3773C35.6841 15.4305 35.5378 15.5436 35.458 15.6235C35.3715 15.6967 35.2385 15.883 35.1654 16.0294C35.0922 16.1757 35.0058 16.4618 34.9792 16.6614C34.946 16.901 34.9593 17.2137 35.0191 17.5597C35.0789 17.899 35.2053 18.2982 35.3848 18.6575C35.5311 18.9703 35.8237 19.4626 36.0298 19.7554C36.236 20.0481 36.7081 20.5871 37.0738 20.9597C37.4395 21.3256 37.9781 21.8047 38.2707 22.0176C38.5633 22.2305 39.0487 22.5566 39.3479 22.7295C39.6538 22.9025 39.9131 23.0489 39.9331 23.0489C39.953 23.0489 40.1991 22.9092 40.4783 22.7362C40.7643 22.5632 41.263 22.2239 41.5955 21.9843C41.9213 21.7382 42.4466 21.2857 42.7525 20.9796C43.0584 20.6736 43.4906 20.1812 43.7034 19.8885C43.9228 19.5957 44.2287 19.0834 44.3949 18.7573C44.5545 18.4247 44.734 17.9656 44.7939 17.726C44.867 17.4466 44.8936 17.1339 44.8737 16.8278C44.8537 16.5483 44.7872 16.2556 44.7074 16.0959C44.6343 15.9495 44.4415 15.71 44.2752 15.5636C44.0824 15.3906 43.8231 15.2442 43.5172 15.1444C43.1648 15.0247 42.9919 14.998 42.7591 15.0313C42.5929 15.0579 42.307 15.1577 42.1274 15.2509C41.9412 15.344 41.6287 15.5836 41.4292 15.7898C41.2297 16.0027 40.9106 16.4286 40.731 16.7546C40.5448 17.074 40.3387 17.4133 40.2656 17.5065C40.1658 17.6329 40.0727 17.6728 39.9131 17.6661C39.8001 17.6661 39.6804 17.6462 39.6472 17.6329C39.6206 17.6196 39.4344 17.3202 39.2349 16.9609C39.0221 16.5816 38.6896 16.1159 38.437 15.8497C38.1776 15.5703 37.8717 15.3241 37.6723 15.2243C37.4861 15.1378 37.1868 15.0513 37.0073 15.0313C36.7679 15.0047 36.5751 15.0313 36.3091 15.1311C36.1096 15.2043 35.8702 15.3174 35.7771 15.3773ZM36.1828 33.1824C43.444 33.1957 43.5438 33.1957 43.6834 33.3288C43.8098 33.4485 43.8297 33.535 43.8231 34.6262L44.0691 34.4333C44.2087 34.3335 44.4415 34.1871 44.5877 34.1139C44.734 34.0407 44.9867 33.9409 45.153 33.901C45.3325 33.8477 45.665 33.8278 45.9841 33.8411C46.3898 33.8677 46.6025 33.9143 46.8619 34.0474C47.0547 34.1472 47.3207 34.3401 47.4537 34.4732C47.58 34.6129 47.7463 34.8591 47.8194 35.0254C47.8926 35.1918 47.9723 35.4912 47.9923 35.6908C48.0122 35.8904 47.9923 36.2364 47.9458 36.456C47.9059 36.6755 47.7529 37.0947 47.6199 37.3875C47.4803 37.6802 47.2343 38.0994 47.068 38.319C46.9018 38.5386 46.6291 38.8446 46.4563 38.9977C46.29 39.1573 45.9775 39.3703 45.7647 39.4767C45.5586 39.5832 44.9801 39.7961 44.488 39.9491C43.9959 40.1022 43.4839 40.2885 43.3576 40.355C43.2312 40.4282 43.0717 40.5746 43.0052 40.681C42.9387 40.8074 42.8921 41.0204 42.8921 41.2466C42.8921 41.546 42.8655 41.6458 42.7259 41.7789C42.6328 41.8787 42.4932 41.9452 42.3801 41.9452C42.2804 41.9452 42.1274 41.8787 42.041 41.7922C41.9612 41.7123 41.8947 41.5992 41.8947 41.546C41.8947 41.4928 41.7551 41.6524 41.5822 41.9119C41.4093 42.1648 41.1367 42.544 40.9704 42.7436C40.8042 42.9499 40.4717 43.2959 40.2323 43.5155C39.9929 43.735 39.6472 44.0278 39.1351 44.4137L33.0841 44.407L32.6984 44.1076C32.4923 43.9413 32.2995 43.8082 32.2662 43.8149C32.2396 43.8149 32.1 44.0611 31.9537 44.3605C31.8074 44.6599 31.4816 45.2188 31.2222 45.6047C30.9696 45.9906 30.5041 46.5628 30.1916 46.8755C29.879 47.1883 29.4535 47.5742 28.8617 48H22.8106L22.3252 47.6141C22.0659 47.4012 21.6137 46.9753 21.3278 46.6626C21.0418 46.3566 20.6495 45.8708 20.4633 45.5781C20.1641 45.1256 20.1109 45.0724 20.0644 45.1988C20.0378 45.272 19.9513 45.3851 19.8649 45.445C19.7718 45.5115 19.6454 45.5315 19.4991 45.5115C19.3795 45.4849 19.2398 45.4051 19.1866 45.3186C19.1268 45.2387 19.0869 45.0258 19.0869 44.8196C19.0869 44.6333 19.0403 44.3804 18.9871 44.274C18.9273 44.1609 18.7677 44.0145 18.6015 43.9346C18.4485 43.8548 17.9764 43.6885 17.5575 43.562C17.1386 43.429 16.58 43.2294 16.3273 43.1096C16.068 42.9898 15.7289 42.7769 15.5693 42.6372C15.4097 42.4908 15.1504 42.2114 14.9974 42.0117C14.8378 41.8121 14.6118 41.4528 14.4788 41.2133C14.3524 40.9738 14.1928 40.6145 14.1263 40.4149C14.0465 40.182 14.0066 39.8427 14 39.4834C14 39.0509 14.0332 38.8446 14.1396 38.6184C14.2128 38.4521 14.399 38.1926 14.5519 38.0329C14.7048 37.8798 14.9176 37.7068 15.0307 37.6536C15.1371 37.6004 15.403 37.5072 15.6092 37.454C15.9151 37.3742 16.0946 37.3675 16.4603 37.4274C16.713 37.4607 17.092 37.5671 17.2915 37.6603C17.491 37.7534 17.757 37.8998 17.87 37.993C17.9897 38.0795 18.1027 38.1526 18.1227 38.1526C18.1426 38.1526 18.1559 37.8998 18.1559 37.5871C18.1559 37.0481 18.1626 37.0149 18.3355 36.8885C18.5217 36.7554 18.5948 36.7487 23.5886 36.7554C26.3814 36.7554 28.6622 36.7354 28.6622 36.7022C28.6622 36.6755 28.6223 36.3229 28.5691 35.9237C28.5159 35.5178 28.456 34.8791 28.4294 34.4932C28.3895 33.9742 28.4028 33.7346 28.4693 33.555C28.5159 33.4219 28.6223 33.2822 28.6954 33.2423C28.7885 33.189 31.0294 33.1757 36.1828 33.1824ZM29.4801 34.8724C29.5067 35.2716 29.5599 35.784 29.5998 36.0235C29.633 36.263 29.6795 36.5225 29.6995 36.6023L29.7261 36.7554C32.7383 36.762 33.2437 36.782 33.3235 36.8419C33.3833 36.8885 33.4631 36.9883 33.503 37.0681C33.5629 37.1812 33.5629 37.4806 33.5163 38.2325C33.4831 38.7914 33.4099 39.5366 33.3567 39.8826C33.3035 40.2286 33.1971 40.7808 33.1173 41.1135C33.0442 41.4395 32.9046 41.9452 32.8181 42.2247L32.6519 42.7436C33.0309 43.0763 33.2104 43.2294 33.2969 43.2892C33.4365 43.3957 33.6826 43.409 36.1429 43.409H38.8359C39.328 43.0164 39.6738 42.6771 39.9264 42.4043C40.1725 42.1315 40.5382 41.6724 40.731 41.3796C40.9305 41.0869 41.2563 40.5014 41.4558 40.0822C41.6553 39.663 41.9412 38.9577 42.0875 38.5186C42.2272 38.0795 42.42 37.3143 42.5198 36.8219C42.6128 36.3295 42.7192 35.611 42.7591 35.225C42.799 34.8391 42.8256 34.4466 42.8256 34.3401V34.1605H29.4402L29.4801 34.8724ZM44.7473 35.1785C44.621 35.265 44.3883 35.4712 44.2287 35.6309C44.0691 35.7906 43.8696 36.0368 43.7832 36.1832C43.6967 36.3295 43.5637 36.7687 43.4839 37.1479C43.4041 37.5339 43.2379 38.1926 43.1116 38.6117C42.9852 39.0376 42.8921 39.3836 42.9054 39.3902C42.9121 39.3902 43.3975 39.2372 43.9826 39.0509C44.5678 38.8579 45.1729 38.6384 45.3325 38.5585C45.4854 38.4787 45.7381 38.2857 45.8844 38.1327C46.0373 37.9796 46.2435 37.7268 46.3432 37.5804C46.443 37.4341 46.6025 37.1679 46.6956 36.9816C46.7887 36.802 46.9018 36.4693 46.9417 36.2497C47.0015 35.9636 47.0015 35.7773 46.955 35.5843C46.9151 35.438 46.8153 35.2583 46.7289 35.1785C46.6491 35.0986 46.4829 34.9922 46.3632 34.9323C46.2435 34.8724 46.0041 34.8258 45.8312 34.8258C45.6583 34.8258 45.3923 34.8724 45.246 34.9256C45.0998 34.9789 44.8803 35.092 44.7473 35.1785ZM19.18 38.3656C19.1999 38.7049 19.2664 39.2771 19.3196 39.6431C19.3728 40.009 19.5058 40.6877 19.6188 41.1401C19.7319 41.5992 19.9314 42.2579 20.0577 42.6039C20.1907 42.9566 20.4301 43.5088 20.5963 43.8348C20.7626 44.1675 21.0551 44.6732 21.248 44.9659C21.4408 45.2587 21.8065 45.7245 22.0592 45.9973C22.3119 46.2767 22.6643 46.6094 22.8438 46.7491L23.1697 46.9953H28.5225C29.0146 46.6027 29.3737 46.2501 29.6463 45.964C29.9123 45.6712 30.3046 45.1789 30.5041 44.8661C30.7102 44.5601 31.0227 44.0012 31.1956 43.6352C31.3685 43.2693 31.6279 42.6106 31.7741 42.1714C31.9204 41.7323 32.1 41.0935 32.1731 40.7409C32.2463 40.3949 32.3526 39.7628 32.4125 39.3303C32.4657 38.8978 32.5122 38.3656 32.5122 38.146V37.7468H19.1268L19.18 38.3656ZM15.1969 38.7914C15.1238 38.8978 15.0307 39.1041 15.0041 39.2505C14.9708 39.4301 14.9908 39.6564 15.0639 39.9491C15.1238 40.1886 15.2701 40.5613 15.3831 40.7808C15.5028 41.0004 15.8087 41.393 16.0613 41.6524C16.4537 42.045 16.6066 42.1515 16.9923 42.2978C17.2516 42.391 17.7902 42.5706 18.1892 42.7037C18.5948 42.8368 18.9672 42.9632 19.0204 42.9765C19.1002 43.0031 19.0736 42.8568 18.9007 42.3311C18.781 41.9519 18.6081 41.2865 18.515 40.8474C18.4219 40.3883 18.2823 39.9292 18.1892 39.7628C18.0961 39.6098 17.87 39.3303 17.6772 39.1374C17.4843 38.9511 17.1452 38.7115 16.9258 38.6051C16.6332 38.472 16.4271 38.4188 16.1611 38.4188C15.9616 38.4254 15.6956 38.4654 15.5693 38.5119C15.4429 38.5585 15.2767 38.6849 15.1969 38.7914ZM30.9762 18.7906C31.056 18.7906 31.1956 18.8638 31.2887 18.9569C31.3818 19.0501 31.455 19.1832 31.455 19.2564C31.455 19.3295 31.435 19.4427 31.4084 19.5025C31.3818 19.5624 31.1491 19.7753 30.8898 19.9683C30.6371 20.1679 30.2514 20.5006 30.0386 20.7068C29.8325 20.9131 29.5732 21.2524 29.4668 21.4521C29.3604 21.6517 29.2407 21.9843 29.1941 22.184C29.1409 22.4102 29.121 22.7695 29.1476 23.1155C29.1675 23.4681 29.2407 23.8274 29.3338 24.0802C29.4202 24.2998 29.6396 24.7057 29.8258 24.9785C30.0054 25.2513 30.4243 25.737 30.7435 26.0564C31.2821 26.5953 31.322 26.6618 31.3087 26.8881C31.2954 27.0544 31.2355 27.1675 31.1225 27.2607C31.0028 27.3538 30.9097 27.3738 30.7568 27.3405C30.6504 27.3139 30.3711 27.1076 30.1384 26.8814C29.9056 26.6618 29.52 26.236 29.2872 25.9432C29.0478 25.6505 28.7353 25.1714 28.5957 24.8787C28.4494 24.5859 28.2898 24.1667 28.23 23.9472C28.1768 23.7209 28.1302 23.2618 28.1302 22.8826C28.1302 22.4967 28.1768 22.0509 28.2366 21.818C28.2964 21.5984 28.4427 21.2258 28.5691 20.9863C28.6954 20.7468 28.9414 20.3875 29.1143 20.1879C29.2939 19.9883 29.6928 19.6223 29.9987 19.3828C30.3046 19.1432 30.6171 18.9104 30.6903 18.8704C30.7634 18.8305 30.8898 18.7906 30.9762 18.7906ZM34.8795 22.5166C34.9726 22.5166 35.1255 22.5965 35.2252 22.6963C35.3915 22.8693 35.3981 22.9092 35.3582 23.2818C35.3316 23.5014 35.2452 23.8873 35.172 24.1468C35.0922 24.3996 34.9127 24.8521 34.7664 25.1448C34.6201 25.4376 34.4073 25.8102 34.2943 25.9765C34.1813 26.1429 33.9219 26.4822 33.7091 26.7417C33.503 26.9945 33.0974 27.4337 32.8115 27.7131C32.5189 27.9859 32.08 28.3984 31.8207 28.618C31.568 28.8376 30.5905 29.5961 29.6596 30.3014C28.7287 31.0133 27.7578 31.7585 27.4985 31.9714C27.2458 32.1777 26.807 32.5836 26.5343 32.8697C26.255 33.1624 25.9359 33.5417 25.8228 33.728C25.7031 33.9076 25.5768 34.227 25.5369 34.4266C25.497 34.6262 25.4505 34.8591 25.4305 34.9389C25.4172 35.0254 25.3175 35.1386 25.2044 35.1918C25.098 35.245 24.9584 35.2916 24.9052 35.2916C24.852 35.2916 24.7323 35.2184 24.6392 35.1252C24.5195 34.9988 24.473 34.8857 24.473 34.6728C24.473 34.5198 24.5328 34.2004 24.606 33.9609C24.6791 33.7213 24.8786 33.3221 25.0515 33.0626C25.2177 32.8031 25.6499 32.3108 25.9957 31.9648C26.3814 31.5789 27.4121 30.7405 28.5957 29.8423C29.6729 29.0172 30.7501 28.1855 30.9895 27.9859C31.2289 27.7863 31.701 27.3538 32.0468 27.0145C32.3925 26.6818 32.8647 26.1695 33.0974 25.8767C33.3301 25.584 33.636 25.1182 33.7823 24.8454C33.9219 24.5726 34.0948 24.1667 34.168 23.9472C34.2411 23.7276 34.3209 23.3816 34.3475 23.182C34.3874 22.9358 34.4539 22.7695 34.5536 22.663C34.6401 22.5832 34.7864 22.5166 34.8795 22.5166ZM18.1227 23.7409C18.4153 23.7542 18.7145 23.8207 18.9206 23.9072C19.1068 23.9871 19.3994 24.1667 19.5723 24.2998C19.7518 24.4329 20.0577 24.7456 20.6163 25.4442L20.7759 25.1914C20.8623 25.0583 21.0684 24.8121 21.228 24.6458C21.3943 24.4795 21.6735 24.2466 21.8531 24.1268C22.0326 24.007 22.2986 23.874 22.4449 23.8274C22.5912 23.7808 22.9502 23.7476 23.2495 23.7476C23.7282 23.7476 23.8346 23.7742 24.2801 23.9871C24.6326 24.1667 24.8719 24.3397 25.1246 24.6192C25.3374 24.8521 25.5303 25.1515 25.6034 25.3444C25.6699 25.5241 25.743 25.8235 25.7696 26.0098C25.7896 26.1894 25.7829 26.5421 25.743 26.7883C25.7031 27.0411 25.6233 27.3804 25.5635 27.5534C25.5037 27.7331 25.3507 28.0791 25.2244 28.3386C25.1047 28.5914 24.8254 29.0305 24.6193 29.31C24.4131 29.5894 24.1073 29.9687 23.941 30.1417C23.7748 30.3213 23.429 30.6474 23.1763 30.8736C22.917 31.0998 22.4715 31.4458 22.1789 31.6454C21.8863 31.845 21.4541 32.1178 21.2147 32.2509C20.9753 32.384 20.6961 32.4971 20.583 32.4971C20.47 32.4971 20.1641 32.364 19.8516 32.1843C19.559 32.018 19.0935 31.7252 18.8209 31.5323C18.5483 31.3393 18.0429 30.9135 17.6971 30.5941C17.358 30.2681 16.8726 29.7292 16.6266 29.4031C16.3805 29.0704 16.0547 28.5515 15.9018 28.2387C15.7555 27.926 15.5892 27.4935 15.5294 27.274C15.4695 27.0544 15.423 26.6219 15.423 26.3092C15.423 25.9033 15.4562 25.6372 15.556 25.3777C15.6358 25.1648 15.822 24.8587 16.0148 24.6458C16.1943 24.4462 16.5069 24.1933 16.6997 24.0869C16.8992 23.9804 17.1918 23.854 17.358 23.8008C17.5242 23.7542 17.87 23.7276 18.1227 23.7409ZM17.0189 25.0783C16.9324 25.1515 16.8061 25.2712 16.7396 25.3444C16.6798 25.4176 16.58 25.584 16.5268 25.7104C16.467 25.8368 16.4271 26.1295 16.4271 26.3558C16.4271 26.6219 16.4869 26.9613 16.5933 27.274C16.6864 27.5468 16.8593 27.9327 16.9723 28.119C17.092 28.3119 17.2849 28.6047 17.4112 28.771C17.5309 28.9374 17.8767 29.3233 18.1759 29.6294C18.4751 29.9354 18.9339 30.3413 19.1866 30.5342C19.4459 30.7272 19.8582 31.0067 20.1043 31.1597C20.3503 31.3061 20.5764 31.4325 20.603 31.4325C20.6296 31.4325 20.9221 31.2595 21.248 31.0466C21.5804 30.8337 22.0725 30.4744 22.3451 30.2415C22.6178 30.0153 23.0633 29.5828 23.3293 29.2834C23.5952 28.984 23.9477 28.5249 24.1139 28.272C24.2735 28.0125 24.4863 27.58 24.5794 27.3072C24.7257 26.8881 24.7523 26.7217 24.7323 26.2626C24.7124 25.7902 24.6858 25.6838 24.5062 25.4376C24.3932 25.2779 24.1538 25.0716 23.941 24.9519C23.6418 24.7855 23.5022 24.7456 23.1763 24.7456C22.9369 24.7523 22.6976 24.7988 22.5646 24.8654C22.4449 24.9252 22.2254 25.0916 22.0725 25.2247C21.9196 25.3644 21.6868 25.6438 21.5472 25.8434C21.4142 26.0431 21.2214 26.3691 21.1283 26.5554C21.0019 26.8082 20.8955 26.9213 20.7692 26.9613C20.6695 26.9945 20.5032 26.9945 20.4035 26.9613C20.2638 26.9213 20.1508 26.7816 19.938 26.3691C19.7784 26.0763 19.5058 25.6638 19.3196 25.4642C19.1401 25.2579 18.8674 25.025 18.7212 24.9386C18.5749 24.8521 18.3222 24.7656 18.1559 24.7456C17.9565 24.719 17.7437 24.7523 17.5176 24.8254C17.3314 24.892 17.1053 25.0051 17.0189 25.0783ZM33.0641 28.1057C33.1971 28.1057 33.4365 28.2521 33.902 28.6247C34.2544 28.9174 34.7398 29.3632 34.9792 29.6227C35.2186 29.8822 35.4912 30.2548 35.591 30.4477C35.6907 30.6407 35.8037 30.9667 35.8436 31.1663C35.8968 31.4192 35.8968 31.5855 35.8503 31.7119C35.8104 31.8184 35.7173 31.9249 35.6442 31.9648C35.571 31.998 35.4447 32.0313 35.3649 32.0313C35.2784 32.0313 35.1454 31.9648 35.0723 31.8849C34.9925 31.7984 34.9061 31.6121 34.8795 31.4658C34.8529 31.3194 34.7797 31.0932 34.7132 30.9667C34.6467 30.8403 34.5071 30.6274 34.4073 30.501C34.301 30.3679 34.015 30.0885 33.7756 29.8689C33.5363 29.6493 33.1705 29.3299 32.9644 29.1503C32.6519 28.8908 32.5854 28.7977 32.5787 28.6047C32.5654 28.4384 32.6053 28.3386 32.7184 28.2387C32.8048 28.1656 32.9644 28.1057 33.0641 28.1057Z" fill="#E75C54"/>
</svg>
