<svg width="62" height="62" viewBox="0 0 62 62" fill="none" xmlns="http://www.w3.org/2000/svg">
<rect width="62" height="62" rx="7" fill="#F5E1E0"/>
<path fill-rule="evenodd" clip-rule="evenodd" d="M37.6477 15C37.7356 15 37.8548 15.0375 37.9175 15.0812C37.974 15.125 38.0493 15.225 38.0807 15.3124C38.1309 15.4374 38.0995 15.6061 37.8987 16.1873C37.7669 16.5809 37.6603 16.9121 37.6728 16.9121C37.6791 16.9184 37.8297 16.9684 37.9991 17.0246C38.1748 17.0808 38.6831 17.3058 39.1286 17.5183C39.5805 17.737 40.2394 18.1181 40.6033 18.3618C40.9673 18.5993 41.4317 18.9492 41.6325 19.1367C41.9525 19.4241 42.0027 19.4991 42.0027 19.6866C42.0027 19.8428 41.9588 19.9365 41.8521 20.0178C41.7705 20.0803 41.6325 20.1302 41.5446 20.1302C41.4442 20.1302 41.2183 19.9928 40.9485 19.7741C40.71 19.5741 40.2394 19.2429 39.9131 19.0242C39.5867 18.8118 39.2102 18.5868 39.0847 18.5181C38.9529 18.4556 38.84 18.4181 38.8212 18.4368C38.8086 18.4556 38.84 18.793 38.8965 19.1867C38.9655 19.7241 38.9969 20.4677 38.9969 22.1236C39.0031 23.9233 38.9843 24.5169 38.8902 25.2792C38.8212 25.7916 38.7647 26.2416 38.7647 26.2728C38.7584 26.304 40.1641 26.704 41.8897 27.1664C43.6154 27.6225 45.0336 27.9912 45.0462 27.985C45.0587 27.9725 45.0336 27.6725 44.996 27.3101C44.9583 26.9477 44.8642 26.3853 44.7952 26.0603C44.7261 25.7354 44.5693 25.1855 44.45 24.8418C44.3308 24.4981 44.0798 23.8983 43.8915 23.5108C43.7096 23.1297 43.3393 22.4985 43.082 22.1236C42.7557 21.6425 42.6114 21.38 42.6114 21.2488C42.6114 21.1426 42.6679 21.0051 42.7369 20.9363C42.8059 20.8676 42.9314 20.8114 43.0193 20.8114C43.1071 20.8114 43.2264 20.8364 43.2891 20.8676C43.3456 20.8926 43.5652 21.1675 43.7786 21.4737C43.9919 21.7799 44.2869 22.2548 44.4438 22.5298C44.6006 22.8047 44.8265 23.2546 44.9458 23.5296C45.065 23.8045 45.2407 24.2419 45.3286 24.4981C45.4164 24.7543 45.5607 25.248 45.6486 25.5917C45.7364 25.9354 45.8494 26.5477 45.9059 26.9539C45.9561 27.3538 46 27.9287 46 28.7786L45.2031 29.9596C44.5379 30.9469 44.3559 31.1656 44.1488 31.2718C43.9919 31.3468 43.7911 31.3906 43.6154 31.3843C43.4585 31.3781 42.2474 31.0781 40.9171 30.7219C39.5177 30.3408 38.4321 30.0158 38.3442 29.9471C38.2564 29.8783 38.1309 29.7346 38.0619 29.6159C37.974 29.4722 37.9175 29.2035 37.8109 28.1099L37.4343 28.6536C37.1582 29.0535 36.9951 29.2222 36.8068 29.3097C36.6688 29.3784 36.4554 29.4347 36.3362 29.4347C36.217 29.4347 35.6773 29.3222 35.1439 29.1847C34.6105 29.041 34.165 28.9348 34.1587 28.9473C34.1524 28.9598 33.5814 31.0656 32.8911 33.6339C32.1945 36.2084 31.6298 38.3267 31.6298 38.3517C31.6298 38.3829 32.4707 38.4204 33.4935 38.4392C34.5226 38.4642 35.4639 38.4642 35.5832 38.4454C35.7714 38.4204 36.0789 38.133 37.8109 36.4021C39.5867 34.6212 39.8628 34.365 40.2268 34.1963C40.4527 34.09 40.8481 33.9525 41.1053 33.8963C41.4191 33.8276 41.7329 33.8088 42.0466 33.8276C42.3353 33.8526 42.7934 33.9525 43.2389 34.0963C43.6342 34.2212 44.1112 34.3775 44.2931 34.44C44.5316 34.5274 44.6446 34.6087 44.7136 34.7461C44.7638 34.8461 44.8077 35.0023 44.8077 35.0898C44.8077 35.1773 44.7763 35.3085 44.7387 35.3898C44.701 35.4648 43.2703 36.9207 38.4635 41.7135L39.2667 43.4632C40.0323 45.1441 40.0637 45.2316 40.0699 46.0564H42.329C44.5818 46.0564 44.5881 46.0564 44.7324 46.2002C44.8203 46.2814 44.8705 46.4126 44.8705 46.5251C44.8705 46.6313 44.8077 46.775 44.5881 47L15.2515 46.9938L15.126 46.825C15.0507 46.7251 14.9942 46.5876 15.0005 46.5126C15.0005 46.4314 15.0695 46.3001 15.308 46.0564H17.9184L17.9247 45.6065C17.931 45.1754 17.9561 45.0941 18.4393 44.0443C18.7217 43.4319 18.9539 42.9195 18.9539 42.9008C18.9539 42.8821 18.6589 42.8696 17.6361 42.8696L17.1654 42.4134L17.2093 41.7823C17.2345 41.4386 17.3035 40.9824 17.36 40.7762C17.4164 40.57 17.5482 40.2326 17.6549 40.0264C17.7553 39.8202 17.9875 39.514 18.1695 39.339C18.3514 39.1703 18.6652 38.9391 18.866 38.8266C19.0668 38.7204 19.4057 38.5829 19.6128 38.5329C19.9202 38.4517 20.3846 38.4329 24.1623 38.4329L24.3192 38.5891C24.407 38.6766 24.476 38.8203 24.476 38.9203C24.476 39.0141 24.4196 39.1453 24.338 39.2265C24.1937 39.364 24.1623 39.364 21.9973 39.3827C19.87 39.4015 19.7885 39.4077 19.5061 39.5452C19.3366 39.6202 19.0543 39.8202 18.8786 39.9889C18.6589 40.1888 18.4832 40.4263 18.364 40.6887C18.2448 40.9449 18.1695 41.2449 18.1067 41.9322H27.3313C34.0646 41.9322 36.6248 41.9135 36.8068 41.8573C37.0202 41.801 37.5724 41.2699 43.6468 35.2335L43.0193 35.0211C42.6741 34.9024 42.2223 34.7899 42.0152 34.7649C41.758 34.7399 41.507 34.7649 41.2308 34.8336C41.0049 34.8961 40.6849 35.0148 40.5155 35.1086C40.3084 35.2211 39.6056 35.8897 38.3505 37.1707C36.8194 38.7329 36.4303 39.0953 36.1479 39.2328C35.8404 39.3765 35.7275 39.3952 35.1125 39.4015C34.736 39.4015 32.5397 39.3952 26.0448 39.3702L25.8754 39.2015C25.7436 39.0578 25.7185 38.9891 25.7562 38.8391C25.775 38.7391 25.8566 38.6016 25.9382 38.5392C26.0637 38.4392 26.2582 38.4267 28.3541 38.4329C30.4689 38.4329 30.6257 38.4267 30.6571 38.3267C30.6697 38.2642 31.247 36.1209 31.9373 33.5589C32.6213 30.9969 33.1986 28.8535 33.2111 28.7848C33.23 28.6848 33.1045 28.6348 32.2573 28.4099C31.7239 28.2662 31.1842 28.0912 31.065 28.0162C30.9395 27.9412 30.7826 27.7725 30.7073 27.6163C30.6195 27.4476 30.563 27.2226 30.5567 27.0289C30.5567 26.8602 30.5316 26.5915 30.4689 26.1541L30.1426 26.6227C29.9668 26.8789 29.7598 27.1539 29.6782 27.2289C29.5966 27.3038 29.4523 27.3913 29.3582 27.4288C29.2577 27.4663 29.1071 27.4976 29.013 27.4976C28.9126 27.4976 27.7203 27.1976 26.3586 26.8352C24.5764 26.3603 23.8234 26.1291 23.6791 26.0228C23.5661 25.9416 23.4218 25.7791 23.3653 25.6729C23.29 25.5292 23.2335 25.1543 23.1833 24.4357C23.1394 23.867 23.1018 23.2234 23.0955 22.9984C23.0955 22.6298 23.1206 22.5548 23.3528 22.1549C23.4971 21.9174 23.8046 21.4675 24.043 21.155C24.2752 20.8489 24.6831 20.3552 24.9592 20.0678C25.2291 19.7803 25.7436 19.3054 26.1076 19.018C26.4716 18.7243 27.0049 18.3431 27.2999 18.1619C27.5948 17.9807 28.0592 17.7182 28.3353 17.5807C28.6114 17.4433 29.1071 17.2246 29.4335 17.0933C29.7598 16.9684 30.2869 16.7934 30.5944 16.7122C30.9081 16.6309 31.3976 16.5185 31.6925 16.4685C31.9875 16.4185 32.5773 16.3497 33.0103 16.3122C33.5249 16.2748 34.0834 16.2748 34.6293 16.3122C35.0811 16.3497 35.7463 16.431 36.104 16.4997C36.4554 16.5622 36.7503 16.6122 36.7503 16.6059C36.7566 16.5997 36.8633 16.2997 36.9888 15.9373C37.1206 15.5749 37.2837 15.2187 37.3528 15.1437C37.4281 15.0625 37.5598 15 37.6477 15ZM31.6298 17.437C31.2658 17.512 30.701 17.6557 30.3747 17.762C30.0484 17.8682 29.5088 18.0682 29.1824 18.2181C28.8561 18.3618 28.3604 18.6118 28.0843 18.7805C27.8082 18.9492 27.3877 19.2304 27.143 19.4054C26.9045 19.5804 26.4904 19.9115 26.2331 20.1365C25.9758 20.3615 25.5679 20.7801 25.3232 21.0613C25.0847 21.3425 24.7521 21.7674 24.589 22.0049C24.4196 22.2423 24.2941 22.4485 24.3066 22.461C24.3129 22.4735 24.8588 22.6298 25.5114 22.7985C26.1703 22.9734 27.5509 23.3421 28.5863 23.6171C29.6217 23.8983 30.5002 24.1232 30.5316 24.1232C30.5693 24.1232 30.6885 23.8795 30.8077 23.5733C30.927 23.2734 31.2219 22.6235 31.4729 22.1236C31.7239 21.6237 32.113 20.9113 32.3452 20.5302C32.5773 20.1552 32.9915 19.5366 33.2676 19.1554C33.5374 18.7805 33.9893 18.1994 34.2716 17.8744L34.7799 17.2808C34.2089 17.2183 33.9328 17.1996 33.7947 17.2058C33.6567 17.2058 33.2613 17.2246 32.9162 17.2558C32.5711 17.2808 31.9937 17.362 31.6298 17.437ZM34.2026 19.4679C33.9077 19.8553 33.4872 20.4677 33.2676 20.8239C33.0417 21.18 32.7028 21.7799 32.502 22.1549C32.3012 22.536 31.9937 23.1734 31.8243 23.5796C31.6486 23.9795 31.5043 24.3294 31.5043 24.3607C31.5043 24.3857 31.6925 24.4544 31.9247 24.5169C32.1632 24.5731 33.5814 24.9481 35.0811 25.348C36.5809 25.7479 37.8171 26.0603 37.8234 26.0478C37.8297 26.0353 37.8862 25.6667 37.9489 25.2168C38.0368 24.5731 38.0556 23.9545 38.0619 22.2486C38.0619 20.5052 38.043 19.9303 37.9489 19.2492C37.8862 18.7868 37.8171 18.2931 37.792 18.1619C37.7544 17.9494 37.7167 17.9057 37.4971 17.8307C37.359 17.7807 36.9951 17.6745 36.6813 17.587C36.3738 17.5058 36.0663 17.437 36.0099 17.437C35.9534 17.437 35.6459 17.737 35.3196 18.0994C34.9996 18.4618 34.4975 19.0742 34.2026 19.4679ZM24.1435 24.5231C24.1686 24.9293 24.2062 25.2667 24.225 25.2792C24.2439 25.2917 25.3295 25.5854 26.641 25.9354C28.5675 26.4478 29.0381 26.554 29.0946 26.4853C29.1322 26.4415 29.377 26.0853 29.6405 25.6979L30.1237 24.998C29.6154 24.8606 28.2788 24.5044 26.8292 24.117C25.3797 23.7358 24.156 23.4046 24.1184 23.3859C24.0619 23.3609 24.0493 23.4171 24.0682 23.5671C24.0807 23.6858 24.1121 24.1107 24.1435 24.5231ZM31.4729 26.5727C31.498 27.0726 31.5231 27.1976 31.6172 27.2414C31.6737 27.2726 32.6966 27.56 33.8889 27.8787C35.0811 28.1974 36.1354 28.4599 36.2358 28.4599C36.3927 28.4661 36.468 28.3849 36.9261 27.735C37.2022 27.3288 37.4218 26.9852 37.403 26.9727C37.3841 26.9539 36.0601 26.5852 34.4536 26.1541C32.8472 25.7292 31.498 25.373 31.4478 25.373C31.385 25.373 31.3725 25.4417 31.4039 25.6667C31.4227 25.8354 31.4541 26.2416 31.4729 26.5727ZM38.84 28.8973L38.8776 29.2035C43.4774 30.4345 43.6531 30.472 43.7598 30.3782C43.8225 30.322 44.0798 29.9783 44.3245 29.6034C44.5755 29.2347 44.7638 28.9223 44.745 28.9098C44.7261 28.8973 43.4146 28.5411 41.827 28.1224C40.2394 27.6975 38.8965 27.3413 38.84 27.3226C38.7459 27.2976 38.7396 27.3601 38.771 27.9412C38.7898 28.2974 38.8212 28.7286 38.84 28.8973ZM36.9449 42.8258C36.9198 42.8321 37.1959 43.5007 37.5661 44.3068C37.9301 45.1129 38.3003 45.8377 38.3819 45.9127C38.4635 45.994 38.5953 46.0564 38.6768 46.0564C38.7521 46.0627 38.8839 46.0064 38.9718 45.9377C39.0847 45.8502 39.1286 45.7627 39.1224 45.6065C39.1161 45.4878 38.8274 44.7817 38.4321 43.9131C38.0556 43.1008 37.7356 42.4321 37.7167 42.4384C37.6979 42.4446 37.5285 42.5321 37.3402 42.6321C37.152 42.7258 36.9763 42.8133 36.9449 42.8258ZM19.87 43.1945C19.7947 43.3757 19.5186 43.9631 19.2676 44.5005C19.0166 45.0379 18.8158 45.5378 18.8221 45.6128C18.8221 45.6815 18.8974 45.8127 18.9852 45.9002C19.0731 45.9877 19.2049 46.0564 19.2864 46.0564C19.3617 46.0627 19.4872 46.0127 19.5626 45.9502C19.6441 45.8877 19.9893 45.2191 20.3658 44.3818C20.7297 43.5882 21.0247 42.9195 21.0247 42.9008C21.0247 42.8821 20.7988 42.8696 20.5227 42.8696H20.0206L19.87 43.1945ZM21.9346 43.1945C21.853 43.3757 21.5392 44.0568 21.2443 44.7067C20.9431 45.3628 20.6858 45.9315 20.667 45.9752C20.6482 46.0377 21.4577 46.0502 24.6078 46.0377L28.5738 46.0189C29.2326 43.6007 29.4272 42.8883 29.4272 42.8821C29.4272 42.8758 27.7768 42.8633 25.7562 42.8633H22.0789L21.9346 43.1945ZM29.9794 44.4443C29.7472 45.3128 29.5652 46.0314 29.5715 46.0377C29.5841 46.0502 31.3286 46.0502 33.4559 46.0377L37.3214 46.0252L35.8655 42.8633L30.3998 42.8696L29.9794 44.4443Z" fill="#E75C54"/>
</svg>
