<svg width="59" height="59" viewBox="0 0 59 59" fill="none" xmlns="http://www.w3.org/2000/svg">
<circle cx="29.5" cy="29.5" r="29.5" fill="#EEEEEE"/>
<path fill-rule="evenodd" clip-rule="evenodd" d="M29.4709 16.0014C32.3364 15.9962 32.558 16.0014 32.9538 16.0998C33.2177 16.162 33.471 16.2656 33.6293 16.3692C33.7665 16.4625 33.9618 16.6542 34.062 16.7992C34.1676 16.9391 34.2837 17.1878 34.3259 17.3432C34.3681 17.4987 34.405 17.8458 34.405 18.1049C34.405 18.4313 34.3786 18.6385 34.3259 18.7421C34.2837 18.8302 34.1728 18.9338 34.0884 18.9753C34.004 19.0167 33.872 19.053 33.7982 19.053C33.7243 19.053 33.6029 19.0219 33.5185 18.9805C33.4393 18.9442 33.3391 18.8665 33.2968 18.8198C33.2441 18.7525 33.2071 18.5504 33.186 18.1774C33.1702 17.8406 33.128 17.5816 33.0805 17.5142C33.0383 17.4469 32.9485 17.3691 32.8799 17.3329C32.7797 17.2811 32.0303 17.2655 29.4973 17.2655C26.9643 17.2655 26.2149 17.2811 26.1147 17.3329C26.0461 17.3691 25.9564 17.4469 25.9142 17.5142C25.8667 17.5816 25.8244 17.8406 25.8086 18.1774C25.7875 18.5504 25.7506 18.7525 25.6978 18.8198C25.6556 18.8665 25.5553 18.9442 25.4709 18.9805C25.3917 19.0219 25.2703 19.053 25.1965 19.053C25.1226 19.053 24.9907 19.0167 24.9062 18.9753C24.8165 18.9338 24.711 18.8302 24.6688 18.7421C24.616 18.6385 24.5896 18.4313 24.5896 18.1049C24.5896 17.8458 24.6265 17.4987 24.6688 17.3432C24.711 17.1878 24.8218 16.9443 24.9168 16.8096C25.0118 16.6749 25.207 16.4832 25.3548 16.3796C25.5236 16.2656 25.7664 16.162 26.0144 16.0998C26.3785 16.0117 26.6582 16.0014 29.4709 16.0014ZM41.5555 20.2705L41.8722 20.4001C42.0727 20.4778 42.2838 20.6177 42.4368 20.7731C42.5793 20.9078 42.7534 21.1565 42.9803 21.6176L42.9962 23.8714C43.0067 26.0059 43.0015 26.1407 42.9012 26.4722C42.8168 26.752 42.7376 26.8867 42.516 27.1199C42.3313 27.3168 42.136 27.4618 41.946 27.5447C41.7824 27.6121 39.6347 28.1095 36.8325 28.7208C34.1781 29.3011 31.9987 29.7777 31.9881 29.7777C31.9828 29.7777 31.9723 30.2596 31.9617 30.8502C31.9512 31.7051 31.9353 31.9538 31.872 32.047C31.8298 32.1092 31.7137 32.1973 31.6187 32.2387C31.4815 32.3009 31.1174 32.3165 29.4973 32.3165C27.8772 32.3165 27.5131 32.3009 27.3706 32.2387C27.2809 32.1973 27.1648 32.1092 27.1226 32.047C27.0593 31.9538 27.0435 31.7051 27.0329 30.8502C27.0223 30.2596 27.0118 29.7777 27.0012 29.7777C26.996 29.7777 24.8165 29.3011 22.1621 28.7208C19.36 28.1095 17.2122 27.6121 17.0486 27.5447C16.8639 27.467 16.6634 27.3168 16.4892 27.1354C16.2993 26.9282 16.1884 26.7572 16.104 26.5137C15.9879 26.1821 15.9879 26.1407 16.0143 21.6176L16.162 21.3171C16.2412 21.1565 16.4101 20.9182 16.542 20.7886C16.6739 20.6591 16.8903 20.5037 17.0328 20.4467C17.17 20.3845 17.4022 20.3172 17.5446 20.2964C17.6924 20.2757 23.1542 20.2602 41.5555 20.2705ZM17.4497 21.6072C17.3705 21.6694 17.2808 21.8041 17.2544 21.9026C17.2227 22.0062 17.2016 22.8973 17.2069 24.0268C17.2069 25.3894 17.228 26.0215 17.2702 26.1458C17.3072 26.2443 17.3916 26.3634 17.4655 26.4152C17.5499 26.4774 19.1964 26.8608 22.2941 27.5395L26.9907 28.5706C27.0487 28.0784 27.0962 27.8711 27.1332 27.7934C27.1701 27.7157 27.2809 27.6121 27.3759 27.5706C27.5131 27.5136 27.9089 27.4981 29.4973 27.4981C31.0857 27.4981 31.4815 27.5136 31.624 27.5706C31.7137 27.6121 31.8245 27.7157 31.8615 27.7934C31.8984 27.8711 31.9459 28.0784 31.967 28.2545L32.0039 28.5706C39.7982 26.8608 41.4447 26.4774 41.5291 26.4152C41.603 26.3634 41.6875 26.2443 41.7244 26.1458C41.7666 26.0215 41.7877 25.3946 41.7877 24.0268C41.793 22.8921 41.7719 22.001 41.7402 21.887C41.7086 21.7679 41.6294 21.6591 41.5291 21.5917C41.3708 21.4881 41.2811 21.4881 29.4815 21.4881H17.5974L17.4497 21.6072ZM28.2836 31.13H30.7111V28.6949H28.2836V31.13ZM17.3336 28.7312C17.418 28.7467 17.5235 28.7778 17.571 28.8089C17.6133 28.8348 17.6819 28.9073 17.7293 28.9695C17.798 29.0679 17.8085 29.6586 17.8349 33.2283C17.856 37.0623 17.8666 37.3835 17.951 37.513C18.009 37.6011 18.1251 37.6737 18.2412 37.7047C18.3679 37.741 22.3363 37.7565 29.4973 37.7565C36.6584 37.7565 40.6215 37.741 40.7481 37.7047C40.8853 37.6737 40.9803 37.6011 41.0542 37.4871C41.1545 37.3213 41.1597 37.2281 41.1545 33.3319C41.1545 31.1352 41.1756 29.2596 41.1967 29.1664C41.2178 29.0679 41.2864 28.9384 41.3497 28.8814C41.4078 28.8193 41.5291 28.7519 41.6136 28.7312C41.698 28.7156 41.8563 28.7208 41.9619 28.7467C42.0885 28.7778 42.1993 28.8503 42.2679 28.954C42.3682 29.1042 42.3735 29.1819 42.3471 37.6322L42.2099 37.9172C42.136 38.0726 41.9777 38.3006 41.8563 38.4197C41.7349 38.5389 41.5344 38.6891 41.4078 38.7513C41.2864 38.8083 41.0278 38.8912 40.8431 38.9326C40.5581 38.9896 38.5634 39 29.4973 39C20.426 39 18.4312 38.9896 18.1515 38.9326C17.9615 38.8912 17.7082 38.8083 17.5816 38.7513C17.4602 38.6891 17.2597 38.5389 17.1383 38.4197C17.0169 38.3006 16.8533 38.0726 16.6475 37.6322L16.6317 33.3682C16.6212 29.1249 16.6212 29.1042 16.7267 28.954C16.79 28.8659 16.9167 28.7778 17.0064 28.7467C17.0961 28.7208 17.2439 28.7156 17.3336 28.7312Z" fill="#64727D" stroke="#64727D" stroke-width="0.8"/>
</svg>
