<svg width="59" height="59" viewBox="0 0 59 59" fill="none" xmlns="http://www.w3.org/2000/svg">
<g filter="url(#filter0_i_0_293)">
<path fill-rule="evenodd" clip-rule="evenodd" d="M27.8807 0.390009C20.6252 -1.25914 13.2141 2.44118 10.1724 9.23164L1.74526 28.0448C-1.8887 36.1575 1.97476 45.6628 10.2381 48.9397L12.7083 49.9193C26.8377 53.2678 34.469 39.1532 34.905 31.7895V31.7576L32.1835 33.5226L31.6337 31.7267L33.4785 29.1977L31.4628 22.6127L22.8008 28.5379L22.0678 26.1434L29.8135 17.225L27.7977 10.6399C27.4935 9.6462 28.0502 8.59846 29.0439 8.29427C30.0376 7.99007 31.0854 8.54669 31.3896 9.54043L33.4053 16.1255L44.8161 19.1798L45.5491 21.5744L35.0546 21.5132L37.0704 28.0982L40.0147 29.1611L40.5644 30.9571L37.2236 31.0197L37.4946 31.7895C40.7362 44.0801 37.9802 53.0164 34.4168 58.4179C43.1119 60.7662 52.1959 55.1964 53.824 46.079L58.0336 22.5051C59.4994 14.2965 54.2559 6.38497 46.1249 4.53682L27.8807 0.390009ZM27.9695 41.4066C29.241 41.4066 30.2717 40.3758 30.2717 39.1043C30.2717 37.8328 29.241 36.802 27.9695 36.802C26.6979 36.802 25.6672 37.8328 25.6672 39.1043C25.6672 40.3758 26.6979 41.4066 27.9695 41.4066ZM42.8737 34.7422C42.8737 35.3445 42.3854 35.8328 41.7831 35.8328C41.1808 35.8328 40.6926 35.3445 40.6926 34.7422C40.6926 34.1399 41.1808 33.6517 41.7831 33.6517C42.3854 33.6517 42.8737 34.1399 42.8737 34.7422ZM45.1758 50.3734C47.1165 50.3734 48.6898 48.8001 48.6898 46.8593C48.6898 44.9186 47.1165 43.3453 45.1758 43.3453C43.2351 43.3453 41.6618 44.9186 41.6618 46.8593C41.6618 48.8001 43.2351 50.3734 45.1758 50.3734Z" fill="url(#paint0_linear_0_293)"/>
</g>
<defs>
<filter id="filter0_i_0_293" x="0.376465" y="0" width="57.9023" height="58.9556" filterUnits="userSpaceOnUse" color-interpolation-filters="sRGB">
<feFlood flood-opacity="0" result="BackgroundImageFix"/>
<feBlend mode="normal" in="SourceGraphic" in2="BackgroundImageFix" result="shape"/>
<feColorMatrix in="SourceAlpha" type="matrix" values="0 0 0 0 0 0 0 0 0 0 0 0 0 0 0 0 0 0 127 0" result="hardAlpha"/>
<feOffset dx="3.64286" dy="3.64286"/>
<feComposite in2="hardAlpha" operator="arithmetic" k2="-1" k3="1"/>
<feColorMatrix type="matrix" values="0 0 0 0 0.125 0 0 0 0 0.00104167 0 0 0 0 0.00104167 0 0 0 0.21 0"/>
<feBlend mode="normal" in2="shape" result="effect1_innerShadow_0_293"/>
</filter>
<linearGradient id="paint0_linear_0_293" x1="27.2807" y1="-0.0810529" x2="27.2807" y2="47.4873" gradientUnits="userSpaceOnUse">
<stop stop-color="#F88A4E"/>
<stop offset="1" stop-color="#CD4249"/>
</linearGradient>
</defs>
</svg>
