<svg width="33" height="33" viewBox="0 0 33 33" fill="none" xmlns="http://www.w3.org/2000/svg">
<g clip-path="url(#clip0_320_1179)">
<path d="M32.1079 8.31117C31.9256 7.62507 31.5662 6.99889 31.0659 6.4953C30.5655 5.99171 29.9416 5.62838 29.2567 5.44165C26.7354 4.76367 16.6572 4.76367 16.6572 4.76367C16.6572 4.76367 6.5791 4.76367 4.05774 5.44165C3.37282 5.62838 2.74896 5.99171 2.24858 6.4953C1.74821 6.99889 1.38887 7.62507 1.20654 8.31117C0.532227 10.8435 0.532227 16.1245 0.532227 16.1245C0.532227 16.1245 0.532227 21.4054 1.20654 23.9378C1.38887 24.6239 1.74821 25.25 2.24858 25.7536C2.74896 26.2572 3.37282 26.6206 4.05774 26.8073C6.5791 27.4853 16.6572 27.4853 16.6572 27.4853C16.6572 27.4853 26.7354 27.4853 29.2567 26.8073C29.9416 26.6206 30.5655 26.2572 31.0659 25.7536C31.5662 25.25 31.9256 24.6239 32.1079 23.9378C32.7822 21.4054 32.7822 16.1245 32.7822 16.1245C32.7822 16.1245 32.7822 10.8435 32.1079 8.31117Z" fill="#797E86"/>
<path d="M13.3584 20.9198V11.3291L21.7874 16.1245L13.3584 20.9198Z" fill="#1D2026"/>
</g>
<defs>
<clipPath id="clip0_320_1179">
<rect width="32.25" height="32.25" fill="white" transform="translate(0.5 -0.000488281)"/>
</clipPath>
</defs>
</svg>
