<svg width="28" height="33" viewBox="0 0 28 33" fill="none" xmlns="http://www.w3.org/2000/svg">
<path d="M27.4079 25.1323C26.9202 26.259 26.3429 27.2962 25.6741 28.2497C24.7623 29.5496 24.0158 30.4494 23.4405 30.9491C22.5487 31.7692 21.5932 32.1893 20.57 32.2132C19.8354 32.2132 18.9496 32.0041 17.9184 31.5801C16.8838 31.1581 15.9331 30.9491 15.0638 30.9491C14.152 30.9491 13.1742 31.1581 12.1283 31.5801C11.0808 32.0041 10.237 32.2251 9.59178 32.247C8.61058 32.2888 7.63256 31.8568 6.65633 30.9491C6.03325 30.4056 5.2539 29.474 4.32027 28.1542C3.31856 26.7448 2.49502 25.1104 1.84984 23.2471C1.15888 21.2346 0.8125 19.2857 0.8125 17.3989C0.8125 15.2376 1.27951 13.3736 2.21493 11.8115C2.95009 10.5567 3.92811 9.56697 5.15218 8.84037C6.37624 8.11378 7.69885 7.74351 9.12318 7.71982C9.90253 7.71982 10.9245 7.96089 12.1946 8.43467C13.4611 8.91005 14.2743 9.15112 14.6308 9.15112C14.8973 9.15112 15.8007 8.86924 17.3321 8.30727C18.7804 7.78611 20.0026 7.57032 21.0039 7.65532C23.7172 7.8743 25.7557 8.94389 27.1113 10.8709C24.6847 12.3412 23.4843 14.4005 23.5082 17.0424C23.5301 19.1001 24.2766 20.8125 25.7437 22.1722C26.4086 22.8032 27.1511 23.2909 27.9773 23.6373C27.7981 24.1569 27.609 24.6545 27.4079 25.1323ZM21.1851 0.64494C21.1851 2.25781 20.5958 3.76374 19.4213 5.15761C18.004 6.81466 16.2896 7.77217 14.4305 7.62108C14.4068 7.42759 14.3931 7.22394 14.3931 7.00994C14.3931 5.46159 15.0671 3.80455 16.2641 2.44969C16.8617 1.7637 17.6218 1.19331 18.5435 0.738302C19.4632 0.29008 20.3331 0.0422036 21.1512 -0.000244141C21.1751 0.215371 21.1851 0.431 21.1851 0.644919V0.64494Z" fill="#797E86"/>
</svg>
