<svg width="58" height="59" viewBox="0 0 58 59" fill="none" xmlns="http://www.w3.org/2000/svg">
<g filter="url(#filter0_i_156_884)">
<path fill-rule="evenodd" clip-rule="evenodd" d="M28.8463 0.443572C20.5949 -1.43193 12.1666 2.77625 8.70738 10.4987L1.55667 26.4624C-2.57607 35.6885 1.81767 46.4985 11.2152 50.2252L11.9144 50.5024C26.2914 53.9094 34.0565 39.5474 34.5001 32.0545V32.0219L31.7308 33.8179L31.1714 31.9905L33.0485 29.4172L30.9974 22.7166L22.1835 28.7458L21.4376 26.3092L29.3192 17.2344L27.2681 10.5338C26.9585 9.52264 27.5249 8.45652 28.5361 8.14699C29.5473 7.83745 30.6134 8.40384 30.9229 9.41501L32.9741 16.1156L44.585 19.2235L45.3308 21.6601L34.6523 21.5978L36.7034 28.2984L39.6993 29.38L40.2587 31.2074L36.8594 31.2711L37.1351 32.0545C40.3672 44.3088 37.7397 53.2861 34.2214 58.8136C43.4142 60.1126 52.4349 53.9649 54.1531 44.3425L57.7209 24.3629C59.3879 15.0276 53.4247 6.03014 44.1777 3.92833L28.8463 0.443572ZM27.4428 41.8403C28.7366 41.8403 29.7855 40.7914 29.7855 39.4976C29.7855 38.2038 28.7366 37.1549 27.4428 37.1549C26.149 37.1549 25.1001 38.2038 25.1001 39.4976C25.1001 40.7914 26.149 41.8403 27.4428 41.8403ZM42.6085 35.059C42.6085 35.6719 42.1117 36.1687 41.4988 36.1687C40.8859 36.1687 40.3891 35.6719 40.3891 35.059C40.3891 34.4462 40.8859 33.9493 41.4988 33.9493C42.1117 33.9493 42.6085 34.4462 42.6085 35.059ZM44.951 50.9643C46.9258 50.9643 48.5267 49.3634 48.5267 47.3887C48.5267 45.4139 46.9258 43.813 44.951 43.813C42.9763 43.813 41.3754 45.4139 41.3754 47.3887C41.3754 49.3634 42.9763 50.9643 44.951 50.9643Z" fill="url(#paint0_linear_156_884)"/>
</g>
<defs>
<filter id="filter0_i_156_884" x="0" y="3.05176e-05" width="58" height="58.9863" filterUnits="userSpaceOnUse" color-interpolation-filters="sRGB">
<feFlood flood-opacity="0" result="BackgroundImageFix"/>
<feBlend mode="normal" in="SourceGraphic" in2="BackgroundImageFix" result="shape"/>
<feColorMatrix in="SourceAlpha" type="matrix" values="0 0 0 0 0 0 0 0 0 0 0 0 0 0 0 0 0 0 127 0" result="hardAlpha"/>
<feOffset dx="4.14286" dy="4.14286"/>
<feComposite in2="hardAlpha" operator="arithmetic" k2="-1" k3="1"/>
<feColorMatrix type="matrix" values="0 0 0 0 0.125 0 0 0 0 0.00104167 0 0 0 0 0.00104167 0 0 0 0.21 0"/>
<feBlend mode="normal" in2="shape" result="effect1_innerShadow_156_884"/>
</filter>
<linearGradient id="paint0_linear_156_884" x1="26.9495" y1="-0.0810647" x2="26.9495" y2="47.5122" gradientUnits="userSpaceOnUse">
<stop stop-color="#F88A4E"/>
<stop offset="1" stop-color="#CD4249"/>
</linearGradient>
</defs>
</svg>
