<svg width="62" height="62" viewBox="0 0 62 62" fill="none" xmlns="http://www.w3.org/2000/svg">
<rect width="62" height="62" rx="7" fill="#F5E1E0"/>
<path fill-rule="evenodd" clip-rule="evenodd" d="M31.5 16C31.8003 16 31.9193 16.0283 32.1516 16.1643C32.3103 16.2492 32.5086 16.4078 32.5993 16.5154C32.6899 16.623 32.7976 16.7816 32.8372 16.8779C32.8769 16.9686 32.9279 17.2178 32.9562 17.433C32.9789 17.6426 33.0016 17.8125 33.0016 17.8125C33.0016 17.8125 33.1262 17.7502 33.2849 17.6709C33.4889 17.5689 33.6589 17.5293 33.8798 17.5293C34.0498 17.5293 34.2935 17.5633 34.4181 17.5973C34.5541 17.6426 34.7581 17.7785 34.9281 17.9541C35.1038 18.124 35.2397 18.3279 35.2851 18.4639C35.3191 18.5885 35.3531 18.832 35.3531 19.002C35.3531 19.2342 35.3134 19.3928 35.2001 19.6193C35.0584 19.8969 34.9224 20.0215 32.9789 21.5225L32.9732 26.96L36.798 23.1367L36.6393 21.8227C36.492 20.5822 36.4863 20.4859 36.5713 20.2027C36.6336 19.9875 36.7356 19.8289 36.9396 19.625C37.1493 19.4154 37.3023 19.3191 37.5233 19.2568C37.6819 19.2115 37.8802 19.1719 37.9596 19.1719C38.0389 19.1719 38.2032 19.2002 38.3279 19.2342C38.4525 19.2682 38.6622 19.3701 38.7982 19.4607C38.9285 19.5514 39.0985 19.7326 39.1778 19.8629C39.2515 19.9988 39.3365 20.1914 39.3591 20.2934C39.3818 20.3953 39.4101 20.4746 39.4215 20.4746C39.4271 20.4746 39.5744 20.3613 39.7444 20.2197C39.9144 20.0781 40.1637 19.9365 40.2997 19.9025C40.4301 19.8686 40.6794 19.8516 40.8494 19.8629C41.0193 19.8742 41.2517 19.9309 41.3593 19.9818C41.467 20.0328 41.6426 20.1574 41.7503 20.2594C41.858 20.3613 41.9883 20.5482 42.0449 20.6729C42.1129 20.8201 42.1526 21.0297 42.1526 21.2676C42.1526 21.4998 42.1129 21.7207 42.0506 21.8623C41.9939 21.9869 41.8466 22.1965 41.722 22.3324C41.603 22.4627 41.5123 22.5816 41.5293 22.5873C41.5463 22.5986 41.6596 22.6326 41.7843 22.6666C41.9089 22.7062 42.1243 22.8139 42.2603 22.9215C42.4076 23.0291 42.5719 23.2273 42.6569 23.3916C42.7759 23.6125 42.8042 23.7541 42.8042 24.077C42.8042 24.4225 42.7816 24.5131 42.6342 24.751C42.5436 24.9039 42.3623 25.1078 42.2376 25.2041C42.1016 25.3117 41.8863 25.408 41.6993 25.4477C41.433 25.5043 41.212 25.493 38.8662 25.2041L35.0414 29.0273L40.481 29.0217L41.28 27.9908C41.9826 27.0789 42.1073 26.943 42.3849 26.8014C42.6116 26.6881 42.7702 26.6484 43.0025 26.6484C43.1725 26.6484 43.4162 26.6824 43.5408 26.7164C43.6768 26.7617 43.8808 26.8977 44.0508 27.0732C44.2265 27.2432 44.3624 27.4471 44.4078 27.583C44.4418 27.7076 44.4758 27.9512 44.4758 28.1211C44.4758 28.342 44.4361 28.5119 44.3341 28.7158C44.2548 28.8688 44.1925 28.999 44.1925 28.999C44.1925 28.999 44.3624 29.0217 44.5721 29.0443C44.7874 29.067 45.0594 29.135 45.1841 29.1973C45.3087 29.2539 45.4957 29.4012 45.6034 29.5201C45.711 29.6391 45.847 29.8373 45.9037 29.9619C45.9547 30.0865 46 30.3131 46 30.4717C46 30.6246 45.9717 30.8455 45.932 30.9531C45.8923 31.0664 45.796 31.2477 45.7054 31.3666C45.6204 31.4799 45.456 31.6385 45.337 31.7178C45.1954 31.8197 44.9857 31.882 44.6741 31.9273C44.4248 31.967 44.2151 31.9953 44.2095 31.9953C44.2038 32.001 44.2605 32.1256 44.3398 32.2842C44.4361 32.4824 44.4758 32.658 44.4758 32.8789C44.4758 33.0488 44.4418 33.2924 44.4078 33.417C44.3624 33.5529 44.2265 33.7568 44.0508 33.9268C43.8808 34.1023 43.6768 34.2383 43.5408 34.2836C43.4162 34.3176 43.1725 34.3516 43.0025 34.3516C42.7702 34.3516 42.6116 34.3119 42.3849 34.1986C42.1073 34.057 41.9826 33.9211 40.481 31.9783L35.0414 31.9727L36.9396 33.8701C38.4242 35.3541 38.8662 35.7676 38.9795 35.7676C39.0588 35.7676 39.6538 35.6996 40.3111 35.6203C41.4103 35.49 41.5236 35.4844 41.7843 35.5637C41.9373 35.609 42.1809 35.7449 42.3169 35.8639C42.4529 35.9828 42.6172 36.1811 42.6852 36.3057C42.7702 36.4699 42.7986 36.6398 42.8042 36.9287C42.8042 37.2459 42.7759 37.3875 42.6569 37.6084C42.5719 37.7727 42.4076 37.9709 42.2603 38.0785C42.1243 38.1861 41.9089 38.2937 41.7843 38.3334C41.6596 38.3674 41.5463 38.4014 41.5293 38.4127C41.5123 38.4184 41.603 38.5373 41.722 38.6676C41.8466 38.8035 41.9996 39.0244 42.0563 39.166C42.1243 39.3133 42.1696 39.5512 42.1696 39.7324C42.1696 39.9193 42.1243 40.1459 42.0563 40.2988C41.9939 40.4404 41.858 40.6387 41.7503 40.7406C41.6426 40.8426 41.467 40.9672 41.3593 41.0182C41.2517 41.0691 41.0193 41.1201 40.8494 41.1371C40.6794 41.1484 40.4244 41.1258 40.2827 41.0861C40.1411 41.0465 39.8918 40.8992 39.7274 40.7689C39.5688 40.633 39.4271 40.5311 39.4158 40.5367C39.4045 40.548 39.3705 40.6557 39.3365 40.7803C39.2968 40.9049 39.1891 41.1201 39.0815 41.2561C38.9738 41.4033 38.7755 41.5676 38.6112 41.6525C38.3902 41.7715 38.2485 41.7998 37.9312 41.7998C37.6082 41.7998 37.4893 41.7715 37.2796 41.6525C37.1379 41.5732 36.9396 41.4033 36.8376 41.2844C36.7356 41.1654 36.611 40.9332 36.5657 40.7803C36.4863 40.5141 36.492 40.4121 36.798 37.8633L32.9732 34.04L32.9789 39.4775L34.0102 40.2762C34.9224 40.9785 35.0584 41.1031 35.2001 41.3807C35.3134 41.6072 35.3531 41.7658 35.3531 41.998C35.3531 42.168 35.3191 42.4115 35.2851 42.5361C35.2397 42.6721 35.1038 42.876 34.9281 43.0459C34.7581 43.2215 34.5541 43.3574 34.4181 43.4027C34.2935 43.4367 34.0498 43.4707 33.8798 43.4707C33.6589 43.4707 33.4889 43.4311 33.2849 43.3291C33.1319 43.2498 33.0016 43.1875 33.0016 43.1875C33.0016 43.1875 32.9789 43.3574 32.9562 43.567C32.9279 43.7822 32.8769 44.0314 32.8372 44.1221C32.7976 44.2127 32.6899 44.377 32.5993 44.4846C32.5086 44.5922 32.3103 44.7508 32.1516 44.8357C31.9193 44.9717 31.8003 45 31.5 45C31.1997 45 31.0807 44.9717 30.8484 44.8357C30.6954 44.7508 30.4914 44.5922 30.4007 44.4846C30.3101 44.377 30.2024 44.2127 30.1628 44.1221C30.1231 44.0314 30.0721 43.7822 30.0438 43.567C30.0211 43.3574 29.9984 43.1875 29.9984 43.1875C29.9984 43.1875 29.8738 43.2498 29.7151 43.3291C29.5111 43.4311 29.3411 43.4707 29.1202 43.4707C28.9502 43.4707 28.7065 43.4367 28.5819 43.4027C28.4459 43.3574 28.2419 43.2215 28.0719 43.0459C27.8962 42.876 27.7603 42.6721 27.7149 42.5361C27.6809 42.4115 27.6469 42.168 27.6469 41.998C27.6469 41.7658 27.6866 41.6072 27.7999 41.3807C27.9416 41.1031 28.0776 40.9785 30.0211 39.4775L30.0268 34.04L26.202 37.8633L26.3607 39.1773C26.508 40.4178 26.5137 40.5141 26.4287 40.7916C26.3664 41.0068 26.2644 41.1711 26.0717 41.3637C25.8847 41.5562 25.7147 41.6695 25.4937 41.7432C25.2728 41.8111 25.0971 41.8338 24.8988 41.8055C24.7401 41.7885 24.5021 41.7148 24.3605 41.6412C24.2188 41.5676 24.0205 41.3977 23.9185 41.2561C23.8109 41.1201 23.7032 40.9049 23.6635 40.7803C23.6295 40.6557 23.5955 40.548 23.5842 40.5367C23.5729 40.5311 23.4312 40.633 23.2669 40.7689C23.1082 40.8992 22.8589 41.0465 22.7173 41.0861C22.5756 41.1258 22.3206 41.1484 22.1506 41.1371C21.9807 41.1201 21.7483 41.0691 21.6407 41.0182C21.533 40.9672 21.3574 40.8426 21.2497 40.7406C21.142 40.6387 21.0117 40.4518 20.9551 40.3271C20.8871 40.1799 20.8474 39.9703 20.8474 39.7324C20.8474 39.5002 20.8871 39.2793 20.9494 39.1377C21.0061 39.0131 21.1534 38.8035 21.278 38.6676C21.397 38.5373 21.4877 38.4184 21.4707 38.4127C21.4537 38.4014 21.3404 38.3674 21.2157 38.3334C21.0911 38.2937 20.8757 38.1861 20.7397 38.0785C20.5924 37.9709 20.4281 37.7727 20.3431 37.6084C20.2241 37.3875 20.1958 37.2459 20.1958 36.9287C20.1958 36.6059 20.2241 36.4869 20.3431 36.2773C20.4224 36.1357 20.5924 35.9375 20.7114 35.8355C20.8304 35.7336 21.0741 35.609 21.244 35.5637C21.5387 35.4787 21.6237 35.4844 24.1338 35.7959L27.9529 31.9727L22.519 31.9783L21.72 33.0092C21.0174 33.9211 20.8927 34.057 20.6151 34.1986C20.3884 34.3119 20.2298 34.3516 19.9975 34.3516C19.8275 34.3516 19.5838 34.3176 19.4592 34.2836C19.3232 34.2383 19.1192 34.1023 18.9492 33.9268C18.7735 33.7568 18.6376 33.5529 18.5922 33.417C18.5582 33.2924 18.5242 33.0488 18.5242 32.8789C18.5242 32.658 18.5639 32.4881 18.6659 32.2842C18.7452 32.1312 18.8075 32.001 18.8075 32.001C18.8075 32.001 18.6376 31.9783 18.4279 31.9557C18.2126 31.933 17.9406 31.865 17.8159 31.8027C17.6913 31.7461 17.5043 31.5988 17.3966 31.4799C17.289 31.3609 17.153 31.1627 17.0963 31.0381C17.0453 30.9135 17 30.6869 17 30.5283C17 30.3754 17.0283 30.1545 17.068 30.0469C17.1077 29.9336 17.204 29.7523 17.289 29.6334C17.3796 29.5201 17.544 29.3615 17.6573 29.2822C17.8046 29.1803 18.0143 29.118 18.3259 29.0727C18.5752 29.033 18.7849 29.0047 18.7905 29.0047C18.7962 28.999 18.7395 28.8744 18.6602 28.7158C18.5639 28.5176 18.5242 28.342 18.5242 28.1211C18.5242 27.9512 18.5582 27.7076 18.5922 27.583C18.6376 27.4471 18.7735 27.2432 18.9492 27.0732C19.1192 26.8977 19.3232 26.7617 19.4592 26.7164C19.5838 26.6824 19.8275 26.6484 19.9975 26.6484C20.2298 26.6484 20.3884 26.6881 20.6151 26.8014C20.8927 26.943 21.0174 27.0789 22.519 29.0217L27.9586 29.0273L24.1338 25.2041L22.8193 25.3627C21.584 25.51 21.482 25.5156 21.2157 25.4363C21.0571 25.3854 20.8304 25.2664 20.7114 25.1645C20.5924 25.0625 20.4224 24.8643 20.3431 24.7227C20.2241 24.5131 20.1958 24.3941 20.1958 24.0713C20.1958 23.7541 20.2241 23.6125 20.3431 23.3916C20.4281 23.2273 20.5924 23.0291 20.7397 22.9215C20.8757 22.8139 21.0911 22.7062 21.2157 22.6666C21.3404 22.6326 21.4537 22.5986 21.4707 22.5873C21.4877 22.5816 21.397 22.4627 21.278 22.3324C21.1534 22.1965 21.0061 21.9869 20.9494 21.8623C20.8871 21.7207 20.8474 21.4998 20.8474 21.2676C20.8474 21.0297 20.8871 20.8201 20.9551 20.6729C21.0117 20.5482 21.142 20.3613 21.2497 20.2594C21.3574 20.1574 21.533 20.0328 21.6407 19.9818C21.7483 19.9309 21.9807 19.8742 22.1506 19.8629C22.3206 19.8516 22.5699 19.8686 22.7003 19.9025C22.8363 19.9365 23.0856 20.0781 23.2556 20.2197C23.4256 20.3613 23.5785 20.4746 23.5955 20.4746C23.6125 20.4746 23.6352 20.3896 23.6522 20.2877C23.6692 20.1914 23.7542 19.9875 23.8505 19.8346C23.9639 19.6571 24.1187 19.5117 24.3152 19.3984C24.4795 19.3078 24.7288 19.2172 24.8705 19.1945C25.0121 19.1775 25.2388 19.1889 25.3804 19.2285C25.5221 19.2625 25.7317 19.3531 25.8451 19.4324C25.964 19.5061 26.1397 19.676 26.2304 19.8119C26.3267 19.9422 26.4287 20.1801 26.457 20.333C26.5023 20.5539 26.4797 20.8824 26.202 23.1367L30.0268 26.96L30.0211 21.5225L28.9898 20.7238C28.0776 20.0215 27.9416 19.8969 27.7999 19.6193C27.6866 19.3928 27.6469 19.2342 27.6469 19.002C27.6469 18.832 27.6809 18.5885 27.7149 18.4639C27.7603 18.3279 27.8962 18.124 28.0719 17.9541C28.2419 17.7785 28.4459 17.6426 28.5819 17.5973C28.7065 17.5633 28.9502 17.5293 29.1202 17.5293C29.3411 17.5293 29.5111 17.5689 29.7151 17.6709C29.8681 17.7502 29.9984 17.8125 29.9984 17.8125C29.9984 17.8125 30.0211 17.6426 30.0438 17.433C30.0721 17.2178 30.1231 16.9686 30.1628 16.8779C30.2024 16.7873 30.3101 16.623 30.4007 16.5154C30.4914 16.4078 30.6897 16.2492 30.8484 16.1643C31.0807 16.0283 31.1997 16 31.5 16V16ZM31.0807 17.2801C31.0127 17.4273 30.99 17.6596 30.99 18.2939V19.1152C30.7464 19.2965 30.6104 19.3475 30.5197 19.3418C30.4177 19.3418 30.1854 19.2059 29.8114 18.917C29.3865 18.5941 29.2165 18.4979 29.0748 18.4922C28.9502 18.4922 28.8425 18.5375 28.7519 18.6338C28.6612 18.7244 28.6102 18.8434 28.6102 18.9623C28.6102 19.0926 28.6555 19.1889 28.7915 19.3191C28.8935 19.4154 29.3978 19.8232 29.9134 20.2197C30.4291 20.6162 30.8824 20.9844 30.922 21.0354C30.9787 21.1033 30.99 21.9133 30.99 24.751L30.9957 28.376C30.7804 28.5855 30.6614 28.6309 30.5367 28.6309C30.3497 28.6309 30.1854 28.4779 27.7773 26.0707C25.7657 24.0543 25.2104 23.4766 25.2104 23.3633C25.2104 23.284 25.2898 22.627 25.3804 21.9076C25.5051 20.9391 25.5334 20.5482 25.4937 20.4463C25.4597 20.367 25.3804 20.265 25.3068 20.2197C25.2388 20.1744 25.1368 20.1348 25.0801 20.1348C25.0291 20.1348 24.9101 20.1744 24.8138 20.2197C24.6948 20.282 24.6268 20.367 24.5928 20.5199C24.5645 20.6332 24.5248 20.8938 24.5021 21.0977C24.4795 21.3016 24.4398 21.5621 24.4115 21.6811C24.3832 21.7943 24.3038 21.9303 24.2302 21.9756C24.1622 22.0209 24.0318 22.0605 23.9355 22.0605C23.7995 22.0605 23.6465 21.9416 23.1252 21.4375C22.5473 20.8711 22.4736 20.8145 22.2753 20.8145C22.128 20.8145 22.026 20.8484 21.941 20.9391C21.8541 21.0259 21.8107 21.1411 21.8107 21.2846C21.8107 21.4771 21.8617 21.5508 22.434 22.1342C22.9383 22.6496 23.0572 22.8025 23.0572 22.9385C23.0572 23.0348 23.0176 23.165 22.9723 23.2387C22.9269 23.3066 22.7909 23.3859 22.6719 23.4143C22.5586 23.4426 22.298 23.4822 22.094 23.5049C21.89 23.5275 21.6293 23.5672 21.5104 23.5955C21.3574 23.6352 21.278 23.6918 21.21 23.8334C21.1534 23.9467 21.1364 24.0713 21.159 24.1562C21.1817 24.2355 21.227 24.3318 21.261 24.3771C21.3007 24.4168 21.3857 24.4791 21.4537 24.5018C21.5387 24.5357 22.043 24.4961 22.8986 24.3828C23.6239 24.2922 24.2812 24.2129 24.3605 24.2129C24.4738 24.2129 25.0518 24.768 27.069 26.7787C29.4658 29.1746 29.6301 29.3502 29.6301 29.5371C29.6339 29.6693 29.5924 29.7769 29.5055 29.86L29.3751 29.9902C22.9043 29.9902 22.0996 29.9789 22.0317 29.9223C21.9807 29.8826 21.5727 29.3785 21.125 28.8008C20.6774 28.223 20.2751 27.7246 20.2241 27.685C20.1788 27.6453 20.0541 27.6113 19.9521 27.6113C19.8275 27.6113 19.7198 27.6566 19.6292 27.7529C19.5328 27.8492 19.4875 27.9568 19.4875 28.0928C19.4875 28.2457 19.5442 28.3646 19.7311 28.5912C19.8671 28.7498 20.0598 28.999 20.1618 29.1406C20.2581 29.2822 20.3374 29.4635 20.3374 29.5541C20.3374 29.6391 20.2751 29.7693 20.1958 29.8486C20.0655 29.9846 20.0371 29.9902 19.2495 29.9902C18.5922 29.9902 18.3996 30.0072 18.2409 30.0922C18.1276 30.1432 18.0199 30.2564 17.9859 30.3414C17.9463 30.449 17.9463 30.551 17.9859 30.6586C18.0199 30.7436 18.1276 30.8568 18.2409 30.9078C18.4052 30.9928 18.5922 31.0098 19.2778 31.0098H20.1108C20.2921 31.2533 20.3431 31.3893 20.3374 31.4799C20.3374 31.5818 20.2014 31.8141 19.9125 32.1879C19.5895 32.607 19.4932 32.7826 19.4875 32.9242C19.4875 33.0451 19.5347 33.1527 19.6292 33.2471C19.7198 33.3377 19.8331 33.3887 19.9578 33.3887C20.0881 33.3887 20.1844 33.3434 20.3148 33.2074C20.4111 33.1055 20.8191 32.6014 21.2157 32.0859C21.6123 31.5705 21.9807 31.1174 22.0317 31.0777C22.0996 31.0211 22.9099 31.0098 25.7487 31.0098L29.3751 31.0041C29.5848 31.2193 29.6301 31.3383 29.6301 31.4629C29.6301 31.6498 29.4771 31.8141 27.069 34.2213C25.0518 36.232 24.4738 36.7871 24.3605 36.7871C24.2812 36.7871 23.6239 36.7078 22.9043 36.6172C21.9353 36.4926 21.5444 36.4643 21.4424 36.5039C21.363 36.5379 21.261 36.6172 21.2157 36.6908C21.1704 36.7588 21.1307 36.8607 21.1307 36.9174C21.1307 36.9684 21.1704 37.093 21.2157 37.1836C21.278 37.3025 21.363 37.3705 21.516 37.4045C21.6293 37.4328 21.89 37.4725 22.094 37.4951C22.298 37.5178 22.5586 37.5574 22.6776 37.5857C22.7909 37.6141 22.9269 37.6934 22.9723 37.767C23.0176 37.835 23.0572 37.9709 23.0572 38.0615C23.0572 38.1975 22.9383 38.3504 22.434 38.8715C21.8673 39.4492 21.8107 39.5229 21.8107 39.7211C21.8107 39.8684 21.8447 39.9703 21.9353 40.0553C22.0222 40.1421 22.1374 40.1855 22.281 40.1855C22.4736 40.1855 22.5473 40.1346 23.1309 39.5625C23.6465 39.0584 23.7995 38.9395 23.9355 38.9395C24.0318 38.9395 24.1622 38.9791 24.2358 39.0244C24.3038 39.0697 24.3832 39.2057 24.4115 39.3246C24.4398 39.4379 24.4795 39.6984 24.5021 39.9023C24.5248 40.1062 24.5645 40.3668 24.5928 40.4857C24.6268 40.633 24.6948 40.718 24.8138 40.7803C24.9101 40.8256 25.0291 40.8652 25.0858 40.8652C25.1368 40.8652 25.2388 40.8256 25.3124 40.7803C25.3804 40.735 25.4597 40.633 25.4937 40.5537C25.5334 40.4518 25.5051 40.0609 25.3804 39.098C25.2898 38.373 25.2104 37.716 25.2104 37.6367C25.2104 37.5234 25.7657 36.94 27.7659 34.935C30.2024 32.4824 30.3271 32.3691 30.5254 32.3691C30.6727 32.3691 30.7747 32.4088 30.8597 32.4938L30.99 32.624C30.99 39.0924 30.9787 39.8967 30.922 39.9646C30.8824 40.0156 30.3781 40.4234 29.8001 40.8709C29.2222 41.3184 28.7235 41.7205 28.6839 41.7715C28.6442 41.8168 28.6102 41.9414 28.6102 42.0434C28.6102 42.1642 28.6574 42.2718 28.7519 42.3662C28.8482 42.4625 28.9558 42.5078 29.0918 42.5078C29.2448 42.5078 29.3638 42.4512 29.5905 42.2643C29.7491 42.1283 29.9984 41.9357 30.1401 41.8338C30.2818 41.7375 30.4574 41.6525 30.5367 41.6525C30.6161 41.6525 30.7464 41.7035 30.837 41.7715L30.99 41.8848C30.99 43.4027 31.007 43.5896 31.092 43.7539C31.143 43.8672 31.2564 43.9748 31.347 44.0088C31.449 44.0484 31.551 44.0484 31.6587 44.0088C31.7436 43.9748 31.857 43.8672 31.908 43.7539C31.993 43.5896 32.01 43.4027 32.01 42.723V41.8848C32.2536 41.7035 32.3896 41.6525 32.4803 41.6582C32.5823 41.6582 32.8146 41.7941 33.1885 42.083C33.6135 42.4059 33.7835 42.5021 33.9252 42.5078C34.0498 42.5078 34.1575 42.4625 34.2481 42.3662C34.3388 42.2756 34.3898 42.1566 34.3898 42.0434C34.3898 41.9074 34.3445 41.8111 34.2085 41.6809C34.1065 41.5846 33.6022 41.1768 33.0866 40.7803C32.5709 40.3838 32.1176 40.0156 32.078 39.9646C32.0213 39.8967 32.01 39.0867 32.01 36.249L32.0043 32.624C32.2196 32.4145 32.3386 32.3691 32.4633 32.3691C32.6503 32.3691 32.8146 32.5221 35.2227 34.9293C37.2343 36.9457 37.7896 37.5234 37.7896 37.6367C37.7896 37.716 37.7102 38.373 37.6196 39.098C37.4949 40.0609 37.4666 40.4518 37.5063 40.5537C37.5403 40.633 37.6196 40.735 37.6932 40.7803C37.7612 40.8256 37.8632 40.8652 37.9199 40.8652C37.9709 40.8652 38.0955 40.8256 38.1862 40.7803C38.3052 40.718 38.3732 40.633 38.4072 40.4857C38.4355 40.3668 38.4752 40.1062 38.4979 39.9023C38.5205 39.6984 38.5602 39.4379 38.5885 39.3246C38.6168 39.2057 38.6962 39.0697 38.7698 39.0244C38.8378 38.9791 38.9738 38.9395 39.0645 38.9395C39.2005 38.9395 39.3535 39.0584 39.8748 39.5625C40.4527 40.1289 40.5264 40.1855 40.7247 40.1855C40.872 40.1855 40.974 40.1516 41.059 40.0609C41.1459 39.9741 41.1893 39.8608 41.1893 39.7211C41.1893 39.5229 41.1383 39.4492 40.566 38.8715C40.0617 38.3504 39.9428 38.1975 39.9428 38.0615C39.9428 37.9709 39.9824 37.835 40.0277 37.767C40.0731 37.6934 40.2091 37.6141 40.3281 37.5857C40.4414 37.5574 40.702 37.5178 40.906 37.4951C41.11 37.4725 41.3707 37.4328 41.4896 37.4045C41.637 37.3705 41.722 37.3025 41.7843 37.1836C41.8296 37.093 41.8693 36.9684 41.8693 36.9174C41.8693 36.8607 41.8296 36.7588 41.7843 36.6908C41.739 36.6172 41.637 36.5379 41.5576 36.5039C41.4556 36.4643 41.0647 36.4926 40.1014 36.6172C39.3761 36.7078 38.7188 36.7871 38.6395 36.7871C38.5262 36.7871 37.9482 36.232 35.931 34.2213C33.5342 31.8254 33.3699 31.6498 33.3699 31.4629C33.3661 31.3307 33.4076 31.2231 33.4945 31.14L33.6249 31.0098C40.0957 31.0098 40.9004 31.0211 40.9683 31.0777C41.0193 31.1174 41.4273 31.6215 41.875 32.1992C42.3226 32.777 42.7249 33.2754 42.7759 33.315C42.8212 33.3547 42.9459 33.3887 43.0479 33.3887C43.1725 33.3887 43.2802 33.3434 43.3708 33.2471C43.4672 33.1508 43.5125 33.0432 43.5125 32.9072C43.5125 32.7543 43.4558 32.6354 43.2689 32.4145C43.1329 32.2502 42.9402 32.001 42.8382 31.8594C42.7419 31.7178 42.6569 31.5422 42.6569 31.4629C42.6569 31.3836 42.7079 31.2533 42.7759 31.1684L42.8892 31.0098C44.4078 31.0098 44.5948 30.9928 44.7591 30.9078C44.8724 30.8568 44.9801 30.7436 45.0141 30.6586C45.0537 30.551 45.0537 30.449 45.0141 30.3414C44.9801 30.2564 44.8724 30.1432 44.7591 30.0922C44.5948 30.0072 44.4078 29.9902 43.7278 29.9902H42.8892C42.7079 29.7467 42.6569 29.6107 42.6626 29.5258C42.6626 29.4182 42.7986 29.1859 43.0875 28.8178C43.4105 28.393 43.5068 28.2174 43.5125 28.0814C43.5125 27.9568 43.4653 27.8473 43.3708 27.7529C43.2802 27.6623 43.1669 27.6113 43.0479 27.6113C42.9119 27.6113 42.8156 27.6566 42.6852 27.7926C42.5889 27.8945 42.1809 28.3986 41.7843 28.9141C41.3877 29.4295 41.0193 29.8826 40.9683 29.9223C40.9004 29.9789 40.0901 29.9902 37.2513 29.9902L33.6249 29.9959C33.4152 29.7807 33.3699 29.6617 33.3699 29.5371C33.3699 29.3502 33.5229 29.1859 35.9424 26.7787C37.8802 24.8416 38.5488 24.2129 38.6452 24.2129C38.7188 24.2129 39.3761 24.2922 40.1014 24.3828C41.0647 24.5074 41.4556 24.5357 41.5576 24.4961C41.637 24.4621 41.739 24.3828 41.7843 24.3148C41.8296 24.2412 41.8693 24.1393 41.8693 24.0883C41.8693 24.0316 41.8296 23.9127 41.7843 23.8164C41.722 23.6975 41.637 23.6295 41.4896 23.5955C41.3707 23.5672 41.11 23.5275 40.906 23.5049C40.702 23.4822 40.4414 23.4426 40.3281 23.4143C40.2091 23.3859 40.0731 23.3066 40.0277 23.2387C39.9824 23.165 39.9428 23.0348 39.9428 22.9385C39.9428 22.8025 40.0617 22.6496 40.566 22.1342C41.1327 21.5508 41.1893 21.4771 41.1893 21.2846C41.1893 21.1316 41.1553 21.0297 41.0647 20.9447C40.9778 20.8579 40.8645 20.8145 40.7247 20.8145C40.5264 20.8145 40.4527 20.8654 39.8748 21.4375C39.3535 21.9416 39.2005 22.0605 39.0645 22.0605C38.9738 22.0605 38.8378 22.0209 38.7698 21.9756C38.6962 21.9303 38.6168 21.7943 38.5885 21.6811C38.5602 21.5621 38.5205 21.3016 38.4979 21.0977C38.4752 20.8938 38.4355 20.6332 38.4072 20.5199C38.3675 20.3613 38.3109 20.282 38.1749 20.2141C38.0559 20.1574 37.9312 20.1404 37.8462 20.1631C37.7669 20.1857 37.6706 20.2311 37.6252 20.265C37.5856 20.3047 37.5233 20.3896 37.5006 20.4633C37.4666 20.5426 37.5063 21.0467 37.6196 21.9076C37.7102 22.627 37.7896 23.284 37.7896 23.3633C37.7896 23.4766 37.2343 24.0543 35.2227 26.0707C32.8259 28.4666 32.6503 28.6309 32.4633 28.6309C32.3311 28.6346 32.2234 28.5931 32.1403 28.5063L32.01 28.376C32.01 21.9076 32.0213 21.1033 32.078 21.0354C32.1176 20.9844 32.5709 20.6162 33.0866 20.2197C33.6022 19.8232 34.1065 19.4154 34.2085 19.3191C34.3445 19.1889 34.3898 19.0926 34.3898 18.9566C34.3898 18.8377 34.3388 18.7244 34.2481 18.6338C34.1518 18.5375 34.0442 18.4922 33.9082 18.4922C33.7552 18.4922 33.6362 18.5488 33.4152 18.7357C33.2509 18.8717 33.0016 19.0643 32.8599 19.1662C32.7182 19.2625 32.5426 19.3475 32.4633 19.3475C32.3839 19.3475 32.2536 19.2965 32.1686 19.2285L32.01 19.1152C32.01 17.6879 31.9873 17.4217 31.925 17.2744C31.8796 17.1668 31.789 17.0479 31.7267 17.0195C31.6643 16.9855 31.5567 16.9629 31.4887 16.9629C31.415 16.9629 31.3187 16.9912 31.2677 17.0252C31.211 17.0592 31.1317 17.1725 31.0807 17.2801V17.2801Z" fill="#E75C54"/>
</svg>
