<svg width="59" height="59" viewBox="0 0 59 59" fill="none" xmlns="http://www.w3.org/2000/svg">
<circle cx="29.5" cy="29.5" r="29.5" fill="#EEEEEE"/>
<path d="M16.5183 18C16.6249 18 16.8584 18.0604 17.0361 18.1381C17.2087 18.2158 17.4321 18.3367 17.5286 18.4144C17.625 18.4835 17.7977 18.6475 17.9094 18.777C18.0211 18.9065 18.3155 19.3123 18.5694 19.6836C18.8232 20.0548 19.1532 20.4606 19.3055 20.5815C19.5391 20.7714 19.6609 20.8059 20.0417 20.8059C20.4377 20.8059 20.5392 20.7714 20.7779 20.5728C20.9302 20.4433 21.2399 20.0634 21.4632 19.7267C21.6866 19.39 22.0065 18.9583 22.174 18.7684C22.3416 18.5785 22.6259 18.3453 22.8086 18.2417C22.9914 18.1468 23.3011 18.0518 23.494 18.0259C23.7631 17.9914 23.9459 18.0259 24.2556 18.164C24.479 18.2763 24.7734 18.4576 24.9105 18.5871C25.0476 18.7166 25.3928 19.1655 25.6721 19.58C25.9564 19.9944 26.3118 20.4433 26.4641 20.5728C26.7027 20.7714 26.8042 20.8059 27.2002 20.8059C27.581 20.8059 27.7028 20.7714 27.9364 20.5815C28.0887 20.4606 28.4238 20.0548 28.6726 19.6836C28.9213 19.3123 29.2463 18.8806 29.3833 18.7252C29.5255 18.5698 29.7844 18.354 29.9672 18.2504C30.15 18.1468 30.4698 18.0432 30.678 18.0173C30.9775 17.9914 31.14 18.0259 31.4395 18.1727C31.6477 18.2763 31.9218 18.4576 32.0487 18.5698C32.1757 18.6734 32.394 18.9324 32.5361 19.1396C32.6834 19.3468 32.9474 19.7181 33.12 19.9771C33.2977 20.2361 33.5464 20.521 33.6734 20.616C33.8003 20.711 34.0491 20.8059 34.2318 20.8318C34.4806 20.8664 34.6482 20.8318 34.9172 20.6937C35.1812 20.5556 35.3539 20.4002 35.5772 20.0721C35.7448 19.839 36.0291 19.4332 36.2119 19.1742C36.3946 18.9238 36.6434 18.6216 36.7703 18.518C36.8973 18.4058 37.1511 18.2504 37.344 18.164C37.5319 18.0691 37.8111 18 37.9634 18C38.1157 18 38.3848 18.0604 38.5625 18.1381C38.7351 18.2158 38.9687 18.354 39.0804 18.4317C39.192 18.518 39.4002 18.7339 39.5424 18.9152C39.6896 19.1051 39.9739 19.5023 40.177 19.8044C40.3851 20.1152 40.6694 20.452 40.8065 20.5642C40.9487 20.6678 41.2178 20.7973 41.4158 20.8405C41.7052 20.9009 41.7915 20.9527 41.8879 21.1426C41.9488 21.2635 41.9996 21.4448 41.9996 21.5398C41.9996 21.6348 41.9692 21.8161 41.9285 21.9456C41.893 22.0837 41.8219 22.2132 41.7762 22.2477C41.7305 22.2909 41.5731 22.3168 41.431 22.3168C41.2838 22.3168 41.0248 22.2564 40.8573 22.1787C40.6898 22.1096 40.4258 21.9283 40.2734 21.7902C40.1211 21.652 39.7759 21.2117 39.5119 20.8059C39.2479 20.4088 38.9027 19.9771 38.7504 19.839C38.5016 19.6231 38.4153 19.5972 37.9888 19.5972C37.5725 19.5972 37.4659 19.6318 37.2273 19.8217C37.0749 19.9426 36.7551 20.3397 36.5165 20.6937C36.2779 21.039 35.9732 21.4621 35.8311 21.6261C35.694 21.7902 35.4503 21.9974 35.298 22.0923C35.0695 22.2391 34.8969 22.2736 34.3841 22.2736C33.8714 22.2736 33.6988 22.2391 33.4703 22.0923C33.318 21.9974 33.0794 21.7902 32.9372 21.6261C32.8001 21.4621 32.4904 21.0477 32.2518 20.6851C32.0132 20.3311 31.6934 19.9426 31.541 19.8217C31.3024 19.6318 31.1907 19.5972 30.7795 19.5972C30.353 19.5972 30.2667 19.6231 30.018 19.839C29.8656 19.9771 29.5204 20.4088 29.2564 20.8146C28.9924 21.2117 28.6269 21.6693 28.4441 21.8333C28.2613 21.9887 27.977 22.17 27.8095 22.2305C27.6216 22.2995 27.317 22.3255 27.0225 22.2996C26.701 22.2708 26.4471 22.1931 26.261 22.0664C26.1087 21.9628 25.8701 21.7556 25.7279 21.5916C25.5908 21.4276 25.2913 21.0218 25.0679 20.6851C24.8445 20.3397 24.5348 19.9598 24.3825 19.8303C24.1388 19.6231 24.0423 19.5972 23.621 19.5972C23.1996 19.5972 23.1031 19.6231 22.8594 19.8303C22.7071 19.9598 22.3974 20.3397 22.174 20.6851C21.9506 21.0218 21.6308 21.4535 21.4632 21.6348C21.2957 21.8247 21.0469 22.0405 20.9048 22.1269C20.7169 22.2391 20.4885 22.2736 20.0163 22.2736C19.4883 22.265 19.336 22.2305 19.1024 22.0751C18.9501 21.9715 18.7217 21.7729 18.5948 21.6348C18.4678 21.4966 18.1734 21.0908 17.9347 20.7282C17.6961 20.3656 17.3915 19.9771 17.2494 19.8562C17.092 19.7181 16.8483 19.6059 16.6147 19.5627C16.2949 19.5023 16.2137 19.4505 16.1223 19.2605C16.0563 19.1396 16.0055 18.9152 16.0004 18.7684C15.9953 18.5698 16.036 18.4317 16.1578 18.2504C16.2797 18.0604 16.371 18 16.5183 18ZM16.4878 24.2364C16.5437 24.2277 16.7366 24.2709 16.9194 24.3141C17.1021 24.3659 17.4067 24.5385 17.6047 24.7026C17.8027 24.8666 18.1531 25.281 18.3866 25.6264C18.6201 25.9717 18.8943 26.3602 18.9958 26.4897C19.0974 26.6192 19.2954 26.7919 19.4325 26.8783C19.5898 26.9646 19.8335 27.025 20.0671 27.025C20.3869 27.025 20.5037 26.9819 20.7779 26.7574C20.9606 26.6106 21.2551 26.2653 21.4379 25.989C21.6206 25.7041 21.8592 25.3587 21.9709 25.2033C22.0826 25.0566 22.3213 24.8148 22.504 24.668C22.6969 24.5126 23.0016 24.3659 23.2351 24.3054C23.5245 24.2364 23.7327 24.2277 23.9967 24.2968C24.281 24.3745 24.3825 24.4436 24.4688 24.6162C24.5348 24.7371 24.5856 24.9443 24.5856 25.0911C24.5856 25.2379 24.5348 25.4451 24.4688 25.5746C24.3622 25.7904 24.3368 25.799 23.7225 25.8163C23.1793 25.8249 23.0574 25.8595 22.8594 26.0235C22.7325 26.1271 22.3923 26.5674 22.0979 26.9905C21.7882 27.4481 21.4176 27.897 21.2094 28.0697C21.0165 28.2337 20.7169 28.415 20.5494 28.4668C20.3818 28.5186 20.062 28.5445 19.8386 28.5186C19.6152 28.4927 19.3055 28.4064 19.1532 28.3114C19.0009 28.2165 18.7471 28.0006 18.5948 27.828C18.4424 27.6553 18.1327 27.2409 17.9094 26.9042C17.686 26.5674 17.3966 26.1962 17.2595 26.0753C17.1275 25.9631 16.8686 25.8336 16.6757 25.7904C16.4878 25.7559 16.2847 25.6782 16.2187 25.6177C16.1578 25.5659 16.0816 25.4451 16.0563 25.3501C16.0258 25.2551 16.0055 25.0911 16.0055 24.9875C16.0055 24.8753 16.041 24.7026 16.0867 24.5903C16.1324 24.4781 16.2187 24.3572 16.2797 24.3141C16.3355 24.2709 16.432 24.2364 16.4878 24.2364ZM30.9318 24.2709C31.14 24.2882 31.4598 24.3831 31.6426 24.4781C31.8254 24.5731 32.1097 24.8148 32.2772 25.0134C32.4447 25.212 32.7646 25.6523 32.988 25.9804C33.2114 26.3171 33.5211 26.6883 33.6734 26.8092C33.9018 26.9819 34.0288 27.025 34.3841 27.025C34.7395 27.025 34.8665 26.9819 35.0949 26.8092C35.2472 26.6883 35.5417 26.343 35.7448 26.0322C35.9529 25.73 36.2728 25.2897 36.4556 25.0652C36.6434 24.8407 36.9328 24.5817 37.1003 24.4867C37.2679 24.4004 37.542 24.3054 37.7096 24.2709C37.8822 24.2364 38.1817 24.2536 38.395 24.3054C38.6285 24.3659 38.9128 24.5126 39.1311 24.6939C39.3494 24.8839 39.6896 25.2897 40.0196 25.7818C40.3141 26.2135 40.6441 26.6451 40.7558 26.7315C40.8675 26.8265 41.1061 26.9473 41.2888 26.9905C41.4716 27.0423 41.6696 27.1027 41.7356 27.1286C41.7965 27.1459 41.8828 27.2754 41.9235 27.4222C41.9641 27.5689 41.9996 27.7589 41.9996 27.8539C41.9996 27.9488 41.9235 28.1474 41.8321 28.3028C41.6747 28.5704 41.6645 28.5791 41.3142 28.5273C41.1162 28.5014 40.8319 28.3978 40.6796 28.3114C40.5273 28.2165 40.2734 28.0006 40.1211 27.828C39.9688 27.6553 39.6591 27.2409 39.4357 26.9042C39.2124 26.5674 38.9128 26.1876 38.7757 26.0581C38.5473 25.8509 38.4711 25.825 37.9888 25.825C37.5065 25.825 37.4303 25.8509 37.1765 26.0667C37.0242 26.1962 36.6891 26.6106 36.4403 26.9991C36.1916 27.379 35.8463 27.828 35.6788 27.9834C35.5112 28.1474 35.2168 28.3373 35.0188 28.4237C34.77 28.5186 34.5365 28.5532 34.2318 28.5186C33.9932 28.4927 33.6835 28.415 33.5464 28.346C33.4043 28.2683 33.12 28.0093 32.9118 27.7675C32.7037 27.5258 32.3483 27.0596 32.1249 26.7228C31.8558 26.3257 31.6223 26.0581 31.4395 25.9372C31.211 25.799 31.074 25.7731 30.7033 25.799C30.3378 25.8336 30.1956 25.8768 29.9926 26.0581C29.8504 26.1876 29.5559 26.5674 29.3326 26.9042C29.1092 27.2409 28.7995 27.6553 28.6472 27.828C28.4949 28.0006 28.241 28.2251 28.0887 28.3201C27.8653 28.4582 27.6876 28.4927 27.2002 28.4927C26.7027 28.4927 26.5402 28.4582 26.3118 28.3028C26.1594 28.2078 25.8954 27.9661 25.7279 27.7762C25.5604 27.5862 25.2913 27.2236 25.1339 26.9732C24.8699 26.5588 24.8394 26.4811 24.8394 26.1703C24.8394 25.9286 24.875 25.7645 24.9562 25.6264C25.0324 25.4882 25.1237 25.4364 25.2557 25.4364C25.4182 25.4364 25.4994 25.5141 25.7888 25.9631C25.9818 26.2566 26.2813 26.6106 26.4641 26.7574C26.7382 26.9819 26.855 27.025 27.1748 27.025C27.4084 27.025 27.6521 26.9646 27.8095 26.8783C27.9465 26.7919 28.1445 26.6192 28.2461 26.4897C28.3476 26.3602 28.6218 25.9717 28.8553 25.6264C29.0889 25.281 29.4392 24.8666 29.6372 24.7026C29.8352 24.5385 30.1195 24.3659 30.2718 24.3227C30.4241 24.2709 30.7236 24.2536 30.9318 24.2709ZM16.6807 30.4814C16.8838 30.5073 17.1732 30.6022 17.3255 30.6886C17.4778 30.7835 17.7317 30.9994 17.884 31.172C18.0363 31.3447 18.346 31.7591 18.5694 32.1045C18.7928 32.4412 19.1024 32.8211 19.2548 32.9419C19.4731 33.1232 19.6305 33.175 19.9655 33.2009C20.3057 33.2269 20.458 33.1923 20.6763 33.0542C20.8591 32.9419 21.0926 32.6743 21.3617 32.2772C21.5851 31.9404 21.9405 31.4742 22.1486 31.2325C22.3568 30.9907 22.6462 30.7317 22.7833 30.654C22.9254 30.585 23.23 30.5073 23.4686 30.4814C23.7733 30.4468 24.0017 30.4814 24.2556 30.585C24.4536 30.6627 24.7379 30.8353 24.8902 30.9821C25.0425 31.1202 25.3877 31.5606 25.6517 31.9663C25.9158 32.3721 26.261 32.8038 26.4133 32.9333C26.6671 33.1492 26.7433 33.1751 27.2256 33.1751C27.713 33.1751 27.779 33.1578 28.0125 32.9333C28.1547 32.8038 28.4492 32.4239 28.6726 32.0872C28.8959 31.7505 29.2056 31.3361 29.3579 31.1634C29.5103 30.9994 29.7641 30.7835 29.9164 30.6886C30.0687 30.5936 30.3784 30.5073 30.6018 30.4814C30.8252 30.4555 31.145 30.4814 31.3126 30.5332C31.4801 30.585 31.7746 30.7663 31.9726 30.9303C32.1807 31.103 32.5514 31.5519 32.8611 32.0095C33.1555 32.4326 33.4957 32.8729 33.6226 32.9765C33.8257 33.1491 33.9272 33.1751 34.5263 33.1751C35.1914 33.1751 35.2066 33.1837 35.3031 33.3909C35.3589 33.5118 35.4046 33.7103 35.3995 33.8485C35.3995 33.978 35.3792 34.1593 35.3488 34.2543C35.3183 34.3492 35.2219 34.4787 35.1355 34.5478C35.0442 34.6169 34.8208 34.6946 34.638 34.7291C34.4552 34.7636 34.1506 34.7464 33.9526 34.6859C33.7546 34.6341 33.45 34.4701 33.2672 34.332C33.0844 34.1852 32.8458 33.9434 32.7341 33.7967C32.6224 33.6413 32.3838 33.2959 32.201 33.0196C32.0183 32.7434 31.7594 32.4153 31.6172 32.2944C31.4801 32.1735 31.2263 32.044 31.0587 31.9922C30.8607 31.9491 30.6576 31.9491 30.4749 32.0095C30.3226 32.0613 30.1043 32.1735 29.9926 32.2685C29.8809 32.3549 29.5509 32.7865 29.2564 33.2182C28.9264 33.7103 28.5862 34.1161 28.3679 34.3061C28.1649 34.4701 27.8602 34.6341 27.6572 34.6946C27.4592 34.7464 27.1545 34.755 26.9718 34.7291C26.789 34.6946 26.5047 34.5996 26.3371 34.5046C26.1696 34.4183 25.8802 34.1679 25.6924 33.9348C25.5096 33.7103 25.1897 33.27 24.9816 32.9678C24.7785 32.657 24.484 32.3117 24.3317 32.1908C24.1033 32.0181 23.9713 31.975 23.621 31.975C23.2706 31.975 23.1386 32.0181 22.9102 32.1908C22.7579 32.3117 22.4482 32.6829 22.2248 33.0196C22.0014 33.3477 21.6816 33.788 21.514 33.9866C21.3465 34.1852 21.0723 34.4183 20.9048 34.5133C20.7372 34.5996 20.4631 34.6946 20.2955 34.7291C20.1229 34.7636 19.8234 34.7464 19.6101 34.6946C19.3715 34.6341 19.0974 34.4874 18.874 34.2974C18.6608 34.1248 18.3054 33.6931 17.9855 33.2182C17.6911 32.7865 17.361 32.3549 17.2494 32.2685C17.1377 32.1735 16.899 32.0527 16.7163 32.0095C16.5335 31.9577 16.3355 31.8973 16.2746 31.8714C16.2086 31.8541 16.1223 31.716 16.0816 31.5778C16.041 31.4397 16.0055 31.2411 16.0106 31.1375C16.0106 31.0425 16.0816 30.844 16.168 30.6972C16.3152 30.4382 16.3304 30.4296 16.6807 30.4814ZM38.0903 30.49C38.4203 30.5073 38.6691 30.5763 38.8773 30.7058C39.0448 30.8094 39.2936 31.0253 39.4357 31.1807C39.5728 31.3447 39.8724 31.7505 40.0957 32.0958C40.3191 32.4326 40.6136 32.8124 40.7558 32.9333C40.9131 33.0714 41.1518 33.175 41.3904 33.2182C41.7052 33.2787 41.7915 33.3305 41.8828 33.5118C41.9488 33.6326 41.9996 33.8398 41.9996 33.978C42.0047 34.1075 41.959 34.3147 41.8981 34.4528C41.8372 34.591 41.7305 34.7032 41.629 34.7377C41.5427 34.7636 41.3091 34.7377 41.1111 34.6859C40.903 34.6341 40.6085 34.4701 40.4004 34.2974C40.2024 34.1334 39.8521 33.719 39.6185 33.3736C39.385 33.0283 39.1108 32.6398 39.0093 32.5103C38.9077 32.3808 38.7097 32.2081 38.5727 32.1217C38.4102 32.0268 38.1767 31.975 37.938 31.9836C37.6537 31.9836 37.4862 32.0354 37.278 32.1908C37.1257 32.3031 36.8516 32.6052 36.6688 32.8556C36.4048 33.2182 36.3032 33.3132 36.1611 33.3046C36.0494 33.3046 35.9428 33.2269 35.8666 33.106C35.7854 32.9765 35.7549 32.8211 35.7549 32.5966C35.7549 32.3203 35.7905 32.2081 35.9936 31.88C36.1306 31.6728 36.3286 31.3879 36.4403 31.2584C36.552 31.1289 36.7551 30.9389 36.8973 30.8267C37.0343 30.7231 37.2526 30.5936 37.3796 30.5504C37.5065 30.4986 37.8263 30.4727 38.0903 30.49ZM16.564 36.6918C16.7163 36.6832 16.9803 36.7436 17.1478 36.8213C17.3154 36.8904 17.5794 37.0717 17.7317 37.2098C17.884 37.348 18.2495 37.8228 18.544 38.2545C18.8384 38.6862 19.1075 39.1351 19.1481 39.2646C19.2091 39.4546 19.2091 39.5323 19.1481 39.7827C19.1075 39.9553 19.0111 40.1366 18.9248 40.2057C18.8029 40.3093 18.742 40.3179 18.6201 40.2316C18.5338 40.1798 18.2597 39.8258 18.0109 39.4459C17.7571 39.0661 17.4169 38.6344 17.2494 38.4962C17.0615 38.3322 16.8127 38.2113 16.5893 38.1595C16.3 38.0991 16.2137 38.0473 16.1172 37.8574C16.0563 37.7365 16.0055 37.5552 16.0055 37.4602C16.0055 37.3652 16.041 37.1753 16.0816 37.0372C16.1223 36.899 16.1883 36.7695 16.2238 36.7436C16.2543 36.7177 16.4117 36.6918 16.564 36.6918ZM23.6971 36.7177C24.0982 36.735 24.3368 36.7868 24.5348 36.9077C24.6871 37.0026 24.9257 37.2098 25.0679 37.3739C25.205 37.5379 25.5147 37.961 25.7533 38.3063C25.9919 38.6603 26.3118 39.0574 26.4641 39.1783C26.7027 39.3682 26.8093 39.4028 27.2256 39.4028C27.6521 39.4028 27.7384 39.3769 27.9872 39.161C28.1395 39.0229 28.4847 38.5912 28.7487 38.1854C29.0127 37.7883 29.3783 37.3307 29.561 37.1667C29.7438 37.0113 30.0281 36.83 30.1956 36.7695C30.3835 36.7005 30.6881 36.6746 30.9826 36.7005C31.3041 36.7292 31.558 36.8069 31.7441 36.9336C31.8964 37.0372 32.135 37.2444 32.2772 37.4084C32.4143 37.5724 32.7138 37.9782 32.9372 38.3149C33.1606 38.6603 33.4703 39.0402 33.6226 39.1697C33.8663 39.3769 33.9628 39.4028 34.3841 39.4028C34.8055 39.4028 34.902 39.3769 35.1457 39.1697C35.298 39.0402 35.6077 38.6603 35.8311 38.3149C36.0545 37.9782 36.3489 37.5724 36.4911 37.4084C36.6282 37.2444 36.8719 37.0372 37.0242 36.9336C37.2103 36.8069 37.4642 36.7292 37.7857 36.7005C38.0802 36.6746 38.3848 36.7005 38.5727 36.7695C38.7402 36.83 39.0245 37.0113 39.2073 37.1667C39.3901 37.3307 39.7556 37.7883 40.0196 38.1854C40.2836 38.5912 40.6136 39.0143 40.7558 39.1438C40.9131 39.2819 41.1518 39.3855 41.3904 39.4373C41.7102 39.4977 41.7915 39.5495 41.8828 39.7395C41.9488 39.8604 41.9996 40.0762 41.9996 40.223C41.9996 40.3956 41.9488 40.5683 41.8473 40.741C41.7305 40.9396 41.6493 41 41.4919 41C41.3802 41 41.1467 40.9396 40.969 40.8619C40.7964 40.7842 40.573 40.6633 40.4765 40.5856C40.3801 40.5165 40.2074 40.3525 40.0957 40.223C39.9841 40.0935 39.6845 39.6877 39.4357 39.3164C39.187 38.9452 38.8519 38.5394 38.6996 38.4185C38.466 38.2286 38.3493 38.1941 37.9634 38.1941C37.5725 38.1941 37.4659 38.2286 37.2273 38.4272C37.0749 38.5567 36.7653 38.9366 36.5419 39.2733C36.3185 39.61 35.9986 40.0417 35.8311 40.2316C35.6635 40.4215 35.3691 40.6633 35.1711 40.7669C34.9223 40.8964 34.6837 40.9568 34.3841 40.9568C34.0846 40.9568 33.846 40.8964 33.5972 40.7669C33.3992 40.6633 33.1048 40.4215 32.9372 40.2316C32.7697 40.0417 32.4498 39.61 32.2264 39.2733C32.003 38.9366 31.6934 38.5567 31.541 38.4272C31.3024 38.2286 31.1958 38.1941 30.8049 38.1941C30.419 38.1941 30.3023 38.2286 30.0687 38.4185C29.9164 38.5394 29.6219 38.8848 29.4138 39.1956C29.2107 39.4977 28.9264 39.8949 28.7792 40.0848C28.637 40.2661 28.4289 40.482 28.3172 40.5683C28.2055 40.646 27.9719 40.7842 27.7942 40.8619C27.6216 40.9396 27.3475 41 27.185 41C27.0225 41 26.7179 40.905 26.4895 40.7842C26.2661 40.6719 25.9462 40.4215 25.7787 40.2402C25.6111 40.0503 25.2913 39.6273 25.0679 39.2819C24.8445 38.9452 24.5348 38.5567 24.3825 38.4272C24.1388 38.22 24.0474 38.1941 23.621 38.1941C23.2453 38.1941 23.0879 38.2372 22.9102 38.3754C22.7833 38.4703 22.5345 38.7639 22.3568 39.0229C22.1842 39.2819 21.9202 39.6532 21.7729 39.8604C21.6308 40.0676 21.4125 40.3266 21.2856 40.4302C21.1586 40.5424 20.8946 40.7151 20.7017 40.8187C20.5088 40.9137 20.2498 41 20.128 41C19.9554 41 19.8843 40.9482 19.7625 40.741C19.6609 40.5683 19.6101 40.3956 19.6101 40.223C19.6101 40.0848 19.6305 39.8949 19.6558 39.8172C19.6761 39.7309 19.7625 39.6186 19.8437 39.5582C19.9249 39.5064 20.1178 39.4373 20.2702 39.4114C20.4225 39.3769 20.6611 39.2646 20.8032 39.161C20.9403 39.0488 21.25 38.6689 21.4886 38.3149C21.7272 37.9523 22.0217 37.5465 22.1486 37.3998C22.2756 37.253 22.4431 37.0803 22.5294 37.0285C22.6157 36.9681 22.7833 36.8731 22.9102 36.8041C23.0574 36.735 23.3366 36.7005 23.6971 36.7177Z" fill="#64727D"/>
</svg>
