<svg width="62" height="62" viewBox="0 0 62 62" fill="none" xmlns="http://www.w3.org/2000/svg">
<rect width="62" height="62" rx="7" fill="#F5E1E0"/>
<path fill-rule="evenodd" clip-rule="evenodd" d="M31.7891 14.0064L42.7475 14L42.8817 14.1805C42.9967 14.3287 43.0095 14.4061 42.9775 14.7412C42.952 14.9539 42.8625 15.2891 42.7731 15.4824C42.6836 15.6758 42.4663 15.9916 42.281 16.1721C42.083 16.3719 41.789 16.5846 41.5654 16.6877C41.1884 16.8682 41.1692 16.8682 38.2108 16.9004V17.8672L39.6996 17.8865C41.1692 17.8994 41.1884 17.8994 41.5654 18.0799C41.789 18.183 42.083 18.3957 42.281 18.5955C42.4663 18.776 42.6836 19.0918 42.7731 19.2852C42.8625 19.4785 42.9584 19.8137 42.9839 20.0264C43.0223 20.3873 43.0159 20.426 42.69 20.7676H36.2939V21.7344H36.6133C36.8689 21.7344 36.9648 21.7666 37.2523 22.0566V24.667L37.4248 24.7701C37.5271 24.8281 37.8274 25.0924 38.1085 25.3502C38.3833 25.6145 38.7411 26.0012 38.9009 26.2139C39.0606 26.4266 39.329 26.8906 39.4951 27.2451C39.6676 27.5996 39.8657 28.1539 40.0958 29.0498V45.1631L39.8977 45.582C39.789 45.8141 39.5718 46.1299 39.4184 46.2846C39.2523 46.4521 38.9456 46.6584 38.2108 47H29.5846L29.1501 46.8066C28.8817 46.6777 28.6006 46.4844 28.3897 46.2717C28.1917 46.0783 27.9808 45.7754 27.6996 45.1631V29.0498L27.8466 28.4697C27.9297 28.1539 28.1278 27.5996 28.3003 27.2451C28.4664 26.8906 28.7348 26.4266 28.8945 26.2139C29.0543 26.0012 29.4121 25.6145 29.6869 25.3502C29.968 25.0924 30.2683 24.8281 30.5431 24.667V23.365C30.5431 22.0631 30.5431 22.0566 30.7028 21.8955C30.8242 21.7666 30.9201 21.7344 31.5015 21.7344V19.8008H28.7028C26.4089 19.8008 25.8338 19.8201 25.4952 19.9039C25.2652 19.9555 24.9073 20.0908 24.6965 20.2068C24.4856 20.3164 24.1214 20.6 23.8914 20.832C23.6358 21.0898 23.393 21.4057 23.2652 21.657C23.1565 21.8762 23.0223 22.25 22.9648 22.4949C22.8946 22.7979 22.8754 23.0814 22.8946 23.4424C22.9137 23.726 22.9648 24.0611 23.0032 24.1836C23.0415 24.3061 23.7891 25.8723 24.6709 27.6641C25.7763 29.9328 26.3067 31.0865 26.4153 31.4668C26.4984 31.7697 26.6006 32.2402 26.6389 32.5174C26.6837 32.8461 26.7092 34.973 26.7092 44.7441L26.5495 44.9053C26.3961 45.0664 26.3834 45.0664 25.2907 45.0664C24.2875 45.0729 24.1725 45.06 23.8658 44.8215L23.8019 32.6592L23.623 32.1629C23.5271 31.8857 22.7859 30.3195 21.9744 28.6824C21.1565 27.0389 20.4217 25.492 20.3387 25.2471C20.2556 25.0021 20.147 24.551 20.0958 24.248C20.0383 23.9451 20 23.4811 20 23.2168C20 22.9525 20.0447 22.4691 20.1022 22.1533C20.1534 21.8311 20.2939 21.3283 20.4026 21.0254C20.5176 20.7225 20.7476 20.2326 20.9265 19.9297C21.1374 19.5688 21.4505 19.182 21.8594 18.776C22.262 18.3635 22.6454 18.0477 23.0032 17.835C23.3035 17.6545 23.7891 17.4225 24.0894 17.3064C24.3898 17.1969 24.8945 17.0551 25.2076 17.0035C25.6613 16.9197 26.2811 16.9004 28.1597 16.9004C29.4696 16.9004 30.5431 16.8939 30.5431 16.8811C30.5431 16.8746 30.4984 16.7521 30.4408 16.6104C30.3642 16.417 30.345 16.2172 30.3642 15.8369C30.3833 15.4824 30.4345 15.2375 30.5239 15.0635C30.6006 14.9217 30.7731 14.6961 30.9073 14.5672C31.0415 14.4318 31.2907 14.2578 31.4696 14.1676L31.7891 14.0064ZM31.4504 15.418C31.3546 15.5662 31.3099 15.7338 31.3099 15.9143C31.3099 16.0689 31.3546 16.2752 31.4057 16.3848C31.4568 16.4879 31.5782 16.6361 31.6741 16.707C31.7763 16.7779 31.8977 16.8359 31.9488 16.8359C31.9999 16.8359 32.1597 16.7199 32.3003 16.5781C32.4408 16.4363 32.7284 16.243 32.9392 16.1463C33.2651 15.9916 33.4057 15.9658 33.8977 15.9658C34.3897 15.9658 34.5303 15.9916 34.8562 16.1463C35.0862 16.2494 35.3737 16.4557 35.5718 16.6555C35.7571 16.8488 35.9808 17.1646 36.083 17.3838C36.2491 17.7447 36.2619 17.8285 36.2747 18.7824L36.2939 19.8008C41.559 19.8008 41.9168 19.7879 41.9168 19.7041C41.9168 19.6525 41.7826 19.4656 41.6101 19.298C41.4312 19.1111 41.2076 18.9564 41.0542 18.9113C40.8817 18.8598 40.2555 18.834 39.182 18.834H37.5718C37.2523 18.5117 37.2523 18.4988 37.2523 17.3838C37.2523 16.2688 37.2523 16.2494 37.4121 16.0947L37.5654 15.9336C40.2555 15.9336 40.8817 15.9014 41.0542 15.8498C41.2076 15.8047 41.4312 15.65 41.6101 15.4695C41.7826 15.2955 41.9168 15.115 41.9168 15.0635C41.9168 14.9797 41.329 14.9668 36.9776 14.9668C32.4089 14.9668 32.0255 14.9732 31.821 15.0764C31.6996 15.1408 31.5335 15.2955 31.4504 15.418V15.418ZM32.8689 17.3645C32.722 17.5191 32.575 17.7576 32.5303 17.8994C32.492 18.0412 32.46 18.241 32.46 18.3506C32.46 18.4537 32.492 18.66 32.5303 18.8018C32.575 18.9693 32.7092 19.1627 32.9137 19.3625C33.099 19.543 33.3226 19.6977 33.4632 19.7363C33.5974 19.7686 33.7955 19.8008 33.8977 19.8008C33.9999 19.8008 34.2044 19.7621 34.345 19.717C34.4919 19.6719 34.722 19.5172 34.8881 19.3496C35.099 19.1434 35.2076 18.9693 35.2651 18.7373C35.3226 18.5439 35.3354 18.299 35.3098 18.125C35.2907 17.9639 35.1948 17.7189 35.0926 17.5771C34.9967 17.4418 34.805 17.242 34.6645 17.1389C34.4728 17.0035 34.313 16.952 34.0255 16.9262C33.7763 16.9068 33.5527 16.9326 33.3865 16.9906C33.2459 17.0422 33.0159 17.2098 32.8689 17.3645ZM24.7604 18.0863C24.5495 18.1508 24.1342 18.3248 23.8338 18.4859C23.5335 18.6406 23.1054 18.9178 22.8818 19.1047C22.6581 19.2916 22.3386 19.6203 22.1661 19.833C21.9936 20.0457 21.7252 20.4646 21.5719 20.7676C21.4121 21.0705 21.2204 21.5475 21.1438 21.8311C21.0224 22.2564 20.9968 22.5014 20.9968 23.2168C20.9968 23.9387 21.0224 24.1771 21.1502 24.6348C21.2588 25.0215 21.7444 26.0785 22.8434 28.3086C23.6933 30.0295 24.4473 31.6215 24.5239 31.8535C24.6006 32.0855 24.6901 32.4465 24.7284 32.6592C24.7604 32.8719 24.7923 33.7936 24.7923 34.7023V36.3652H25.7508C25.7508 33.7936 25.7188 32.8396 25.6805 32.5947C25.6485 32.3434 25.5591 31.9373 25.4888 31.6924C25.4185 31.4346 24.6581 29.7975 23.738 27.9219C22.2875 24.9635 22.1022 24.5381 22.0064 24.0547C21.9297 23.6744 21.9105 23.3393 21.9361 22.959C21.9553 22.6432 22.0383 22.1855 22.1342 21.8955C22.2236 21.6119 22.4025 21.193 22.5367 20.9674C22.6709 20.7418 22.9712 20.368 23.2077 20.1295C23.4441 19.8975 23.8147 19.5945 24.0383 19.4592C24.262 19.3238 24.6709 19.1369 24.9521 19.0402L25.4632 18.8662L31.5015 18.834C31.5015 18.2346 31.5143 18.0154 31.5335 17.9639C31.5591 17.8801 31.214 17.8672 28.6389 17.8736C27.0351 17.8801 25.591 17.9059 25.4313 17.9316C25.2715 17.9574 24.9712 18.0283 24.7604 18.0863V18.0863ZM32.46 21.7344H35.3354V20.3164C34.5175 20.716 34.4153 20.7354 33.8977 20.7354C33.3929 20.7354 33.2779 20.7096 32.9392 20.542C32.7284 20.4389 32.5367 20.3422 32.5175 20.3293C32.492 20.3164 32.4728 20.6258 32.4664 21.0189L32.46 21.7344ZM31.5015 23.4102C31.5015 24.1127 31.5015 24.1191 31.6485 24.0805C31.7252 24.0547 32.0511 23.9645 32.3642 23.8742C32.8626 23.7324 33.067 23.7131 33.8977 23.7131C34.7284 23.7131 34.9392 23.7324 35.4632 23.8742C35.7955 23.9709 36.1213 24.0611 36.1852 24.0805C36.2875 24.1127 36.2939 24.0547 36.2939 23.4102V22.7012H31.5015V23.4102ZM32.0766 24.9699C31.8466 25.0537 31.444 25.2471 31.1821 25.4018C30.9009 25.5693 30.492 25.9045 30.1853 26.2074C29.8658 26.5361 29.5591 26.9229 29.3738 27.2451C29.2076 27.5287 29.0032 27.9799 28.9201 28.2441C28.8306 28.5084 28.7284 28.9016 28.6964 29.1143C28.6517 29.3721 28.6262 32.0598 28.6262 37.1387C28.6262 42.4689 28.6517 44.8537 28.6964 45.0342C28.7412 45.2018 28.8754 45.4016 29.0798 45.5949C29.2651 45.7818 29.4888 45.9301 29.6357 45.9688C29.7827 46.0074 31.4313 46.0332 33.8977 46.0332C36.8562 46.0332 37.9935 46.0074 38.1788 45.9559C38.3258 45.9107 38.5558 45.7561 38.722 45.582C38.8945 45.4145 39.0478 45.1824 39.0926 45.0342C39.1501 44.8408 39.1692 42.9201 39.1692 37.1709C39.1692 32.2854 39.1437 29.4172 39.1053 29.1465C39.067 28.9145 38.9648 28.5084 38.8817 28.2441C38.7922 27.9799 38.5878 27.5287 38.4216 27.2451C38.2427 26.9293 37.9296 26.5297 37.6101 26.2074C37.2907 25.8852 36.8945 25.5758 36.5814 25.3889C36.3002 25.2213 35.853 25.015 35.591 24.9248C35.329 24.841 34.9392 24.7379 34.7284 24.6992C34.5175 24.667 34.1149 24.6348 33.8338 24.6412C33.5527 24.6412 33.1373 24.6863 32.9073 24.7314C32.6773 24.7766 32.3067 24.8861 32.0766 24.9699V24.9699ZM24.7923 44.0996H25.7508V37.332H24.7923V44.0996ZM33.8977 17.8672C33.9872 17.8672 34.1277 17.9381 34.2172 18.0283C34.3066 18.1186 34.3769 18.2604 34.3769 18.3506C34.3769 18.4408 34.3066 18.5826 34.2236 18.6729C34.1341 18.7631 33.9935 18.834 33.9041 18.834C33.8146 18.834 33.6677 18.7631 33.5782 18.6729C33.4888 18.5826 33.4185 18.4408 33.4249 18.3506C33.4249 18.2604 33.4951 18.1121 33.5782 18.0283C33.6613 17.9381 33.8082 17.8672 33.8977 17.8672ZM29.8977 29.4688H37.8913L38.2108 29.791V40.877L37.8977 41.1992H29.9041L29.5846 40.877V34.7539L29.7444 34.5928C29.8274 34.5025 29.9744 34.4316 30.0639 34.4316C30.1533 34.4316 30.2939 34.5025 30.5431 34.7539V40.2324H37.2523V33.4648H29.9041L29.5846 33.1426L29.591 29.7846L29.8977 29.4688ZM30.5431 32.498H37.2523V30.4355H30.5431V32.498Z" fill="#E75C54"/>
</svg>
