<svg width="62" height="62" viewBox="0 0 62 62" fill="none" xmlns="http://www.w3.org/2000/svg">
<rect width="62" height="62" rx="7" fill="#F5E1E0"/>
<path d="M24.5927 22.4849L22.22 20.1963L20.3614 21.9991L22.7209 24.2877L24.5927 22.4849ZM17 29.7215H20.9545V32.2785H17V29.7215ZM30.1818 17H32.8182V20.7717H30.1818V17ZM40.78 20.19L42.636 21.9889L40.2765 24.2774L38.4218 22.4773L40.78 20.19ZM38.4073 39.5151L40.7668 41.8164L42.6255 40.0137L40.2527 37.7251L38.4073 39.5151ZM42.0455 29.7215H46V32.2785H42.0455V29.7215ZM31.5 23.3288C27.1368 23.3288 23.5909 26.768 23.5909 31C23.5909 35.232 27.1368 38.6712 31.5 38.6712C35.8632 38.6712 39.4091 35.232 39.4091 31C39.4091 26.768 35.8632 23.3288 31.5 23.3288ZM31.5 36.1142C28.5868 36.1142 26.2273 33.8256 26.2273 31C26.2273 28.1744 28.5868 25.8858 31.5 25.8858C34.4132 25.8858 36.7727 28.1744 36.7727 31C36.7727 33.8256 34.4132 36.1142 31.5 36.1142ZM30.1818 41.2283H32.8182V45H30.1818V41.2283ZM20.3614 40.0009L22.22 41.8037L24.5795 39.5023L22.7209 37.6995L20.3614 40.0009Z" fill="#E75C54"/>
</svg>
