<svg width="62" height="62" viewBox="0 0 62 62" fill="none" xmlns="http://www.w3.org/2000/svg">
<rect width="62" height="62" rx="7" fill="#F5E1E0"/>
<path fill-rule="evenodd" clip-rule="evenodd" d="M46.6235 17L47 17.3768L46.9933 28.0627C46.9933 35.9695 46.9731 38.7823 46.9193 38.8899C46.8722 38.9774 46.805 39.0649 46.7647 39.0918C46.7243 39.1187 46.0788 39.1456 43.9676 39.1456L43.9541 41.6825C43.934 44.1118 43.9272 44.2396 43.7928 44.4617C43.7188 44.5895 43.5372 44.7645 43.3893 44.8452C43.1338 44.9933 43.0868 45 40.7065 45C38.3263 45 38.2792 44.9933 38.017 44.8452C37.8355 44.7443 37.6943 44.5963 37.5934 44.3944C37.4455 44.0983 37.4455 44.0512 37.4455 39.1456H33.6129V41.5681L34.7291 41.5816C35.8318 41.6018 35.8452 41.6018 35.973 41.77C36.047 41.8642 36.1075 42.0055 36.1007 42.0863C36.1007 42.1738 36.0402 42.3016 35.9663 42.3756C35.8318 42.5102 35.7444 42.5102 30.9907 42.5102C26.2369 42.5102 26.1495 42.5102 26.0151 42.3756C25.9411 42.3016 25.8806 42.1738 25.8806 42.0863C25.8739 42.0055 25.9344 41.8642 26.0083 41.77C26.1361 41.6018 26.1495 41.6018 28.3684 41.5681V39.1456H15.257L15.1225 38.9909C14.988 38.8428 14.9813 38.8092 15.0217 17.2692L15.1898 17.1413C15.3511 17.0135 15.6806 17.0067 46.6235 17ZM15.9159 26.8447L15.9294 35.6465H37.4455C37.4791 33.224 37.4926 33.1096 37.6203 32.9212C37.701 32.8068 37.8489 32.6587 37.9565 32.5847C38.1448 32.4569 38.2792 32.4501 40.6057 32.4299C43.0464 32.4098 43.0599 32.4098 43.3624 32.5645C43.5373 32.6587 43.7188 32.8135 43.7995 32.9548C43.9205 33.1634 43.934 33.3249 43.9474 34.415L43.9676 35.6465H46.0519L46.0183 17.9825C22.7675 17.9555 15.9966 17.969 15.963 17.9959C15.9294 18.0161 15.9092 21.9998 15.9159 26.8447ZM38.4003 38.7755L38.4204 44.0243H42.9926V33.3922C38.9449 33.3586 38.4473 33.372 38.4204 33.4393C38.4003 33.4864 38.3936 35.8887 38.4003 38.7755ZM15.9294 38.2036H37.4455V36.5886H15.9294V38.2036ZM43.9676 38.2036H46.0519V36.5886H43.9676V38.2036ZM29.3097 41.5681H32.6716V39.1456H29.3097V41.5681ZM39.7988 34.8794C39.9669 34.8928 40.1552 34.9601 40.2224 35.0274C40.2897 35.088 40.3367 35.236 40.3367 35.3437C40.3367 35.4513 40.2829 35.5994 40.2157 35.6667C40.1283 35.7541 40.0005 35.7878 39.698 35.7811C39.4088 35.7811 39.2609 35.7474 39.1735 35.6599C39.1063 35.5994 39.0525 35.4513 39.0525 35.3437C39.0525 35.236 39.1063 35.0947 39.1735 35.0341C39.2407 34.9736 39.3416 34.9063 39.3954 34.8861C39.4492 34.8592 39.6307 34.8592 39.7988 34.8794ZM41.8496 34.8794C41.9975 34.8995 42.1723 34.9668 42.2396 35.0274C42.3068 35.088 42.3539 35.236 42.3539 35.3437C42.3539 35.4513 42.3001 35.5994 42.2328 35.6667C42.1454 35.7541 42.0177 35.7878 41.7151 35.7811C41.426 35.7811 41.2781 35.7474 41.1906 35.6599C41.1234 35.5994 41.0696 35.4513 41.0696 35.3437C41.0696 35.236 41.1234 35.0947 41.1906 35.0341C41.2579 34.9668 41.3722 34.9063 41.4462 34.8861C41.5201 34.8659 41.7017 34.8659 41.8496 34.8794ZM39.7988 37.0327C39.9669 37.0461 40.1552 37.1134 40.2224 37.1807C40.2897 37.2413 40.3367 37.3826 40.3367 37.497C40.3367 37.6047 40.2829 37.7527 40.2157 37.82C40.1283 37.9075 40.0005 37.9411 39.698 37.9344C39.4088 37.9344 39.2609 37.9007 39.1735 37.8133C39.1063 37.7527 39.0525 37.6047 39.0525 37.497C39.0525 37.3893 39.1063 37.248 39.1735 37.1875C39.2407 37.1269 39.3416 37.0596 39.3954 37.0394C39.4492 37.0125 39.6307 37.0125 39.7988 37.0327ZM41.8496 37.0327C41.9975 37.0529 42.1723 37.1202 42.2396 37.1807C42.3068 37.2413 42.3539 37.3826 42.3539 37.497C42.3539 37.6047 42.3001 37.7527 42.2328 37.82C42.1454 37.9075 42.0177 37.9411 41.7151 37.9344C41.426 37.9344 41.2781 37.9007 41.1906 37.8133C41.1234 37.7527 41.0696 37.6047 41.0696 37.497C41.0696 37.3893 41.1234 37.248 41.1906 37.1875C41.2579 37.1202 41.3722 37.0596 41.4462 37.0394C41.5201 37.0192 41.7017 37.0192 41.8496 37.0327ZM40.7805 39.2264C41.1705 39.2398 41.3117 39.2869 41.5806 39.4485C41.7891 39.5763 41.9908 39.7782 42.1118 39.9801C42.2799 40.2425 42.327 40.404 42.3404 40.7539C42.3606 41.0433 42.327 41.2922 42.2597 41.4672C42.2059 41.6152 42.0446 41.8508 41.9034 41.9988C41.7622 42.1401 41.5268 42.3151 41.3789 42.3824C41.2175 42.4564 40.9553 42.5102 40.72 42.5102C40.5115 42.5102 40.2359 42.4698 40.1148 42.4227C40.0005 42.3756 39.7854 42.2478 39.6442 42.1334C39.503 42.0257 39.308 41.7835 39.2206 41.6018C39.1063 41.3663 39.0592 41.1509 39.0592 40.875C39.0592 40.6664 39.1063 40.3771 39.1668 40.2358C39.2206 40.1012 39.3349 39.8926 39.4223 39.7849C39.503 39.6705 39.7383 39.4956 39.94 39.3946C40.256 39.2264 40.3636 39.2062 40.7805 39.2264ZM40.0073 40.8548C40.0005 41.1105 40.0342 41.198 40.2023 41.3663C40.3636 41.5278 40.4578 41.5681 40.6998 41.5681C40.9419 41.5681 41.036 41.5278 41.2041 41.3663C41.3789 41.198 41.4125 41.1105 41.4125 40.8616C41.4125 40.6126 41.3722 40.5184 41.2108 40.3569C41.0427 40.1887 40.9553 40.155 40.6998 40.155C40.451 40.155 40.3569 40.1887 40.2023 40.3502C40.0543 40.5049 40.0073 40.6126 40.0073 40.8548Z" fill="#E75C54"/>
</svg>
