<svg width="53" height="53" viewBox="0 0 53 53" fill="none" xmlns="http://www.w3.org/2000/svg">
<mask id="mask0_1_19623" style="mask-type:luminance" maskUnits="userSpaceOnUse" x="4" y="30" width="34" height="17">
<path fill-rule="evenodd" clip-rule="evenodd" d="M4.41602 30.8218H37.9469V46.5001H4.41602V30.8218Z" fill="white"/>
</mask>
<g mask="url(#mask0_1_19623)">
<path fill-rule="evenodd" clip-rule="evenodd" d="M21.1817 34.1343C15.0447 34.1343 7.72852 34.9227 7.72852 38.6879C7.72852 41.6735 12.2556 43.1884 21.1817 43.1884C30.1078 43.1884 34.6349 41.6581 34.6349 38.6437C34.6349 35.6514 30.1078 34.1343 21.1817 34.1343ZM21.1817 46.5009C16.5972 46.5009 4.41602 46.5009 4.41602 38.6879C4.41602 30.8218 17.0344 30.8218 21.1817 30.8218C28.3786 30.8218 37.9473 31.6322 37.9473 38.6437C37.9473 46.5009 25.3289 46.5009 21.1817 46.5009Z" fill="#A89C98"/>
</g>
<path fill-rule="evenodd" clip-rule="evenodd" d="M21.1818 7.72925C16.7541 7.72925 13.1523 11.331 13.1523 15.7565C13.1523 20.182 16.7541 23.7838 21.1818 23.7838H21.2503C23.3791 23.775 25.3843 22.938 26.8882 21.4209C28.3943 19.9082 29.218 17.8964 29.2091 15.7632C29.2091 11.331 25.6073 7.72925 21.1818 7.72925ZM21.1818 27.0963C14.9278 27.0963 9.83984 22.0083 9.83984 15.7565C9.83984 9.50475 14.9278 4.41675 21.1818 4.41675C27.4336 4.41675 32.5216 9.50475 32.5216 15.7565C32.5349 18.7687 31.3667 21.613 29.2378 23.7551C27.1134 25.8994 24.2757 27.0853 21.2569 27.0963H21.1818Z" fill="#A89C98"/>
<path fill-rule="evenodd" clip-rule="evenodd" d="M36.3987 24.5827C35.5861 24.5827 34.8772 23.9842 34.7602 23.1561C34.6343 22.2507 35.2637 21.4115 36.1691 21.2856C38.9251 20.8992 41.0053 18.5075 41.0097 15.7206C41.0097 12.9514 39.0267 10.6149 36.2994 10.1689C35.3962 10.0187 34.7845 9.16848 34.9324 8.26527C35.0804 7.36207 35.935 6.75477 36.8338 6.89832C41.1732 7.6094 44.3222 11.3216 44.3222 15.7228C44.3134 20.1505 41.0075 23.9533 36.6306 24.5672C36.5533 24.5782 36.476 24.5827 36.3987 24.5827Z" fill="#A89C98"/>
<mask id="mask1_1_19623" style="mask-type:luminance" maskUnits="userSpaceOnUse" x="39" y="29" width="10" height="12">
<path fill-rule="evenodd" clip-rule="evenodd" d="M39.4092 29.7759H48.5379V40.7679H39.4092V29.7759Z" fill="white"/>
</mask>
<g mask="url(#mask1_1_19623)">
<path fill-rule="evenodd" clip-rule="evenodd" d="M43.9369 40.7679C43.2677 40.7679 42.6384 40.3594 42.3888 39.6991C42.0642 38.8445 42.4948 37.886 43.3494 37.5636C45.2265 36.8525 45.2265 35.9847 45.2265 35.6137C45.2265 34.3615 43.7447 33.5047 40.8231 33.0697C39.9177 32.9328 39.2927 32.0892 39.4274 31.186C39.5644 30.2805 40.4234 29.6733 41.3112 29.7903C47.2869 30.6847 48.539 33.4517 48.539 35.6137C48.539 37.2235 47.8434 39.4032 44.5243 40.6597C44.3322 40.7326 44.1334 40.7679 43.9369 40.7679Z" fill="#A89C98"/>
</g>
</svg>
