<svg width="45" height="41" viewBox="0 0 45 41" fill="none" xmlns="http://www.w3.org/2000/svg">
<mask id="mask0_342_271" style="mask-type:luminance" maskUnits="userSpaceOnUse" x="0" y="0" width="45" height="41">
<path fill-rule="evenodd" clip-rule="evenodd" d="M0.416016 0.625H44.613V40.7846H0.416016V0.625Z" fill="white"/>
</mask>
<g mask="url(#mask0_342_271)">
<path fill-rule="evenodd" clip-rule="evenodd" d="M22.5282 3.9375C21.477 3.9375 20.5407 4.48075 20.0151 5.39279L4.11953 33.1405C3.60278 34.0459 3.6072 35.1258 4.13057 36.029C4.65395 36.9322 5.59028 37.4733 6.63483 37.4733H38.3973C39.4396 37.4733 40.3759 36.9322 40.8993 36.029C41.4249 35.1258 41.4293 34.0459 40.9082 33.1405L25.0413 5.39279C24.5179 4.48075 23.5816 3.9375 22.5282 3.9375ZM38.3972 40.7858H6.63471C4.39546 40.7858 2.38809 39.6286 1.26405 37.6897C0.140003 35.753 0.133378 33.4364 1.24417 31.4953L17.1442 3.74538C18.2616 1.791 20.2734 0.625 22.5281 0.625H22.5303C24.7828 0.625 26.799 1.79321 27.9164 3.74979L43.7855 31.4953C44.8963 33.4364 44.8897 35.753 43.7656 37.6897C42.6416 39.6286 40.6342 40.7858 38.3972 40.7858Z" fill="#A89C98"/>
</g>
<path fill-rule="evenodd" clip-rule="evenodd" d="M22.5088 25.2788C21.5945 25.2788 20.8525 24.5368 20.8525 23.6226V16.7767C20.8525 15.8625 21.5945 15.1205 22.5088 15.1205C23.423 15.1205 24.165 15.8625 24.165 16.7767V23.6226C24.165 24.5368 23.423 25.2788 22.5088 25.2788Z" fill="#A89C98"/>
<path fill-rule="evenodd" clip-rule="evenodd" d="M22.5133 32.6437C21.2921 32.6437 20.2939 31.6566 20.2939 30.4354C20.2939 29.2142 21.2722 28.2271 22.4912 28.2271H22.5133C23.7345 28.2271 24.7217 29.2142 24.7217 30.4354C24.7217 31.6566 23.7345 32.6437 22.5133 32.6437Z" fill="#A89C98"/>
</svg>
