<svg width="42" height="39" viewBox="0 0 42 39" fill="none" xmlns="http://www.w3.org/2000/svg">
<path d="M24.3439 0.170214C24.0811 0.213348 23.4502 0.325498 22.9419 0.420394C22.4337 0.515291 21.6276 0.722337 21.1457 0.877622C20.6637 1.04153 19.8576 1.36936 19.3494 1.61954C18.8412 1.86972 18.0701 2.30969 17.6407 2.60301C17.1588 2.9222 16.3877 3.58648 15.6605 4.29388C14.977 4.96678 14.1972 5.8381 13.8116 6.36435C13.4436 6.86471 12.874 7.71877 12.5323 8.26227C12.1993 8.80577 11.3757 10.2465 10.7185 11.4542C10.0526 12.662 9.2552 14.0596 8.93976 14.5599C8.62431 15.0603 8.14239 15.7591 7.87076 16.1128C7.59912 16.4665 7.08215 17.0359 6.72289 17.3637C6.36364 17.7001 5.8379 18.1142 5.54874 18.2868C5.25958 18.4593 4.77766 18.7009 4.47974 18.8216C4.17306 18.951 3.66484 19.1063 3.34064 19.184C3.00767 19.253 2.32421 19.3392 1.80723 19.3738C1.05367 19.4255 0.825849 19.4686 0.624315 19.6153C0.492881 19.7188 0.30011 19.9086 0.203724 20.0294C0.0722892 20.2019 0.0284776 20.4004 0.0284776 20.7713C0.0284776 21.1509 0.0722892 21.3321 0.212486 21.5219C0.317634 21.6513 0.492881 21.8324 0.606791 21.9187C0.75575 22.0308 1.07119 22.0999 1.73713 22.1602C2.24535 22.2034 2.95509 22.3155 3.31435 22.4191C3.6736 22.514 4.61993 22.9022 5.41731 23.2731C6.21468 23.6441 7.17853 24.0754 7.56407 24.2221C7.94962 24.3687 8.59803 24.5758 9.00986 24.6793C9.60569 24.826 10.035 24.8605 11.1566 24.8605C12.2256 24.8691 12.7251 24.8346 13.2596 24.7052C13.6451 24.6189 14.241 24.4464 14.5739 24.3342C14.9069 24.2135 15.8795 23.7907 16.7207 23.4025C17.5619 23.0057 18.5082 22.6002 18.8237 22.4967C19.1391 22.4018 19.6736 22.2724 20.0066 22.2206C20.3483 22.1689 20.988 22.1516 21.4524 22.1775C21.908 22.212 22.5827 22.3155 22.9419 22.4104C23.3012 22.514 24.3264 22.9367 25.2202 23.3508C26.1139 23.7735 27.1128 24.2135 27.4545 24.3342C27.7963 24.4464 28.3834 24.6189 28.7689 24.7052C29.2946 24.826 29.8116 24.8691 30.828 24.8691C31.8445 24.8691 32.3614 24.826 32.8872 24.7052C33.2727 24.6189 33.8598 24.4464 34.2015 24.3342C34.5433 24.2135 35.5422 23.7735 36.4359 23.3508C37.3297 22.9367 38.3549 22.514 38.7141 22.4191C39.0734 22.3155 39.7831 22.2034 40.2913 22.1602C40.9573 22.0999 41.2727 22.0308 41.4217 21.9187C41.5356 21.8324 41.7108 21.6513 41.816 21.5219C41.9562 21.3321 42 21.1509 42 20.7713C42 20.4004 41.9562 20.2019 41.8248 20.0294C41.7284 19.9086 41.5356 19.7188 41.4042 19.6153C41.1851 19.46 41.0449 19.4341 40.2212 19.4428C39.7043 19.4428 39.0471 19.4945 38.7579 19.5549C38.4688 19.6153 37.9168 19.762 37.5312 19.8827C37.1457 20.0035 36.103 20.4435 35.2092 20.8576C34.3154 21.2717 33.3341 21.6944 33.0186 21.7893C32.7032 21.8842 32.1511 22.005 31.7919 22.0567C31.3713 22.1171 30.8894 22.1171 30.4337 22.074C30.0482 22.0308 29.4786 21.9273 29.1632 21.8497C28.8478 21.772 28.2344 21.5391 27.805 21.3321C27.3757 21.125 26.7886 20.7799 26.5082 20.5643C26.2366 20.34 25.7897 19.9086 25.5268 19.5808C25.2552 19.2616 24.8609 18.6491 24.6506 18.2264C24.4315 17.8037 24.1774 17.0962 24.0723 16.6735C23.9233 16.0783 23.8795 15.6469 23.8795 14.8187C23.8883 14.0251 23.9321 13.5678 24.0635 13.0933C24.1599 12.7396 24.3614 12.1961 24.5104 11.8856C24.6681 11.575 24.931 11.1437 25.0887 10.9107C25.2552 10.6864 25.5794 10.3845 25.816 10.2465C26.0438 10.0998 26.4469 9.91864 26.7097 9.841C27.0164 9.75473 27.402 9.72022 27.7612 9.7461C28.0854 9.76336 28.4797 9.84963 28.6725 9.94452C28.8653 10.0394 29.0931 10.212 29.1807 10.3327C29.2683 10.4535 29.3823 10.7986 29.4261 11.1092C29.4699 11.4197 29.5838 11.7648 29.6714 11.8856C29.7678 12.0064 29.9518 12.1789 30.0745 12.2738C30.2585 12.4032 30.4513 12.4463 30.8543 12.4463C31.2662 12.4463 31.5115 12.3859 31.8795 12.2134C32.1424 12.084 32.563 11.8079 32.8171 11.6095C33.0624 11.4025 33.4304 11.0401 33.6232 10.8072C33.8248 10.5657 34.1227 10.1257 34.2804 9.81512C34.4469 9.50455 34.6747 8.96105 34.7886 8.60735C34.9551 8.08111 34.9901 7.77054 34.9901 6.9251C34.9901 6.07966 34.9551 5.76909 34.7798 5.24285C34.6659 4.88914 34.4644 4.37153 34.3242 4.09547C34.184 3.82803 33.8861 3.37943 33.667 3.10337C33.448 2.83593 33.0975 2.46498 32.8959 2.28381C32.7032 2.10265 32.3001 1.8007 32.011 1.60228C31.7218 1.40386 31.2136 1.11918 30.8719 0.955264C30.5301 0.799979 29.8992 0.584306 29.4699 0.472156C29.0405 0.351379 28.4973 0.213348 28.2694 0.161587C28.0241 0.109825 27.2004 0.0753174 26.3417 0.0753174C25.5093 0.0839443 24.6068 0.127079 24.3439 0.170214ZM0.782037 26.4047C0.615553 26.4737 0.387733 26.6462 0.273823 26.8015C0.168675 26.9482 0.0460022 27.1984 0.0197152 27.345C-0.00657174 27.5003 -0.00657174 27.7764 0.0197152 27.9489C0.0460022 28.1473 0.186199 28.4061 0.352684 28.5873C0.510405 28.7512 0.75575 28.9238 0.90471 28.9669C1.04491 29.0014 1.50055 29.0618 1.91238 29.0877C2.32421 29.1136 2.95509 29.2171 3.31435 29.3206C3.6736 29.4155 4.61993 29.8037 5.41731 30.1747C6.21468 30.5456 7.17853 30.977 7.56407 31.1236C7.94962 31.2703 8.59803 31.4773 9.00986 31.5809C9.60569 31.7275 10.035 31.762 11.1566 31.762C12.2256 31.7706 12.7251 31.7361 13.2596 31.6067C13.6451 31.5205 14.2322 31.3479 14.5739 31.2358C14.9069 31.115 15.8795 30.6923 16.7207 30.3041C17.5619 29.9072 18.5082 29.5018 18.8237 29.3982C19.1391 29.3033 19.6648 29.1739 20.0066 29.1222C20.3483 29.0704 20.988 29.0532 21.4524 29.079C21.908 29.1136 22.5827 29.2171 22.9419 29.312C23.3012 29.4155 24.3264 29.8382 25.2202 30.2523C26.1139 30.675 27.1128 31.115 27.4545 31.2358C27.7875 31.3479 28.3834 31.5205 28.7689 31.6067C29.2946 31.7275 29.8116 31.7706 30.828 31.7706C31.8445 31.7706 32.3614 31.7275 32.8872 31.6067C33.2727 31.5205 33.8598 31.3479 34.2015 31.2358C34.5345 31.115 35.5422 30.675 36.4359 30.2523C37.3297 29.8382 38.3549 29.4155 38.7141 29.3206C39.0734 29.2171 39.7831 29.1049 40.2913 29.0618C40.9573 29.0014 41.2727 28.9324 41.4217 28.8202C41.5356 28.734 41.7108 28.5528 41.816 28.4234C41.9562 28.2336 42 28.0524 42 27.6729C42 27.2933 41.9562 27.1121 41.816 26.9223C41.7108 26.7929 41.5181 26.6031 41.3866 26.5082C41.1851 26.3529 41.0274 26.3357 40.1336 26.3529C39.3625 26.3616 38.8981 26.4133 38.276 26.5772C37.8204 26.6894 37.1632 26.8964 36.8302 27.0258C36.4885 27.1552 35.7525 27.4917 35.1829 27.7678C34.6221 28.0524 33.8686 28.3889 33.5181 28.5269C33.1763 28.665 32.5542 28.8375 32.1424 28.9151C31.7306 28.9928 31.1435 29.0532 30.828 29.0532C30.5126 29.0532 30.0219 29.01 29.7327 28.9669C29.4436 28.9238 28.9529 28.803 28.6375 28.6995C28.322 28.6046 27.3757 28.1991 26.5345 27.8023C25.6933 27.414 24.7207 26.9913 24.3877 26.8706C24.046 26.7584 23.4589 26.5859 23.0734 26.4996C22.5476 26.3788 22.0307 26.3357 21.0142 26.3357C19.9978 26.3357 19.4808 26.3788 18.9551 26.4996C18.5695 26.5859 17.9737 26.7584 17.6407 26.8706C17.299 26.9913 16.3001 27.4313 15.4064 27.8454C14.5126 28.2681 13.4874 28.6908 13.1281 28.7857C12.7689 28.8893 12.1117 28.9928 11.6824 29.0273C11.1917 29.0618 10.6309 29.0359 10.1928 28.9669C9.80723 28.9065 9.2552 28.7857 8.96605 28.6908C8.67689 28.5959 7.71303 28.1818 6.81928 27.7591C5.92552 27.345 4.94414 26.9223 4.6287 26.8188C4.31325 26.7239 3.80504 26.5859 3.48959 26.5082C3.17415 26.4392 2.50821 26.3616 2 26.3357C1.3253 26.3012 1.0011 26.3184 0.782037 26.4047ZM0.782037 33.3062C0.615553 33.3753 0.387733 33.5478 0.273823 33.7031C0.168675 33.8497 0.0460022 34.0999 0.0197152 34.2466C-0.00657174 34.4019 -0.00657174 34.6779 0.0197152 34.8505C0.0460022 35.0489 0.186199 35.3077 0.352684 35.4888C0.510405 35.6528 0.75575 35.8253 0.90471 35.8684C1.04491 35.9029 1.50055 35.9633 1.91238 35.9892C2.32421 36.0151 2.95509 36.1186 3.31435 36.2221C3.6736 36.317 4.61993 36.7052 5.41731 37.0762C6.21468 37.4472 7.17853 37.8785 7.56407 38.0252C7.94962 38.1718 8.66813 38.3961 9.15882 38.5083C9.86856 38.6722 10.2979 38.7153 11.2004 38.7153C12.103 38.7153 12.5323 38.6722 13.2333 38.5083C13.7327 38.3875 14.3724 38.215 14.6616 38.1114C14.9507 37.9993 15.8795 37.5938 16.7207 37.2056C17.5619 36.8088 18.5082 36.4033 18.8237 36.2998C19.1391 36.2049 19.6648 36.0755 20.0066 36.0237C20.3483 35.972 20.988 35.9547 21.4524 35.9806C21.908 36.0151 22.5827 36.1186 22.9419 36.2135C23.3012 36.317 24.2913 36.7225 25.1325 37.1193C25.9737 37.5162 26.9376 37.9475 27.2793 38.0683C27.6123 38.1977 28.2957 38.3961 28.7864 38.5083C29.4962 38.6722 29.9255 38.7153 30.828 38.7153C31.7306 38.7153 32.1599 38.6722 32.8609 38.5083C33.3604 38.3961 34.035 38.1977 34.3768 38.0683C34.7097 37.9475 35.6824 37.5162 36.5235 37.1193C37.3647 36.7225 38.3549 36.317 38.7141 36.2221C39.0734 36.1186 39.7831 36.0065 40.2913 35.9633C40.9573 35.9029 41.2727 35.8339 41.4217 35.7218C41.5356 35.6355 41.7108 35.4543 41.816 35.3249C41.9562 35.1351 42 34.954 42 34.5744C42 34.1948 41.9562 34.0136 41.816 33.8239C41.7108 33.6945 41.5181 33.5047 41.3866 33.4098C41.1851 33.2545 41.0274 33.2372 40.1336 33.2545C39.3625 33.2631 38.8981 33.3149 38.276 33.4788C37.8204 33.5909 37.1632 33.798 36.8302 33.9274C36.4885 34.0568 35.7525 34.3932 35.1829 34.6693C34.6221 34.954 33.8686 35.2904 33.5181 35.4285C33.1763 35.5665 32.5542 35.739 32.1424 35.8167C31.7306 35.8943 31.1435 35.9547 30.828 35.9547C30.5126 35.9547 30.0219 35.9116 29.7327 35.8684C29.4436 35.8253 28.9529 35.7045 28.6375 35.601C28.322 35.5061 27.3757 35.1006 26.5345 34.7038C25.6933 34.3156 24.7207 33.8929 24.3877 33.7721C24.046 33.6599 23.4589 33.4874 23.0734 33.4011C22.5476 33.2804 22.0307 33.2372 21.0142 33.2372C19.9978 33.2372 19.4808 33.2804 18.9551 33.4011C18.5695 33.4874 17.9737 33.6599 17.6407 33.7721C17.299 33.8929 16.3001 34.3328 15.4064 34.7469C14.5126 35.1697 13.4874 35.5924 13.1281 35.6873C12.7689 35.7908 12.1117 35.8943 11.6824 35.9288C11.1917 35.9633 10.6309 35.9375 10.1928 35.8684C9.80723 35.808 9.2552 35.6873 8.96605 35.5924C8.67689 35.4975 7.71303 35.0834 6.81928 34.6607C5.92552 34.2466 4.94414 33.8239 4.6287 33.7203C4.31325 33.6254 3.80504 33.4874 3.48959 33.4098C3.17415 33.3407 2.50821 33.2631 2 33.2372C1.3253 33.2027 1.0011 33.22 0.782037 33.3062Z" fill="#A89C98"/>
</svg>
