<svg width="61" height="51" viewBox="0 0 61 51" fill="none" xmlns="http://www.w3.org/2000/svg">
<path d="M45.7391 40.7085C41.6304 40.7085 39.0434 41.9867 36.7608 43.1433C34.7826 44.1476 33.1695 44.9693 30.5217 44.9693C27.7826 44.9693 26.2608 44.2085 24.2826 43.1433C22 41.9867 19.5043 40.7085 15.3043 40.7085C11.1043 40.7085 8.60865 41.9867 6.32605 43.1433C4.34778 44.1476 2.76517 44.9693 0.0869141 44.9693V50.9041C4.19561 50.9041 6.78257 49.6259 9.06517 48.4694C11.0434 47.465 12.626 46.6433 15.3043 46.6433C17.9826 46.6433 19.5652 47.4041 21.5434 48.4694C23.826 49.6259 26.3217 50.9041 30.5217 50.9041C34.7217 50.9041 37.2173 49.6259 39.5 48.4694C41.4782 47.465 43.0913 46.6433 45.7391 46.6433C48.4782 46.6433 50 47.4041 51.9782 48.4694C54.2608 49.6259 56.7869 50.9041 60.9565 50.9041V44.9693C58.2173 44.9693 56.6956 44.2085 54.7174 43.1433C52.4347 41.9867 49.8478 40.7085 45.7391 40.7085ZM45.7391 27.165C41.6304 27.165 39.0434 28.4737 36.7608 29.5998C34.7826 30.5737 33.1695 31.4259 30.5217 31.4259C27.7826 31.4259 26.2608 30.665 24.2826 29.5998C22 28.4433 19.5043 27.165 15.3043 27.165C11.1043 27.165 8.60865 28.4737 6.32605 29.5998C4.34778 30.5737 2.76517 31.4259 0.0869141 31.4259V37.3607C4.19561 37.3607 6.78257 36.052 9.06517 34.9259C11.0434 33.8607 12.5652 33.0998 15.3043 33.0998C18.0434 33.0998 19.5652 33.8607 21.5434 34.9259C23.826 36.0824 26.3217 37.3607 30.5217 37.3607C34.7217 37.3607 37.2173 36.052 39.5 34.9259C41.4782 33.8607 43 33.0998 45.7391 33.0998C48.4782 33.0998 50 33.8607 51.9782 34.9259C54.2608 36.0824 56.7869 37.3607 60.9565 37.3607V31.4259C58.2173 31.4259 56.6956 30.665 54.7174 29.5998C52.4347 28.4433 49.8478 27.165 45.7391 27.165ZM54.7174 2.5737C52.4347 1.41718 49.9087 0.138916 45.7391 0.138916C41.5695 0.138916 39.0434 1.41718 36.7608 2.5737C34.7826 3.54761 33.1695 4.39979 30.5217 4.39979C27.7826 4.39979 26.2608 3.63892 24.2826 2.5737C22 1.44761 19.5043 0.138916 15.3043 0.138916C11.1043 0.138916 8.60865 1.41718 6.32605 2.5737C4.34778 3.57805 2.76517 4.39979 0.0869141 4.39979V10.2737C4.19561 10.2737 6.78257 8.965 9.06517 7.83892C11.0434 6.83457 12.626 6.01283 15.3043 6.01283C17.9826 6.01283 19.5652 6.7737 21.5434 7.83892C23.826 8.99544 26.3217 10.2737 30.5217 10.2737C34.7217 10.2737 37.2173 8.965 39.5 7.83892C41.4782 6.865 43.0913 6.01283 45.7391 6.01283C48.4782 6.01283 50 6.7737 51.9782 7.83892C54.2608 8.99544 56.7869 10.2737 60.9565 10.2737V4.33892C58.2173 4.33892 56.6956 3.57805 54.7174 2.5737V2.5737ZM45.7391 13.6215C41.6304 13.6215 39.0434 14.9302 36.7608 16.0563C34.7826 17.1215 33.2608 17.8824 30.5217 17.8824C27.7826 17.8824 26.2608 17.1215 24.2826 16.0563C22 14.8998 19.5043 13.6215 15.3043 13.6215C11.1043 13.6215 8.60865 14.9302 6.32605 16.0563C4.34778 17.1215 2.82604 17.8824 0.0869141 17.8824V23.8172C4.19561 23.8172 6.78257 22.5085 9.06517 21.3824C11.0434 20.4085 12.6565 19.5563 15.3043 19.5563C17.9521 19.5563 19.5652 20.3172 21.5434 21.3824C23.826 22.5389 26.3217 23.8172 30.5217 23.8172C34.7217 23.8172 37.2173 22.5085 39.5 21.3824C41.4782 20.4085 43.0913 19.5563 45.7391 19.5563C48.4782 19.5563 50 20.3172 51.9782 21.3824C54.2608 22.5389 56.7869 23.8172 60.9565 23.8172V17.8824C58.2173 17.8824 56.6956 17.1215 54.7174 16.0563C52.4347 14.8998 49.8478 13.6215 45.7391 13.6215Z" fill="#B4BBC1"/>
</svg>
