<svg width="18" height="18" viewBox="0 0 18 18" fill="none" xmlns="http://www.w3.org/2000/svg">
<path d="M6.3 0V1.8H11.7V0H13.5V1.8H17.1C17.3387 1.8 17.5676 1.89482 17.7364 2.0636C17.9052 2.23239 18 2.46131 18 2.7V17.1C18 17.3387 17.9052 17.5676 17.7364 17.7364C17.5676 17.9052 17.3387 18 17.1 18H0.9C0.661305 18 0.432387 17.9052 0.263604 17.7364C0.0948211 17.5676 0 17.3387 0 17.1V2.7C0 2.46131 0.0948211 2.23239 0.263604 2.0636C0.432387 1.89482 0.661305 1.8 0.9 1.8H4.5V0H6.3ZM16.2 6.3H1.8V16.2H16.2V6.3ZM11.7324 8.2224L13.005 9.495L8.55 13.95L5.3676 10.7676L6.642 9.495L8.5509 11.4048L11.7333 8.2224H11.7324Z" fill="#E85C53"/>
</svg>
