<svg width="18" height="18" viewBox="0 0 18 18" fill="none" xmlns="http://www.w3.org/2000/svg">
<path d="M8.20933 0L16.7763 1.22453L18 9.79193L10.0449 17.7466C9.88263 17.9089 9.66254 18 9.43306 18C9.20358 18 8.98349 17.9089 8.8212 17.7466L0.253388 9.17923C0.0911437 9.01694 0 8.79687 0 8.5674C0 8.33792 0.0911437 8.11785 0.253388 7.95556L8.20933 0ZM10.6568 7.34373C10.8175 7.50442 11.0084 7.63188 11.2184 7.71883C11.4284 7.80577 11.6535 7.8505 11.8808 7.85046C12.1081 7.85042 12.3332 7.80561 12.5432 7.71859C12.7532 7.63157 12.944 7.50405 13.1047 7.3433C13.2654 7.18255 13.3928 6.99172 13.4798 6.78171C13.5667 6.5717 13.6115 6.34662 13.6114 6.11932C13.6114 5.89203 13.5666 5.66697 13.4795 5.45699C13.3925 5.24701 13.265 5.05623 13.1042 4.89553C12.9435 4.73484 12.7526 4.60738 12.5426 4.52043C12.3326 4.43349 12.1075 4.38876 11.8802 4.3888C11.4211 4.38888 10.9809 4.57131 10.6564 4.89596C10.3318 5.22062 10.1495 5.66089 10.1496 6.11994C10.1497 6.57898 10.3321 7.01919 10.6568 7.34373Z" fill="#E85C53"/>
</svg>
