<svg width="144" height="141" viewBox="0 0 144 141" fill="none" xmlns="http://www.w3.org/2000/svg">
<path fill-rule="evenodd" clip-rule="evenodd" d="M51.295 39.2838C51.4974 39.4413 51.7287 39.7247 51.801 39.9451C51.8877 40.1971 51.8733 40.4805 51.7721 40.7324C51.6709 40.9844 51.2516 41.3308 50.5721 41.7087C49.907 42.0708 49.2564 42.6062 48.7649 43.1573C48.36 43.6454 47.8251 44.4799 47.5793 45.0311C47.348 45.5664 47.0878 46.4324 47.001 46.952C46.9287 47.4717 46.8564 50.3531 46.8564 58.8402L47.3191 58.9346C47.5793 58.9976 48.1576 59.2338 48.5914 59.47C49.0251 59.7062 49.748 60.2573 50.1817 60.6824C50.6155 61.1233 51.2371 61.8319 51.5552 62.2727C51.8733 62.7136 52.1769 63.0443 52.2347 63.0128C52.307 62.9656 52.3504 60.9658 52.3504 54.1951L50.8612 52.5733C49.5745 51.1719 49.3865 50.9043 49.401 50.4476C49.4106 50.1117 49.5311 49.8493 49.7624 49.6603C49.9504 49.5029 50.2829 49.3769 50.4998 49.3927C50.76 49.3927 51.1215 49.6131 51.5118 50.0225C51.8588 50.3531 52.1769 50.6366 52.2347 50.6523C52.307 50.6523 52.3504 50.2114 52.3504 49.6761C52.3504 48.873 52.4227 48.6211 52.6829 48.3219C52.8564 48.1172 53.1745 47.9755 53.3913 47.9755C53.6227 47.9755 53.9552 48.1487 54.5191 48.7628V56.1634L54.9528 55.7697C55.1986 55.5493 55.56 55.3761 55.7769 55.3761C56.0082 55.3761 56.3263 55.5335 56.5142 55.7382C56.7166 55.9429 56.8323 56.2736 56.8323 56.557C56.8323 56.9349 56.601 57.2813 54.5191 59.5487V61.5169L55.3431 60.6352C55.8058 60.1628 56.4998 59.533 56.9046 59.2338C57.2949 58.9504 58.1335 58.4622 59.8684 57.5805V52.3529C59.8684 48.5266 59.8106 46.8891 59.6805 46.3222C59.5648 45.8971 59.2901 45.1413 59.0588 44.6689C58.8275 44.1965 58.307 43.4565 57.9166 43.0156C57.5118 42.5904 56.7889 42.0236 56.3263 41.7717C55.8492 41.5197 55.3431 41.1891 55.1986 41.0631C55.054 40.9214 54.9383 40.5907 54.9528 40.3073C54.9528 39.9452 55.0829 39.6617 55.3431 39.394C55.5745 39.1736 55.8347 38.9847 55.9215 39.0004C56.0227 39.0004 56.6443 39.2996 57.2949 39.6617C58.119 40.1184 58.7986 40.6537 59.4492 41.3623C59.9696 41.9291 60.6202 42.8424 60.9238 43.4092C61.213 43.9761 61.5744 44.9996 61.7479 45.6924C62.0082 46.8261 62.0371 47.4244 62.0371 56.8719L64.0178 56.8877C65.5214 56.9034 66.2877 56.9821 67.0973 57.2183C67.6901 57.3915 68.6732 57.7852 70.3503 58.6355L70.8274 56.1791C71.1021 54.825 71.6081 52.6363 71.9551 51.3294C72.3021 50.0067 72.8226 48.259 73.1117 47.4717C73.4009 46.6686 73.8346 45.5822 74.0804 45.0625C74.3117 44.5429 74.7888 43.6769 75.1358 43.1416C75.5117 42.559 76.0611 41.9606 76.4515 41.6772C76.9864 41.315 77.319 41.2048 77.8683 41.2048C78.4177 41.2048 78.7503 41.315 79.2708 41.6772C79.7189 41.9764 80.225 42.559 81.425 44.4327L82.2201 44.165C82.6539 44.0076 83.478 43.8029 84.0418 43.7084C84.6201 43.6139 85.5888 43.5667 86.1816 43.6139C86.7743 43.6612 87.6852 43.8186 88.2057 43.9603C88.7261 44.102 89.6659 44.4957 90.302 44.8264C90.9382 45.157 91.8779 45.8183 92.3984 46.275C92.9189 46.7473 93.6562 47.5819 94.0466 48.1487C94.4369 48.6998 94.9719 49.6603 95.2321 50.2587C95.4924 50.857 95.8104 51.786 95.9406 52.3056C96.0562 52.8252 96.1574 53.3921 96.1574 53.5653C96.1574 53.77 96.4321 54.1007 96.9671 54.51C97.4152 54.8565 98.0369 55.4391 98.3405 55.817C98.6586 56.1791 99.1357 56.8719 99.4104 57.3443C99.7478 57.9216 100.013 58.2103 100.206 58.2103C100.365 58.2103 101.001 58.3835 101.608 58.604C102.23 58.8244 103.155 59.2653 103.675 59.6117C104.196 59.9424 105.006 60.6037 105.468 61.0603C105.931 61.5327 106.596 62.3357 106.928 62.8553C107.275 63.3749 107.709 64.1622 107.912 64.5874C108.114 65.0283 108.418 65.91 108.606 66.5556C108.88 67.5318 108.953 68.083 108.938 69.7048C108.938 71.1062 108.866 71.9722 108.678 72.6965C108.548 73.2633 108.201 74.2396 107.926 74.8694C107.651 75.4835 107.16 76.381 106.813 76.8376C106.466 77.2785 106.148 77.7509 106.09 77.8611C106.032 77.9556 106.206 78.5224 106.48 79.1208C106.755 79.7034 107.145 80.7111 107.348 81.3567C107.565 82.0023 107.883 83.1832 108.042 83.9548C108.23 84.8838 108.36 86.1592 108.403 87.655C108.447 89.1036 108.418 90.2846 108.302 90.8829C108.215 91.4025 107.984 92.1898 107.796 92.615C107.608 93.0558 107.203 93.6384 106.9 93.9376C106.596 94.2368 106.061 94.6147 105.7 94.7879C105.338 94.9611 104.601 95.15 103.025 95.2918L102.953 99.4644H108.157L108.606 99.9053C108.981 100.252 109.054 100.409 108.967 100.771C108.924 101.007 108.707 101.37 108.085 101.999L35.8685 101.984L35.4348 101.511C35.189 101.259 35.0011 100.882 35.0011 100.693C34.9866 100.488 35.1167 100.157 35.5505 99.5431L45.4107 99.4644V96.079L43.8203 95.9688C42.9528 95.8901 41.7673 95.7326 41.2179 95.6067C40.6541 95.4807 39.83 95.1815 39.3673 94.9453C38.8757 94.6934 38.1818 94.1423 37.6613 93.5755C37.1119 92.9614 36.6203 92.2371 36.3312 91.5915C36.0854 91.0246 35.7384 89.9224 35.5505 89.1509C35.2468 87.8597 35.2179 87.3873 35.2179 83.7973C35.2179 80.6796 35.2758 79.5302 35.4926 78.2863C35.6227 77.4202 35.9408 75.8929 36.1577 74.9009C36.389 73.9089 36.8517 72.2399 37.1697 71.2006C37.5023 70.1614 38.1673 68.4294 38.63 67.3429C39.1071 66.2564 39.9167 64.6976 40.4083 63.8788C40.9143 63.06 41.6806 61.9736 42.0998 61.454C42.5336 60.9501 43.2854 60.2415 44.6733 59.2338L44.7745 46.4797L45.1649 45.22C45.3673 44.5272 45.801 43.5352 46.1046 43.0156C46.4082 42.496 47.0155 41.7087 47.4492 41.2678C47.8829 40.8269 48.5191 40.2758 48.8805 40.0239C49.242 39.7719 49.8492 39.457 50.2251 39.2996C50.8757 39.0476 50.948 39.0476 51.295 39.2838ZM76.0756 46.086C75.6852 46.9048 75.0925 48.4322 74.7599 49.4714C74.4274 50.5106 73.9503 52.2741 73.6756 53.4078C73.4009 54.5415 73.025 56.3366 72.8226 57.423C72.6202 58.5095 72.331 60.3517 72.172 61.5169C72.013 62.6821 71.7816 64.7133 71.666 66.0045C71.5503 67.3114 71.4057 69.7205 71.3479 71.3581C71.2901 73.2003 71.319 75.3418 71.4202 76.9479C71.5214 78.3807 71.7238 80.2545 71.8828 81.1205C72.0419 81.9865 72.3744 83.1517 72.6057 83.7186C72.8515 84.2854 73.184 84.9152 73.3575 85.1042C73.531 85.3089 73.9358 85.6238 74.2539 85.797C74.572 85.986 75.2659 86.1749 75.8153 86.2222L76.784 86.3166V72.9327C73.6033 69.4686 73.4732 69.2639 73.4587 68.7128C73.4587 68.2562 73.5455 68.0672 73.8491 67.8153C74.0804 67.6263 74.3985 67.4846 74.572 67.5004C74.7744 67.5004 75.2804 67.894 75.8443 68.4766L76.7985 69.4686C76.7696 67.0122 76.8274 66.7131 77.0732 66.3509C77.29 66.036 77.478 65.9258 77.8683 65.9258C78.2587 65.9258 78.4467 66.036 78.6635 66.3667C78.9527 66.7761 78.9671 66.9965 78.9527 71.8305L78.9382 76.8691C81.0057 74.649 81.2804 74.4443 81.6563 74.4285C81.9454 74.4285 82.2491 74.5545 82.4225 74.7434C82.5816 74.9166 82.7262 75.1843 82.7262 75.326C82.7406 75.4835 82.7406 75.7197 82.7117 75.8456C82.6972 75.9716 81.8442 77.0108 80.8177 78.1288L78.9527 80.1758V86.2379C80.0226 86.2379 80.5575 86.1749 80.8322 86.0804C81.1069 86.0017 81.5695 85.7813 81.8298 85.5766C82.1045 85.3719 82.5093 84.931 82.7262 84.5846C82.943 84.2382 83.29 83.4037 83.4924 82.7266C83.6948 82.0653 83.984 80.6481 84.1141 79.5774C84.2876 78.176 84.3599 76.507 84.3599 73.3263C84.3599 70.9487 84.2876 68.0357 84.1864 66.8705C84.0852 65.7053 83.8394 63.5009 83.637 61.9893C83.4346 60.4777 83.0587 58.1316 82.7984 56.7932C82.4804 55.1556 82.3647 54.2266 82.437 53.9589C82.5093 53.7385 82.7262 53.4708 82.9286 53.3763C83.131 53.2661 83.3768 53.1716 83.4635 53.1716C83.5647 53.1559 83.8249 53.2976 84.0418 53.4866C84.3743 53.7385 84.49 54.0377 84.678 55.0297C84.8081 55.691 84.9527 56.3051 84.9816 56.3995C85.0249 56.494 85.4587 56.1161 85.9502 55.5808C86.4273 55.0612 87.1502 54.3998 87.555 54.1321C87.9454 53.8487 88.7984 53.4551 89.4346 53.2346C90.4466 52.8882 90.7936 52.841 92.2105 52.8882L93.8297 52.9355C93.6996 52.3214 93.396 51.5813 93.0635 50.8885C92.6586 50.0382 92.1671 49.3139 91.5309 48.6368C90.8803 47.944 90.2297 47.4402 89.4346 47.015C88.7984 46.6686 87.7864 46.2907 87.1936 46.149C86.4707 45.9758 85.7478 45.9286 85.0249 45.9915C84.4322 46.0388 83.5936 46.1805 83.1743 46.3222C82.7695 46.4482 82.4225 46.6371 82.4225 46.7159C82.4225 46.7946 82.5527 47.2355 82.7117 47.6606C82.8707 48.1015 83.0009 48.6841 83.0009 48.9675C83.0153 49.2824 82.8996 49.5816 82.6972 49.7863C82.5382 49.9595 82.2057 50.1012 81.9743 50.1012C81.743 50.1012 81.4394 49.9595 81.2804 49.7863C81.1358 49.6131 80.7599 48.7943 80.4707 47.9755C80.1671 47.1567 79.6756 46.023 79.3864 45.4562C79.0828 44.8893 78.6635 44.2438 78.4611 44.0076C78.2587 43.7556 77.984 43.5667 77.8539 43.5667C77.7382 43.5667 77.4491 43.8029 77.2033 44.0863C76.972 44.354 76.4515 45.2672 76.0756 46.086ZM88.6394 56.2421C88.2779 56.494 87.6707 57.0451 87.2804 57.486C86.9045 57.9269 86.3695 58.7929 86.0948 59.3913C85.6466 60.4147 85.6322 60.5564 85.7478 61.3595C85.8201 61.8319 85.9792 63.186 86.1093 64.3512C86.2249 65.5164 86.384 67.5476 86.4707 68.8388C86.543 70.1457 86.6153 72.1611 86.6153 73.3263C86.6008 74.4915 86.543 76.3338 86.4707 77.4202C86.3984 78.5067 86.2249 80.1285 86.0948 81.0418L85.849 82.6951C86.4996 84.0335 87.0346 84.805 87.4394 85.2617C87.8731 85.7183 88.596 86.2851 89.102 86.5528C89.6081 86.8047 90.2297 87.0724 90.49 87.1354L90.9526 87.2614V74.9796C88.9141 72.791 88.2346 71.9564 88.1189 71.7045C87.9888 71.4368 87.9599 71.1219 88.0177 70.8542C88.09 70.6338 88.2635 70.3504 88.4225 70.2244C88.5816 70.1142 88.8707 70.0197 89.0731 70.0197C89.29 70.0039 89.7093 70.2716 90.1141 70.6495C90.5044 70.9959 90.837 71.2794 90.8803 71.2794C90.9237 71.2794 90.9526 70.8385 90.9526 70.3031C90.9526 69.4686 90.996 69.2481 91.2707 68.9647C91.4586 68.76 91.7623 68.6026 91.9647 68.6026C92.1671 68.5868 92.4851 68.7285 92.6876 68.9017L93.049 69.2009L93.1213 76.7904C93.9598 76.1763 94.3068 75.9874 94.4225 75.9874C94.5382 75.9874 94.8129 76.1291 95.0297 76.318C95.3478 76.57 95.4345 76.7589 95.4345 77.2155C95.4201 77.7509 95.29 77.9556 94.2779 79.0735L93.1213 80.3332C93.1213 86.6945 93.1502 87.1826 93.3382 87.1826C93.4538 87.1826 93.902 87.0409 94.3068 86.852C94.7261 86.6788 95.1454 86.4426 95.2466 86.3481C95.3478 86.2379 95.5502 85.4506 95.6948 84.5846C95.8538 83.7186 96.1863 82.3329 96.4466 81.5141C96.7068 80.6954 97.1116 79.5932 97.3574 79.0735C97.5887 78.5539 97.9357 77.8611 98.1237 77.5305L98.4707 76.9479L98.3984 60.4935C97.6466 58.7929 97.2562 58.0371 97.0393 57.7379C96.8225 57.4388 96.2875 56.9034 95.8538 56.557C95.4201 56.2106 94.6683 55.7697 94.1623 55.5808C93.4972 55.3131 92.9623 55.2186 92.0659 55.2344C91.343 55.2344 90.5623 55.3446 90.0852 55.5178C89.6514 55.6595 89.0008 55.9902 88.6394 56.2421ZM60.519 59.8636C59.9552 60.0841 59.1455 60.4935 58.7118 60.7769C58.2781 61.0446 57.3528 61.8791 56.6733 62.6192C55.719 63.6584 55.2998 64.2567 54.8371 65.2645C54.5046 65.973 54.2299 66.6658 54.2299 66.7918C54.2299 66.9178 54.36 67.3272 54.5335 67.7051L54.8371 68.3664C56.3263 66.7603 57.0492 66.1147 57.4106 65.91C57.8877 65.6423 58.307 65.5479 59.001 65.5321C59.6949 65.5321 60.1142 65.6266 60.5913 65.8785C60.9528 66.0675 61.6178 66.5871 62.066 67.028L62.9046 67.8153C62.9768 63.7686 62.9913 63.6899 63.3383 63.3907C63.5407 63.2175 63.8588 63.0758 64.0612 63.0758C64.2636 63.0758 64.5672 63.249 64.7407 63.4379C64.9865 63.7056 65.0732 63.989 65.0732 64.5559C65.0732 64.9653 65.1166 65.3274 65.1744 65.3747C65.2467 65.4062 65.478 65.233 65.7238 64.9653C66.0274 64.6346 66.3021 64.5086 66.6202 64.5086C66.8949 64.5086 67.213 64.6346 67.3865 64.8236C67.56 65.0125 67.6756 65.3432 67.6756 65.6581C67.6612 66.0832 67.4588 66.3824 66.3744 67.5791L65.0732 68.9962C65.0732 71.4683 65.1311 71.7675 65.7094 73.3736C66.0708 74.334 66.5335 75.7827 66.7359 76.5542C66.9383 77.3258 67.213 78.6169 67.3286 79.3885C67.4588 80.16 67.5889 80.9001 67.6178 81.0103C67.6612 81.1362 67.9648 81.0418 68.6154 80.6954C69.2419 80.349 69.531 80.1023 69.4828 79.9553C69.4539 79.8451 69.3383 78.2863 69.2371 76.4912C69.1069 73.9876 69.1069 72.476 69.2371 69.8622C69.3383 68.0042 69.5118 65.5636 69.6274 64.4299C69.7431 63.2962 69.8587 62.0995 69.8877 61.7531L69.9166 61.1233C68.0082 60.0841 67.0684 59.6747 66.5913 59.5487C66.1142 59.407 65.1311 59.281 64.4226 59.2338C63.6997 59.2023 62.76 59.2338 62.3262 59.3283C61.8925 59.407 61.0684 59.6589 60.519 59.8636ZM100.639 74.7434C101.203 74.4915 101.622 74.4285 101.941 74.4285C102.259 74.4285 102.794 74.5702 103.126 74.7592C103.473 74.9481 103.95 75.3103 104.21 75.5937L104.659 76.0818C105.381 74.9796 105.772 74.2396 106.003 73.72C106.234 73.2003 106.524 72.2399 106.654 71.5943C106.827 70.7755 106.871 70.0354 106.813 69.1537C106.769 68.4136 106.581 67.4059 106.365 66.7131C106.162 66.0675 105.685 65.044 105.309 64.4457C104.919 63.8473 104.283 63.0443 103.892 62.6664C103.488 62.2885 102.649 61.6901 102.013 61.3437C101.377 60.9973 100.784 60.7296 100.712 60.7296C100.61 60.7296 100.582 63.1388 100.596 67.7365L100.639 74.7434ZM43.936 62.8081C43.4733 63.312 42.7649 64.2725 42.3601 64.9338C41.9408 65.6109 41.2902 66.839 40.8998 67.6578C40.5239 68.4766 39.9456 69.8622 39.642 70.7283C39.3239 71.5943 38.8468 73.1531 38.5721 74.1923C38.2974 75.2316 37.9215 76.9636 37.7336 78.0501C37.4444 79.7664 37.4011 80.5222 37.4011 83.7973C37.4011 87.2929 37.4155 87.6708 37.7336 88.836C37.9071 89.5288 38.2396 90.442 38.4565 90.8672C38.6589 91.2923 39.0926 91.8749 39.4107 92.1741C39.7288 92.4575 40.336 92.8512 40.7553 93.0086C41.1745 93.1818 42.0854 93.3865 42.7793 93.481C43.4733 93.5597 44.3552 93.6384 44.7311 93.6384H45.4107L45.4251 88.2061C42.4757 84.994 42.2444 84.6633 42.2444 84.2224C42.2444 83.8918 42.3601 83.5769 42.5914 83.3249C42.7938 83.1045 43.054 82.9313 43.1697 82.9313C43.2998 82.9313 43.5456 83.01 43.7191 83.1045C43.8926 83.199 44.3552 83.6083 44.7311 84.0177L45.4251 84.742C45.4107 74.7749 45.4251 74.3183 45.6709 74.0034C45.801 73.7987 46.1191 73.594 46.3504 73.5468C46.7119 73.4523 46.8709 73.5153 47.189 73.8459C47.5793 74.2553 47.5793 74.3183 47.5793 76.0818V77.8926C48.3167 77.4045 48.4612 77.3887 48.8082 77.5462C49.054 77.6407 49.3287 77.9084 49.4299 78.1288C49.5311 78.3492 49.6034 78.6327 49.6034 78.7586C49.6034 78.8846 49.1552 79.5144 48.6058 80.1285L47.5938 81.278L47.5793 93.7172C49.9938 93.5282 51.0636 93.3708 51.5263 93.2448C51.9889 93.1188 52.5528 92.8984 52.7841 92.7724L53.2179 92.5362C52.495 91.8592 52.1769 91.5285 52.0323 91.3553C51.8877 91.1821 51.5986 90.6782 51.3962 90.2531C51.1938 89.8122 50.9335 89.1509 50.8323 88.7572C50.7167 88.3636 50.5576 87.4031 50.4709 86.6315C50.3552 85.7498 50.3263 84.4271 50.3841 83.1202C50.442 81.8921 50.5576 80.8686 50.6733 80.6009C50.7889 80.3647 50.9769 80.1285 51.107 80.0498C51.2371 79.9868 51.4974 79.9396 51.6709 79.9396C51.8444 79.9396 52.148 80.097 52.3215 80.286C52.6395 80.6324 52.654 80.6954 52.5673 82.9313C52.5094 84.3327 52.5383 85.7025 52.6395 86.4741C52.7263 87.1669 52.8853 88.0487 53.001 88.4423C53.1166 88.836 53.4347 89.4343 53.695 89.7807C53.9697 90.1271 54.4757 90.5365 54.8227 90.7097C55.1841 90.8672 56.0227 91.0404 56.7311 91.1034L58.0034 91.1978L57.9889 78.0501C58.5528 77.436 58.8708 77.2628 59.0732 77.2628C59.2757 77.2628 59.6082 77.436 59.7961 77.6564C60.1576 78.0501 60.1576 78.0501 60.1576 81.152V84.2697C62.0082 82.27 62.6732 81.6716 62.8323 81.6716C62.9913 81.6716 63.3094 81.7976 63.5262 81.9865C63.8443 82.2385 63.9166 82.4274 63.9166 82.884C63.9166 83.4351 63.772 83.6398 62.0371 85.5293L60.172 87.5763L60.1576 91.1978C62.1238 91.0404 62.9479 90.8829 63.266 90.7255C63.5841 90.5837 64.0033 90.3161 64.1913 90.1271C64.3792 89.9382 64.6829 89.4658 64.8564 89.0722C65.0443 88.6785 65.2612 88.0014 65.3479 87.5763C65.4347 87.1354 65.5359 86.1434 65.5937 85.3719C65.6515 84.5531 65.6226 83.2147 65.5214 82.2227C65.4347 81.2622 65.1889 79.6719 64.9865 78.6799C64.7841 77.6879 64.3937 76.1921 64.119 75.3733C63.8443 74.5545 63.2949 73.2003 62.9046 72.3816C62.5287 71.5628 61.8636 70.3976 61.4443 69.7992C61.0106 69.2167 60.3744 68.5238 60.013 68.2719C59.666 68.02 59.2323 67.8153 59.0732 67.8153C58.9142 67.8153 58.4949 68.0042 58.1335 68.2562C57.7865 68.5081 57.2227 69.0592 56.9046 69.4843C56.5865 69.9095 56.0227 70.8227 55.6468 71.5155C55.2564 72.2084 54.6925 73.5153 54.36 74.4285C54.0419 75.3418 53.6227 76.2393 53.4347 76.4282C53.2323 76.6329 52.9721 76.7904 52.8275 76.7904C52.6829 76.8061 52.3938 76.6644 52.1769 76.4755C51.8733 76.2393 51.7721 76.0346 51.7721 75.6095C51.7721 75.3103 51.9745 74.5073 52.2203 73.8302C52.4805 73.1689 52.842 72.2556 53.0444 71.8305C53.3046 71.2636 53.3769 70.9172 53.3046 70.5708C53.2468 70.3031 52.8275 69.2481 52.3648 68.2089C51.8877 67.1697 51.1649 65.7526 50.7456 65.0755C50.3118 64.3827 49.5745 63.3907 49.0974 62.8553C48.6203 62.3357 47.9408 61.7374 47.5793 61.5484C47.2323 61.3595 46.7408 61.202 46.495 61.202C46.2637 61.202 45.7721 61.3595 45.4107 61.5484C45.0637 61.7531 44.3986 62.32 43.936 62.8081ZM99.6851 79.3097C99.4393 79.7821 99.0056 80.8056 98.7309 81.5929C98.4417 82.3644 98.0803 83.7186 97.9213 84.5846C97.7622 85.4506 97.5887 86.6945 97.5309 87.3401C97.4875 88.0014 97.5165 89.0879 97.6032 89.7807C97.6899 90.4735 97.8779 91.2923 98.0225 91.5915C98.1671 91.8907 98.4418 92.2686 98.6442 92.426C98.8321 92.5835 99.3815 92.7567 99.8875 92.8197L100.784 92.9299L100.856 83.5296C101.42 83.0572 101.767 82.9155 101.984 82.9313C102.201 82.9313 102.504 83.073 102.663 83.2462C102.924 83.5296 102.953 83.7658 102.953 85.3719C102.953 86.4268 103.025 87.2141 103.097 87.2614C103.184 87.3086 103.328 87.2299 103.43 87.1039C103.531 86.9622 103.82 86.852 104.08 86.8677C104.427 86.8677 104.63 86.9937 104.847 87.2929C105.006 87.5448 105.136 87.907 105.121 88.1274C105.121 88.3951 104.774 88.8989 104.037 89.702L102.967 90.8829L102.953 92.8512C104.022 92.8512 104.615 92.7094 104.948 92.5362C105.425 92.2843 105.627 92.0481 105.887 91.4655C106.148 90.8514 106.22 90.3791 106.263 88.6785C106.292 87.2141 106.249 86.2222 106.075 85.2144C105.945 84.4271 105.642 83.1517 105.396 82.3802C105.165 81.5929 104.688 80.3962 104.355 79.7034C104.037 79.0106 103.43 78.0658 103.039 77.6249C102.557 77.0686 102.196 76.7904 101.955 76.7904C101.724 76.7904 101.362 77.0581 100.871 77.6092C100.466 78.0658 99.9309 78.8374 99.6851 79.3097ZM68.4997 83.3249L67.8057 83.5769C67.7045 86.1907 67.5744 87.4346 67.4732 88.0487C67.3576 88.647 67.2853 89.1981 67.3286 89.2611C67.3576 89.3398 67.7335 89.4973 68.1527 89.6233C68.572 89.7492 69.3961 89.8909 69.9889 89.9539C70.7551 90.0169 71.4057 89.9697 72.1575 89.7965C72.7648 89.6547 73.6322 89.3398 74.0804 89.1036C74.5431 88.8675 74.919 88.6313 74.919 88.5525C74.919 88.4896 74.8178 88.4423 74.6876 88.4423C74.572 88.4423 74.1382 88.3006 73.719 88.1431C73.2997 87.9699 72.6057 87.4976 72.1864 87.0724C71.7527 86.663 71.2322 86.0017 71.0298 85.6081C70.813 85.2144 70.4804 84.3956 70.2636 83.7658C69.9021 82.6636 69.8877 82.6479 69.5407 82.8683C69.3527 82.9785 68.8901 83.1832 68.4997 83.3249ZM83.5792 87.1826V99.4644H86.037V87.1826C85.2418 86.1434 84.9527 85.797 84.9093 85.734C84.8514 85.671 84.5334 85.9702 84.2008 86.3954L83.5792 87.1826ZM78.9527 88.5998V99.4644H81.4105V88.4423C80.9045 88.4896 80.3406 88.5368 79.8491 88.5525L78.9527 88.5998ZM88.2057 99.4644H90.9526L90.8803 89.6547C89.6514 89.3398 89.0442 89.1351 88.755 89.0092L88.2057 88.7572V99.4644ZM93.1213 89.6233V99.4644H100.784L100.798 95.2918C99.2803 95.15 98.4851 94.9296 98.0514 94.7249C97.6321 94.5202 97.0393 94.0636 96.7502 93.7172C96.461 93.3708 96.0707 92.6779 95.8972 92.1741C95.7237 91.686 95.5357 90.8042 95.4779 90.2216C95.3912 89.45 95.3044 89.1509 95.1454 89.1351C95.0297 89.1194 94.5237 89.2296 94.0321 89.3713L93.1213 89.6233ZM75.1937 91.1663C74.6732 91.434 73.8635 91.7647 73.3864 91.9064L72.519 92.1741L72.4467 99.4644H76.784C76.784 92.2686 76.7696 90.1744 76.7406 90.1744C76.7262 90.1744 76.5816 90.3003 76.4226 90.4263C76.2635 90.568 75.7141 90.8987 75.1937 91.1663ZM65.1455 92.3945L65.0009 99.4644H70.278V92.3788C68.4274 92.1111 67.4877 91.8749 66.9816 91.6702L66.0708 91.3238L65.1455 92.3945ZM54.4612 94.5045L54.5191 99.4644H57.9889V93.481C56.413 93.481 55.8781 93.4337 55.7769 93.3865C55.6757 93.3393 55.3287 93.5755 55.0251 93.9061L54.4612 94.5045ZM60.1576 93.4652V99.4487H62.9046C62.9046 93.5597 62.8901 93.3235 62.6588 93.3393C62.5142 93.3708 61.8925 93.4023 61.2853 93.418L60.1576 93.4652ZM49.1986 95.9373L47.5649 96.0633L47.5793 99.4487H52.3504C52.3504 96.0161 52.2926 95.5279 52.1624 95.5437C52.0612 95.5437 51.7287 95.6067 51.4106 95.6854C51.0926 95.7484 50.095 95.8586 49.1986 95.9373Z" fill="#B2B8BD"/>
<rect x="1" y="0.999481" width="142" height="139" rx="39" stroke="#B7BFC8" stroke-width="2"/>
</svg>
