<svg width="142" height="142" viewBox="0 0 142 142" fill="none" xmlns="http://www.w3.org/2000/svg">
<path d="M79.0544 38.9995C79.2503 38.9995 79.6281 39.1811 79.894 39.4047C80.3277 39.7541 80.3837 39.8798 80.3837 40.4667C80.3837 40.9977 80.3137 41.1794 79.9919 41.4589C79.7261 41.6964 79.4462 41.7942 79.0544 41.7942C78.6627 41.7942 78.3828 41.6964 78.103 41.4589C77.7952 41.1794 77.7252 40.9977 77.7252 40.4667C77.7252 39.8798 77.7812 39.7541 78.2149 39.4047C78.4808 39.1811 78.8586 38.9995 79.0544 38.9995ZM72.786 39.9776C73.1917 39.9776 73.4156 40.0755 73.7374 40.3969C74.0452 40.7043 74.1572 40.9558 74.1572 41.3471C74.1712 41.6405 74.0592 42.0038 73.9193 42.1855C73.7654 42.3811 73.1917 42.6606 72.4082 42.9261C71.7225 43.1637 70.5472 43.6388 69.8196 43.9742C69.092 44.3235 67.8607 45.0222 67.0911 45.5252C66.1397 46.1541 65.1322 47.0204 63.9289 48.2082C62.7396 49.396 61.872 50.4161 61.2424 51.3663C60.7387 52.1349 60.0391 53.3645 59.7033 54.0912C59.3535 54.8178 58.6259 56.8021 58.0662 58.4929C57.5065 60.1838 56.7369 62.2938 56.3731 63.1742C55.9953 64.0545 55.2957 65.4379 54.82 66.2484C54.3303 67.0589 53.5607 68.2187 53.099 68.8335C52.6372 69.4484 51.6578 70.5663 50.9302 71.3349C50.2026 72.0894 49.1252 73.0955 48.5515 73.5567C47.9778 74.0178 46.9284 74.7724 46.2428 75.2335C45.5572 75.6807 44.3538 76.3794 43.5843 76.7567C42.8147 77.148 41.5554 77.7069 40.7858 77.9864C40.0163 78.2798 38.715 78.6851 37.8755 78.8807C36.896 79.1183 36.2524 79.2021 36.0005 79.1322C35.8046 79.0763 35.4828 78.8388 35.2869 78.6152C35.0071 78.2659 34.9651 78.0982 35.035 77.637C35.077 77.3296 35.2169 76.9663 35.3569 76.8405C35.4968 76.7008 36.3083 76.4073 37.1479 76.1838C37.9874 75.9602 39.0368 75.6528 39.4566 75.499C39.8763 75.3593 40.7019 75.0239 41.2756 74.7724C41.8492 74.5209 42.8847 73.9899 43.5843 73.5846C44.2839 73.1794 45.3613 72.4667 46.0049 71.9916C46.6346 71.5305 47.6 70.72 48.1457 70.203C48.6914 69.672 49.5449 68.7776 50.0207 68.2047C50.4964 67.6318 51.252 66.6257 51.6997 65.9689C52.1335 65.3121 52.8611 64.0266 53.3088 63.1043C53.7566 62.182 54.2603 60.9803 54.4282 60.4493C54.5961 59.9183 54.6941 59.4571 54.6521 59.4432C54.6101 59.4152 54.3303 59.5549 54.0364 59.7366C53.7566 59.9183 52.8751 60.3794 52.0775 60.7846C51.294 61.1759 50.0067 61.7488 49.2091 62.0702C48.4256 62.3776 47.0263 62.8528 46.1029 63.1183C45.1794 63.3838 43.6123 63.7611 42.6048 63.9427C41.5974 64.1244 39.8064 64.348 38.617 64.4318C37.4277 64.5156 36.2804 64.5576 36.0565 64.5156C35.8466 64.4737 35.5108 64.2222 35.3149 63.9846C35.0071 63.6073 34.9651 63.4257 35.0211 62.9645C35.077 62.6292 35.2309 62.2938 35.4268 62.1121C35.6927 61.8746 36.0145 61.8187 37.4977 61.7209C38.4631 61.665 39.8763 61.5252 40.6459 61.4274C41.4155 61.3156 42.6468 61.106 43.3744 60.9523C44.102 60.7846 45.3893 60.4353 46.2428 60.1698C47.0963 59.8903 48.4675 59.3593 49.3211 58.982C50.1746 58.6187 51.5038 57.948 52.3014 57.4868C53.085 57.0397 54.3023 56.2711 55.0159 55.768C55.9394 55.1113 56.3451 54.734 56.4991 54.3707C56.611 54.1052 56.9608 53.3087 57.2966 52.6239C57.6324 51.9252 58.2761 50.8073 58.7238 50.1087C59.1856 49.41 60.0531 48.2641 60.6687 47.5375C61.2704 46.8108 62.3058 45.7488 62.9634 45.1759C63.6211 44.603 64.8384 43.6807 65.6919 43.1218C66.5454 42.5488 67.7628 41.8362 68.4204 41.5287C69.078 41.2073 70.2114 40.7322 70.939 40.4667C71.6666 40.2152 72.5061 39.9916 72.786 39.9776ZM85.211 40.4108C85.3229 40.3969 85.7707 40.5645 86.1905 40.7602C86.6102 40.9558 87.3658 41.389 87.8695 41.7104C88.3732 42.0318 89.2128 42.6746 89.7585 43.1357C90.2902 43.5829 91.1297 44.4632 91.6054 45.0781C92.0952 45.6929 92.7668 46.7549 93.1166 47.4536C93.4524 48.1523 93.8582 49.1864 94.0261 49.7593C94.18 50.3322 94.3619 51.3663 94.4319 52.065C94.4878 52.7637 94.4878 53.9095 94.4319 54.6501C94.3619 55.3768 94.18 56.4388 94.0261 56.9977C93.8722 57.5427 93.5643 58.3951 93.3545 58.8702C93.1306 59.3593 92.6548 60.2257 92.2911 60.7986C91.9133 61.3715 91.1577 62.2938 90.612 62.8388C90.0383 63.4117 89.1988 64.0545 88.6391 64.3619C88.0934 64.6694 87.1839 65.0606 86.6102 65.2562C85.7287 65.5497 85.295 65.6056 83.8818 65.6056C82.4406 65.6056 82.0488 65.5497 81.0833 65.2283C80.4677 65.0187 79.5582 64.5855 79.0684 64.2641C78.5647 63.9287 77.8931 63.3418 77.5573 62.9645C77.2215 62.5733 76.7317 61.8187 76.4519 61.2877C76.1861 60.7567 75.9762 60.0999 75.9762 59.8484C75.9762 59.5549 76.1161 59.2475 76.3679 58.968C76.6478 58.6606 76.8857 58.5349 77.2495 58.5209C77.6133 58.4929 77.9351 58.6327 78.5088 59.01C78.9285 59.3034 79.5162 59.5689 79.824 59.6248C80.1598 59.6807 80.6076 59.6388 80.9434 59.527C81.2512 59.4292 81.713 59.1497 81.9788 58.9261C82.2447 58.6886 82.6085 58.1715 82.7904 57.7942C83.0049 57.3284 83.1122 56.8394 83.1122 56.327C83.1122 55.8239 83.0002 55.3209 82.7904 54.8597C82.6085 54.4685 82.1747 53.9095 81.8249 53.6021C81.4751 53.2807 80.8734 52.9314 80.4397 52.7916C80.0059 52.6519 79.2643 52.5541 78.7046 52.5541C78.131 52.5541 77.3474 52.6659 76.8157 52.8196C76.312 52.9733 75.5284 53.3366 75.0667 53.63C74.6049 53.9375 73.9053 54.5663 73.4856 55.0694C73.0798 55.5724 72.5061 56.4528 72.2123 57.0257C71.9044 57.5986 71.4987 58.6466 71.2888 59.3314C71.0509 60.1698 70.897 61.0781 70.841 62.0563C70.7851 63.1322 70.827 63.8589 71.0089 64.7811C71.1349 65.4659 71.4287 66.5139 71.6526 67.0868C71.8765 67.6597 72.3242 68.5401 72.646 69.0431C72.9679 69.5462 73.6535 70.3567 74.1572 70.8597C74.6609 71.3628 75.6124 72.1314 76.256 72.5645C76.9136 72.9977 77.8791 73.5427 78.4248 73.7803C78.9705 74.0038 79.88 74.3252 80.4537 74.479C81.0273 74.6327 82.0768 74.8283 82.7624 74.9121C83.462 74.996 84.5254 75.0239 85.141 74.982C85.7567 74.9261 86.6662 74.8004 87.1699 74.7025C87.6736 74.5907 88.6111 74.3113 89.2687 74.0737C89.9264 73.8362 90.8359 73.4309 91.2976 73.1794C91.7593 72.9139 92.4869 72.4388 92.9067 72.1034C93.3265 71.782 94.18 71.0414 94.7957 70.4685C95.4113 69.8956 96.4187 69.099 97.0344 68.6938C97.6501 68.2886 98.5456 67.7576 99.0353 67.52C99.511 67.2825 100.448 66.9052 101.134 66.6816C101.806 66.458 102.841 66.1645 103.443 66.0528C104.03 65.927 104.786 65.8292 105.122 65.8292C105.472 65.8292 105.835 65.941 106.003 66.0807C106.171 66.2065 106.381 66.458 106.465 66.6257C106.549 66.8073 106.619 67.1008 106.619 67.2964C106.619 67.4921 106.451 67.8414 106.241 68.065C105.891 68.4423 105.682 68.5121 104.52 68.7078C103.793 68.8196 102.729 69.0711 102.184 69.2667C101.624 69.4484 100.672 69.8536 100.085 70.1471C99.483 70.4405 98.6155 70.9715 98.1538 71.3069C97.692 71.6563 96.7825 72.4248 96.1249 73.0257C95.4673 73.6266 94.5578 74.3811 94.096 74.7025C93.6343 75.0239 92.9067 75.4851 92.4869 75.7226C92.0672 75.9602 91.1437 76.3654 90.4581 76.6449C89.7725 76.9104 88.5411 77.2597 87.7296 77.4414C86.6242 77.665 85.7707 77.7488 84.3015 77.7488C83.0422 77.7488 81.9228 77.665 81.1533 77.5252C80.4956 77.3995 79.4322 77.106 78.7746 76.8964C78.117 76.6728 77.0816 76.2397 76.4659 75.9183C75.8502 75.6108 74.9128 75.0519 74.3671 74.6746C73.8214 74.2833 72.9818 73.6126 72.4921 73.1514C72.0024 72.7043 71.2888 71.9218 70.911 71.4187C70.5332 70.9156 69.9036 69.8816 69.5258 69.113C69.134 68.3165 68.6862 67.1148 68.4764 66.3183C68.2525 65.41 68.0986 64.3619 68.0426 63.3139C68.0006 62.196 68.0426 61.3017 68.1965 60.3794C68.3085 59.6528 68.5743 58.5488 68.7842 57.934C68.9941 57.3191 69.3439 56.4388 69.5817 55.9776C69.8056 55.5165 70.2534 54.7619 70.5612 54.3008C70.883 53.8397 71.4847 53.099 71.9044 52.6519C72.3382 52.1907 73.1218 51.5619 73.6675 51.2266C74.2132 50.8912 75.1506 50.444 75.7663 50.2344C76.5918 49.9549 77.2634 49.8431 78.2849 49.8012C79.2783 49.7453 79.9639 49.8012 80.6356 49.9549C81.1533 50.0807 81.9508 50.3602 82.4126 50.5977C82.8743 50.8353 83.5879 51.3523 83.9937 51.7436C84.3995 52.1488 84.9312 52.8894 85.183 53.3925C85.4349 53.8956 85.7007 54.6501 85.7847 55.0694C85.8686 55.4886 85.9106 56.2851 85.8686 56.8161C85.8267 57.3471 85.6728 58.1436 85.5048 58.5628C85.3509 58.982 84.9591 59.6947 84.6233 60.1418C84.2875 60.603 83.6719 61.2038 83.2521 61.4833C82.8323 61.7768 82.2726 62.0423 82.0348 62.0982C81.7829 62.1541 81.573 62.2519 81.573 62.3357C81.573 62.4196 81.7829 62.5453 82.0348 62.6152C82.2726 62.699 82.8603 62.7969 83.3221 62.8388C83.7838 62.8807 84.5394 62.8528 85.0011 62.7689C85.4629 62.6851 86.2744 62.4056 86.8201 62.1541C87.4358 61.8606 88.0934 61.3995 88.5691 60.9244C88.9889 60.5052 89.5346 59.8903 89.7725 59.541C90.0103 59.1916 90.3741 58.5907 90.57 58.2135C90.7519 57.8222 91.0457 57.1095 91.2137 56.6065C91.3816 56.1034 91.5635 55.1672 91.6334 54.5104C91.7034 53.8397 91.7034 52.8335 91.6334 52.2047C91.5635 51.5899 91.3676 50.6816 91.2137 50.1785C91.0457 49.6755 90.7659 48.9488 90.57 48.5715C90.3741 48.1803 89.8704 47.4117 89.4227 46.8388C88.9889 46.2659 88.1354 45.3995 87.5197 44.9104C86.9041 44.4213 85.9246 43.7785 85.3509 43.4851C84.7773 43.1916 84.2176 42.8563 84.1196 42.7584C84.0357 42.6466 83.9097 42.3113 83.8678 42.0038C83.7978 41.5707 83.8538 41.3611 84.0776 41.0536C84.2455 40.83 84.5254 40.5925 84.6933 40.5366C84.8612 40.4667 85.0991 40.4108 85.211 40.4108ZM45.3333 93.134C47.1803 93.1759 47.684 93.2318 48.7334 93.5532C49.405 93.7488 50.4125 94.1401 50.9721 94.4196C51.5178 94.699 52.2594 95.1322 52.6092 95.3698C52.959 95.6073 53.8405 96.32 54.5681 96.9628C55.2957 97.6056 56.3032 98.3742 56.8069 98.6676C57.3106 98.975 58.2201 99.3803 58.8357 99.6039C59.8852 99.9672 60.095 99.9951 62.1939 99.9951C64.2927 99.9951 64.5026 99.9672 65.552 99.6039C66.1676 99.3803 67.0771 98.975 67.5809 98.6676C68.0846 98.3742 69.092 97.6056 69.8196 96.9628C70.5472 96.32 71.4287 95.6073 71.7785 95.3698C72.1283 95.1322 72.8699 94.699 73.4296 94.4196C73.9753 94.1401 74.9827 93.7488 75.6683 93.5392C76.8017 93.1899 77.0676 93.1619 79.4043 93.1619C81.7409 93.1619 82.0068 93.1899 83.1542 93.5392C83.8258 93.7488 84.8332 94.1401 85.3929 94.4196C85.9386 94.699 86.6802 95.1322 87.03 95.3698C87.3798 95.6073 88.2613 96.32 88.9889 96.9628C89.7165 97.6056 90.7239 98.3742 91.2276 98.6676C91.7314 98.975 92.6409 99.3803 93.2565 99.5899C94.18 99.9113 94.6837 99.9811 96.1949 100.037C97.734 100.093 98.1958 100.051 99.2032 99.7995C99.8608 99.6318 100.77 99.3104 101.232 99.0868C101.694 98.8772 102.477 98.3881 102.967 98.0108C103.443 97.6475 104.072 97.1584 104.366 96.9488C104.646 96.7392 105.01 96.5715 105.192 96.5715C105.36 96.5715 105.64 96.6414 105.821 96.7113C105.989 96.7951 106.241 97.0466 106.381 97.2702C106.507 97.5078 106.619 97.8292 106.619 98.0108C106.619 98.1785 106.507 98.5139 106.367 98.7375C106.227 98.9611 105.584 99.5619 104.926 100.051C104.282 100.54 103.275 101.169 102.701 101.462C102.128 101.742 101.344 102.091 100.952 102.217C100.574 102.329 99.6509 102.566 98.9233 102.72C98.1958 102.874 97.1603 102.999 96.6146 102.999C96.0689 102.999 95.0335 102.874 94.3059 102.72C93.5783 102.566 92.6688 102.329 92.2771 102.217C91.8993 102.091 91.1017 101.742 90.528 101.462C89.9544 101.169 89.1008 100.652 88.6391 100.317C88.1774 99.9811 87.2958 99.2405 86.6802 98.6816C85.9806 98.0528 85.1131 97.4519 84.3715 97.0606C83.7138 96.7252 82.6504 96.32 81.9928 96.1663C81.1999 95.9707 80.3371 95.8728 79.4043 95.8728C78.4714 95.8728 77.6086 95.9707 76.8157 96.1663C76.1581 96.32 75.0947 96.7252 74.437 97.0606C73.6954 97.4519 72.8279 98.0528 72.1283 98.6816C71.5127 99.2405 70.6312 99.9811 70.1694 100.317C69.7077 100.652 68.8541 101.169 68.2805 101.462C67.7068 101.742 66.9232 102.091 66.5314 102.217C66.1537 102.329 65.2302 102.566 64.5026 102.72C63.775 102.874 62.7396 102.999 62.1939 102.999C61.6622 102.999 60.6128 102.874 59.8852 102.72C59.1576 102.566 58.2481 102.329 57.8563 102.217C57.4785 102.091 56.681 101.742 56.1073 101.462C55.5336 101.169 54.6521 100.638 54.1484 100.261C53.6446 99.8973 52.8611 99.2405 52.3993 98.8073C51.9376 98.3881 51.3779 97.899 51.14 97.7314C50.9162 97.5776 50.2865 97.2143 49.7408 96.9488C49.2091 96.6694 48.2297 96.32 47.572 96.1663C46.7792 95.9707 45.9163 95.8728 44.9835 95.8728C44.0507 95.8728 43.1878 95.9707 42.3949 96.1663C41.7373 96.32 40.6739 96.7252 40.0163 97.0606C39.3586 97.41 38.4351 98.0248 37.9594 98.458C37.4697 98.8772 36.91 99.2685 36.7001 99.3104C36.4762 99.3523 36.1684 99.3523 36.0005 99.3104C35.8186 99.2685 35.5528 99.1008 35.3988 98.9471C35.2449 98.7934 35.077 98.5279 35.035 98.3602C34.9931 98.1785 34.9931 97.8711 35.035 97.6615C35.077 97.4379 35.3569 97.0466 35.6507 96.7672C35.9305 96.4737 36.5462 95.9707 37.0079 95.6213C37.4697 95.2859 38.3232 94.7689 38.8969 94.4755C39.4706 94.196 40.2681 93.8466 40.6459 93.7209C41.0377 93.5951 41.7513 93.3995 42.255 93.2877C42.9126 93.148 43.7802 93.0921 45.3333 93.134ZM60.2769 70.9995C60.4448 70.9995 60.7527 71.0833 60.9766 71.1951C61.1864 71.2929 61.4383 71.5445 61.5362 71.7541C61.6202 71.9497 61.7041 72.3689 61.7041 72.6763C61.7041 72.9838 61.8021 73.7244 61.914 74.3252C62.04 74.9541 62.3898 75.9183 62.7396 76.6589C63.1593 77.5113 63.6491 78.2239 64.2507 78.8807C64.7265 79.4117 65.566 80.1244 66.1117 80.4737C66.6574 80.837 67.5949 81.2982 68.2105 81.5078C68.8262 81.7174 69.7357 81.927 70.2394 81.9689C70.7431 82.0108 71.3448 82.0807 71.5686 82.1087C71.7925 82.1366 72.1703 82.3462 72.3802 82.5558C72.674 82.8493 72.772 83.0728 72.758 83.4781C72.758 83.8554 72.646 84.1069 72.3522 84.4143C71.9744 84.8056 71.8625 84.8335 70.953 84.8335C70.4073 84.8335 69.4698 84.7357 68.8821 84.61C68.2805 84.4982 67.287 84.1768 66.6714 83.9113C66.0557 83.6458 65.2162 83.2266 64.7964 82.975C64.3767 82.7375 63.5371 82.0528 62.9215 81.4798C62.3058 80.9069 61.5362 80.0545 61.2004 79.5934C60.8786 79.1322 60.3749 78.2519 60.081 77.637C59.8012 77.0222 59.4514 76.044 59.3115 75.4711C59.1576 74.8982 59.0037 73.948 58.9477 73.375C58.8777 72.6065 58.9057 72.2012 59.0596 71.8519C59.1716 71.6004 59.4094 71.2929 59.6053 71.1951C59.8012 71.0973 60.095 71.0135 60.2769 70.9995ZM105.108 75.4711C105.248 75.4711 105.5 75.541 105.682 75.6248C105.849 75.7087 106.101 75.9183 106.227 76.0859C106.367 76.2397 106.479 76.589 106.479 76.8405C106.479 77.0781 106.437 77.3855 106.381 77.5252C106.311 77.651 105.738 78.168 105.08 78.6711C104.422 79.1742 103.359 80.0964 102.701 80.7252C102.044 81.3401 101.036 82.2204 100.462 82.6816C99.8888 83.1427 98.8534 83.8554 98.1538 84.2746C97.4682 84.6938 96.3348 85.2947 95.6352 85.6161C94.9496 85.9375 93.6903 86.4266 92.8367 86.6921C91.9972 86.9715 90.612 87.3209 89.7585 87.4746C88.9189 87.6283 87.4917 87.796 86.6102 87.8519C85.253 87.9357 84.9312 87.9078 84.5534 87.7121C84.3015 87.5864 84.0357 87.3628 83.9517 87.2091C83.8818 87.0554 83.8118 86.706 83.8118 86.4405C83.8118 86.1331 83.9237 85.8117 84.1336 85.5881C84.4135 85.2388 84.5534 85.2108 86.0505 85.099C86.932 85.0292 88.1074 84.9174 88.6391 84.8335C89.1848 84.7497 90.0943 84.568 90.668 84.4143C91.2416 84.2746 92.1931 83.9811 92.7668 83.7715C93.3405 83.5759 94.3899 83.1148 95.0755 82.7654C95.7751 82.4301 96.8105 81.8292 97.3842 81.4379C97.9579 81.0606 98.7834 80.4597 99.2032 80.1104C99.623 79.7611 100.448 79.0204 101.022 78.4755C101.596 77.9305 102.519 77.134 103.051 76.7008C103.597 76.2676 104.226 75.8065 104.45 75.6947C104.688 75.5689 104.982 75.4711 105.122 75.4711H105.108Z" fill="#ECEDEE"/>
<rect x="2" y="1.99948" width="137.619" height="138" rx="38" stroke="#B7BFC8" stroke-width="2"/>
</svg>
