<svg width="34" height="33" viewBox="0 0 34 33" fill="none" xmlns="http://www.w3.org/2000/svg">
<g clip-path="url(#clip0_302_324)">
<path d="M30.7443 0H3.25568C2.62428 0 2.01875 0.250821 1.57228 0.697285C1.12582 1.14375 0.875 1.74928 0.875 2.38068V29.8693C0.875 30.5007 1.12582 31.1063 1.57228 31.5527C2.01875 31.9992 2.62428 32.25 3.25568 32.25H30.7443C31.3757 32.25 31.9813 31.9992 32.4277 31.5527C32.8742 31.1063 33.125 30.5007 33.125 29.8693V2.38068C33.125 1.74928 32.8742 1.14375 32.4277 0.697285C31.9813 0.250821 31.3757 0 30.7443 0ZM10.4873 27.473H5.63859V12.0714H10.4873V27.473ZM8.05958 9.93703C7.50958 9.93393 6.97282 9.76798 6.51705 9.46012C6.06127 9.15225 5.70691 8.71628 5.49868 8.20721C5.29045 7.69814 5.23768 7.1388 5.34704 6.59977C5.4564 6.06074 5.72298 5.56618 6.11315 5.17852C6.50331 4.79085 6.99956 4.52745 7.53928 4.42156C8.079 4.31566 8.638 4.37202 9.14572 4.58351C9.65344 4.79501 10.0871 5.15216 10.3921 5.6099C10.697 6.06765 10.8595 6.60546 10.8591 7.15547C10.8643 7.5237 10.7952 7.88921 10.6562 8.23021C10.5171 8.5712 10.3108 8.88071 10.0495 9.14028C9.78831 9.39985 9.47748 9.60416 9.1356 9.74105C8.79372 9.87793 8.42777 9.94458 8.05958 9.93703ZM28.3592 27.4864H23.5127V19.0723C23.5127 16.5908 22.4579 15.8249 21.0962 15.8249C19.6584 15.8249 18.2474 16.9089 18.2474 19.135V27.4864H13.3987V12.0826H18.0616V14.2169H18.1243C18.5923 13.2695 20.2317 11.6503 22.7333 11.6503C25.4388 11.6503 28.3614 13.2561 28.3614 17.9592L28.3592 27.4864Z" fill="#797E86"/>
</g>
<defs>
<clipPath id="clip0_302_324">
<rect width="32.25" height="32.25" fill="white" transform="translate(0.875)"/>
</clipPath>
</defs>
</svg>
