<svg width="33" height="33" viewBox="0 0 33 33" fill="none" xmlns="http://www.w3.org/2000/svg">
<g clip-path="url(#clip0_302_332)">
<path d="M16.875 0C7.96975 0 0.75 7.21975 0.75 16.125C0.75 22.9599 4.99691 28.7994 10.9957 31.1485C10.8497 29.8744 10.7302 27.9102 11.0488 26.5167C11.3407 25.2559 12.9333 18.5006 12.9333 18.5006C12.9333 18.5006 12.4556 17.5318 12.4556 16.1117C12.4556 13.8688 13.7562 12.1966 15.3753 12.1966C16.7556 12.1966 17.4191 13.2318 17.4191 14.4661C17.4191 15.8463 16.5432 17.9167 16.0787 19.841C15.6938 21.4469 16.8883 22.7608 18.4676 22.7608C21.3343 22.7608 23.5373 19.7349 23.5373 15.3818C23.5373 11.5198 20.7636 8.82562 16.7954 8.82562C12.2034 8.82562 9.50926 12.263 9.50926 15.8198C9.50926 17.2 10.0401 18.6864 10.7037 19.496C10.8364 19.6552 10.8497 19.8012 10.8099 19.9605C10.6904 20.4648 10.4117 21.5664 10.3586 21.792C10.2923 22.084 10.1198 22.1503 9.81451 22.0043C7.79722 21.062 6.53642 18.129 6.53642 15.7534C6.53642 10.6704 10.2259 5.99877 17.1935 5.99877C22.7809 5.99877 27.134 9.98025 27.134 15.3154C27.134 20.8762 23.6302 25.3488 18.7728 25.3488C17.1404 25.3488 15.6009 24.4994 15.0833 23.4907C15.0833 23.4907 14.2738 26.5698 14.0747 27.3262C13.7164 28.733 12.7343 30.4849 12.0707 31.5599C13.5836 32.0244 15.1762 32.2765 16.8485 32.2765C25.7537 32.2765 32.9735 25.0568 32.9735 16.1515C33 7.21975 25.7802 0 16.875 0Z" fill="#797E86"/>
</g>
<defs>
<clipPath id="clip0_302_332">
<rect width="32.25" height="32.25" fill="white" transform="translate(0.75)"/>
</clipPath>
</defs>
</svg>
