<svg width="33" height="33" viewBox="0 0 33 33" fill="none" xmlns="http://www.w3.org/2000/svg">
<g clip-path="url(#clip0_302_317)">
<path d="M10.767 29.2276C22.9368 29.2276 29.5932 19.145 29.5932 10.4014C29.5932 10.115 29.5932 9.8299 29.5739 9.5461C30.8688 8.60945 31.9866 7.44969 32.875 6.12115C31.6675 6.6565 30.3864 7.00743 29.0747 7.16218C30.456 6.33536 31.4898 5.03473 31.9836 3.50245C30.6848 4.27324 29.2639 4.8164 27.7821 5.1085C26.7845 4.04771 25.4651 3.34529 24.028 3.10992C22.591 2.87455 21.1164 3.11937 19.8325 3.80648C18.5486 4.49359 17.527 5.58469 16.9257 6.91094C16.3244 8.23718 16.1769 9.72464 16.5062 11.1431C13.8756 11.0112 11.3021 10.3275 8.95283 9.13653C6.60355 7.94556 4.53096 6.27388 2.8696 4.23001C2.02348 5.68663 1.76433 7.41097 2.14492 9.05195C2.5255 10.6929 3.51721 12.1272 4.91812 13.0626C3.86509 13.0318 2.835 12.7477 1.915 12.2345V12.3183C1.91542 13.846 2.44424 15.3264 3.41176 16.5086C4.37929 17.6908 5.72596 18.5019 7.22335 18.8044C6.24924 19.0701 5.22718 19.109 4.23571 18.918C4.65869 20.2326 5.48189 21.3822 6.59023 22.206C7.69857 23.0299 9.03664 23.4868 10.4174 23.5129C9.04553 24.5913 7.47452 25.3885 5.79424 25.8591C4.11396 26.3297 2.35738 26.4644 0.625 26.2555C3.6509 28.1972 7.17165 29.2272 10.767 29.2225" fill="#797E86"/>
</g>
<defs>
<clipPath id="clip0_302_317">
<rect width="32.25" height="32.25" fill="white" transform="translate(0.625)"/>
</clipPath>
</defs>
</svg>
