<svg width="74" height="52" viewBox="0 0 74 52" fill="none" xmlns="http://www.w3.org/2000/svg">
<path d="M26.2 32.25C17.776 32.25 1 36.4286 1 44.75V51H51.4V44.75C51.4 36.4286 34.624 32.25 26.2 32.25ZM9.424 43.8571C12.448 41.7857 19.756 39.3929 26.2 39.3929C32.644 39.3929 39.952 41.7857 42.976 43.8571H9.424ZM26.2 26C33.148 26 38.8 20.3929 38.8 13.5C38.8 6.60714 33.148 1 26.2 1C19.252 1 13.6 6.60714 13.6 13.5C13.6 20.3929 19.252 26 26.2 26ZM26.2 8.14286C29.188 8.14286 31.6 10.5357 31.6 13.5C31.6 16.4643 29.188 18.8571 26.2 18.8571C23.212 18.8571 20.8 16.4643 20.8 13.5C20.8 10.5357 23.212 8.14286 26.2 8.14286ZM51.544 32.4643C55.72 35.4643 58.6 39.4643 58.6 44.75V51H73V44.75C73 37.5357 60.4 33.4286 51.544 32.4643V32.4643ZM47.8 26C54.748 26 60.4 20.3929 60.4 13.5C60.4 6.60714 54.748 1 47.8 1C45.856 1 44.056 1.46429 42.4 2.25C44.668 5.42857 46 9.32143 46 13.5C46 17.6786 44.668 21.5714 42.4 24.75C44.056 25.5357 45.856 26 47.8 26Z" stroke="#E75C54" stroke-width="1.7"/>
</svg>
