<svg width="49" height="47" viewBox="0 0 49 47" fill="none" xmlns="http://www.w3.org/2000/svg">
<path d="M5.83926 38.1572L8.95301 41.271L12.9059 37.296L9.79218 34.1822L5.83926 38.1572ZM22.2913 40.1668H26.708V46.7918H22.2913V40.1668ZM0.208008 20.2918H6.83301V24.7085H0.208008V20.2918ZM26.708 4.94389V13.6889L28.9163 14.9697C31.6547 16.5597 33.333 19.4747 33.333 22.6106C33.333 27.491 29.3801 31.4439 24.4997 31.4439C19.6193 31.4439 15.6663 27.491 15.6663 22.6106C15.6663 19.4747 17.3668 16.5597 20.083 14.9697L22.2913 13.6889V4.94389H26.708ZM31.1247 0.527222H17.8747V11.1493C13.9218 13.446 11.2497 17.7081 11.2497 22.6106C11.2497 29.9201 17.1901 35.8606 24.4997 35.8606C31.8093 35.8606 37.7497 29.9201 37.7497 22.6106C37.7497 17.7081 35.0776 13.446 31.1247 11.1493V0.527222ZM42.1663 20.2918H48.7913V24.7085H42.1663V20.2918ZM36.0713 37.3181L40.0243 41.2931L43.138 38.1793L39.163 34.2264L36.0713 37.3181Z" fill="#A89C98"/>
</svg>
