<svg width="48" height="35" viewBox="0 0 48 35" fill="none" xmlns="http://www.w3.org/2000/svg">
<path d="M17.1299 21.492C11.7706 21.492 1.09766 24.1717 1.09766 29.5081V33.5162H33.1622V29.5081C33.1622 24.1717 22.4893 21.492 17.1299 21.492ZM6.45701 28.9355C8.38088 27.6071 13.0302 26.0726 17.1299 26.0726C21.2296 26.0726 25.8789 27.6071 27.8028 28.9355H6.45701ZM17.1299 17.4839C21.5502 17.4839 25.146 13.8881 25.146 9.46779C25.146 5.04747 21.5502 1.45166 17.1299 1.45166C12.7096 1.45166 9.11378 5.04747 9.11378 9.46779C9.11378 13.8881 12.7096 17.4839 17.1299 17.4839ZM17.1299 6.03231C19.0309 6.03231 20.5654 7.56682 20.5654 9.46779C20.5654 11.3688 19.0309 12.9033 17.1299 12.9033C15.2289 12.9033 13.6944 11.3688 13.6944 9.46779C13.6944 7.56682 15.2289 6.03231 17.1299 6.03231ZM33.2538 21.6294C35.9106 23.5533 37.7428 26.1184 37.7428 29.5081V33.5162H46.9041V29.5081C46.9041 24.8817 38.888 22.2478 33.2538 21.6294ZM30.8718 17.4839C35.2922 17.4839 38.888 13.8881 38.888 9.46779C38.888 5.04747 35.2922 1.45166 30.8718 1.45166C29.6351 1.45166 28.4899 1.7494 27.4364 2.25327C28.8793 4.29166 29.7267 6.78811 29.7267 9.46779C29.7267 12.1475 28.8793 14.6439 27.4364 16.6823C28.4899 17.1862 29.6351 17.4839 30.8718 17.4839Z" fill="#B4BBC1" stroke="#011E20" stroke-width="1.7"/>
</svg>
