<svg width="29" height="51" viewBox="0 0 29 51" fill="none" xmlns="http://www.w3.org/2000/svg">
<path d="M19.512 11.2501C18.2974 13.348 19.0262 16.0643 21.1241 17.2788C23.222 18.4934 25.9383 17.7647 27.1529 15.6668C28.3674 13.5688 27.6387 10.8526 25.5408 9.638C23.4429 8.42342 20.7266 9.15217 19.512 11.2501Z" fill="#A89C98"/>
<path d="M22.9801 20.9888C22.9801 20.9888 19.3805 18.9129 17.2384 17.6763C11.9826 14.6288 10.1717 7.87127 13.2192 2.61544L9.3988 0.407104C5.88755 6.45794 6.99172 13.9221 11.5409 18.7584L0.167969 38.4567L3.98838 40.665L7.30088 34.9234L11.1213 37.1317L4.4963 48.615L8.31672 50.8234L22.2071 26.7746C24.7246 30.1975 25.1442 34.9234 22.8917 38.8321L26.7121 41.0404C30.2455 34.9675 29.5388 26.5096 22.9801 20.9888Z" fill="#A89C98"/>
<path d="M16.1565 6.3918C17.7465 7.29722 19.756 6.76722 20.6835 5.17722C21.589 3.58722 21.059 1.57763 19.469 0.650132C17.879 -0.255284 15.8694 0.274716 14.9419 1.86472C14.0365 3.45472 14.5665 5.48638 16.1565 6.3918Z" fill="#A89C98"/>
</svg>
