<svg width="48" height="57" viewBox="0 0 48 57" fill="none" xmlns="http://www.w3.org/2000/svg">
<path fill-rule="evenodd" clip-rule="evenodd" d="M23.3103 1C23.8565 1 24.064 1.05368 24.5664 1.34355C24.8941 1.53679 25.2982 1.89108 25.4621 2.12727C25.6696 2.4064 25.8116 2.79289 25.8881 3.25454C25.9427 3.64103 25.9864 5.11184 25.9318 9.18075L25.6368 9.43841C25.4621 9.57797 25.2327 9.69607 25.1126 9.69607C24.9924 9.69607 24.763 9.57797 24.2934 9.18075L24.2388 6.09955C24.1841 3.17938 24.1732 3.01835 23.9657 2.86804C23.8455 2.78216 23.6271 2.68553 23.4742 2.65333C23.3213 2.62112 23.0591 2.65333 22.8844 2.73921C22.6987 2.81437 22.5021 3.02908 22.4147 3.22233C22.2945 3.5122 22.2727 8.07495 22.2727 28.4302C22.2727 50.2885 22.2945 53.3267 22.4365 53.6595C22.5239 53.8635 22.6987 54.0782 22.8188 54.1426C22.939 54.1963 23.1902 54.25 23.3649 54.25C23.5834 54.25 23.8019 54.1534 24.2388 53.7132V33.2077C24.2388 15.2143 24.2606 12.6592 24.4026 12.3264C24.5118 12.0687 24.6538 11.9291 24.8723 11.8862C25.0361 11.854 25.2764 11.854 25.4184 11.8862C25.5604 11.9184 25.7242 12.1116 25.8225 12.3264C25.9536 12.6377 25.9864 13.3785 25.9864 20.4856L29.4051 19.9703C31.2729 19.6912 32.8348 19.4335 32.8676 19.4013C32.9004 19.3584 32.8785 19.3154 32.813 19.294C32.7475 19.2725 32.4089 19.0685 32.0484 18.843C31.688 18.6176 31.0981 18.113 30.7377 17.7265C30.3773 17.3508 29.8967 16.6959 29.6782 16.2879C29.4598 15.8799 29.1758 15.1606 29.0338 14.6883C28.8372 13.9582 28.8044 13.6361 28.8481 12.5948C28.8918 11.5963 28.9573 11.2098 29.2085 10.5549C29.3724 10.1148 29.7001 9.45988 29.9185 9.10559C30.1479 8.75131 30.6722 8.1501 31.0872 7.76361C31.4914 7.37712 32.0812 6.92621 32.3761 6.75444C32.6819 6.58266 33.2171 6.33574 33.5776 6.19617C33.938 6.06734 34.6261 5.9063 35.1067 5.83115C35.7621 5.74526 36.2099 5.74526 36.909 5.83115C37.4223 5.9063 38.1323 6.06734 38.4927 6.19617C38.8532 6.31426 39.443 6.5934 39.8034 6.79738C40.153 7.00136 40.7756 7.48448 41.1688 7.87097C41.562 8.25746 42.0644 8.89088 42.2938 9.26663C42.5232 9.65312 42.8181 10.3295 42.9601 10.7697C43.1021 11.2098 43.255 11.9399 43.2987 12.38C43.3424 12.9168 43.3096 13.4751 43.2113 14.0441C43.1239 14.5165 42.9492 15.1714 42.8181 15.4934C42.6979 15.8155 42.403 16.3845 42.1518 16.7495C41.9115 17.1253 41.4309 17.705 41.0705 18.0379C40.7209 18.3814 40.2513 18.7572 40.0328 18.8753C39.8144 18.9933 39.6396 19.1222 39.6396 19.1651C39.6396 19.2188 39.869 19.3047 40.1639 19.3691C40.4479 19.4335 41.0159 19.6375 41.4418 19.8307C41.8678 20.024 42.5013 20.3675 42.8618 20.6145C43.2222 20.8507 43.9103 21.4519 44.3909 21.9457C45.0791 22.665 45.3849 23.0945 45.8436 23.9748C46.1604 24.5975 46.5208 25.4886 46.6519 25.9609C46.8813 26.7983 46.8922 27.0023 46.9031 32.6709C46.9031 38.114 46.8922 38.5541 46.7065 38.9514C46.5973 39.1875 46.3461 39.5633 46.1604 39.7888C45.9638 40.0249 45.5269 40.347 45.1555 40.5188C44.6422 40.7657 44.3472 40.8301 43.812 40.8301C43.4407 40.8301 42.9601 40.755 42.3703 40.5081V46.3806C42.3703 49.8053 42.3266 52.5323 42.261 52.908C42.1955 53.2623 42.0535 53.7454 41.9443 53.9816C41.8241 54.2178 41.5183 54.6258 41.2561 54.8942C40.9831 55.1626 40.5025 55.4954 40.0984 55.6671C39.5632 55.9033 39.2573 55.9677 38.6566 55.9677C38.0012 55.9677 37.7828 55.9141 37.1493 55.592C36.7451 55.3987 36.2973 55.1089 35.8713 54.6794L35.4344 55.0767C35.1941 55.2914 34.7354 55.5813 34.4186 55.7208C34.0036 55.9033 33.6431 55.9677 33.0861 55.9677C32.4525 55.9677 32.2013 55.9141 31.6334 55.6349C31.262 55.4632 30.7705 55.1303 30.552 54.9156C30.3226 54.7009 30.0059 54.25 29.5362 53.3375L29.4816 40.9375L29.7547 40.6691C29.8967 40.5188 30.1479 40.4007 30.3008 40.4007C30.4537 40.4007 30.694 40.5188 31.12 40.9375V46.8422C31.12 51.9525 31.1418 52.8007 31.2948 53.1442C31.3821 53.3697 31.546 53.6488 31.6443 53.7561C31.7426 53.8635 32.0266 54.046 32.2669 54.1534C32.5072 54.2607 32.8785 54.3574 33.0861 54.3574C33.2936 54.3574 33.665 54.2715 33.9052 54.1641C34.1455 54.0568 34.4951 53.7776 34.9975 53.1442L35.1067 39.0909L35.3798 38.8869C35.5327 38.7689 35.7512 38.6722 35.8713 38.6722C35.9915 38.6722 36.2208 38.7689 36.6905 39.1124L36.7124 46.0156C36.7451 52.339 36.756 52.9402 36.9308 53.2623C37.04 53.4448 37.2585 53.7239 37.4223 53.8742C37.5971 54.0245 37.9029 54.1963 38.1104 54.2607C38.318 54.3252 38.7221 54.3574 39.017 54.3144C39.3775 54.2715 39.6396 54.1534 39.9236 53.8957C40.142 53.7132 40.4042 53.4019 40.5025 53.2301C40.6554 52.9402 40.6773 51.6197 40.7319 39.6707C40.7865 26.5836 40.7865 26.4226 41.0049 26.2723C41.1251 26.1864 41.3326 26.122 41.4637 26.122C41.6057 26.122 41.8132 26.1649 41.9334 26.2293C42.0535 26.2938 42.2064 26.4977 42.261 26.6802C42.3375 26.9057 42.3703 29.128 42.3703 32.6172C42.3703 38.0066 42.3812 38.2106 42.5887 38.5434C42.7089 38.7366 42.9601 38.9728 43.1348 39.0587C43.3096 39.1446 43.6373 39.2198 43.8448 39.2198C44.0523 39.2198 44.3691 39.1339 44.5548 39.0265C44.7295 38.9299 44.9589 38.6937 45.0681 38.5219C45.2429 38.2321 45.2647 37.7812 45.2975 33.4224C45.3194 30.7491 45.2866 28.1725 45.2211 27.5713C45.1555 26.9808 44.9917 26.1434 44.8278 25.6925C44.6749 25.2524 44.3909 24.6297 44.1943 24.3076C44.0086 23.9855 43.5499 23.4165 43.1894 23.03C42.829 22.6543 42.2173 22.1282 41.8241 21.8813C41.4309 21.6236 40.7974 21.2908 40.4042 21.1513C40.011 21.0117 39.443 20.8292 39.1481 20.7648C38.8423 20.7004 38.4163 20.4964 37.7391 19.9488L34.6152 20.0025L34.2002 20.4105C33.9817 20.6359 33.6213 20.8721 33.4137 20.9473C33.2062 21.0117 31.5569 21.2908 29.7547 21.5592C27.9524 21.8276 26.3687 22.0638 26.2267 22.096C25.9864 22.1497 25.9864 22.1712 25.9864 25.7999L28.1054 25.8214C30.2025 25.8536 30.2353 25.8536 30.5192 26.122C30.6831 26.2723 30.8797 26.5192 30.9671 26.6802C31.0872 26.9272 31.12 27.9471 31.12 37.7167L30.8469 37.9851C30.7049 38.1354 30.4537 38.2535 30.3008 38.2535C30.1479 38.2535 29.9076 38.1354 29.4816 37.7167V27.4103H25.9864L25.9536 40.6369C25.9318 52.5001 25.9099 53.9172 25.757 54.25C25.6587 54.454 25.4402 54.7868 25.2655 54.9908C25.0907 55.1948 24.6975 55.4739 24.4026 55.6135C24.064 55.7638 23.6489 55.8604 23.3103 55.8604C22.9717 55.8604 22.5567 55.7638 22.2181 55.6135C21.9122 55.4739 21.53 55.1948 21.3552 54.9908C21.1804 54.7868 20.962 54.454 20.8637 54.25C20.7108 53.9172 20.678 52.4571 20.5797 27.3673L20.1646 27.2815C19.9462 27.2385 19.5748 27.1097 19.3454 26.9916C19.127 26.8842 18.7338 26.5621 18.4716 26.2723C18.1549 25.9287 17.9364 25.5422 17.8272 25.1557C17.7289 24.8015 17.6743 24.3506 17.707 24.0285C17.7398 23.7279 17.9037 23.234 18.0784 22.9119C18.2532 22.6006 18.5372 22.2141 18.7228 22.0638C18.9085 21.9242 19.2253 21.7203 19.4328 21.6129C19.6403 21.5055 20.0008 21.3874 20.6343 21.2908V17.748L19.7277 17.4796C19.2362 17.34 18.4389 17.1575 17.9583 17.0931C17.4777 17.0287 16.5929 16.9965 15.9922 17.0287C15.3915 17.0609 14.4303 17.2112 13.8623 17.3615C13.2943 17.5011 12.2348 17.8661 11.5139 18.1774C10.793 18.478 9.71171 18.8538 9.11097 18.9933C8.35731 19.1866 7.5818 19.2832 6.59877 19.3262C5.53928 19.3691 4.97131 19.3369 4.35964 19.2081C3.91181 19.1114 3.13631 18.843 2.63387 18.6069C2.14235 18.3707 1.63992 18.0486 1.50884 17.8876C1.3887 17.7158 1.23578 17.3937 1.18117 17.1575C1.10471 16.8891 1.08286 14.7419 1.10471 11.2528C1.13748 6.28206 1.15932 5.74526 1.32316 5.42319C1.43239 5.24068 1.62899 5.00449 1.76006 4.9186C1.90206 4.82198 2.19697 4.70388 2.41542 4.6502C2.75402 4.56431 2.97247 4.58579 3.6169 4.81124C4.05381 4.96154 4.78562 5.12258 5.23345 5.17626C5.77958 5.25141 6.42401 5.25141 7.1449 5.17626C7.74564 5.11185 8.63037 4.95081 9.11097 4.81124C9.59156 4.67167 10.4326 4.37107 10.9678 4.13488C11.503 3.89869 12.3441 3.58735 12.8246 3.43705C13.3052 3.29748 14.0698 3.10423 14.5176 3.02908C14.9655 2.95393 15.9267 2.88952 16.6476 2.90025C17.4558 2.90025 18.3187 2.9754 18.8867 3.0935C19.4 3.20086 20.0008 3.35116 20.2192 3.42631C20.6343 3.57661 20.6343 3.57661 20.6998 3.27601C20.7326 3.11497 20.8091 2.83584 20.8637 2.66406C20.9183 2.48155 21.1149 2.14874 21.3115 1.92329C21.5081 1.69783 21.8904 1.39723 22.1635 1.25766C22.513 1.08589 22.8516 1.01074 23.3103 1ZM13.8077 4.84345C13.3271 4.96154 12.3441 5.31583 11.6232 5.61643C10.9023 5.91704 9.87555 6.28206 9.32942 6.42162C8.78329 6.56119 7.85487 6.72223 7.25413 6.78664C6.53324 6.86179 5.84511 6.86179 5.23345 6.79738C4.72009 6.7437 3.98827 6.60413 3.59506 6.4753C3.20185 6.35721 2.85232 6.26058 2.79771 6.26058C2.75402 6.26058 2.72125 8.61174 2.72125 11.4997C2.71033 16.3738 2.73217 16.7388 2.90694 16.9106C3.01616 17.0179 3.47491 17.2327 3.92274 17.383C4.54532 17.5977 5.02592 17.6836 5.94342 17.7265C6.82815 17.7587 7.3852 17.7265 8.07332 17.5869C8.58668 17.4903 9.37311 17.2649 9.82094 17.1038C10.2688 16.9321 11.088 16.6207 11.6232 16.3953C12.1584 16.1805 13.0759 15.8799 13.6438 15.7404C14.2992 15.5793 15.1621 15.4612 15.9922 15.4183C16.9862 15.3754 17.576 15.3968 18.4498 15.5471C19.0833 15.6438 19.7933 15.8048 20.0336 15.8799C20.2739 15.9658 20.5032 16.0302 20.5469 16.0302C20.6015 16.0302 20.6234 13.6039 20.6015 10.6408L20.5797 5.25141C19.8151 4.97228 19.2253 4.81124 18.7775 4.72535C18.3296 4.62873 17.5432 4.53211 17.0298 4.51064C16.5165 4.47843 15.7847 4.48916 15.3915 4.54284C14.9982 4.58579 14.2883 4.72535 13.8077 4.84345ZM34.2329 7.68846C33.9271 7.78508 33.3919 8.05348 33.0314 8.27893C32.671 8.50439 32.1576 8.93382 31.8846 9.23443C31.6115 9.52429 31.262 10.0074 31.0981 10.2973C30.9343 10.5871 30.7268 11.1132 30.6394 11.4675C30.5411 11.8218 30.4646 12.4767 30.4646 12.9168C30.4646 13.357 30.5411 13.9904 30.6285 14.3125C30.7159 14.6346 30.9234 15.1714 31.0872 15.4934C31.262 15.8155 31.7098 16.3953 32.103 16.7818C32.4962 17.1682 33.0642 17.6084 33.3591 17.7695C33.665 17.9305 34.2002 18.1345 34.5606 18.2204C34.921 18.317 35.6092 18.3921 36.0898 18.3921C36.6468 18.3921 37.2148 18.317 37.6735 18.1882C38.0668 18.0701 38.6784 17.7802 39.0389 17.5547C39.3993 17.3293 39.9236 16.8891 40.2076 16.5885C40.5025 16.2772 40.9066 15.676 41.1142 15.2573C41.3217 14.8171 41.5401 14.1407 41.6057 13.722C41.704 13.1638 41.704 12.7558 41.6057 12.1653C41.5401 11.7252 41.3763 11.1239 41.2561 10.8233C41.1251 10.5335 40.8739 10.0718 40.6882 9.80343C40.5025 9.53503 40.1311 9.11633 39.8581 8.86941C39.585 8.61174 39.0498 8.23599 38.6566 8.04274C38.2634 7.83876 37.75 7.62404 37.5097 7.57036C37.2694 7.50595 36.7997 7.44153 36.4721 7.40932C36.1444 7.37712 35.6201 7.38785 35.3252 7.44153C35.0194 7.48448 34.5278 7.59183 34.2329 7.68846ZM19.5311 23.6527C19.411 23.8567 19.3236 24.1788 19.3236 24.3506C19.3236 24.5331 19.4219 24.8337 19.542 25.0269C19.6622 25.2094 19.9025 25.4456 20.0882 25.5315C20.2629 25.6174 20.4595 25.6925 20.5251 25.6925C20.5906 25.6925 20.6343 25.1557 20.6343 24.2969C20.6343 23.5346 20.6015 22.9012 20.5469 22.9012C20.5032 22.9012 20.3066 22.9871 20.0991 23.0837C19.9025 23.1911 19.6403 23.4487 19.5311 23.6527ZM34.9429 15.1714C35.1286 15.1714 35.4126 15.2895 35.5983 15.4398C35.773 15.5901 35.9587 15.7082 36.0024 15.7082C36.057 15.7082 36.2645 15.5901 36.4721 15.4398C36.6796 15.2895 37.0073 15.1714 37.182 15.1714C37.3568 15.1606 37.5862 15.2465 37.6845 15.3539C37.7828 15.4612 37.892 15.6545 37.9357 15.7941C37.9794 15.9336 37.9248 16.1591 37.7937 16.3845C37.6735 16.567 37.3896 16.8354 37.1602 16.9535C36.9308 17.0824 36.5704 17.2112 36.3628 17.2541C36.1335 17.2971 35.7621 17.2541 35.4344 17.1575C35.1286 17.0716 34.7354 16.8462 34.5278 16.6422C34.2766 16.3953 34.1783 16.202 34.1783 15.9551C34.1783 15.7511 34.2657 15.5149 34.3968 15.3861C34.5169 15.268 34.7572 15.1714 34.9429 15.1714Z" fill="#B4BBC1" stroke="#B4BBC1"/>
</svg>
