<svg width="67" height="68" viewBox="0 0 67 68" fill="none" xmlns="http://www.w3.org/2000/svg">
<path d="M17.5744 13.7306L12.0961 8.28277L7.80481 12.5741L13.2526 18.0219L17.5744 13.7306ZM0.0439453 30.9567H9.17438V37.0436H0.0439453V30.9567ZM30.4787 0.674072H36.5657V9.65233H30.4787V0.674072ZM54.9483 8.26755L59.2335 12.5497L53.7857 17.9976L49.5035 13.7123L54.9483 8.26755ZM49.47 54.2697L54.9179 59.748L59.2092 55.4567L53.7309 50.0089L49.47 54.2697ZM57.87 30.9567H67.0005V37.0436H57.87V30.9567ZM33.5222 15.7393C23.4483 15.7393 15.2613 23.9262 15.2613 34.0002C15.2613 44.0741 23.4483 52.261 33.5222 52.261C43.5961 52.261 51.7831 44.0741 51.7831 34.0002C51.7831 23.9262 43.5961 15.7393 33.5222 15.7393ZM33.5222 46.1741C26.7961 46.1741 21.3483 40.7262 21.3483 34.0002C21.3483 27.2741 26.7961 21.8262 33.5222 21.8262C40.2483 21.8262 45.6961 27.2741 45.6961 34.0002C45.6961 40.7262 40.2483 46.1741 33.5222 46.1741ZM30.4787 58.348H36.5657V67.3263H30.4787V58.348ZM7.80481 55.4263L12.0961 59.7176L17.5439 54.2393L13.2526 49.948L7.80481 55.4263Z" fill="#B4BBC1"/>
</svg>
