<svg width="81" height="70" viewBox="0 0 81 70" fill="none" xmlns="http://www.w3.org/2000/svg">
<path fill-rule="evenodd" clip-rule="evenodd" d="M79.1217 0L80.0638 0.942081L80.047 27.6568C80.047 47.4237 79.9965 54.4557 79.862 54.7248C79.7442 54.9435 79.576 55.1622 79.475 55.2295C79.3741 55.2968 77.7591 55.3641 72.4767 55.3641L72.4431 61.7063C72.3926 67.7794 72.3758 68.099 72.0393 68.6542C71.8543 68.9738 71.4 69.4112 71.0299 69.6131C70.3907 69.9832 70.2729 70 64.3176 70C58.3623 70 58.2446 69.9832 57.5885 69.6131C57.1342 69.3607 56.781 68.9906 56.5286 68.4859C56.1585 67.7457 56.1585 67.628 56.1585 55.3641H46.5695V61.4203L49.3621 61.454C52.121 61.5044 52.1547 61.5044 52.4743 61.925C52.6594 62.1605 52.8108 62.5138 52.7939 62.7157C52.7939 62.9344 52.6425 63.254 52.4575 63.4391C52.121 63.7755 51.9023 63.7755 40.0085 63.7755C28.1148 63.7755 27.8961 63.7755 27.5596 63.4391C27.3746 63.254 27.2232 62.9344 27.2232 62.7157C27.2063 62.5138 27.3577 62.1605 27.5428 61.925C27.8624 61.5044 27.8961 61.5044 33.4476 61.4203V55.3641H0.643008L0.30655 54.9772C-0.0299073 54.6071 -0.0467302 54.523 0.0542071 0.672915L0.474779 0.35328C0.878528 0.0336455 1.70285 0.0168229 79.1217 0V0ZM2.29165 24.6119L2.3253 46.6162H56.1585C56.2426 40.56 56.2763 40.274 56.5959 39.8029C56.7978 39.5169 57.1679 39.1468 57.4371 38.9618C57.9081 38.6422 58.2446 38.6253 64.0653 38.5749C70.172 38.5244 70.2056 38.5244 70.9627 38.9113C71.4 39.1468 71.8543 39.5338 72.0561 39.887C72.3589 40.4086 72.3926 40.8123 72.4262 43.5376L72.4767 46.6162H77.6918L77.6077 2.45614C19.4342 2.38885 2.49352 2.42249 2.40941 2.48979C2.3253 2.54025 2.27483 12.4994 2.29165 24.6119V24.6119ZM58.5474 54.4388L58.5978 67.5607H70.0374V40.9805C59.91 40.8964 58.6651 40.9301 58.5978 41.0983C58.5474 41.2161 58.5305 47.2218 58.5474 54.4388ZM2.3253 53.0089H56.1585V48.9714H2.3253V53.0089ZM72.4767 53.0089H77.6918V48.9714H72.4767V53.0089ZM35.8028 61.4203H44.2143V55.3641H35.8028V61.4203ZM62.0465 44.6984C62.4671 44.732 62.9381 44.9003 63.1064 45.0685C63.2746 45.2199 63.3924 45.59 63.3924 45.8592C63.3924 46.1283 63.2578 46.4984 63.0895 46.6667C62.8708 46.8854 62.5512 46.9695 61.7942 46.9527C61.0708 46.9527 60.7007 46.8685 60.482 46.6498C60.3138 46.4984 60.1792 46.1283 60.1792 45.8592C60.1792 45.59 60.3138 45.2367 60.482 45.0853C60.6502 44.9339 60.9026 44.7657 61.0372 44.7152C61.1717 44.6479 61.626 44.6479 62.0465 44.6984V44.6984ZM67.1775 44.6984C67.5476 44.7489 67.985 44.9171 68.1532 45.0685C68.3215 45.2199 68.4392 45.59 68.4392 45.8592C68.4392 46.1283 68.3046 46.4984 68.1364 46.6667C67.9177 46.8854 67.5981 46.9695 66.841 46.9527C66.1177 46.9527 65.7476 46.8685 65.5289 46.6498C65.3606 46.4984 65.226 46.1283 65.226 45.8592C65.226 45.59 65.3606 45.2367 65.5289 45.0853C65.6971 44.9171 65.9831 44.7657 66.1681 44.7152C66.3532 44.6647 66.8074 44.6647 67.1775 44.6984V44.6984ZM62.0465 50.0817C62.4671 50.1154 62.9381 50.2836 63.1064 50.4518C63.2746 50.6032 63.3924 50.9565 63.3924 51.2425C63.3924 51.5117 63.2578 51.8818 63.0895 52.05C62.8708 52.2687 62.5512 52.3528 61.7942 52.336C61.0708 52.336 60.7007 52.2519 60.482 52.0332C60.3138 51.8818 60.1792 51.5117 60.1792 51.2425C60.1792 50.9733 60.3138 50.62 60.482 50.4686C60.6502 50.3172 60.9026 50.149 61.0372 50.0985C61.1717 50.0312 61.626 50.0312 62.0465 50.0817V50.0817ZM67.1775 50.0817C67.5476 50.1322 67.985 50.3004 68.1532 50.4518C68.3215 50.6032 68.4392 50.9565 68.4392 51.2425C68.4392 51.5117 68.3046 51.8818 68.1364 52.05C67.9177 52.2687 67.5981 52.3528 66.841 52.336C66.1177 52.336 65.7476 52.2519 65.5289 52.0332C65.3606 51.8818 65.226 51.5117 65.226 51.2425C65.226 50.9733 65.3606 50.62 65.5289 50.4686C65.6971 50.3004 65.9831 50.149 66.1681 50.0985C66.3532 50.0481 66.8074 50.0481 67.1775 50.0817V50.0817ZM64.5027 55.566C65.4784 55.5996 65.8317 55.7174 66.5046 56.1211C67.0261 56.4408 67.5308 56.9454 67.8336 57.4501C68.2542 58.1062 68.3719 58.51 68.4056 59.3848C68.456 60.1081 68.3719 60.7306 68.2037 61.168C68.0691 61.5381 67.6654 62.1269 67.3121 62.497C66.9588 62.8503 66.37 63.2877 65.9999 63.4559C65.5962 63.641 64.9401 63.7755 64.3513 63.7755C63.8298 63.7755 63.14 63.6746 62.8372 63.5568C62.5512 63.4391 62.0129 63.1194 61.6596 62.8335C61.3063 62.5643 60.8185 61.9587 60.5998 61.5044C60.3138 60.9156 60.196 60.3773 60.196 59.6876C60.196 59.1661 60.3138 58.4427 60.4652 58.0894C60.5998 57.7529 60.8857 57.2314 61.1044 56.9623C61.3063 56.6763 61.8951 56.2389 62.3998 55.9865C63.1905 55.566 63.4596 55.5155 64.5027 55.566V55.566ZM62.568 59.6371C62.5512 60.2764 62.6353 60.4951 63.0559 60.9156C63.4596 61.3194 63.6952 61.4203 64.3008 61.4203C64.9064 61.4203 65.1419 61.3194 65.5625 60.9156C65.9999 60.4951 66.084 60.2764 66.084 59.6539C66.084 59.0315 65.9831 58.796 65.5793 58.3922C65.1588 57.9716 64.9401 57.8875 64.3008 57.8875C63.6783 57.8875 63.4428 57.9716 63.0559 58.3754C62.6858 58.7623 62.568 59.0315 62.568 59.6371Z" fill="#B4BBC1"/>
</svg>
