<svg width="33" height="27" viewBox="0 0 33 27" fill="none" xmlns="http://www.w3.org/2000/svg">
<path d="M10.767 26.227C22.9368 26.227 29.5932 16.1444 29.5932 7.40076C29.5932 7.11438 29.5932 6.82929 29.5739 6.54549C30.8688 5.60884 31.9866 4.44908 32.875 3.12054C31.6675 3.65589 30.3864 4.00682 29.0747 4.16157C30.456 3.33475 31.4898 2.03412 31.9836 0.501839C30.6848 1.27263 29.2639 1.81579 27.7821 2.10789C26.7845 1.0471 25.4651 0.344676 24.028 0.109309C22.591 -0.126058 21.1164 0.118756 19.8325 0.805867C18.5486 1.49298 17.527 2.58408 16.9257 3.91033C16.3244 5.23657 16.1769 6.72403 16.5062 8.14251C13.8756 8.01055 11.3021 7.3269 8.95283 6.13592C6.60355 4.94495 4.53096 3.27327 2.8696 1.2294C2.02348 2.68602 1.76433 4.41036 2.14492 6.05134C2.5255 7.69232 3.51721 9.12656 4.91812 10.062C3.86509 10.0312 2.835 9.7471 1.915 9.23385V9.3177C1.91542 10.8453 2.44424 12.3258 3.41176 13.508C4.37929 14.6902 5.72596 15.5013 7.22335 15.8038C6.24924 16.0695 5.22718 16.1084 4.23571 15.9173C4.65869 17.232 5.48189 18.3816 6.59023 19.2054C7.69857 20.0293 9.03664 20.4862 10.4174 20.5123C9.04553 21.5906 7.47452 22.3879 5.79424 22.8585C4.11396 23.3291 2.35738 23.4638 0.625 23.2549C3.6509 25.1966 7.17165 26.2266 10.767 26.2219" fill="#797E86"/>
</svg>
