<svg width="23" height="21" viewBox="0 0 23 21" fill="none" xmlns="http://www.w3.org/2000/svg">
<path d="M18.552 14.8729C17.6575 14.8729 16.8572 15.1856 16.2451 15.6755L7.85335 11.3495C7.9122 11.1098 7.95928 10.87 7.95928 10.6198C7.95928 10.3697 7.9122 10.1299 7.85335 9.89014L16.151 5.60581C16.7865 6.12702 17.6222 6.45017 18.552 6.45017C20.5058 6.45017 22.0829 5.05333 22.0829 3.32292C22.0829 1.59252 20.5058 0.195679 18.552 0.195679C16.5982 0.195679 15.0211 1.59252 15.0211 3.32292C15.0211 3.5731 15.0682 3.81286 15.127 4.05262L6.82938 8.33694C6.19382 7.81574 5.35817 7.49259 4.42837 7.49259C2.4746 7.49259 0.897461 8.88942 0.897461 10.6198C0.897461 12.3502 2.4746 13.7471 4.42837 13.7471C5.35817 13.7471 6.19382 13.4239 6.82938 12.9027L15.2094 17.2392C15.1506 17.4581 15.1152 17.6874 15.1152 17.9167C15.1152 19.595 16.6571 20.9606 18.552 20.9606C20.4469 20.9606 21.9887 19.595 21.9887 17.9167C21.9887 16.2385 20.4469 14.8729 18.552 14.8729ZM18.552 2.28051C19.1993 2.28051 19.729 2.7496 19.729 3.32292C19.729 3.89625 19.1993 4.36534 18.552 4.36534C17.9047 4.36534 17.375 3.89625 17.375 3.32292C17.375 2.7496 17.9047 2.28051 18.552 2.28051ZM4.42837 11.6622C3.78104 11.6622 3.2514 11.1932 3.2514 10.6198C3.2514 10.0465 3.78104 9.57742 4.42837 9.57742C5.0757 9.57742 5.60534 10.0465 5.60534 10.6198C5.60534 11.1932 5.0757 11.6622 4.42837 11.6622ZM18.552 18.98C17.9047 18.98 17.375 18.5109 17.375 17.9376C17.375 17.3643 17.9047 16.8952 18.552 16.8952C19.1993 16.8952 19.729 17.3643 19.729 17.9376C19.729 18.5109 19.1993 18.98 18.552 18.98Z" fill="white"/>
</svg>
