<svg width="33" height="33" viewBox="0 0 33 33" fill="none" xmlns="http://www.w3.org/2000/svg">
<g clip-path="url(#clip0_302_330)">
<path d="M29.4079 25.1329C28.9202 26.2596 28.3429 27.2968 27.6741 28.2503C26.7623 29.5502 26.0158 30.45 25.4405 30.9497C24.5487 31.7698 23.5932 32.1899 22.57 32.2138C21.8354 32.2138 20.9496 32.0047 19.9184 31.5807C18.8838 31.1587 17.9331 30.9497 17.0638 30.9497C16.152 30.9497 15.1742 31.1587 14.1283 31.5807C13.0808 32.0047 12.237 32.2257 11.5918 32.2476C10.6106 32.2894 9.63256 31.8574 8.65633 30.9497C8.03325 30.4062 7.2539 29.4746 6.32027 28.1548C5.31856 26.7454 4.49502 25.111 3.84984 23.2477C3.15888 21.2352 2.8125 19.2863 2.8125 17.3995C2.8125 15.2382 3.27951 13.3742 4.21493 11.8121C4.95009 10.5573 5.92811 9.56758 7.15218 8.84098C8.37624 8.11439 9.69885 7.74412 11.1232 7.72043C11.9025 7.72043 12.9245 7.9615 14.1946 8.43528C15.4611 8.91066 16.2743 9.15173 16.6308 9.15173C16.8973 9.15173 17.8007 8.86985 19.3321 8.30788C20.7804 7.78672 22.0026 7.57093 23.0039 7.65593C25.7172 7.87491 27.7557 8.9445 29.1113 10.8715C26.6847 12.3418 25.4843 14.4012 25.5082 17.043C25.5301 19.1008 26.2766 20.8131 27.7437 22.1728C28.4086 22.8038 29.1511 23.2915 29.9773 23.6379C29.7981 24.1575 29.609 24.6551 29.4079 25.1329ZM23.1851 0.64555C23.1851 2.25842 22.5958 3.76435 21.4213 5.15822C20.004 6.81527 18.2896 7.77278 16.4305 7.62169C16.4068 7.4282 16.3931 7.22455 16.3931 7.01055C16.3931 5.4622 17.0671 3.80516 18.2641 2.4503C18.8617 1.76431 19.6218 1.19392 20.5435 0.738912C21.4632 0.29069 22.3331 0.042814 23.1512 0.000366211C23.1751 0.215982 23.1851 0.43161 23.1851 0.645529V0.64555Z" fill="#797E86"/>
</g>
<defs>
<clipPath id="clip0_302_330">
<rect width="32.25" height="32.25" fill="white" transform="translate(0.125)"/>
</clipPath>
</defs>
</svg>
