<svg width="33" height="33" viewBox="0 0 33 33" fill="none" xmlns="http://www.w3.org/2000/svg">
<g clip-path="url(#clip0_302_314)">
<path d="M32.25 16.125C32.25 7.2194 25.0306 0 16.125 0C7.2194 0 0 7.2194 0 16.125C0 24.1733 5.89665 30.8444 13.6055 32.0541V20.7861H9.51123V16.125H13.6055V12.5725C13.6055 8.53113 16.0129 6.29883 19.6961 6.29883C21.4598 6.29883 23.3057 6.61377 23.3057 6.61377V10.582H21.2724C19.2694 10.582 18.6445 11.8251 18.6445 13.1016V16.125H23.1167L22.4018 20.7861H18.6445V32.0541C26.3534 30.8444 32.25 24.1733 32.25 16.125Z" fill="#797E86"/>
</g>
<defs>
<clipPath id="clip0_302_314">
<rect width="32.25" height="32.25" fill="white"/>
</clipPath>
</defs>
</svg>
