<svg width="33" height="33" viewBox="0 0 33 33" fill="none" xmlns="http://www.w3.org/2000/svg">
<g clip-path="url(#clip0_302_319)">
<path d="M16.375 2.90376C20.6834 2.90376 21.1936 2.92266 22.888 2.99824C24.4627 3.06753 25.313 3.33208 25.8799 3.55254C26.6295 3.84229 27.1712 4.19502 27.7318 4.75562C28.2987 5.32251 28.6451 5.85791 28.9349 6.60747C29.1553 7.17437 29.4199 8.03101 29.4892 9.59941C29.5647 11.3001 29.5836 11.8103 29.5836 16.1124C29.5836 20.4208 29.5647 20.931 29.4892 22.6254C29.4199 24.2001 29.1553 25.0504 28.9349 25.6173C28.6451 26.3669 28.2924 26.9086 27.7318 27.4692C27.1649 28.0361 26.6295 28.3825 25.8799 28.6723C25.313 28.8927 24.4564 29.1573 22.888 29.2266C21.1873 29.3022 20.6771 29.321 16.375 29.321C12.0666 29.321 11.5564 29.3022 9.86201 29.2266C8.28731 29.1573 7.43696 28.8927 6.87007 28.6723C6.12051 28.3825 5.57881 28.0298 5.01821 27.4692C4.45132 26.9023 4.10488 26.3669 3.81514 25.6173C3.59468 25.0504 3.33013 24.1938 3.26084 22.6254C3.18525 20.9247 3.16636 20.4145 3.16636 16.1124C3.16636 11.804 3.18525 11.2938 3.26084 9.59941C3.33013 8.02471 3.59468 7.17437 3.81514 6.60747C4.10488 5.85791 4.45762 5.31621 5.01821 4.75562C5.58511 4.18872 6.12051 3.84229 6.87007 3.55254C7.43696 3.33208 8.2936 3.06753 9.86201 2.99824C11.5564 2.92266 12.0666 2.90376 16.375 2.90376ZM16.375 0C11.9973 0 11.4493 0.0188965 9.72974 0.0944824C8.01646 0.170068 6.83857 0.447217 5.81816 0.844043C4.75366 1.25977 3.85293 1.80776 2.9585 2.7085C2.05776 3.60293 1.50977 4.50366 1.09404 5.56187C0.697217 6.58858 0.420068 7.76016 0.344482 9.47344C0.268896 11.1993 0.25 11.7473 0.25 16.125C0.25 20.5027 0.268896 21.0507 0.344482 22.7703C0.420068 24.4835 0.697217 25.6614 1.09404 26.6818C1.50977 27.7463 2.05776 28.6471 2.9585 29.5415C3.85293 30.4359 4.75366 30.9902 5.81187 31.3997C6.83857 31.7965 8.01016 32.0736 9.72344 32.1492C11.443 32.2248 11.991 32.2437 16.3687 32.2437C20.7464 32.2437 21.2944 32.2248 23.014 32.1492C24.7272 32.0736 25.9051 31.7965 26.9255 31.3997C27.9837 30.9902 28.8845 30.4359 29.7789 29.5415C30.6733 28.6471 31.2276 27.7463 31.6371 26.6881C32.0339 25.6614 32.311 24.4898 32.3866 22.7766C32.4622 21.057 32.4811 20.509 32.4811 16.1313C32.4811 11.7536 32.4622 11.2056 32.3866 9.48604C32.311 7.77275 32.0339 6.59487 31.6371 5.57446C31.2402 4.50366 30.6922 3.60293 29.7915 2.7085C28.8971 1.81406 27.9963 1.25977 26.9381 0.850342C25.9114 0.453516 24.7398 0.176367 23.0266 0.100781C21.3007 0.0188965 20.7527 0 16.375 0Z" fill="#797E86"/>
<path d="M16.375 7.84204C11.8021 7.84204 8.09204 11.5521 8.09204 16.125C8.09204 20.6979 11.8021 24.408 16.375 24.408C20.9479 24.408 24.658 20.6979 24.658 16.125C24.658 11.5521 20.9479 7.84204 16.375 7.84204ZM16.375 21.4979C13.4083 21.4979 11.0021 19.0917 11.0021 16.125C11.0021 13.1583 13.4083 10.7521 16.375 10.7521C19.3417 10.7521 21.7479 13.1583 21.7479 16.125C21.7479 19.0917 19.3417 21.4979 16.375 21.4979Z" fill="#797E86"/>
<path d="M26.9192 7.51443C26.9192 8.58523 26.05 9.44818 24.9855 9.44818C23.9147 9.44818 23.0518 8.57894 23.0518 7.51443C23.0518 6.44363 23.921 5.58069 24.9855 5.58069C26.05 5.58069 26.9192 6.44993 26.9192 7.51443Z" fill="#797E86"/>
</g>
<defs>
<clipPath id="clip0_302_319">
<rect width="32.25" height="32.25" fill="white" transform="translate(0.25)"/>
</clipPath>
</defs>
</svg>
