<svg width="25" height="27" viewBox="0 0 25 27" fill="none" xmlns="http://www.w3.org/2000/svg">
<path fill-rule="evenodd" clip-rule="evenodd" d="M17.1761 19.7905H7.90717C7.37569 19.7905 6.94434 19.3591 6.94434 18.8276C6.94434 18.2962 7.37569 17.8648 7.90717 17.8648H17.1761C17.7076 17.8648 18.1389 18.2962 18.1389 18.8276C18.1389 19.3591 17.7076 19.7905 17.1761 19.7905Z" fill="black"/>
<path fill-rule="evenodd" clip-rule="evenodd" d="M17.1761 14.4162H7.90717C7.37569 14.4162 6.94434 13.9849 6.94434 13.4534C6.94434 12.9219 7.37569 12.4905 7.90717 12.4905H17.1761C17.7076 12.4905 18.1389 12.9219 18.1389 13.4534C18.1389 13.9849 17.7076 14.4162 17.1761 14.4162Z" fill="black"/>
<path fill-rule="evenodd" clip-rule="evenodd" d="M11.443 9.05385H7.9062C7.37471 9.05385 6.94336 8.6225 6.94336 8.09101C6.94336 7.55953 7.37471 7.12817 7.9062 7.12817H11.443C11.9745 7.12817 12.4059 7.55953 12.4059 8.09101C12.4059 8.6225 11.9745 9.05385 11.443 9.05385Z" fill="black"/>
<mask id="mask0_156_860" style="mask-type:luminance" maskUnits="userSpaceOnUse" x="0" y="0" width="25" height="27">
<path fill-rule="evenodd" clip-rule="evenodd" d="M0.851562 0.567886H24.1711V26.1278H0.851562V0.567886Z" fill="white"/>
</mask>
<g mask="url(#mask0_156_860)">
<path fill-rule="evenodd" clip-rule="evenodd" d="M17.4237 2.4933L7.5527 2.49844C4.56405 2.51641 2.77703 4.36506 2.77703 7.44486V19.2505C2.77703 22.3509 4.58074 24.2021 7.59892 24.2021L17.4699 24.1982C20.4586 24.1803 22.2456 22.329 22.2456 19.2505V7.44486C22.2456 4.34452 20.4432 2.4933 17.4237 2.4933ZM7.60041 26.1278C3.5642 26.1278 0.851562 23.3638 0.851562 19.2506V7.44492C0.851562 3.29444 3.47947 0.597215 7.54649 0.572823L17.4226 0.567688H17.4239C21.4601 0.567688 24.1715 3.33167 24.1715 7.44492V19.2506C24.1715 23.3998 21.5436 26.0983 17.4766 26.124L7.60041 26.1278Z" fill="black"/>
</g>
</svg>
