<svg width="21" height="26" viewBox="0 0 21 26" fill="none" xmlns="http://www.w3.org/2000/svg">
<path d="M18.0077 17.5405V17.582L18.037 17.6112L20.5753 20.1495V21.2919H0.234766V20.1495L2.77304 17.6112L2.80233 17.582V17.5405V11.1216C2.80233 7.20263 4.88603 3.96525 8.50249 3.10539L8.57936 3.08712V3.00811V2.13513C8.57936 1.12482 9.39472 0.309457 10.405 0.309457C11.4153 0.309457 12.2307 1.12482 12.2307 2.13513V3.00811V3.08718L12.3077 3.10541C15.9367 3.96524 18.0077 7.21518 18.0077 11.1216V17.5405ZM15.5402 18.9243H15.6402V18.8243V11.1216C15.6402 9.51011 15.1496 8.04182 14.2477 6.97464C13.3445 5.90585 12.0328 5.24459 10.405 5.24459C8.77732 5.24459 7.46558 5.90585 6.56236 6.97464C5.66049 8.04182 5.1699 9.51011 5.1699 11.1216V18.8243V18.9243H5.2699H15.5402ZM12.8706 22.7757C12.8176 24.0867 11.7285 25.1432 10.405 25.1432C9.08159 25.1432 7.99244 24.0867 7.93948 22.7757H12.8706Z" fill="#051B26" stroke="#FCF6F2" stroke-width="0.2"/>
</svg>
