<svg width="34" height="33" viewBox="0 0 34 33" fill="none" xmlns="http://www.w3.org/2000/svg">
<path d="M30.7443 -0.000488281H3.25568C2.62428 -0.000488281 2.01875 0.250333 1.57228 0.696796C1.12582 1.14326 0.875 1.74879 0.875 2.38019V29.8688C0.875 30.5002 1.12582 31.1058 1.57228 31.5522C2.01875 31.9987 2.62428 32.2495 3.25568 32.2495H30.7443C31.3757 32.2495 31.9813 31.9987 32.4277 31.5522C32.8742 31.1058 33.125 30.5002 33.125 29.8688V2.38019C33.125 1.74879 32.8742 1.14326 32.4277 0.696796C31.9813 0.250333 31.3757 -0.000488281 30.7443 -0.000488281ZM10.4873 27.4725H5.63859V12.0709H10.4873V27.4725ZM8.05958 9.93654C7.50958 9.93345 6.97282 9.76749 6.51705 9.45963C6.06127 9.15177 5.70691 8.71579 5.49868 8.20672C5.29045 7.69765 5.23768 7.13831 5.34704 6.59928C5.4564 6.06025 5.72298 5.5657 6.11315 5.17803C6.50331 4.79037 6.99956 4.52696 7.53928 4.42107C8.079 4.31517 8.638 4.37153 9.14572 4.58302C9.65344 4.79452 10.0871 5.15167 10.3921 5.60942C10.697 6.06716 10.8595 6.60497 10.8591 7.15498C10.8643 7.52321 10.7952 7.88872 10.6562 8.22972C10.5171 8.57071 10.3108 8.88022 10.0495 9.13979C9.78831 9.39936 9.47748 9.60367 9.1356 9.74056C8.79372 9.87744 8.42777 9.9441 8.05958 9.93654ZM28.3592 27.4859H23.5127V19.0718C23.5127 16.5903 22.4579 15.8244 21.0962 15.8244C19.6584 15.8244 18.2474 16.9084 18.2474 19.1345V27.4859H13.3987V12.0821H18.0616V14.2164H18.1243C18.5923 13.269 20.2317 11.6498 22.7333 11.6498C25.4388 11.6498 28.3614 13.2556 28.3614 17.9587L28.3592 27.4859Z" fill="#797E86"/>
</svg>
