<svg width="33" height="33" viewBox="0 0 33 33" fill="none" xmlns="http://www.w3.org/2000/svg">
<path d="M16.375 2.90327C20.6834 2.90327 21.1936 2.92217 22.888 2.99775C24.4627 3.06704 25.313 3.33159 25.8799 3.55205C26.6295 3.8418 27.1712 4.19453 27.7318 4.75513C28.2987 5.32202 28.6451 5.85742 28.9349 6.60698C29.1553 7.17388 29.4199 8.03052 29.4892 9.59893C29.5647 11.2996 29.5836 11.8098 29.5836 16.1119C29.5836 20.4203 29.5647 20.9305 29.4892 22.6249C29.4199 24.1996 29.1553 25.05 28.9349 25.6168C28.6451 26.3664 28.2924 26.9081 27.7318 27.4687C27.1649 28.0356 26.6295 28.382 25.8799 28.6718C25.313 28.8922 24.4564 29.1568 22.888 29.2261C21.1873 29.3017 20.6771 29.3206 16.375 29.3206C12.0666 29.3206 11.5564 29.3017 9.86201 29.2261C8.28731 29.1568 7.43696 28.8922 6.87007 28.6718C6.12051 28.382 5.57881 28.0293 5.01821 27.4687C4.45132 26.9018 4.10488 26.3664 3.81514 25.6168C3.59468 25.05 3.33013 24.1933 3.26084 22.6249C3.18525 20.9242 3.16636 20.414 3.16636 16.1119C3.16636 11.8035 3.18525 11.2933 3.26084 9.59893C3.33013 8.02422 3.59468 7.17388 3.81514 6.60698C4.10488 5.85742 4.45762 5.31572 5.01821 4.75513C5.58511 4.18823 6.12051 3.8418 6.87007 3.55205C7.43696 3.33159 8.2936 3.06704 9.86201 2.99775C11.5564 2.92217 12.0666 2.90327 16.375 2.90327ZM16.375 -0.000488281C11.9973 -0.000488281 11.4493 0.0184082 9.72974 0.0939941C8.01646 0.16958 6.83857 0.446728 5.81816 0.843555C4.75366 1.25928 3.85293 1.80728 2.9585 2.70801C2.05776 3.60244 1.50977 4.50317 1.09404 5.56138C0.697217 6.58809 0.420068 7.75967 0.344482 9.47295C0.268896 11.1988 0.25 11.7468 0.25 16.1245C0.25 20.5022 0.268896 21.0502 0.344482 22.7698C0.420068 24.4831 0.697217 25.6609 1.09404 26.6814C1.50977 27.7459 2.05776 28.6466 2.9585 29.541C3.85293 30.4355 4.75366 30.9897 5.81187 31.3992C6.83857 31.796 8.01016 32.0731 9.72344 32.1487C11.443 32.2243 11.991 32.2432 16.3687 32.2432C20.7464 32.2432 21.2944 32.2243 23.014 32.1487C24.7272 32.0731 25.9051 31.796 26.9255 31.3992C27.9837 30.9897 28.8845 30.4355 29.7789 29.541C30.6733 28.6466 31.2276 27.7459 31.6371 26.6877C32.0339 25.6609 32.311 24.4894 32.3866 22.7761C32.4622 21.0565 32.4811 20.5085 32.4811 16.1308C32.4811 11.7531 32.4622 11.2051 32.3866 9.48555C32.311 7.77227 32.0339 6.59439 31.6371 5.57398C31.2402 4.50317 30.6922 3.60244 29.7915 2.70801C28.8971 1.81357 27.9963 1.25928 26.9381 0.849854C25.9114 0.453027 24.7398 0.175879 23.0266 0.100293C21.3007 0.0184082 20.7527 -0.000488281 16.375 -0.000488281Z" fill="#797E86"/>
<path d="M16.3748 7.84155C11.8018 7.84155 8.0918 11.5516 8.0918 16.1245C8.0918 20.6975 11.8018 24.4075 16.3748 24.4075C20.9477 24.4075 24.6577 20.6975 24.6577 16.1245C24.6577 11.5516 20.9477 7.84155 16.3748 7.84155ZM16.3748 21.4974C13.408 21.4974 11.0019 19.0913 11.0019 16.1245C11.0019 13.1578 13.408 10.7516 16.3748 10.7516C19.3415 10.7516 21.7477 13.1578 21.7477 16.1245C21.7477 19.0913 19.3415 21.4974 16.3748 21.4974Z" fill="#797E86"/>
<path d="M26.9192 7.51407C26.9192 8.58487 26.05 9.44781 24.9855 9.44781C23.9147 9.44781 23.0518 8.57857 23.0518 7.51407C23.0518 6.44326 23.921 5.58032 24.9855 5.58032C26.05 5.58032 26.9192 6.44956 26.9192 7.51407Z" fill="#797E86"/>
</svg>
