<svg width="33" height="33" viewBox="0 0 33 33" fill="none" xmlns="http://www.w3.org/2000/svg">
<path d="M16.875 -0.000488281C7.96975 -0.000488281 0.75 7.21926 0.75 16.1245C0.75 22.9594 4.99691 28.7989 10.9957 31.148C10.8497 29.8739 10.7302 27.9097 11.0488 26.5162C11.3407 25.2554 12.9333 18.5001 12.9333 18.5001C12.9333 18.5001 12.4556 17.5313 12.4556 16.1112C12.4556 13.8683 13.7562 12.1961 15.3753 12.1961C16.7556 12.1961 17.4191 13.2313 17.4191 14.4656C17.4191 15.8458 16.5432 17.9162 16.0787 19.8406C15.6938 21.4464 16.8883 22.7603 18.4676 22.7603C21.3343 22.7603 23.5373 19.7344 23.5373 15.3813C23.5373 11.5193 20.7636 8.82513 16.7954 8.82513C12.2034 8.82513 9.50926 12.2625 9.50926 15.8193C9.50926 17.1995 10.0401 18.6859 10.7037 19.4955C10.8364 19.6548 10.8497 19.8007 10.8099 19.96C10.6904 20.4643 10.4117 21.5659 10.3586 21.7915C10.2923 22.0835 10.1198 22.1498 9.81451 22.0038C7.79722 21.0616 6.53642 18.1285 6.53642 15.7529C6.53642 10.6699 10.2259 5.99828 17.1935 5.99828C22.7809 5.99828 27.134 9.97976 27.134 15.3149C27.134 20.8757 23.6302 25.3483 18.7728 25.3483C17.1404 25.3483 15.6009 24.4989 15.0833 23.4903C15.0833 23.4903 14.2738 26.5693 14.0747 27.3257C13.7164 28.7325 12.7343 30.4844 12.0707 31.5594C13.5836 32.0239 15.1762 32.2761 16.8485 32.2761C25.7537 32.2761 32.9735 25.0563 32.9735 16.1511C33 7.21926 25.7802 -0.000488281 16.875 -0.000488281Z" fill="#797E86"/>
</svg>
