<svg width="30" height="30" viewBox="0 0 18 18" fill="none" xmlns="http://www.w3.org/2000/svg">
<path d="M12.6647 11.4167H11.9076L11.6393 11.1579C12.5785 10.0654 13.1439 8.64708 13.1439 7.10417C13.1439 3.66375 10.3551 0.875 6.91471 0.875C3.4743 0.875 0.685547 3.66375 0.685547 7.10417C0.685547 10.5446 3.4743 13.3333 6.91471 13.3333C8.45763 13.3333 9.87596 12.7679 10.9685 11.8287L11.2272 12.0971V12.8542L16.0189 17.6362L17.4468 16.2083L12.6647 11.4167ZM6.91471 11.4167C4.52846 11.4167 2.60221 9.49042 2.60221 7.10417C2.60221 4.71792 4.52846 2.79167 6.91471 2.79167C9.30096 2.79167 11.2272 4.71792 11.2272 7.10417C11.2272 9.49042 9.30096 11.4167 6.91471 11.4167Z" fill="#232537"/>
</svg>
