<svg width="66" height="62" viewBox="0 0 66 62" fill="none" xmlns="http://www.w3.org/2000/svg">
<path d="M1.31561 0C1.58625 0 2.17908 0.146621 2.63015 0.335135C3.06833 0.523648 3.63539 0.816893 3.88026 1.00541C4.12513 1.17297 4.56331 1.57095 4.84684 1.88514C5.13037 2.19932 5.87785 3.18378 6.52224 4.08446C7.16663 4.98514 8.00433 5.96959 8.39096 6.26284C8.98379 6.72365 9.2931 6.80743 10.2597 6.80743C11.2649 6.80743 11.5227 6.72365 12.1284 6.24189C12.515 5.9277 13.3012 5.00608 13.8682 4.18919C14.4353 3.3723 15.2472 2.325 15.6725 1.86419C16.0978 1.40338 16.8195 0.837838 17.2835 0.586487C17.7474 0.356082 18.5336 0.125676 19.0233 0.0628385C19.7064 -0.0209453 20.1703 0.0628382 20.9565 0.397973C21.5235 0.670271 22.271 1.11014 22.619 1.42432C22.967 1.73851 23.8433 2.8277 24.5521 3.83311C25.2739 4.83851 26.176 5.9277 26.5626 6.24189C27.1684 6.72365 27.4261 6.80743 28.4313 6.80743C29.3979 6.80743 29.7072 6.72365 30.3001 6.26284C30.6867 5.96959 31.5373 4.98514 32.1688 4.08446C32.8003 3.18378 33.6251 2.13649 33.9731 1.75946C34.3339 1.38243 34.9912 0.858784 35.4552 0.607433C35.9191 0.356081 36.731 0.104729 37.2594 0.0418913C38.0198 -0.0209466 38.4322 0.0628378 39.1926 0.418919C39.721 0.67027 40.4169 1.11013 40.7391 1.38243C41.0613 1.63378 41.6155 2.26216 41.9763 2.76486C42.3501 3.26757 43.0202 4.16824 43.4584 4.79662C43.9095 5.425 44.541 6.11622 44.8632 6.34662C45.1854 6.57703 45.8169 6.80743 46.2808 6.87027C46.9123 6.95405 47.3376 6.87027 48.0207 6.53513C48.6908 6.2 49.129 5.82297 49.6961 5.02703C50.1214 4.46149 50.8431 3.47703 51.307 2.84865C51.771 2.24122 52.4025 1.50811 52.7247 1.25676C53.0469 0.984459 53.6913 0.607433 54.181 0.397973C54.6578 0.167568 55.3667 0 55.7533 0C56.1399 0 56.823 0.146621 57.274 0.335135C57.7122 0.523648 58.3051 0.858784 58.5886 1.0473C58.8721 1.25676 59.4005 1.78041 59.7614 2.22027C60.1351 2.68108 60.8568 3.64459 61.3723 4.3777C61.9007 5.13176 62.6224 5.94865 62.9704 6.22095C63.3313 6.4723 64.0143 6.78649 64.5169 6.89121C65.2515 7.03784 65.4706 7.16351 65.7155 7.62432C65.8701 7.91757 65.999 8.35743 65.999 8.58784C65.999 8.81824 65.9217 9.25811 65.8186 9.5723C65.7284 9.90743 65.548 10.2216 65.432 10.3054C65.316 10.4101 64.9165 10.473 64.5556 10.473C64.1819 10.473 63.5246 10.3264 63.0993 10.1378C62.674 9.97027 62.0038 9.5304 61.6172 9.19527C61.2306 8.86013 60.3542 7.79189 59.684 6.80743C59.0139 5.84392 58.1375 4.79662 57.7509 4.46149C57.1194 3.93784 56.9003 3.875 55.8177 3.875C54.7609 3.875 54.4903 3.95879 53.8846 4.4196C53.4979 4.71284 52.686 5.67635 52.0803 6.53513C51.4746 7.37297 50.7013 8.39932 50.3405 8.7973C49.9925 9.19527 49.3739 9.69797 48.9872 9.92838C48.4073 10.2845 47.9691 10.3682 46.6675 10.3682C45.3658 10.3682 44.9276 10.2845 44.3477 9.92838C43.961 9.69797 43.3553 9.19527 42.9945 8.7973C42.6465 8.39932 41.8603 7.39392 41.2546 6.51419C40.6489 5.65541 39.837 4.71284 39.4503 4.4196C38.8446 3.95879 38.5611 3.875 37.5172 3.875C36.4346 3.875 36.2155 3.93784 35.584 4.46149C35.1974 4.79662 34.321 5.84392 33.6509 6.82838C32.9807 7.79189 32.0528 8.90203 31.5888 9.3C31.1249 9.67703 30.4032 10.1169 29.9779 10.2635C29.501 10.4311 28.7278 10.4939 27.9803 10.4311C27.1641 10.3613 26.5197 10.1727 26.0471 9.86554C25.6605 9.61419 25.0548 9.11149 24.6939 8.71351C24.3459 8.31554 23.5856 7.33108 23.0185 6.51419C22.4515 5.67635 21.6653 4.75473 21.2787 4.44054C20.6601 3.93784 20.4152 3.875 19.3455 3.875C18.2758 3.875 18.031 3.93784 17.4124 4.44054C17.0257 4.75473 16.2396 5.67635 15.6725 6.51419C15.1055 7.33108 14.2935 8.37838 13.8682 8.81824C13.4429 9.27905 12.8114 9.8027 12.4506 10.0122C11.9737 10.2845 11.3938 10.3682 10.1952 10.3682C8.85492 10.3473 8.46828 10.2635 7.87545 9.88649C7.48882 9.63513 6.90887 9.15338 6.58668 8.81824C6.26449 8.48311 5.517 7.49865 4.91128 6.61892C4.30555 5.73919 3.53229 4.79662 3.17144 4.50338C2.77192 4.16824 2.15331 3.89595 1.56047 3.79122C0.748546 3.64459 0.542343 3.51892 0.310364 3.05811C0.142824 2.76486 0.0139467 2.22027 0.00105899 1.86419C-0.0118287 1.38243 0.0912729 1.0473 0.400578 0.607433C0.709883 0.146622 0.941862 0 1.31561 0ZM1.23828 17.1966C1.38004 17.1757 1.86978 17.2804 2.33373 17.3851C2.79769 17.5108 3.57095 17.9297 4.07358 18.3277C4.5762 18.7257 5.46545 19.7311 6.05828 20.5689C6.65112 21.4068 7.34705 22.3493 7.60481 22.6635C7.86256 22.9777 8.36518 23.3966 8.71315 23.6061C9.11267 23.8155 9.73128 23.9622 10.3241 23.9622C11.136 23.9622 11.4325 23.8574 12.1284 23.3128C12.5924 22.9568 13.3398 22.1189 13.8038 21.4486C14.2678 20.7574 14.8735 19.9196 15.157 19.5426C15.4405 19.1865 16.0463 18.6 16.5102 18.2439C16.9999 17.8669 17.7732 17.5108 18.366 17.3642C19.1006 17.1966 19.629 17.1757 20.2992 17.3432C21.0209 17.5318 21.2787 17.6993 21.4978 18.1182C21.6653 18.4115 21.7942 18.9142 21.7942 19.2703C21.7942 19.6264 21.6653 20.1291 21.4978 20.4432C21.2271 20.9669 21.1627 20.9878 19.6033 21.0297C18.2243 21.0507 17.915 21.1345 17.4124 21.5324C17.0902 21.7838 16.2267 22.852 15.4792 23.8784C14.693 24.9885 13.7522 26.0777 13.2238 26.4966C12.7341 26.8946 11.9737 27.3345 11.5484 27.4601C11.1232 27.5858 10.3112 27.6486 9.74417 27.5858C9.17711 27.523 8.39096 27.3135 8.00433 27.0831C7.6177 26.8527 6.97331 26.3291 6.58668 25.9101C6.20005 25.4912 5.4139 24.4858 4.84684 23.6689C4.27978 22.852 3.54518 21.9513 3.19721 21.6581C2.86213 21.3858 2.20486 21.0716 1.71512 20.9669C1.23828 20.8831 0.722771 20.6946 0.555231 20.548C0.400578 20.4223 0.207262 20.1291 0.142824 19.8986C0.0654975 19.6682 0.0139467 19.2703 0.0139467 19.0189C0.0139467 18.7466 0.104161 18.3277 0.22015 18.0554C0.336139 17.7831 0.555231 17.4899 0.709883 17.3851C0.851648 17.2804 1.09651 17.1966 1.23828 17.1966ZM37.9038 17.2804C38.4322 17.3223 39.2441 17.5527 39.7081 17.7831C40.1721 18.0135 40.8938 18.6 41.3191 19.0818C41.7444 19.5635 42.5563 20.6318 43.1233 21.4277C43.6904 22.2446 44.4765 23.1453 44.8632 23.4385C45.4431 23.8574 45.7653 23.9622 46.6675 23.9622C47.5696 23.9622 47.8918 23.8574 48.4717 23.4385C48.8584 23.1453 49.6059 22.3074 50.1214 21.5534C50.6498 20.8203 51.4617 19.752 51.9256 19.2074C52.4025 18.6628 53.1371 18.0345 53.5624 17.8041C53.9877 17.5946 54.6836 17.3642 55.1089 17.2804C55.5471 17.1966 56.3075 17.2385 56.8487 17.3642C57.4416 17.5108 58.1633 17.8669 58.7175 18.3068C59.2716 18.7676 60.1351 19.752 60.9728 20.9459C61.7203 21.9932 62.558 23.0405 62.8415 23.25C63.1251 23.4804 63.7308 23.7736 64.1947 23.8784C64.6587 24.0041 65.1613 24.1507 65.3289 24.2135C65.4835 24.2554 65.7026 24.5696 65.8057 24.9257C65.9088 25.2818 65.999 25.7426 65.999 25.973C65.999 26.2034 65.8057 26.6851 65.5737 27.0622C65.1742 27.7115 65.1484 27.7324 64.2592 27.6068C63.7566 27.5439 63.0349 27.2926 62.6482 27.0831C62.2616 26.8527 61.6172 26.3291 61.2306 25.9101C60.8439 25.4912 60.0578 24.4858 59.4907 23.6689C58.9237 22.852 58.1633 21.9304 57.8153 21.6162C57.2354 21.1135 57.0421 21.0507 55.8177 21.0507C54.5934 21.0507 54.4001 21.1135 53.7557 21.6372C53.3691 21.9514 52.5185 22.9568 51.887 23.8993C51.2555 24.8209 50.3791 25.9101 49.9538 26.2872C49.5285 26.6851 48.781 27.1459 48.2784 27.3554C47.6469 27.5858 47.0541 27.6696 46.2808 27.5858C45.6751 27.523 44.889 27.3345 44.541 27.1669C44.1801 26.9784 43.4584 26.35 42.93 25.7635C42.4016 25.177 41.4995 24.0459 40.9324 23.2291C40.2494 22.2655 39.6565 21.6162 39.1926 21.323C38.6126 20.9878 38.2647 20.925 37.3239 20.9878C36.396 21.0716 36.0351 21.1763 35.5196 21.6162C35.1587 21.9304 34.4112 22.852 33.8442 23.6689C33.2771 24.4858 32.491 25.4912 32.1043 25.9101C31.7177 26.3291 31.0733 26.8736 30.6867 27.1041C30.1196 27.4392 29.6686 27.523 28.4313 27.523C27.1684 27.523 26.7559 27.4392 26.176 27.0622C25.7894 26.8318 25.1192 26.2453 24.6939 25.7845C24.2686 25.3236 23.5856 24.4439 23.1861 23.8365C22.5159 22.8311 22.4386 22.6426 22.4386 21.8885C22.4386 21.302 22.5288 20.9041 22.735 20.5689C22.9283 20.2338 23.1603 20.1081 23.4954 20.1081C23.9078 20.1081 24.114 20.2966 24.8486 21.3858C25.3383 22.098 26.0987 22.9568 26.5626 23.3128C27.2586 23.8574 27.555 23.9622 28.3669 23.9622C28.9597 23.9622 29.5784 23.8155 29.9779 23.6061C30.3258 23.3966 30.8285 22.9777 31.0862 22.6635C31.344 22.3493 32.0399 21.4068 32.6327 20.5689C33.2256 19.7311 34.1148 18.7257 34.6174 18.3277C35.1201 17.9297 35.8418 17.5108 36.2284 17.4061C36.615 17.2804 37.3754 17.2385 37.9038 17.2804ZM1.72801 34.4142C2.24352 34.477 2.97812 34.7074 3.36475 34.9169C3.75138 35.1473 4.39577 35.6709 4.7824 36.0899C5.16903 36.5088 5.95518 37.5142 6.52224 38.352C7.0893 39.1689 7.87545 40.0905 8.26208 40.3838C8.81625 40.8236 9.21577 40.9493 10.0664 41.0122C10.9298 41.075 11.3165 40.9912 11.8706 40.6561C12.3346 40.3838 12.9274 39.7345 13.6105 38.7709C14.1775 37.9541 15.0797 36.823 15.6081 36.2365C16.1365 35.65 16.8711 35.0216 17.219 34.8331C17.5799 34.6655 18.3532 34.477 18.9589 34.4142C19.7321 34.3304 20.3121 34.4142 20.9565 34.6655C21.4591 34.8541 22.1808 35.273 22.5674 35.6291C22.9541 35.9642 23.8304 37.0324 24.5006 38.0169C25.1708 39.0014 26.0471 40.0486 26.4338 40.3628C27.0781 40.8865 27.2715 40.9493 28.4958 40.9493C29.733 40.9493 29.9005 40.9074 30.4934 40.3628C30.8542 40.0486 31.6017 39.127 32.1688 38.3101C32.7358 37.4932 33.522 36.4878 33.9086 36.0689C34.2953 35.6709 34.9396 35.1473 35.3263 34.9169C35.7129 34.6865 36.4991 34.477 37.0661 34.4142C37.6332 34.3513 38.4451 34.4142 38.8704 34.5399C39.2957 34.6655 40.0432 35.1054 40.5458 35.5034C41.0742 35.9223 42.015 37.0115 42.8011 38.1216C43.5486 39.148 44.4121 40.2162 44.7343 40.4676C45.2498 40.8865 45.5076 40.9493 47.0283 40.9493C48.7166 40.9493 48.7553 40.9703 49.0001 41.473C49.1419 41.7662 49.2579 42.248 49.245 42.5831C49.245 42.8973 49.1935 43.3372 49.1161 43.5676C49.0388 43.798 48.7939 44.1122 48.5748 44.2797C48.3429 44.4473 47.7758 44.6358 47.3118 44.7196C46.8479 44.8034 46.0746 44.7615 45.572 44.6149C45.0694 44.4892 44.2961 44.0912 43.8322 43.7561C43.3682 43.4 42.7625 42.8135 42.479 42.4574C42.1954 42.0804 41.5897 41.2426 41.1257 40.5723C40.6618 39.902 40.0045 39.1061 39.6437 38.8128C39.2957 38.5196 38.6513 38.2054 38.226 38.0797C37.7234 37.975 37.2079 37.975 36.7439 38.1216C36.3573 38.2473 35.8031 38.5196 35.5196 38.75C35.2361 38.9595 34.3984 40.0068 33.6509 41.0541C32.8132 42.248 31.9497 43.2324 31.3955 43.6932C30.88 44.0912 30.1068 44.4892 29.5912 44.6358C29.0886 44.7615 28.3154 44.7824 27.8514 44.7196C27.3874 44.6358 26.6657 44.4054 26.2404 44.175C25.8151 43.9655 25.0805 43.3581 24.6037 42.7926C24.1397 42.248 23.3278 41.1797 22.7994 40.4466C22.2839 39.6926 21.5364 38.8547 21.1498 38.5615C20.5698 38.1426 20.2348 38.0378 19.3455 38.0378C18.4563 38.0378 18.1212 38.1426 17.5412 38.5615C17.1546 38.8547 16.3685 39.7554 15.8014 40.5723C15.2343 41.3682 14.4224 42.4365 13.9971 42.9182C13.5718 43.4 12.8759 43.9655 12.4506 44.1959C12.0253 44.4054 11.3294 44.6358 10.9041 44.7196C10.4659 44.8034 9.7055 44.7615 9.16422 44.6358C8.5585 44.4892 7.86256 44.1331 7.2955 43.6723C6.75422 43.2534 5.85208 42.2061 5.04015 41.0541C4.29267 40.0068 3.45497 38.9595 3.17144 38.75C2.88791 38.5196 2.28218 38.2263 1.81823 38.1216C1.35427 37.9959 0.851648 37.8493 0.696995 37.7865C0.529455 37.7446 0.310364 37.4095 0.207262 37.0743C0.104161 36.7392 0.0139467 36.2574 0.0268344 36.0061C0.0268344 35.7757 0.207262 35.2939 0.426353 34.9378C0.800097 34.3095 0.83876 34.2885 1.72801 34.4142ZM56.0755 34.4351C56.9132 34.477 57.5447 34.6446 58.0731 34.9588C58.4984 35.2101 59.1299 35.7338 59.4907 36.1108C59.8387 36.5088 60.5991 37.4932 61.1661 38.3311C61.7332 39.148 62.4807 40.0696 62.8415 40.3628C63.2411 40.698 63.8468 40.9493 64.4525 41.0541C65.2515 41.2007 65.4706 41.3263 65.7026 41.7662C65.8701 42.0595 65.999 42.5622 65.999 42.8973C66.0119 43.2115 65.8959 43.7142 65.7413 44.0493C65.5866 44.3845 65.316 44.6568 65.0582 44.7405C64.8391 44.8034 64.2463 44.7405 63.7437 44.6149C63.2153 44.4892 62.4678 44.0912 61.9394 43.6723C61.4368 43.2743 60.5475 42.2689 59.9547 41.4311C59.3619 40.5932 58.6659 39.6507 58.4082 39.3365C58.1504 39.0223 57.6478 38.6034 57.2998 38.3939C56.8874 38.1635 56.2946 38.0378 55.6889 38.0588C54.9671 38.0588 54.5418 38.1845 54.0135 38.5615C53.6268 38.8338 52.9309 39.5669 52.4669 40.1743C51.7968 41.0541 51.539 41.2845 51.1782 41.2635C50.8946 41.2635 50.624 41.075 50.4307 40.7818C50.2245 40.4676 50.1471 40.0905 50.1471 39.5459C50.1471 38.8757 50.2374 38.6034 50.7529 37.8074C51.1008 37.3047 51.6035 36.6135 51.887 36.2993C52.1705 35.9851 52.686 35.5243 53.0469 35.252C53.3948 35.0007 53.949 34.6865 54.2712 34.5818C54.5934 34.4561 55.4053 34.3932 56.0755 34.4351ZM1.43159 51.548C1.81823 51.527 2.48839 51.6736 2.91368 51.8622C3.33898 52.0297 4.00914 52.4696 4.39577 52.8047C4.7824 53.1399 5.71031 54.2919 6.4578 55.3392C7.20529 56.3865 7.88834 57.4757 7.99144 57.7899C8.14609 58.2507 8.14609 58.4392 7.99144 59.0466C7.88834 59.4655 7.64347 59.9054 7.42438 60.073C7.11507 60.3243 6.96042 60.3453 6.65112 60.1358C6.43203 60.0101 5.73609 59.1513 5.10459 58.2297C4.46021 57.3081 3.59673 56.2608 3.17144 55.9257C2.69459 55.5277 2.06309 55.2345 1.49603 55.1088C0.761434 54.9622 0.542343 54.8365 0.297476 54.3757C0.142824 54.0824 0.0139467 53.6426 0.0139467 53.4122C0.0139467 53.1818 0.104161 52.7209 0.207262 52.3858C0.310364 52.0507 0.477904 51.7365 0.568118 51.6736C0.645445 51.6108 1.04496 51.548 1.43159 51.548ZM19.5388 51.6108C20.557 51.6527 21.1627 51.7784 21.6653 52.0716C22.0519 52.302 22.6577 52.8047 23.0185 53.2027C23.3665 53.6007 24.1526 54.627 24.7584 55.4649C25.3641 56.3236 26.176 57.2872 26.5626 57.5804C27.1684 58.0412 27.439 58.125 28.4958 58.125C29.5784 58.125 29.7974 58.0622 30.4289 57.5385C30.8156 57.2034 31.6919 56.1561 32.3621 55.1716C33.0323 54.2081 33.9602 53.098 34.4241 52.7C34.8881 52.323 35.6098 51.8831 36.0351 51.7365C36.5119 51.5689 37.2852 51.5061 38.0327 51.5689C38.8489 51.6387 39.4933 51.8273 39.9658 52.1345C40.3525 52.3858 40.9582 52.8885 41.3191 53.2865C41.667 53.6845 42.4274 54.6689 42.9945 55.4858C43.5615 56.3236 44.3477 57.2453 44.7343 57.5595C45.3529 58.0622 45.5978 58.125 46.6675 58.125C47.7371 58.125 47.982 58.0622 48.6006 57.5595C48.9872 57.2453 49.7734 56.3236 50.3405 55.4858C50.9075 54.6689 51.655 53.6845 52.0159 53.2865C52.3638 52.8885 52.9824 52.3858 53.3691 52.1345C53.8416 51.8273 54.486 51.6387 55.3022 51.5689C56.0497 51.5061 56.823 51.5689 57.2998 51.7365C57.7251 51.8831 58.4468 52.323 58.9108 52.7C59.3747 53.098 60.3027 54.2081 60.9728 55.1716C61.643 56.1561 62.4807 57.1824 62.8415 57.4966C63.2411 57.8318 63.8468 58.0831 64.4525 58.2088C65.2644 58.3554 65.4706 58.4811 65.7026 58.9419C65.8701 59.2351 65.999 59.7588 65.999 60.1149C65.999 60.5338 65.8701 60.9527 65.6124 61.3716C65.316 61.8534 65.1098 62 64.7103 62C64.4267 62 63.8339 61.8534 63.3828 61.6649C62.9446 61.4763 62.3776 61.1831 62.1327 60.9946C61.8878 60.827 61.4497 60.4291 61.1661 60.1149C60.8826 59.8007 60.1222 58.8162 59.4907 57.9155C58.8592 57.0149 58.0086 56.0304 57.622 55.7372C57.0292 55.2764 56.7328 55.1926 55.7533 55.1926C54.7609 55.1926 54.4903 55.2764 53.8846 55.7581C53.4979 56.0723 52.7118 56.9939 52.1447 57.8108C51.5777 58.6277 50.7658 59.675 50.3405 60.1358C49.9152 60.5966 49.1677 61.1831 48.6651 61.4345C48.0336 61.7486 47.4278 61.8953 46.6675 61.8953C45.9071 61.8953 45.3014 61.7486 44.6699 61.4345C44.1672 61.1831 43.4198 60.5966 42.9945 60.1358C42.5692 59.675 41.7572 58.6277 41.1902 57.8108C40.6231 56.9939 39.837 56.0723 39.4503 55.7581C38.8446 55.2764 38.574 55.1926 37.5816 55.1926C36.6022 55.1926 36.3057 55.2764 35.7129 55.7372C35.3263 56.0304 34.5788 56.8682 34.0504 57.6223C33.5349 58.3554 32.8132 59.3189 32.4394 59.7797C32.0786 60.2196 31.5502 60.7432 31.2666 60.9527C30.9831 61.1412 30.3903 61.4763 29.9392 61.6649C29.501 61.8534 28.8051 62 28.3927 62C27.9803 62 27.207 61.7696 26.6271 61.4763C26.06 61.2041 25.2481 60.5966 24.8228 60.1568C24.3975 59.6959 23.5856 58.6696 23.0185 57.8318C22.4515 57.0149 21.6653 56.0723 21.2787 55.7581C20.6601 55.2554 20.4281 55.1926 19.3455 55.1926C18.3918 55.1926 17.9923 55.2973 17.5412 55.6324C17.219 55.8628 16.5875 56.575 16.1365 57.2034C15.6983 57.8318 15.0281 58.7324 14.6544 59.2351C14.2935 59.7378 13.7394 60.3662 13.4172 60.6176C13.095 60.8899 12.4248 61.3088 11.9351 61.5601C11.4453 61.7905 10.7881 62 10.4788 62C10.0406 62 9.86016 61.8743 9.55085 61.3716C9.2931 60.9527 9.16422 60.5338 9.16422 60.1149C9.16422 59.7797 9.21577 59.3189 9.28021 59.1304C9.33176 58.9209 9.55085 58.6486 9.75706 58.502C9.96326 58.3763 10.453 58.2088 10.8396 58.1459C11.2263 58.0622 11.832 57.7899 12.1928 57.5385C12.5408 57.2662 13.327 56.3446 13.9327 55.4858C14.5384 54.6061 15.2859 53.6216 15.6081 53.2655C15.9303 52.9095 16.3556 52.4905 16.5747 52.3649C16.7937 52.2182 17.219 51.9878 17.5412 51.8203C17.915 51.6527 18.6238 51.5689 19.5388 51.6108Z" fill="#B2B8BD"/>
</svg>
