<svg width="69" height="69" viewBox="0 0 69 69" fill="none" xmlns="http://www.w3.org/2000/svg">
<path fill-rule="evenodd" clip-rule="evenodd" d="M45.1891 0.00128412C45.8769 -0.0121948 46.6727 0.0821578 47.1312 0.203468C47.5628 0.324779 48.3316 0.648273 48.8576 0.917852C49.451 1.22787 50.1119 1.72659 50.6648 2.27923C51.2853 2.91274 51.6764 3.46537 52.634 5.47374L53.6455 5.54113C54.3333 5.58157 54.8998 5.70288 55.3988 5.93202C55.8034 6.12073 56.3699 6.44422 56.6531 6.65988C56.9364 6.88903 57.3949 7.40123 57.6647 7.80559C57.9479 8.20996 58.2986 8.9513 58.7032 10.3666H60.7937C62.2773 10.3666 63.0595 10.4205 63.4911 10.5553C63.8283 10.6766 64.4217 11.054 64.8263 11.4045C65.2175 11.7549 65.703 12.3615 65.9053 12.7254C66.1885 13.278 66.256 13.5881 66.256 14.4777C66.256 15.3673 66.1885 15.6773 65.8918 16.2973C65.703 16.7017 65.2714 17.2813 64.9477 17.5644C64.6375 17.8609 64.125 18.2113 63.8283 18.3327C63.5316 18.4674 62.9786 18.6157 62.6144 18.6561C62.048 18.737 61.8726 18.6966 61.5624 18.4674C61.2927 18.2518 61.1983 18.0631 61.1983 17.7126C61.1983 17.4161 61.3062 17.133 61.468 16.9713C61.6164 16.823 61.8996 16.7017 62.1019 16.7017C62.3177 16.7017 62.7223 16.5939 63.0191 16.4591C63.3158 16.3243 63.7069 16.0008 63.8957 15.7447C64.1655 15.3808 64.2329 15.1247 64.2329 14.5181C64.2329 13.952 64.1655 13.6555 63.9497 13.3724C63.8013 13.1702 63.4641 12.8602 63.2079 12.685C62.7628 12.3884 62.6414 12.375 59.9844 12.3884C57.314 12.4019 57.2061 12.3884 56.9498 12.1054C56.761 11.8897 56.6531 11.5527 56.5992 10.8518C56.5587 10.2992 56.3969 9.66569 56.2485 9.35567C56.1002 9.05914 55.736 8.60085 55.4528 8.33127C55.1561 8.07517 54.684 7.77864 54.3873 7.68428C54.0906 7.57645 53.4837 7.52254 53.0251 7.54949C52.4047 7.58993 52.054 7.69776 51.5415 8.02126C51.1639 8.2504 50.7188 8.68173 50.503 9.03218C50.2333 9.4635 50.0984 9.92179 49.9905 10.7036C49.9096 11.3775 49.7747 11.8628 49.6263 12.0245C49.4915 12.1593 49.0869 12.2941 48.6553 12.3345C48.2507 12.3884 47.6707 12.5502 47.374 12.7254C47.0503 12.9006 46.7401 13.2241 46.5917 13.5207C46.4704 13.7902 46.3625 14.262 46.3625 14.572C46.3625 14.9494 46.4569 15.3134 46.6592 15.6099C46.8345 15.866 47.1447 16.203 47.347 16.3512C47.7112 16.6208 47.927 16.6343 52.1484 16.7017C55.8169 16.7556 56.6127 16.8095 56.8015 16.9713C56.9364 17.0926 57.0308 17.3622 57.0173 17.6722C57.0173 17.9552 56.9229 18.2787 56.815 18.3866C56.7071 18.4944 56.4778 18.6157 56.3025 18.6561C56.1406 18.7101 54.0906 18.7235 51.7573 18.6966C47.5493 18.6561 47.4954 18.6561 46.7806 18.3192C46.322 18.1035 45.8095 17.7126 45.3779 17.2409C44.9193 16.7152 44.6496 16.2704 44.5012 15.7312C44.272 14.9764 44.272 14.9764 43.5976 14.8281C43.22 14.7473 42.4647 14.4642 41.9117 14.1946C41.1969 13.8576 40.6304 13.4398 39.9965 12.8063C39.3626 12.1728 38.958 11.6201 38.6208 10.9058C38.3511 10.3531 38.0409 9.43655 37.9195 8.88391C37.7712 8.183 37.7307 7.58993 37.7981 6.92946C37.8521 6.40378 38.0139 5.622 38.1623 5.1772C38.3106 4.73239 38.5804 4.09888 38.7827 3.76191C38.9715 3.42494 39.4705 2.8049 39.8752 2.37358C40.2933 1.94225 40.9271 1.38962 41.3048 1.16047C41.6689 0.917852 42.4377 0.5674 42.9907 0.365216C43.7864 0.0821578 44.2585 0.00128412 45.1756 0.00128412H45.1891ZM42.6805 2.72403C42.2489 2.96665 41.6285 3.43842 41.3048 3.78887C40.9811 4.1528 40.563 4.75935 40.3742 5.13676C40.1854 5.52765 39.9696 6.21508 39.8886 6.65988C39.7807 7.25296 39.7807 7.69776 39.8886 8.34475C39.9696 8.82999 40.1854 9.54438 40.3742 9.92179C40.563 10.3127 41.035 10.9597 41.4127 11.3506C41.8038 11.7414 42.4647 12.2267 42.8693 12.4289C43.2739 12.6311 43.8269 12.8332 44.0831 12.8737C44.5282 12.9546 44.5687 12.9276 44.9868 12.2671C45.2295 11.8897 45.6881 11.391 45.9983 11.1753C46.322 10.9462 46.8885 10.6497 47.2796 10.5283C47.9135 10.3127 47.9809 10.2588 48.0483 9.82744C48.0888 9.57134 48.2372 9.08609 48.372 8.74912C48.5204 8.41215 48.8306 7.88647 49.0599 7.56297C49.2892 7.25296 49.7477 6.79467 50.0714 6.55205L50.6648 6.12073C50.3277 5.1772 50.0175 4.62456 49.7477 4.27411C49.4915 3.93714 49.0059 3.43842 48.6688 3.16884C48.3316 2.89926 47.7247 2.56228 47.32 2.40054C46.8885 2.23879 46.1601 2.104 45.5667 2.06356C45.0137 2.0366 44.3124 2.07704 44.0157 2.15792C43.719 2.22531 43.1255 2.48141 42.6805 2.72403ZM18.9297 9.96222C19.1724 9.94875 19.4422 10.0701 19.604 10.2453C19.7928 10.4475 19.8872 10.7844 20.0086 12.321L20.4132 11.5797C20.7639 10.9327 20.8718 10.8384 21.2494 10.7979C21.4922 10.7844 21.8159 10.8249 21.9643 10.9058C22.1126 10.9731 22.2879 11.1888 22.3689 11.3775C22.4768 11.6471 22.4363 11.8762 21.8698 13.2646L22.7465 14.0733C23.3804 14.6664 23.7446 15.1516 24.5942 16.8904L24.6617 23.5625C24.7291 30.1402 24.7291 30.248 24.9989 30.248C25.2551 30.248 25.2686 30.1267 25.3495 27.0131C25.39 24.9912 25.4844 23.6029 25.5923 23.3064C25.6867 23.0503 25.9969 22.4976 26.8466 21.3519L26.4959 20.5432C26.3071 20.0984 26.1453 19.5727 26.1453 19.357C26.1453 19.1549 26.2397 18.8988 26.3476 18.7909C26.4555 18.6831 26.6847 18.5483 26.8466 18.5079C27.0219 18.4674 27.2917 18.4674 27.4535 18.5079C27.6558 18.5618 27.8986 18.8583 28.492 20.004L28.5864 19.0605C28.6539 18.2787 28.7348 18.0765 28.991 17.8744C29.1664 17.7396 29.4766 17.6317 29.6789 17.6452C29.8947 17.6452 30.1779 17.7665 30.3263 17.9148C30.5421 18.1305 30.596 18.3596 30.596 19.0605C30.596 19.5592 30.65 19.9366 30.7309 19.9366C30.7983 19.9366 30.9871 19.6671 31.1355 19.3301C31.2839 18.9931 31.5266 18.6696 31.675 18.5888C31.8233 18.5079 32.0526 18.454 32.174 18.454C32.3089 18.4405 32.5786 18.5618 32.7809 18.7235C33.0372 18.8988 33.1586 19.1144 33.1586 19.357C33.1586 19.5727 32.9832 20.1253 32.3763 21.4867L32.8484 22.0259C33.1181 22.3494 33.4148 22.9155 33.5767 23.4412C33.8194 24.2364 33.8329 24.7082 33.8329 28.5632C33.8329 31.8386 33.779 33.0247 33.6171 33.7526C33.5092 34.2648 33.253 34.9926 33.0507 35.37C32.8484 35.734 32.3224 36.4079 31.8773 36.8527C31.4322 37.2975 30.7579 37.8097 30.3937 37.985C30.0161 38.1737 29.4091 38.3893 29.045 38.4972C28.6404 38.5915 27.6154 38.6724 24.6617 38.6724V52.1513H31.7424C36.1932 52.1513 38.9176 52.2052 39.0929 52.2861C39.2413 52.367 39.4301 52.5826 39.4975 52.7848C39.6054 53.0409 39.6054 53.2701 39.511 53.4992C39.4301 53.6879 39.2143 53.9171 39.0255 53.9979C38.7557 54.1327 34.6152 54.1732 0.654607 54.1732L0.290455 53.7958C0.00722544 53.4992 -0.0467231 53.3509 0.0341996 53.0275C0.0881481 52.8118 0.236506 52.5153 0.357891 52.3805C0.573684 52.1648 1.01876 52.1378 13.0628 52.1513V45.951H11.269C10.0821 45.951 9.21893 45.8791 8.67944 45.7353C8.23437 45.6275 7.56001 45.3714 7.19586 45.1692C6.81822 44.967 6.19781 44.4818 5.80669 44.0909C5.36161 43.6461 4.91654 43.0126 4.09382 41.3008L4.05336 36.1114C4.02639 31.8116 4.05336 30.8142 4.21521 30.3154C4.33659 29.9785 4.63331 29.4258 5.3751 28.4284L5.02443 27.6466C4.83561 27.2288 4.67377 26.6896 4.67377 26.4739C4.67377 26.2044 4.76818 25.9887 4.98397 25.8269C5.15931 25.6922 5.483 25.5843 5.71228 25.5843C5.92807 25.5843 6.2113 25.6922 6.34617 25.8269C6.46756 25.9617 6.66986 26.3122 7.0475 27.1479L7.11494 26.2583C7.16889 25.6113 7.27678 25.2743 7.4656 25.0721C7.64094 24.8834 7.89719 24.7756 8.16693 24.7891C8.42319 24.7891 8.7199 24.8969 8.88175 25.0586C9.09754 25.2743 9.15149 25.5169 9.15149 26.2313C9.16498 27.0805 9.17847 27.1209 9.36729 26.8783C9.47518 26.73 9.70446 26.3931 9.86631 26.137C10.1091 25.773 10.2709 25.6517 10.6351 25.6248C10.9857 25.5978 11.188 25.6787 11.4173 25.8943C11.5792 26.0696 11.714 26.3526 11.714 26.5413C11.714 26.73 11.5657 27.2018 11.3769 27.5792C11.188 27.9701 11.0397 28.3475 11.0397 28.4284C11.0397 28.5093 11.215 28.7923 11.4443 29.0619C11.6601 29.3449 11.9433 29.8167 12.0782 30.1132C12.2805 30.5715 12.3345 31.1781 12.3884 34.0221C12.4558 37.2301 12.4693 37.3919 12.7121 37.3919C12.8919 37.3919 13.0178 37.2571 13.0897 36.9875C13.1572 36.7718 13.3055 36.5157 13.4404 36.4214C13.5618 36.327 13.8315 36.2462 14.0338 36.2462C14.2631 36.2462 14.5463 36.381 14.7486 36.5831C14.9375 36.7718 15.0858 37.0819 15.0858 37.284C15.0858 37.4997 14.951 37.931 14.7891 38.268C14.5598 38.7128 14.3171 38.9554 13.872 39.1846C13.373 39.4407 13.1302 39.4811 12.5233 39.4272C12.0917 39.3733 11.5792 39.2115 11.3229 39.0363C11.0667 38.8746 10.743 38.4972 10.6081 38.2006C10.4058 37.7289 10.3653 37.2436 10.3653 34.4535C10.3653 31.6903 10.3384 31.1916 10.1226 30.7737C10.0012 30.4907 9.70446 30.1537 9.48867 29.9919C9.2459 29.8302 8.78734 29.6954 8.34227 29.655C7.76232 29.6145 7.47909 29.6684 7.06099 29.8976C6.76427 30.0593 6.41361 30.3559 6.27874 30.5715C6.06294 30.9355 6.03597 31.3803 6.04946 35.7609C6.04946 40.1551 6.07643 40.6133 6.30571 41.2603C6.45407 41.6782 6.81822 42.2308 7.1554 42.5813C7.47909 42.9182 8.04555 43.3361 8.4097 43.5248C9.0436 43.8483 9.2459 43.8618 11.795 43.9292C14.2766 43.9966 14.5463 44.0235 14.8026 44.2661C15.0858 44.5357 15.0993 44.6301 15.0858 52.0165H22.6386V37.3245L22.9758 36.9875C23.2995 36.6505 23.313 36.6505 25.8081 36.6505C27.993 36.6505 28.3976 36.6101 29.0045 36.381C29.3957 36.2327 29.9217 35.9496 30.1509 35.7744C30.3937 35.5857 30.7713 35.1679 31.0006 34.8309C31.2164 34.4939 31.4997 33.8739 31.6075 33.4425C31.7829 32.809 31.8099 31.879 31.7829 28.2666C31.7424 24.0342 31.7289 23.8455 31.4592 23.4816C31.2973 23.2794 30.9737 22.9829 30.7174 22.8346C30.4477 22.6863 30.0161 22.5785 29.6519 22.5785C29.3147 22.5785 28.8022 22.6998 28.5055 22.8481C28.1279 23.0368 27.8716 23.3064 27.6558 23.7242C27.3726 24.2903 27.3591 24.4656 27.3591 27.4849C27.3591 30.5176 27.3456 30.6794 27.0489 31.1781C26.8736 31.4881 26.5364 31.8251 26.2127 31.9868C25.862 32.162 25.4304 32.2564 24.9989 32.2564C24.6212 32.2429 24.1357 32.1486 23.9199 32.0407C23.6906 31.9194 23.4074 31.7172 23.286 31.5825C23.1511 31.4342 22.9623 31.0837 22.8544 30.7872C22.6791 30.3424 22.6521 29.1158 22.6386 23.8455C22.6386 17.6991 22.6251 17.4161 22.3554 16.8365C22.207 16.4995 21.9238 16.0547 21.7215 15.8525C21.5192 15.6369 21.0471 15.2999 20.683 15.1112C20.103 14.8012 19.8468 14.7473 18.8622 14.7607C17.9046 14.7607 17.6079 14.8146 17.0415 15.1112C16.6638 15.2999 16.1648 15.6908 15.922 15.9738C15.6927 16.2569 15.396 16.7691 15.2881 17.1061C15.1128 17.6183 15.0858 18.8718 15.0858 32.4721L14.7486 32.809C14.5733 32.9977 14.2901 33.146 14.1148 33.146C13.9394 33.1595 13.6427 33.0382 13.0628 32.6069V25.153C13.0628 18.9662 13.0897 17.5778 13.2651 16.9308C13.373 16.513 13.5888 15.9199 13.7371 15.6234C13.8855 15.3268 14.3305 14.7607 14.7082 14.3564C15.0993 13.9655 15.5444 13.5746 15.6927 13.4937C15.9625 13.3589 15.9625 13.3589 15.6523 12.6445C15.4904 12.2402 15.3556 11.7954 15.3556 11.6471C15.3556 11.4988 15.4904 11.2427 15.6523 11.0675C15.8276 10.8923 16.1108 10.771 16.3536 10.771C16.5829 10.7575 16.8661 10.8653 16.9875 11.0001C17.1089 11.1349 17.3112 11.4449 17.4326 11.6741C17.554 11.9167 17.7023 12.1189 17.7833 12.1189C17.8642 12.1189 17.9046 11.7549 17.9046 11.2562C17.8777 10.4744 17.9181 10.3531 18.2013 10.1644C18.3767 10.0566 18.7004 9.96222 18.9297 9.96222ZM52.1619 46.3554C52.3507 46.3554 52.634 46.4362 52.7823 46.5441C53.0116 46.7058 53.0656 46.9485 53.133 48.2694C53.1869 49.5094 53.2679 49.9138 53.5376 50.4665C53.7264 50.8708 54.0771 51.2752 54.4008 51.5043C54.6975 51.72 54.9807 51.8817 55.0347 51.8817C55.1021 51.8817 55.1426 50.763 55.1426 49.3881C55.1426 47.0698 55.1561 46.8811 55.4123 46.625C55.5607 46.4767 55.8574 46.3554 56.0867 46.3554C56.3429 46.3554 56.6127 46.4767 56.8285 46.6923C57.1656 47.0293 57.1656 47.0428 57.1656 51.8817L57.5298 51.693C57.7456 51.5987 58.1097 51.2887 58.339 51.0191C58.5818 50.7495 58.838 50.3047 58.919 50.0216C58.9864 49.7521 59.0538 48.9568 59.0538 48.2694C59.0538 47.1372 59.0808 47.0024 59.391 46.6923C59.5663 46.5036 59.8496 46.3554 60.0249 46.3554C60.2002 46.3419 60.5104 46.4902 61.1174 46.9619L61.0634 48.6468C61.0095 50.1295 60.9555 50.426 60.6318 51.1404C60.4295 51.5852 60.2677 51.9896 60.2677 52.0435C60.2677 52.1109 62.1154 52.1513 68.4948 52.1513L68.7781 52.5153C68.9804 52.7848 69.0343 53.0005 68.9804 53.297C68.9399 53.5127 68.7646 53.8092 68.5892 53.944C68.306 54.1732 67.6451 54.1866 56.6936 54.1866C45.243 54.1866 45.0947 54.1732 44.717 53.9036C44.4473 53.7014 44.3529 53.5262 44.3529 53.1622C44.3529 52.8657 44.4608 52.5826 44.6226 52.4209C44.8789 52.1648 45.0677 52.1513 48.4664 52.1513C50.4356 52.1513 52.0405 52.1378 52.0405 52.1109C52.0405 52.0974 51.8517 51.6661 51.6089 51.1404C51.2043 50.2373 51.1774 50.116 51.1639 48.539C51.1639 46.9485 51.1774 46.8676 51.4876 46.6115C51.6629 46.4767 51.9596 46.3554 52.1619 46.3554ZM42.5591 61.1822C42.6535 61.1822 42.8828 61.2631 43.0716 61.344C43.2604 61.4383 43.4627 61.654 43.5436 61.8157C43.6111 61.991 43.6785 62.611 43.6785 63.2041C43.6785 63.7971 43.6111 64.6059 43.5302 64.9833C43.4492 65.3742 43.2469 65.9403 43.0986 66.2368C42.9502 66.5334 42.667 66.9782 42.4782 67.2208C42.2893 67.4634 41.8173 67.8678 41.4531 68.1104C41.0755 68.353 40.509 68.6496 40.1719 68.7709C39.8347 68.8922 39.1738 69 38.6883 69C38.1218 69 37.5554 68.9056 37.0698 68.7169C36.6652 68.5552 36.0718 68.2587 35.7481 68.043C35.4379 67.8273 34.9658 67.369 34.7096 67.0051C34.4533 66.6547 34.1162 65.9807 33.9678 65.4955C33.7655 64.862 33.6981 64.2554 33.6981 63.2715C33.6981 62.301 33.752 61.8427 33.9004 61.6135C34.0487 61.3979 34.2375 61.317 34.6017 61.317C34.8849 61.317 35.2356 61.3979 35.3839 61.5057C35.6132 61.6809 35.6672 61.8966 35.7211 63.2984C35.7886 64.6598 35.8425 64.9698 36.1257 65.4685C36.3146 65.792 36.6787 66.1964 36.935 66.3716C37.1912 66.5603 37.4475 66.7086 37.5014 66.7086C37.5689 66.7086 37.6093 65.7111 37.6093 64.4846C37.6093 63.2175 37.6768 62.0988 37.7577 61.8831C37.8386 61.6809 37.9735 61.4787 38.0544 61.4248C38.1488 61.3709 38.432 61.317 38.6883 61.317C38.9445 61.317 39.2682 61.4248 39.4031 61.5596C39.6189 61.7618 39.6459 62.0583 39.6324 64.2419C39.6324 66.5064 39.6459 66.7086 39.8617 66.7086C39.9965 66.7086 40.3742 66.412 40.7114 66.0616C41.1429 65.6168 41.3857 65.2394 41.4936 64.7811C41.588 64.4306 41.6555 63.6084 41.642 62.948C41.6285 61.7888 41.642 61.7349 42.0061 61.4653C42.2084 61.3035 42.4512 61.1822 42.5591 61.1822ZM5.52346 59.1604H10.6351C13.4539 59.1604 15.8681 59.2143 15.9895 59.2817C16.1243 59.3356 16.2862 59.5647 16.3401 59.7804C16.4076 60.0365 16.3806 60.3061 16.2727 60.5487C16.1558 60.8003 15.94 60.971 15.6253 61.0609C15.3421 61.1418 13.2786 61.1822 5.61787 61.1148L5.36161 60.7778C5.21325 60.5891 5.09187 60.2926 5.09187 60.1039C5.07838 59.9152 5.17279 59.6187 5.30766 59.4569L5.52346 59.1604ZM23.9064 59.1604C25.7676 59.1739 26.1048 59.2008 26.3071 59.403C26.442 59.5243 26.5499 59.8208 26.5499 60.0365C26.5499 60.2656 26.442 60.5891 26.2936 60.7778C26.0374 61.1148 26.0104 61.1148 23.9334 61.1148C22.0317 61.1148 21.8294 61.0879 21.5596 60.8452C21.3843 60.6835 21.2629 60.4004 21.2494 60.1174C21.236 59.8343 21.3304 59.5647 21.4787 59.4165C21.6945 59.1873 21.9777 59.1604 23.9064 59.1604ZM57.0443 63.7432C59.917 63.7432 61.3062 63.7971 61.5085 63.905C61.6703 63.9858 61.8592 64.1206 61.9131 64.2015C61.9671 64.2824 62.0075 64.5519 62.0075 64.7946C62.0075 65.0507 61.8996 65.3337 61.7513 65.4955C61.4815 65.7516 61.2927 65.7651 52.7149 65.7651L52.4317 65.4011C52.2294 65.1315 52.1754 64.9159 52.2294 64.6193C52.2698 64.4037 52.4317 64.1071 52.5935 63.9858C52.8498 63.7702 53.2679 63.7432 57.0443 63.7432Z" fill="#E75C54"/>
</svg>
