<svg width="72" height="64" viewBox="0 0 72 64" fill="none" xmlns="http://www.w3.org/2000/svg">
<path d="M44.0544 0C44.2503 0 44.6281 0.181659 44.894 0.40524C45.3277 0.754585 45.3837 0.880349 45.3837 1.46725C45.3837 1.99825 45.3137 2.17991 44.9919 2.45939C44.7261 2.69694 44.4462 2.79476 44.0544 2.79476C43.6627 2.79476 43.3828 2.69694 43.103 2.45939C42.7952 2.17991 42.7252 1.99825 42.7252 1.46725C42.7252 0.880349 42.7812 0.754585 43.2149 0.40524C43.4808 0.181659 43.8586 0 44.0544 0ZM37.786 0.978166C38.1917 0.978166 38.4156 1.07598 38.7374 1.39738C39.0452 1.7048 39.1572 1.95633 39.1572 2.3476C39.1712 2.64105 39.0592 3.00437 38.9193 3.18603C38.7654 3.38166 38.1917 3.66114 37.4082 3.92664C36.7225 4.16419 35.5472 4.6393 34.8196 4.97467C34.092 5.32402 32.8607 6.02271 32.0911 6.52576C31.1397 7.15458 30.1322 8.02096 28.9289 9.20873C27.7396 10.3965 26.872 11.4166 26.2424 12.3668C25.7387 13.1354 25.0391 14.3651 24.7033 15.0917C24.3535 15.8183 23.6259 17.8026 23.0662 19.4935C22.5065 21.1843 21.7369 23.2943 21.3731 24.1747C20.9953 25.055 20.2957 26.4384 19.82 27.2489C19.3303 28.0594 18.5607 29.2192 18.099 29.8341C17.6372 30.4489 16.6578 31.5668 15.9302 32.3354C15.2026 33.09 14.1252 34.0961 13.5515 34.5572C12.9778 35.0183 11.9284 35.7729 11.2428 36.2341C10.5572 36.6812 9.35384 37.3799 8.58427 37.7572C7.8147 38.1485 6.5554 38.7074 5.78583 38.9869C5.01626 39.2803 3.71499 39.6856 2.87546 39.8812C1.89601 40.1188 1.25237 40.2026 1.00051 40.1328C0.804616 40.0769 0.482796 39.8393 0.286906 39.6157C0.007062 39.2664 -0.0349145 39.0987 0.0350464 38.6376C0.0770229 38.3301 0.216945 37.9668 0.356867 37.841C0.496788 37.7013 1.30833 37.4079 2.14787 37.1843C2.9874 36.9607 4.03681 36.6533 4.45658 36.4996C4.87634 36.3598 5.70188 36.0245 6.27556 35.7729C6.84924 35.5214 7.88466 34.9904 8.58427 34.5852C9.28388 34.1799 10.3613 33.4673 11.0049 32.9921C11.6346 32.531 12.6 31.7205 13.1457 31.2035C13.6914 30.6725 14.5449 29.7782 15.0207 29.2052C15.4964 28.6323 16.252 27.6262 16.6997 26.9694C17.1335 26.3127 17.8611 25.0271 18.3088 24.1048C18.7566 23.1825 19.2603 21.9808 19.4282 21.4498C19.5961 20.9188 19.6941 20.4576 19.6521 20.4437C19.6101 20.4157 19.3303 20.5555 19.0364 20.7371C18.7566 20.9188 17.8751 21.3799 17.0775 21.7852C16.294 22.1764 15.0067 22.7493 14.2091 23.0707C13.4256 23.3782 12.0263 23.8533 11.1029 24.1188C10.1794 24.3843 8.61225 24.7616 7.60482 24.9432C6.59738 25.1249 4.80638 25.3485 3.61704 25.4323C2.42771 25.5162 1.28035 25.5581 1.05648 25.5162C0.846593 25.4742 0.510781 25.2227 0.31489 24.9852C0.007062 24.6079 -0.0349145 24.4262 0.0210542 23.9651C0.0770229 23.6297 0.230937 23.2943 0.426827 23.1127C0.692679 22.8751 1.0145 22.8192 2.49767 22.7214C3.46313 22.6655 4.87634 22.5258 5.64591 22.4279C6.41548 22.3162 7.64679 22.1066 8.37439 21.9528C9.10198 21.7852 10.3893 21.4358 11.2428 21.1703C12.0963 20.8908 13.4675 20.3598 14.3211 19.9825C15.1746 19.6192 16.5038 18.9485 17.3014 18.4873C18.085 18.0402 19.3023 17.2716 20.0159 16.7686C20.9394 16.1118 21.3451 15.7345 21.4991 15.3712C21.611 15.1057 21.9608 14.3092 22.2966 13.6245C22.6324 12.9258 23.2761 11.8079 23.7238 11.1092C24.1856 10.4105 25.0531 9.26463 25.6687 8.53799C26.2704 7.81135 27.3058 6.74934 27.9634 6.17642C28.6211 5.60349 29.8384 4.68122 30.6919 4.12227C31.5454 3.54935 32.7628 2.83668 33.4204 2.52926C34.078 2.20786 35.2114 1.73275 35.939 1.46725C36.6666 1.21572 37.5061 0.99214 37.786 0.978166ZM50.211 1.41135C50.3229 1.39738 50.7707 1.56507 51.1905 1.7607C51.6102 1.95633 52.3658 2.38952 52.8695 2.71092C53.3732 3.03231 54.2128 3.67511 54.7585 4.13624C55.2902 4.58341 56.1297 5.46376 56.6054 6.0786C57.0952 6.69345 57.7668 7.75546 58.1166 8.45415C58.4524 9.15284 58.8582 10.1869 59.0261 10.7598C59.18 11.3328 59.3619 12.3668 59.4319 13.0655C59.4878 13.7642 59.4878 14.91 59.4319 15.6507C59.3619 16.3773 59.18 17.4393 59.0261 17.9983C58.8722 18.5432 58.5643 19.3956 58.3545 19.8707C58.1306 20.3598 57.6548 21.2262 57.2911 21.7991C56.9133 22.3721 56.1577 23.2943 55.612 23.8393C55.0383 24.4122 54.1988 25.055 53.6391 25.3624C53.0934 25.6699 52.1839 26.0611 51.6102 26.2568C50.7287 26.5502 50.295 26.6061 48.8818 26.6061C47.4406 26.6061 47.0488 26.5502 46.0833 26.2288C45.4677 26.0192 44.5582 25.586 44.0684 25.2646C43.5647 24.9293 42.8931 24.3424 42.5573 23.9651C42.2215 23.5738 41.7317 22.8192 41.4519 22.2882C41.1861 21.7572 40.9762 21.1004 40.9762 20.8489C40.9762 20.5555 41.1161 20.248 41.3679 19.9686C41.6478 19.6611 41.8857 19.5354 42.2495 19.5214C42.6133 19.4934 42.9351 19.6332 43.5088 20.0105C43.9285 20.3039 44.5162 20.5694 44.824 20.6253C45.1598 20.6812 45.6076 20.6393 45.9434 20.5275C46.2512 20.4297 46.713 20.1502 46.9788 19.9266C47.2447 19.6891 47.6085 19.1721 47.7904 18.7948C48.0049 18.329 48.1122 17.8399 48.1122 17.3275C48.1122 16.8245 48.0002 16.3214 47.7904 15.8603C47.6085 15.469 47.1747 14.91 46.8249 14.6026C46.4751 14.2812 45.8734 13.9319 45.4397 13.7921C45.0059 13.6524 44.2643 13.5546 43.7046 13.5546C43.131 13.5546 42.3474 13.6664 41.8157 13.8201C41.312 13.9738 40.5284 14.3371 40.0667 14.6306C39.6049 14.938 38.9053 15.5668 38.4856 16.0699C38.0798 16.5729 37.5061 17.4533 37.2123 18.0262C36.9044 18.5991 36.4987 19.6472 36.2888 20.3319C36.0509 21.1703 35.897 22.0786 35.841 23.0568C35.7851 24.1328 35.827 24.8594 36.0089 25.7817C36.1349 26.4664 36.4287 27.5144 36.6526 28.0873C36.8765 28.6603 37.3242 29.5406 37.646 30.0437C37.9679 30.5467 38.6535 31.3572 39.1572 31.8603C39.6609 32.3633 40.6124 33.1319 41.256 33.5651C41.9136 33.9983 42.8791 34.5432 43.4248 34.7808C43.9705 35.0044 44.88 35.3258 45.4537 35.4795C46.0273 35.6332 47.0768 35.8288 47.7624 35.9127C48.462 35.9965 49.5254 36.0245 50.141 35.9825C50.7567 35.9266 51.6662 35.8009 52.1699 35.7031C52.6736 35.5913 53.6111 35.3118 54.2687 35.0742C54.9264 34.8367 55.8359 34.4314 56.2976 34.1799C56.7593 33.9144 57.4869 33.4393 57.9067 33.1039C58.3265 32.7825 59.18 32.0419 59.7957 31.469C60.4113 30.8961 61.4187 30.0996 62.0344 29.6943C62.6501 29.2891 63.5456 28.7581 64.0353 28.5205C64.511 28.283 65.4485 27.9057 66.1341 27.6821C66.8057 27.4585 67.8412 27.1651 68.4428 27.0533C69.0305 26.9275 69.7861 26.8297 70.1219 26.8297C70.4717 26.8297 70.8355 26.9415 71.0034 27.0812C71.1713 27.207 71.3812 27.4585 71.4651 27.6262C71.5491 27.8079 71.619 28.1013 71.619 28.2969C71.619 28.4926 71.4511 28.8419 71.2413 29.0655C70.8915 29.4428 70.6816 29.5127 69.5202 29.7083C68.7926 29.8201 67.7292 30.0716 67.1835 30.2673C66.6238 30.4489 65.6724 30.8541 65.0847 31.1476C64.483 31.441 63.6155 31.9721 63.1538 32.3074C62.692 32.6568 61.7825 33.4253 61.1249 34.0262C60.4673 34.6271 59.5578 35.3817 59.096 35.7031C58.6343 36.0245 57.9067 36.4856 57.4869 36.7231C57.0672 36.9607 56.1437 37.3659 55.4581 37.6454C54.7725 37.9109 53.5411 38.2603 52.7296 38.4419C51.6242 38.6655 50.7707 38.7493 49.3015 38.7493C48.0422 38.7493 46.9228 38.6655 46.1533 38.5258C45.4956 38.4 44.4322 38.1066 43.7746 37.8969C43.117 37.6734 42.0816 37.2402 41.4659 36.9188C40.8502 36.6114 39.9128 36.0524 39.3671 35.6751C38.8214 35.2838 37.9818 34.6131 37.4921 34.152C37.0024 33.7048 36.2888 32.9223 35.911 32.4192C35.5332 31.9162 34.9036 30.8821 34.5258 30.1135C34.134 29.317 33.6862 28.1153 33.4764 27.3188C33.2525 26.4105 33.0986 25.3624 33.0426 24.3144C33.0006 23.1965 33.0426 22.3022 33.1965 21.3799C33.3085 20.6533 33.5743 19.5493 33.7842 18.9345C33.9941 18.3197 34.3439 17.4393 34.5817 16.9782C34.8056 16.517 35.2534 15.7624 35.5612 15.3013C35.883 14.8402 36.4847 14.0996 36.9044 13.6524C37.3382 13.1913 38.1218 12.5624 38.6675 12.2271C39.2132 11.8917 40.1506 11.4445 40.7663 11.2349C41.5918 10.9555 42.2634 10.8437 43.2849 10.8017C44.2783 10.7459 44.9639 10.8017 45.6356 10.9555C46.1533 11.0812 46.9508 11.3607 47.4126 11.5983C47.8743 11.8358 48.5879 12.3528 48.9937 12.7441C49.3995 13.1493 49.9312 13.89 50.183 14.393C50.4349 14.8961 50.7007 15.6507 50.7847 16.0699C50.8686 16.4891 50.9106 17.2856 50.8686 17.8166C50.8267 18.3476 50.6728 19.1441 50.5048 19.5633C50.3509 19.9825 49.9591 20.6952 49.6233 21.1424C49.2875 21.6035 48.6719 22.2044 48.2521 22.4838C47.8323 22.7773 47.2726 23.0428 47.0348 23.0987C46.7829 23.1546 46.573 23.2524 46.573 23.3362C46.573 23.4201 46.7829 23.5459 47.0348 23.6157C47.2726 23.6996 47.8603 23.7974 48.3221 23.8393C48.7838 23.8812 49.5394 23.8533 50.0011 23.7694C50.4629 23.6856 51.2744 23.4061 51.8201 23.1546C52.4358 22.8611 53.0934 22.4 53.5691 21.9249C53.9889 21.5057 54.5346 20.8908 54.7725 20.5415C55.0103 20.1921 55.3741 19.5913 55.57 19.214C55.7519 18.8227 56.0457 18.11 56.2137 17.607C56.3816 17.1039 56.5635 16.1677 56.6334 15.5109C56.7034 14.8402 56.7034 13.8341 56.6334 13.2052C56.5635 12.5904 56.3676 11.6821 56.2137 11.179C56.0457 10.676 55.7659 9.94935 55.57 9.57205C55.3741 9.18079 54.8704 8.41223 54.4227 7.8393C53.9889 7.26638 53.1354 6.4 52.5197 5.91092C51.9041 5.42183 50.9246 4.77904 50.3509 4.48559C49.7773 4.19214 49.2176 3.85677 49.1196 3.75895C49.0357 3.64716 48.9097 3.31179 48.8678 3.00437C48.7978 2.57118 48.8538 2.36157 49.0776 2.05415C49.2455 1.83057 49.5254 1.59301 49.6933 1.53712C49.8612 1.46725 50.0991 1.41135 50.211 1.41135ZM10.3333 54.1345C12.1803 54.1764 12.684 54.2323 13.7334 54.5537C14.405 54.7493 15.4125 55.1406 15.9721 55.4201C16.5178 55.6996 17.2594 56.1328 17.6092 56.3703C17.959 56.6079 18.8405 57.3205 19.5681 57.9633C20.2957 58.6061 21.3032 59.3747 21.8069 59.6681C22.3106 59.9755 23.2201 60.3808 23.8357 60.6044C24.8852 60.9677 25.095 60.9956 27.1939 60.9956C29.2927 60.9956 29.5026 60.9677 30.552 60.6044C31.1676 60.3808 32.0771 59.9755 32.5809 59.6681C33.0846 59.3747 34.092 58.6061 34.8196 57.9633C35.5472 57.3205 36.4287 56.6079 36.7785 56.3703C37.1283 56.1328 37.8699 55.6996 38.4296 55.4201C38.9753 55.1406 39.9827 54.7493 40.6683 54.5397C41.8017 54.1904 42.0676 54.1624 44.4043 54.1624C46.7409 54.1624 47.0068 54.1904 48.1542 54.5397C48.8258 54.7493 49.8332 55.1406 50.3929 55.4201C50.9386 55.6996 51.6802 56.1328 52.03 56.3703C52.3798 56.6079 53.2613 57.3205 53.9889 57.9633C54.7165 58.6061 55.7239 59.3747 56.2276 59.6681C56.7314 59.9755 57.6409 60.3808 58.2565 60.5904C59.18 60.9118 59.6837 60.9817 61.1949 61.0376C62.734 61.0934 63.1958 61.0515 64.2032 60.8C64.8608 60.6323 65.7703 60.3109 66.2321 60.0873C66.6938 59.8777 67.4774 59.3886 67.9671 59.0114C68.4428 58.648 69.0725 58.159 69.3663 57.9493C69.6461 57.7397 70.0099 57.5721 70.1918 57.5721C70.3597 57.5721 70.6396 57.6419 70.8215 57.7118C70.9894 57.7956 71.2413 58.0472 71.3812 58.2707C71.5071 58.5083 71.619 58.8297 71.619 59.0114C71.619 59.179 71.5071 59.5144 71.3672 59.738C71.2273 59.9616 70.5836 60.5624 69.926 61.0515C69.2824 61.5406 68.2749 62.1694 67.7012 62.4629C67.1276 62.7424 66.344 63.0917 65.9522 63.2175C65.5744 63.3293 64.6509 63.5668 63.9233 63.7205C63.1958 63.8742 62.1603 64 61.6146 64C61.0689 64 60.0335 63.8742 59.3059 63.7205C58.5783 63.5668 57.6688 63.3293 57.2771 63.2175C56.8993 63.0917 56.1017 62.7424 55.528 62.4629C54.9544 62.1694 54.1008 61.6524 53.6391 61.317C53.1774 60.9817 52.2958 60.241 51.6802 59.6821C50.9806 59.0533 50.1131 58.4524 49.3715 58.0611C48.7138 57.7258 47.6504 57.3205 46.9928 57.1668C46.1999 56.9712 45.3371 56.8734 44.4043 56.8734C43.4714 56.8734 42.6086 56.9712 41.8157 57.1668C41.1581 57.3205 40.0947 57.7258 39.437 58.0611C38.6954 58.4524 37.8279 59.0533 37.1283 59.6821C36.5127 60.241 35.6312 60.9817 35.1694 61.317C34.7077 61.6524 33.8541 62.1694 33.2805 62.4629C32.7068 62.7424 31.9232 63.0917 31.5314 63.2175C31.1537 63.3293 30.2302 63.5668 29.5026 63.7205C28.775 63.8742 27.7396 64 27.1939 64C26.6622 64 25.6128 63.8742 24.8852 63.7205C24.1576 63.5668 23.2481 63.3293 22.8563 63.2175C22.4785 63.0917 21.681 62.7424 21.1073 62.4629C20.5336 62.1694 19.6521 61.6384 19.1484 61.2611C18.6446 60.8978 17.8611 60.241 17.3993 59.8079C16.9376 59.3886 16.3779 58.8996 16.14 58.7319C15.9162 58.5782 15.2865 58.2148 14.7408 57.9493C14.2091 57.6699 13.2297 57.3205 12.572 57.1668C11.7792 56.9712 10.9163 56.8734 9.98349 56.8734C9.05068 56.8734 8.18782 56.9712 7.39493 57.1668C6.7373 57.3205 5.6739 57.7258 5.01626 58.0611C4.35863 58.4105 3.43515 59.0253 2.95941 59.4585C2.46969 59.8777 1.91 60.269 1.70012 60.3109C1.47624 60.3528 1.16841 60.3528 1.00051 60.3109C0.818609 60.269 0.552757 60.1013 0.398843 59.9476C0.244929 59.7939 0.0770229 59.5284 0.0350464 59.3607C-0.00693017 59.179 -0.00693017 58.8716 0.0350464 58.662C0.0770229 58.4384 0.356867 58.0472 0.650702 57.7677C0.930546 57.4742 1.5462 56.9712 2.00794 56.6218C2.46969 56.2865 3.32321 55.7694 3.89689 55.476C4.47057 55.1965 5.26812 54.8472 5.64591 54.7214C6.03769 54.5956 6.75129 54.4 7.25501 54.2882C7.91264 54.1485 8.78016 54.0926 10.3333 54.1345ZM25.2769 32C25.4448 32 25.7527 32.0838 25.9766 32.1956C26.1864 32.2934 26.4383 32.545 26.5362 32.7546C26.6202 32.9502 26.7041 33.3694 26.7041 33.6769C26.7041 33.9843 26.8021 34.7249 26.914 35.3258C27.04 35.9546 27.3898 36.9188 27.7396 37.6594C28.1593 38.5118 28.6491 39.2245 29.2507 39.8812C29.7265 40.4122 30.566 41.1249 31.1117 41.4742C31.6574 41.8376 32.5949 42.2987 33.2105 42.5083C33.8262 42.7179 34.7357 42.9275 35.2394 42.9694C35.7431 43.0114 36.3448 43.0812 36.5686 43.1092C36.7925 43.1371 37.1703 43.3467 37.3802 43.5563C37.674 43.8498 37.772 44.0734 37.758 44.4786C37.758 44.8559 37.646 45.1074 37.3522 45.4148C36.9744 45.8061 36.8625 45.8341 35.953 45.8341C35.4073 45.8341 34.4698 45.7362 33.8821 45.6105C33.2805 45.4987 32.287 45.1773 31.6714 44.9118C31.0557 44.6463 30.2162 44.2271 29.7964 43.9755C29.3767 43.738 28.5371 43.0533 27.9215 42.4804C27.3058 41.9074 26.5362 41.055 26.2004 40.5939C25.8786 40.1328 25.3749 39.2524 25.081 38.6376C24.8012 38.0227 24.4514 37.0445 24.3115 36.4716C24.1576 35.8987 24.0037 34.9485 23.9477 34.3755C23.8777 33.607 23.9057 33.2017 24.0596 32.8524C24.1716 32.6009 24.4094 32.2934 24.6053 32.1956C24.8012 32.0978 25.095 32.014 25.2769 32ZM70.1079 36.4716C70.2478 36.4716 70.4997 36.5415 70.6816 36.6253C70.8495 36.7092 71.1013 36.9188 71.2273 37.0865C71.3672 37.2402 71.4791 37.5895 71.4791 37.841C71.4791 38.0786 71.4371 38.386 71.3812 38.5258C71.3112 38.6515 70.7375 39.1686 70.0799 39.6716C69.4223 40.1747 68.3589 41.0969 67.7012 41.7258C67.0436 42.3406 66.0362 43.221 65.4625 43.6821C64.8888 44.1432 63.8534 44.8559 63.1538 45.2751C62.4682 45.6943 61.3348 46.2952 60.6352 46.6166C59.9496 46.938 58.6903 47.4271 57.8367 47.6926C56.9972 47.9721 55.612 48.3214 54.7585 48.4751C53.9189 48.6288 52.4917 48.7965 51.6102 48.8524C50.253 48.9362 49.9312 48.9083 49.5534 48.7127C49.3015 48.5869 49.0357 48.3633 48.9517 48.2096C48.8818 48.0559 48.8118 47.7066 48.8118 47.441C48.8118 47.1336 48.9237 46.8122 49.1336 46.5886C49.4135 46.2393 49.5534 46.2114 51.0505 46.0996C51.932 46.0297 53.1074 45.9179 53.6391 45.8341C54.1848 45.7502 55.0943 45.5686 55.668 45.4148C56.2416 45.2751 57.1931 44.9817 57.7668 44.7721C58.3405 44.5764 59.3899 44.1153 60.0755 43.7659C60.7751 43.4306 61.8105 42.8297 62.3842 42.4384C62.9579 42.0611 63.7834 41.4603 64.2032 41.1109C64.623 40.7616 65.4485 40.021 66.0222 39.476C66.5959 38.931 67.5193 38.1345 68.051 37.7013C68.5967 37.2681 69.2264 36.807 69.4503 36.6952C69.6881 36.5694 69.982 36.4716 70.1219 36.4716H70.1079Z" fill="#E75C54"/>
</svg>
