<svg width="71" height="51" viewBox="0 0 71 51" fill="none" xmlns="http://www.w3.org/2000/svg">
<path fill-rule="evenodd" clip-rule="evenodd" d="M10.3691 0.0862396C9.68535 0.251578 8.4583 0.97096 8.06795 1.43531C7.87327 1.66684 7.54046 2.1855 7.32832 2.5881L6.94254 3.3198L6.90232 13.6558L6.86209 23.9917L6.18659 24.0916C5.34332 24.2162 3.96569 24.9362 3.49174 25.5C3.29463 25.7345 2.95981 26.2556 2.74767 26.6582L2.3619 27.3899L2.31795 32.5836L2.274 37.7773H1.48828C0.845129 37.7773 0.639 37.8411 0.351421 38.1291C0.0028629 38.4778 0 38.5029 0 41.2159C0 43.929 0.0028629 43.954 0.351421 44.3028C0.639859 44.5916 0.844556 44.6545 1.49658 44.6545H2.29032V47.1682C2.29032 49.6463 2.29533 49.6872 2.64174 50.0337C2.98372 50.3762 3.05057 50.3855 5.15323 50.3855C7.97304 50.3855 7.78967 50.5633 8.44084 47.1976L8.93283 44.6545H35.5H62.0672L62.5592 47.1976C63.2103 50.5633 63.027 50.3855 65.8468 50.3855C67.9494 50.3855 68.0163 50.3762 68.3583 50.0337C68.7047 49.6872 68.7097 49.6463 68.7097 47.1682V44.6545H69.5034C70.1554 44.6545 70.3601 44.5916 70.6486 44.3028C70.9971 43.954 71 43.929 71 41.2159C71 38.5029 70.9971 38.4778 70.6486 38.1291C70.361 37.8411 70.1549 37.7773 69.5117 37.7773H68.726L68.6821 32.5836L68.6381 27.3899L68.149 26.4871C67.88 25.9906 67.4682 25.4228 67.234 25.2255C66.596 24.6882 65.5633 24.2056 64.809 24.0925L64.1379 23.9917L64.0977 13.6558L64.0575 3.3198L63.5683 2.41703C63.0251 1.41425 62.5793 0.982422 61.4962 0.410613L60.7651 0.0244883L35.7863 0.00228096C22.0479 -0.00989737 10.6102 0.0279269 10.3691 0.0862396ZM60.4645 2.44497C60.7272 2.55486 61.1277 2.88826 61.3546 3.18598L61.7671 3.72713L61.8058 13.8751L61.8443 24.023H60.709H59.5739L59.5229 21.1217C59.4732 18.3013 59.4612 18.2 59.0886 17.4886C58.5222 16.4069 58.0897 15.959 57.0864 15.4146L56.1845 14.925H48.0968H40.0091L39.278 15.3112C38.1949 15.883 37.7491 16.3148 37.2059 17.3176L36.7167 18.2204L36.6682 21.1217L36.6197 24.023H35.5H34.3803L34.3294 21.1217C34.2797 18.3013 34.2677 18.2 33.8951 17.4886C33.3286 16.4069 32.8962 15.959 31.8929 15.4146L30.9909 14.925H22.9032H14.8155L14.0845 15.3112C13.0013 15.883 12.5555 16.3148 12.0123 17.3176L11.5232 18.2204L11.4747 21.1217L11.4261 24.023H10.2937H9.16129V14.0747C9.16129 7.3759 9.2111 3.99477 9.31403 3.72312C9.51715 3.18627 9.99468 2.68166 10.5212 2.44755C11.1756 2.15627 59.7685 2.15383 60.4645 2.44497ZM30.6903 17.3455C30.953 17.4554 31.3535 17.7887 31.5804 18.0861L31.9929 18.627L32.0375 21.325L32.0818 24.023H22.912H13.7419V21.525C13.7419 18.9357 13.8215 18.4665 14.3599 17.8798C15.0227 17.1574 15.0222 17.1574 22.872 17.1514C28.8347 17.1468 30.3025 17.1833 30.6903 17.3455ZM55.8839 17.3455C56.1465 17.4554 56.5471 17.7887 56.7739 18.0861L57.1865 18.627L57.231 21.325L57.2754 24.023H48.1055H38.9355V21.525C38.9355 18.9357 39.0151 18.4665 39.5534 17.8798C40.2162 17.1574 40.2158 17.1574 48.0656 17.1514C54.0283 17.1468 55.4961 17.1833 55.8839 17.3455ZM65.0452 26.5151C65.3078 26.625 65.7084 26.9582 65.9352 27.256L66.3478 27.797L66.3889 32.7872L66.4299 37.7773H35.5053H4.58065V32.9869C4.58065 28.0202 4.61557 27.6846 5.1986 27.0494C5.89916 26.2857 4.1827 26.327 35.4688 26.3209C60.0354 26.3162 64.6421 26.3465 65.0452 26.5151ZM68.7097 41.2159V42.3621H35.5H2.29032V41.2159V40.0697H35.5H68.7097V41.2159ZM6.54202 45.0485C6.49893 45.2651 6.34949 46.039 6.21007 46.7678L5.95656 48.0931H5.2686H4.58065V46.3738V44.6545H5.60055H6.62046L6.54202 45.0485ZM66.4194 46.3738V48.0931H65.7314H65.0434L64.7899 46.7678C64.6505 46.039 64.5011 45.2651 64.458 45.0485L64.3795 44.6545H65.3994H66.4194V46.3738Z" fill="#B4BBC1"/>
</svg>
