<svg width="70" height="70" viewBox="0 0 70 70" fill="none" xmlns="http://www.w3.org/2000/svg">
<path fill-rule="evenodd" clip-rule="evenodd" d="M35 0C35.7249 0 36.0121 0.0683594 36.5729 0.396484C36.9558 0.601563 37.4345 0.984375 37.6534 1.24414C37.8722 1.50391 38.1321 1.88672 38.2278 2.11914C38.3236 2.33789 38.4467 2.93945 38.515 3.45898C38.5698 3.96484 38.6245 4.375 38.6245 4.375C38.6245 4.375 38.9254 4.22461 39.3083 4.0332C39.8007 3.78711 40.211 3.69141 40.7444 3.69141C41.1547 3.69141 41.7429 3.77344 42.0438 3.85547C42.372 3.96484 42.8644 4.29297 43.2747 4.7168C43.6987 5.12695 44.027 5.61914 44.1364 5.94727C44.2184 6.24805 44.3005 6.83594 44.3005 7.24609C44.3005 7.80664 44.2048 8.18945 43.9312 8.73633C43.5893 9.40625 43.261 9.70703 38.5698 13.3301L38.5561 26.4551L47.7882 17.2266L47.4052 14.0547C47.0496 11.0605 47.036 10.8281 47.2411 10.1445C47.3916 9.625 47.6378 9.24219 48.1301 8.75C48.6362 8.24414 49.0055 8.01172 49.5389 7.86133C49.9218 7.75195 50.4005 7.65625 50.592 7.65625C50.7835 7.65625 51.1802 7.72461 51.481 7.80664C51.7819 7.88867 52.288 8.13477 52.6163 8.35352C52.9308 8.57227 53.3412 9.00977 53.5326 9.32422C53.7104 9.65234 53.9156 10.1172 53.9703 10.3633C54.025 10.6094 54.0934 10.8008 54.1208 10.8008C54.1344 10.8008 54.49 10.5273 54.9004 10.1855C55.3107 9.84375 55.9125 9.50195 56.2407 9.41992C56.5553 9.33789 57.1571 9.29687 57.5674 9.32422C57.9777 9.35156 58.5385 9.48828 58.7984 9.61133C59.0582 9.73438 59.4822 10.0352 59.7421 10.2812C60.002 10.5273 60.3165 10.9785 60.4533 11.2793C60.6174 11.6348 60.7132 12.1406 60.7132 12.7148C60.7132 13.2754 60.6174 13.8086 60.467 14.1504C60.3302 14.4512 59.9746 14.957 59.6737 15.2852C59.3865 15.5996 59.1676 15.8867 59.2087 15.9004C59.2497 15.9277 59.5233 16.0098 59.8242 16.0918C60.1251 16.1875 60.6448 16.4473 60.973 16.707C61.3286 16.9668 61.7253 17.4453 61.9304 17.8418C62.2177 18.375 62.2861 18.7168 62.2861 19.4961C62.2861 20.3301 62.2313 20.5488 61.8757 21.123C61.6569 21.4922 61.2192 21.9844 60.9183 22.2168C60.5901 22.4766 60.0703 22.709 59.619 22.8047C58.9762 22.9414 58.4428 22.9141 52.7804 22.2168L43.5483 31.4453L56.6784 31.4316L58.6069 28.9434C60.3029 26.7422 60.6038 26.4141 61.2739 26.0723C61.821 25.7988 62.204 25.7031 62.7648 25.7031C63.1751 25.7031 63.7632 25.7852 64.0641 25.8672C64.3923 25.9766 64.8847 26.3047 65.295 26.7285C65.719 27.1387 66.0473 27.6309 66.1567 27.959C66.2388 28.2598 66.3208 28.8477 66.3208 29.2578C66.3208 29.791 66.2251 30.2012 65.9789 30.6934C65.7874 31.0625 65.637 31.377 65.637 31.377C65.637 31.377 66.0473 31.4316 66.5533 31.4863C67.0731 31.541 67.7296 31.7051 68.0305 31.8555C68.3314 31.9922 68.7827 32.3477 69.0426 32.6348C69.3025 32.9219 69.6307 33.4004 69.7675 33.7012C69.8906 34.002 70 34.5488 70 34.9316C70 35.3008 69.9316 35.834 69.8359 36.0938C69.7401 36.3672 69.5076 36.8047 69.2888 37.0918C69.0836 37.3652 68.687 37.748 68.3998 37.9395C68.0578 38.1855 67.5518 38.3359 66.7995 38.4453C66.1977 38.541 65.6917 38.6094 65.678 38.6094C65.6643 38.623 65.8011 38.9238 65.9926 39.3066C66.2251 39.7852 66.3208 40.209 66.3208 40.7422C66.3208 41.1523 66.2388 41.7402 66.1567 42.041C66.0473 42.3691 65.719 42.8613 65.295 43.2715C64.8847 43.6953 64.3923 44.0234 64.0641 44.1328C63.7632 44.2148 63.1751 44.2969 62.7648 44.2969C62.204 44.2969 61.821 44.2012 61.2739 43.9277C60.6038 43.5859 60.3029 43.2578 56.6784 38.5684L43.5483 38.5547L48.1301 43.1348C51.7136 46.7168 52.7804 47.7148 53.0539 47.7148C53.2454 47.7148 54.6815 47.5508 56.2681 47.3594C58.9215 47.0449 59.195 47.0312 59.8242 47.2227C60.1934 47.332 60.7816 47.6602 61.1098 47.9473C61.4381 48.2344 61.8347 48.7129 61.9988 49.0137C62.204 49.4102 62.2724 49.8203 62.2861 50.5176C62.2861 51.2832 62.2177 51.625 61.9304 52.1582C61.7253 52.5547 61.3286 53.0332 60.973 53.293C60.6448 53.5527 60.1251 53.8125 59.8242 53.9082C59.5233 53.9902 59.2497 54.0723 59.2087 54.0996C59.1676 54.1133 59.3865 54.4004 59.6737 54.7148C59.9746 55.043 60.3439 55.5762 60.4807 55.918C60.6448 56.2734 60.7542 56.8477 60.7542 57.2852C60.7542 57.7363 60.6448 58.2832 60.4807 58.6523C60.3302 58.9941 60.002 59.4727 59.7421 59.7187C59.4822 59.9648 59.0582 60.2656 58.7984 60.3887C58.5385 60.5117 57.9777 60.6348 57.5674 60.6758C57.1571 60.7031 56.5416 60.6484 56.1997 60.5527C55.8578 60.457 55.256 60.1016 54.8593 59.7871C54.4764 59.459 54.1344 59.2129 54.1071 59.2266C54.0797 59.2539 53.9977 59.5137 53.9156 59.8145C53.8199 60.1152 53.56 60.6348 53.3001 60.9629C53.0403 61.3184 52.5616 61.7148 52.1649 61.9199C51.6315 62.207 51.2896 62.2754 50.5236 62.2754C49.744 62.2754 49.4568 62.207 48.9508 61.9199C48.6088 61.7285 48.1301 61.3184 47.8839 61.0312C47.6378 60.7441 47.3369 60.1836 47.2274 59.8145C47.036 59.1719 47.0496 58.9258 47.7882 52.7734L38.5561 43.5449L38.5698 56.6699L41.059 58.5977C43.261 60.293 43.5893 60.5938 43.9312 61.2637C44.2048 61.8105 44.3005 62.1934 44.3005 62.7539C44.3005 63.1641 44.2184 63.752 44.1364 64.0527C44.027 64.3809 43.6987 64.873 43.2747 65.2832C42.8644 65.707 42.372 66.0352 42.0438 66.1445C41.7429 66.2266 41.1547 66.3086 40.7444 66.3086C40.211 66.3086 39.8007 66.2129 39.3083 65.9668C38.939 65.7754 38.6245 65.625 38.6245 65.625C38.6245 65.625 38.5698 66.0352 38.515 66.541C38.4467 67.0605 38.3236 67.6621 38.2278 67.8809C38.1321 68.0996 37.8722 68.4961 37.6534 68.7559C37.4345 69.0156 36.9558 69.3984 36.5729 69.6035C36.0121 69.9316 35.7249 70 35 70C34.2751 70 33.9879 69.9316 33.4271 69.6035C33.0578 69.3984 32.5655 69.0156 32.3466 68.7559C32.1278 68.4961 31.8679 68.0996 31.7722 67.8809C31.6764 67.6621 31.5533 67.0605 31.485 66.541C31.4302 66.0352 31.3755 65.625 31.3755 65.625C31.3755 65.625 31.0746 65.7754 30.6917 65.9668C30.1993 66.2129 29.789 66.3086 29.2556 66.3086C28.8453 66.3086 28.2571 66.2266 27.9562 66.1445C27.628 66.0352 27.1356 65.707 26.7253 65.2832C26.3013 64.873 25.973 64.3809 25.8636 64.0527C25.7816 63.752 25.6995 63.1641 25.6995 62.7539C25.6995 62.1934 25.7952 61.8105 26.0688 61.2637C26.4107 60.5938 26.739 60.293 31.4302 56.6699L31.4439 43.5449L22.2118 52.7734L22.5948 55.9453C22.9504 58.9395 22.964 59.1719 22.7589 59.8418C22.6084 60.3613 22.3623 60.7578 21.8972 61.2227C21.4459 61.6875 21.0356 61.9609 20.5021 62.1387C19.9687 62.3027 19.5447 62.3574 19.066 62.2891C18.6831 62.248 18.1086 62.0703 17.7667 61.8926C17.4248 61.7148 16.9461 61.3047 16.6999 60.9629C16.44 60.6348 16.1801 60.1152 16.0844 59.8145C16.0023 59.5137 15.9203 59.2539 15.8929 59.2266C15.8656 59.2129 15.5236 59.459 15.127 59.7871C14.744 60.1016 14.1422 60.457 13.8003 60.5527C13.4584 60.6484 12.8429 60.7031 12.4326 60.6758C12.0223 60.6348 11.4615 60.5117 11.2016 60.3887C10.9418 60.2656 10.5178 59.9648 10.2579 59.7187C9.99805 59.4727 9.68347 59.0215 9.5467 58.7207C9.38257 58.3652 9.28683 57.8594 9.28683 57.2852C9.28683 56.7246 9.38257 56.1914 9.53302 55.8496C9.66979 55.5488 10.0254 55.043 10.3263 54.7148C10.6135 54.4004 10.8324 54.1133 10.7913 54.0996C10.7503 54.0723 10.4767 53.9902 10.1759 53.9082C9.87495 53.8125 9.35522 53.5527 9.02696 53.293C8.67136 53.0332 8.27472 52.5547 8.06956 52.1582C7.78234 51.625 7.71395 51.2832 7.71395 50.5176C7.71395 49.7383 7.78234 49.4512 8.06956 48.9453C8.26104 48.6035 8.67136 48.125 8.95858 47.8789C9.2458 47.6328 9.83392 47.332 10.2442 47.2227C10.9555 47.0176 11.1606 47.0312 17.2196 47.7832L26.4381 38.5547L13.3216 38.5684L11.3931 41.0566C9.69715 43.2578 9.39625 43.5859 8.72607 43.9277C8.17898 44.2012 7.79601 44.2969 7.23525 44.2969C6.82493 44.2969 6.23681 44.2148 5.93591 44.1328C5.60766 44.0234 5.11528 43.6953 4.70496 43.2715C4.28097 42.8613 3.95272 42.3691 3.8433 42.041C3.76124 41.7402 3.67917 41.1523 3.67917 40.7422C3.67917 40.209 3.77491 39.7988 4.0211 39.3066C4.21258 38.9375 4.36303 38.623 4.36303 38.623C4.36303 38.623 3.95272 38.5684 3.44666 38.5137C2.92692 38.459 2.27042 38.2949 1.96952 38.1445C1.66862 38.0078 1.21727 37.6523 0.957405 37.3652C0.697538 37.0781 0.369285 36.5996 0.232513 36.2988C0.109418 35.998 0 35.4512 0 35.0684C0 34.6992 0.0683861 34.166 0.164127 33.9062C0.259867 33.6328 0.49238 33.1953 0.697538 32.9082C0.916374 32.6348 1.31301 32.252 1.58656 32.0605C1.94216 31.8145 2.44822 31.6641 3.20047 31.5547C3.80227 31.459 4.30832 31.3906 4.322 31.3906C4.33568 31.377 4.19891 31.0762 4.00742 30.6934C3.77491 30.2148 3.67917 29.791 3.67917 29.2578C3.67917 28.8477 3.76124 28.2598 3.8433 27.959C3.95272 27.6309 4.28097 27.1387 4.70496 26.7285C5.11528 26.3047 5.60766 25.9766 5.93591 25.8672C6.23681 25.7852 6.82493 25.7031 7.23525 25.7031C7.79601 25.7031 8.17898 25.7988 8.72607 26.0723C9.39625 26.4141 9.69715 26.7422 13.3216 31.4316L26.4517 31.4453L17.2196 22.2168L14.0465 22.5996C11.0649 22.9551 10.8187 22.9688 10.1759 22.7773C9.79289 22.6543 9.2458 22.3672 8.95858 22.1211C8.67136 21.875 8.26104 21.3965 8.06956 21.0547C7.78234 20.5488 7.71395 20.2617 7.71395 19.4824C7.71395 18.7168 7.78234 18.375 8.06956 17.8418C8.27472 17.4453 8.67136 16.9668 9.02696 16.707C9.35522 16.4473 9.87495 16.1875 10.1759 16.0918C10.4767 16.0098 10.7503 15.9277 10.7913 15.9004C10.8324 15.8867 10.6135 15.5996 10.3263 15.2852C10.0254 14.957 9.66979 14.4512 9.53302 14.1504C9.38257 13.8086 9.28683 13.2754 9.28683 12.7148C9.28683 12.1406 9.38257 11.6348 9.5467 11.2793C9.68347 10.9785 9.99805 10.5273 10.2579 10.2812C10.5178 10.0352 10.9418 9.73438 11.2016 9.61133C11.4615 9.48828 12.0223 9.35156 12.4326 9.32422C12.8429 9.29687 13.4447 9.33789 13.7593 9.41992C14.0875 9.50195 14.6893 9.84375 15.0996 10.1855C15.51 10.5273 15.8793 10.8008 15.9203 10.8008C15.9613 10.8008 16.016 10.5957 16.0571 10.3496C16.0981 10.1172 16.3032 9.625 16.5358 9.25586C16.8093 8.82747 17.1831 8.47656 17.6573 8.20312C18.0539 7.98437 18.6557 7.76563 18.9977 7.71094C19.3396 7.66992 19.8867 7.69727 20.2286 7.79297C20.5705 7.875 21.0766 8.09375 21.3501 8.28516C21.6374 8.46289 22.0614 8.87305 22.2802 9.20117C22.5127 9.51563 22.7589 10.0898 22.8273 10.459C22.9367 10.9922 22.882 11.7852 22.2118 17.2266L31.4439 26.4551L31.4302 13.3301L28.941 11.4023C26.739 9.70703 26.4107 9.40625 26.0688 8.73633C25.7952 8.18945 25.6995 7.80664 25.6995 7.24609C25.6995 6.83594 25.7816 6.24805 25.8636 5.94727C25.973 5.61914 26.3013 5.12695 26.7253 4.7168C27.1356 4.29297 27.628 3.96484 27.9562 3.85547C28.2571 3.77344 28.8453 3.69141 29.2556 3.69141C29.789 3.69141 30.1993 3.78711 30.6917 4.0332C31.061 4.22461 31.3755 4.375 31.3755 4.375C31.3755 4.375 31.4302 3.96484 31.485 3.45898C31.5533 2.93945 31.6764 2.33789 31.7722 2.11914C31.8679 1.90039 32.1278 1.50391 32.3466 1.24414C32.5655 0.984375 33.0442 0.601563 33.4271 0.396484C33.9879 0.0683594 34.2751 0 35 0V0ZM33.9879 3.08984C33.8238 3.44531 33.7691 4.00586 33.7691 5.53711V7.51953C33.1809 7.95703 32.8527 8.08008 32.6338 8.06641C32.3877 8.06641 31.8269 7.73828 30.9242 7.04102C29.8984 6.26172 29.4881 6.0293 29.1462 6.01562C28.8453 6.01562 28.5854 6.125 28.3666 6.35742C28.1477 6.57617 28.0246 6.86328 28.0246 7.15039C28.0246 7.46484 28.134 7.69727 28.4623 8.01172C28.7085 8.24414 29.9258 9.22852 31.1704 10.1855C32.415 11.1426 33.5092 12.0313 33.6049 12.1543C33.7417 12.3184 33.7691 14.2734 33.7691 21.123L33.7827 29.873C33.263 30.3789 32.9758 30.4883 32.6749 30.4883C32.2235 30.4883 31.8269 30.1191 26.0141 24.3086C21.1587 19.4414 19.8183 18.0469 19.8183 17.7734C19.8183 17.582 20.0098 15.9961 20.2286 14.2598C20.5295 11.9219 20.5979 10.9785 20.5021 10.7324C20.4201 10.541 20.2286 10.2949 20.0508 10.1855C19.8867 10.0762 19.6405 9.98047 19.5037 9.98047C19.3806 9.98047 19.0934 10.0762 18.8609 10.1855C18.5737 10.3359 18.4095 10.541 18.3275 10.9102C18.2591 11.1836 18.1633 11.8125 18.1086 12.3047C18.0539 12.7969 17.9582 13.4258 17.8898 13.7129C17.8214 13.9863 17.6299 14.3145 17.4521 14.4238C17.288 14.5332 16.9734 14.6289 16.7409 14.6289C16.4127 14.6289 16.0434 14.3418 14.7851 13.125C13.39 11.7578 13.2122 11.6211 12.7335 11.6211C12.3779 11.6211 12.1317 11.7031 11.9265 11.9219C11.7168 12.1315 11.612 12.4095 11.612 12.7559C11.612 13.2207 11.7351 13.3984 13.1165 14.8066C14.3337 16.0508 14.6209 16.4199 14.6209 16.748C14.6209 16.9805 14.5252 17.2949 14.4158 17.4727C14.3064 17.6367 13.9781 17.8281 13.6909 17.8965C13.4174 17.9648 12.7882 18.0605 12.2958 18.1152C11.8034 18.1699 11.1743 18.2656 10.8871 18.334C10.5178 18.4297 10.3263 18.5664 10.1622 18.9082C10.0254 19.1816 9.98437 19.4824 10.0391 19.6875C10.0938 19.8789 10.2032 20.1113 10.2853 20.2207C10.381 20.3164 10.5862 20.4668 10.7503 20.5215C10.9555 20.6035 12.1727 20.5078 14.238 20.2344C15.9887 20.0156 17.5752 19.8242 17.7667 19.8242C18.0403 19.8242 19.4353 21.1641 24.3044 26.0176C30.0899 31.8008 30.4865 32.2246 30.4865 32.6758C30.4956 32.9948 30.3953 33.2546 30.1856 33.4551L29.871 33.7695C14.2517 33.7695 12.3095 33.7422 12.1454 33.6055C12.0223 33.5098 11.0375 32.293 9.95702 30.8984C8.87652 29.5039 7.90543 28.3008 7.78234 28.2051C7.67292 28.1094 7.37202 28.0273 7.12583 28.0273C6.82493 28.0273 6.56507 28.1367 6.34623 28.3691C6.11372 28.6016 6.0043 28.8613 6.0043 29.1895C6.0043 29.5586 6.14107 29.8457 6.59242 30.3926C6.92067 30.7754 7.3857 31.377 7.63189 31.7188C7.8644 32.0605 8.05588 32.498 8.05588 32.7168C8.05588 32.9219 7.90543 33.2363 7.71395 33.4277C7.39938 33.7559 7.33099 33.7695 5.42986 33.7695C3.8433 33.7695 3.37827 33.8105 2.99531 34.0156C2.72177 34.1387 2.4619 34.4121 2.37984 34.6172C2.2841 34.877 2.2841 35.123 2.37984 35.3828C2.4619 35.5879 2.72177 35.8613 2.99531 35.9844C3.39195 36.1895 3.8433 36.2305 5.49824 36.2305H7.50879C7.94646 36.8184 8.06956 37.1465 8.05588 37.3652C8.05588 37.6113 7.72763 38.1719 7.03009 39.0742C6.25049 40.0859 6.01798 40.5098 6.0043 40.8516C6.0043 41.1432 6.11828 41.403 6.34623 41.6309C6.56507 41.8496 6.83861 41.9727 7.13951 41.9727C7.45408 41.9727 7.6866 41.8633 8.00117 41.5352C8.23369 41.2891 9.21845 40.0723 10.1759 38.8281C11.1333 37.584 12.0223 36.4902 12.1454 36.3945C12.3095 36.2578 14.2653 36.2305 21.1176 36.2305L29.871 36.2168C30.3771 36.7363 30.4865 37.0234 30.4865 37.3242C30.4865 37.7754 30.1172 38.1719 24.3044 43.9824C19.4353 48.8359 18.0403 50.1758 17.7667 50.1758C17.5752 50.1758 15.9887 49.9844 14.2517 49.7656C11.9129 49.4648 10.9691 49.3965 10.7229 49.4922C10.5315 49.5742 10.2853 49.7656 10.1759 49.9434C10.0664 50.1074 9.97069 50.3535 9.97069 50.4902C9.97069 50.6133 10.0664 50.9141 10.1759 51.1328C10.3263 51.4199 10.5315 51.584 10.9007 51.666C11.1743 51.7344 11.8034 51.8301 12.2958 51.8848C12.7882 51.9395 13.4174 52.0352 13.7046 52.1035C13.9781 52.1719 14.3064 52.3633 14.4158 52.541C14.5252 52.7051 14.6209 53.0332 14.6209 53.252C14.6209 53.5801 14.3337 53.9492 13.1165 55.207C11.7487 56.6016 11.612 56.7793 11.612 57.2578C11.612 57.6133 11.694 57.8594 11.9129 58.0645C12.1226 58.2741 12.4007 58.3789 12.7472 58.3789C13.2122 58.3789 13.39 58.2559 14.7988 56.875C16.0434 55.6582 16.4127 55.3711 16.7409 55.3711C16.9734 55.3711 17.288 55.4668 17.4658 55.5762C17.6299 55.6855 17.8214 56.0137 17.8898 56.3008C17.9582 56.5742 18.0539 57.2031 18.1086 57.6953C18.1633 58.1875 18.2591 58.8164 18.3275 59.1035C18.4095 59.459 18.5737 59.6641 18.8609 59.8145C19.0934 59.9238 19.3806 60.0195 19.5174 60.0195C19.6405 60.0195 19.8867 59.9238 20.0645 59.8145C20.2286 59.7051 20.4201 59.459 20.5021 59.2676C20.5979 59.0215 20.5295 58.0781 20.2286 55.7539C20.0098 54.0039 19.8183 52.418 19.8183 52.2266C19.8183 51.9531 21.1587 50.5449 25.9867 45.7051C31.8679 39.7852 32.1688 39.5117 32.6475 39.5117C33.0031 39.5117 33.2493 39.6074 33.4545 39.8125L33.7691 40.127C33.7691 55.7402 33.7417 57.6816 33.6049 57.8457C33.5092 57.9688 32.2919 58.9531 30.8968 60.0332C29.5018 61.1133 28.2982 62.084 28.2024 62.207C28.1067 62.3164 28.0246 62.6172 28.0246 62.8633C28.0246 63.1549 28.1386 63.4147 28.3666 63.6426C28.5991 63.875 28.8589 63.9844 29.1872 63.9844C29.5565 63.9844 29.8437 63.8477 30.3908 63.3965C30.7737 63.0684 31.3755 62.6035 31.7175 62.3574C32.0594 62.125 32.4834 61.9199 32.6749 61.9199C32.8664 61.9199 33.1809 62.043 33.3998 62.207L33.7691 62.4805C33.7691 66.1445 33.8101 66.5957 34.0152 66.9922C34.1383 67.2656 34.4119 67.5254 34.6307 67.6074C34.8769 67.7031 35.1231 67.7031 35.383 67.6074C35.5881 67.5254 35.8617 67.2656 35.9848 66.9922C36.1899 66.5957 36.231 66.1445 36.231 64.5039V62.4805C36.8191 62.043 37.1473 61.9199 37.3662 61.9336C37.6123 61.9336 38.1731 62.2617 39.0758 62.959C40.1016 63.7383 40.5119 63.9707 40.8538 63.9844C41.1547 63.9844 41.4146 63.875 41.6335 63.6426C41.8523 63.4238 41.9754 63.1367 41.9754 62.8633C41.9754 62.5352 41.866 62.3027 41.5377 61.9883C41.2915 61.7559 40.0742 60.7715 38.8296 59.8145C37.585 58.8574 36.4908 57.9688 36.3951 57.8457C36.2583 57.6816 36.231 55.7266 36.231 48.877L36.2173 40.127C36.737 39.6211 37.0242 39.5117 37.3251 39.5117C37.7765 39.5117 38.1731 39.8809 43.9859 45.6914C48.8413 50.5586 50.1817 51.9531 50.1817 52.2266C50.1817 52.418 49.9902 54.0039 49.7714 55.7539C49.4705 58.0781 49.4021 59.0215 49.4979 59.2676C49.5799 59.459 49.7714 59.7051 49.9492 59.8145C50.1133 59.9238 50.3595 60.0195 50.4963 60.0195C50.6194 60.0195 50.9203 59.9238 51.1391 59.8145C51.4263 59.6641 51.5905 59.459 51.6725 59.1035C51.7409 58.8164 51.8367 58.1875 51.8914 57.6953C51.9461 57.2031 52.0418 56.5742 52.1102 56.3008C52.1786 56.0137 52.3701 55.6855 52.5479 55.5762C52.712 55.4668 53.0403 55.3711 53.2591 55.3711C53.5873 55.3711 53.9566 55.6582 55.2149 56.875C56.61 58.2422 56.7878 58.3789 57.2665 58.3789C57.6221 58.3789 57.8683 58.2969 58.0735 58.0781C58.2832 57.8685 58.388 57.5951 58.388 57.2578C58.388 56.7793 58.265 56.6016 56.8836 55.207C55.6663 53.9492 55.3791 53.5801 55.3791 53.252C55.3791 53.0332 55.4748 52.7051 55.5842 52.541C55.6936 52.3633 56.0219 52.1719 56.3091 52.1035C56.5827 52.0352 57.2118 51.9395 57.7042 51.8848C58.1966 51.8301 58.8257 51.7344 59.1129 51.666C59.4685 51.584 59.6737 51.4199 59.8242 51.1328C59.9336 50.9141 60.0293 50.6133 60.0293 50.4902C60.0293 50.3535 59.9336 50.1074 59.8242 49.9434C59.7147 49.7656 59.4685 49.5742 59.2771 49.4922C59.0309 49.3965 58.0871 49.4648 55.762 49.7656C54.0113 49.9844 52.4248 50.1758 52.2333 50.1758C51.9598 50.1758 50.5647 48.8359 45.6956 43.9824C39.9101 38.1992 39.5135 37.7754 39.5135 37.3242C39.5044 37.0052 39.6047 36.7454 39.8144 36.5449L40.129 36.2305C55.7483 36.2305 57.6905 36.2578 57.8546 36.3945C57.9777 36.4902 58.9625 37.707 60.043 39.1016C61.1235 40.4961 62.0946 41.6992 62.2177 41.7949C62.3271 41.8906 62.628 41.9727 62.8742 41.9727C63.1751 41.9727 63.4349 41.8633 63.6538 41.6309C63.8863 41.3984 63.9957 41.1387 63.9957 40.8105C63.9957 40.4414 63.8589 40.1543 63.4076 39.6211C63.0793 39.2246 62.6143 38.623 62.3681 38.2812C62.1356 37.9395 61.9304 37.5156 61.9304 37.3242C61.9304 37.1328 62.0535 36.8184 62.2177 36.6133L62.4912 36.2305C66.1567 36.2305 66.6081 36.1895 67.0047 35.9844C67.2782 35.8613 67.5381 35.5879 67.6202 35.3828C67.7159 35.123 67.7159 34.877 67.6202 34.6172C67.5381 34.4121 67.2782 34.1387 67.0047 34.0156C66.6081 33.8105 66.1567 33.7695 64.5154 33.7695H62.4912C62.0535 33.1816 61.9304 32.8535 61.9441 32.6484C61.9441 32.3887 62.2724 31.8281 62.9699 30.9395C63.7495 29.9141 63.982 29.4902 63.9957 29.1621C63.9957 28.8613 63.8817 28.597 63.6538 28.3691C63.4349 28.1504 63.1614 28.0273 62.8742 28.0273C62.5459 28.0273 62.3134 28.1367 61.9988 28.4648C61.7663 28.7109 60.7816 29.9277 59.8242 31.1719C58.8667 32.416 57.9777 33.5098 57.8546 33.6055C57.6905 33.7422 55.7347 33.7695 48.8824 33.7695L40.129 33.7832C39.6229 33.2637 39.5135 32.9766 39.5135 32.6758C39.5135 32.2246 39.8828 31.8281 45.7229 26.0176C50.4005 21.3418 52.0145 19.8242 52.247 19.8242C52.4248 19.8242 54.0113 20.0156 55.762 20.2344C58.0871 20.5352 59.0309 20.6035 59.2771 20.5078C59.4685 20.4258 59.7147 20.2344 59.8242 20.0703C59.9336 19.8926 60.0293 19.6465 60.0293 19.5234C60.0293 19.3867 59.9336 19.0996 59.8242 18.8672C59.6737 18.5801 59.4685 18.416 59.1129 18.334C58.8257 18.2656 58.1966 18.1699 57.7042 18.1152C57.2118 18.0605 56.5827 17.9648 56.3091 17.8965C56.0219 17.8281 55.6936 17.6367 55.5842 17.4727C55.4748 17.2949 55.3791 16.9805 55.3791 16.748C55.3791 16.4199 55.6663 16.0508 56.8836 14.8066C58.2513 13.3984 58.388 13.2207 58.388 12.7559C58.388 12.3867 58.306 12.1406 58.0871 11.9355C57.8774 11.7259 57.6039 11.6211 57.2665 11.6211C56.7878 11.6211 56.61 11.7441 55.2149 13.125C53.9566 14.3418 53.5873 14.6289 53.2591 14.6289C53.0403 14.6289 52.712 14.5332 52.5479 14.4238C52.3701 14.3145 52.1786 13.9863 52.1102 13.7129C52.0418 13.4258 51.9461 12.7969 51.8914 12.3047C51.8367 11.8125 51.7409 11.1836 51.6725 10.9102C51.5768 10.5273 51.44 10.3359 51.1118 10.1719C50.8245 10.0352 50.5236 9.99414 50.3185 10.0488C50.127 10.1035 49.8945 10.2129 49.7851 10.2949C49.6893 10.3906 49.5389 10.5957 49.4842 10.7734C49.4021 10.9648 49.4979 12.1816 49.7714 14.2598C49.9902 15.9961 50.1817 17.582 50.1817 17.7734C50.1817 18.0469 48.8413 19.4414 43.9859 24.3086C38.2005 30.0918 37.7765 30.4883 37.3251 30.4883C37.006 30.4974 36.7461 30.3971 36.5455 30.1875L36.231 29.873C36.231 14.2598 36.2583 12.3184 36.3951 12.1543C36.4908 12.0313 37.585 11.1426 38.8296 10.1855C40.0742 9.22852 41.2915 8.24414 41.5377 8.01172C41.866 7.69727 41.9754 7.46484 41.9754 7.13672C41.9754 6.84961 41.8523 6.57617 41.6335 6.35742C41.4009 6.125 41.1411 6.01562 40.8128 6.01562C40.4435 6.01562 40.1563 6.15234 39.6229 6.60352C39.2263 6.93164 38.6245 7.39648 38.2825 7.64258C37.9406 7.875 37.5166 8.08008 37.3251 8.08008C37.1336 8.08008 36.8191 7.95703 36.6139 7.79297L36.231 7.51953C36.231 4.07422 36.1762 3.43164 36.0258 3.07617C35.9164 2.81641 35.6975 2.5293 35.5471 2.46094C35.3966 2.37891 35.1368 2.32422 34.9726 2.32422C34.7948 2.32422 34.5623 2.39258 34.4392 2.47461C34.3025 2.55664 34.111 2.83008 33.9879 3.08984V3.08984Z" fill="#B4BBC1"/>
</svg>
