<svg width="68" height="64" viewBox="0 0 68 64" fill="none" xmlns="http://www.w3.org/2000/svg">
<path fill-rule="evenodd" clip-rule="evenodd" d="M51.9003 0.00111195C52.2435 -0.0120641 52.9167 0.0933438 53.4051 0.23828C53.9067 0.37004 54.6326 0.646736 55.0286 0.844376C55.4246 1.04202 56.1242 1.56906 56.5861 2.01704C57.1537 2.57043 57.5497 3.11065 57.8533 3.7431C58.1041 4.25696 58.3681 4.98164 58.4473 5.36374C58.5265 5.73267 58.5925 6.35194 58.5925 6.7077C58.5925 7.07662 58.5265 7.68272 58.4473 8.06482C58.3681 8.43375 58.1305 9.1189 57.9193 9.56689C57.7081 10.0412 57.2065 10.7527 56.7577 11.2139C56.2958 11.7146 55.649 12.2284 55.1474 12.492C54.6854 12.7423 53.999 13.019 53.6427 13.1244C53.2731 13.2166 52.5075 13.2957 51.9267 13.2957C51.3328 13.2957 50.554 13.2035 50.1448 13.0849C49.7488 12.9663 49.1152 12.716 48.7589 12.5315C48.3893 12.3602 47.7029 11.8068 47.2277 11.3325C46.6865 10.7791 46.2246 10.173 45.987 9.67229C45.789 9.23749 45.5382 8.49963 45.4458 8.0253C45.3402 7.55096 45.261 6.95804 45.261 6.7077C45.261 6.45735 45.3402 5.86443 45.4458 5.3901C45.5382 4.91576 45.789 4.1779 45.987 3.7431C46.2246 3.24241 46.6733 2.63631 47.2277 2.08292C47.7029 1.60858 48.3629 1.06837 48.6929 0.910256C49.0228 0.738968 49.7356 0.462272 50.2768 0.30416C50.818 0.132872 51.5439 0.00111195 51.8871 0.00111195H51.9003ZM49.7884 2.72854C49.4848 2.88666 49.0096 3.24241 48.7325 3.50593C48.4553 3.78262 48.1121 4.27014 47.9405 4.59954C47.7821 4.92894 47.5841 5.54821 47.4917 5.98302C47.3597 6.65499 47.3729 6.91851 47.5709 7.6959C47.6897 8.19658 47.9669 8.88173 48.1649 9.21113C48.3761 9.54053 48.7457 9.96217 48.9964 10.1466C49.234 10.3311 49.696 10.6341 50.026 10.8054C50.5408 11.0821 50.8048 11.1217 51.9399 11.1217C53.0355 11.1217 53.3655 11.069 53.8539 10.8318C54.1838 10.6737 54.7118 10.3179 55.0286 10.0412C55.3718 9.73818 55.7678 9.21113 56.0186 8.6841C56.375 7.93306 56.4277 7.6959 56.4277 6.7077C56.4277 5.7195 56.375 5.48233 56.0186 4.7313C55.7678 4.20426 55.3718 3.67722 55.0286 3.37417C54.7118 3.09747 54.1838 2.74172 53.8539 2.58361C53.4183 2.38597 52.9695 2.29374 52.1379 2.26738C51.5175 2.25421 50.8708 2.28056 50.686 2.34644C50.5012 2.39914 50.092 2.58361 49.7884 2.72854ZM23.3631 39.5291C23.5479 39.5159 23.8118 39.6213 23.9702 39.7531C24.1286 39.8717 24.947 40.8599 25.805 41.9535C26.6629 43.0339 27.4021 44.0617 27.4681 44.2198C27.5473 44.4306 27.5209 44.6677 27.3889 44.984C27.2569 45.3002 27.0853 45.4715 26.8213 45.5242C26.6233 45.5637 26.333 45.5637 26.1614 45.5242C26.003 45.4847 25.5542 45.0235 24.485 43.5873L24.419 46.8286L26.3989 48.805C28.0621 50.4652 28.3789 50.8473 28.3789 51.1767C28.3789 51.4402 28.2601 51.6906 28.0357 51.9014C27.8377 52.099 27.5473 52.2308 27.3097 52.2308C27.0061 52.2308 26.6893 51.9804 24.419 49.7273V54.9977L25.607 55.2217C26.267 55.3535 27.4681 55.6697 28.2733 55.9332C29.0916 56.1967 30.3324 56.6447 31.0188 56.9346C31.7051 57.2245 33.0119 57.8438 33.9226 58.3181C34.8334 58.7792 36.1666 59.3853 36.8925 59.6752C37.6185 59.9519 38.8988 60.3604 39.7304 60.5844C40.562 60.7952 41.9347 61.0719 42.7663 61.2036C43.7431 61.3617 45.0762 61.4408 46.5281 61.4408C47.7557 61.454 49.234 61.4144 50.818 61.2563V57.5012C50.818 55.4325 50.7784 53.746 50.7124 53.746C50.6596 53.746 49.9336 54.4312 49.102 55.2481C48.2705 56.0782 47.4257 56.816 47.2145 56.8951C46.9769 57.0005 46.7525 57.0005 46.5281 56.9083C46.3434 56.8292 46.1058 56.6447 45.987 56.4734C45.855 56.2758 45.8154 56.0518 45.8682 55.7883C45.9342 55.5116 46.7129 54.6156 50.6992 50.5179L50.686 48.7391C50.686 47.7378 50.6464 47.0131 50.5804 47.0921C50.5144 47.1712 49.9732 47.83 49.3924 48.5678C48.7985 49.3189 48.1913 49.9513 48.0461 49.9909C47.9009 50.0304 47.6501 50.0172 47.4785 49.9777C47.3201 49.925 47.0825 49.7932 46.9505 49.6746C46.8053 49.5429 46.7129 49.2793 46.7261 49.0027C46.7261 48.6074 47.0429 48.1462 48.9041 45.8009C50.1316 44.2593 51.2272 43.0207 51.4119 42.9417C51.6319 42.8539 51.8519 42.8539 52.0719 42.9417C52.2567 43.0207 53.3523 44.2593 54.5798 45.8009C56.2958 47.9618 56.7577 48.6205 56.7577 48.9368C56.7577 49.1476 56.6785 49.4506 56.5861 49.5956C56.4805 49.7405 56.243 49.8986 56.0582 49.9513C55.8602 50.0172 55.5698 50.004 55.3982 49.9381C55.2398 49.8854 54.6062 49.2003 52.8639 47.0263L52.7979 50.5179L55.3058 53.0213C57.6025 55.314 57.8137 55.5643 57.8137 55.9859C57.8137 56.289 57.7081 56.5525 57.5101 56.7501C57.3121 56.9478 57.0745 57.04 56.7577 57.04C56.3486 57.0268 56.111 56.8555 52.9299 53.6801V60.861L53.3523 60.782C53.5899 60.7293 54.5006 60.4526 55.3718 60.1759C56.243 59.886 57.6025 59.3458 58.4077 58.9637C59.1996 58.5816 60.3876 57.9623 61.0476 57.5671C61.6943 57.1718 62.7107 56.4998 63.2915 56.065C63.8723 55.6302 64.7434 54.9055 65.2318 54.4443C65.8786 53.8514 66.235 53.6143 66.4857 53.6143C66.7101 53.6011 67.0005 53.746 67.2381 53.97C67.5549 54.2862 67.5945 54.4048 67.5285 54.866C67.4889 55.1558 67.3173 55.5379 67.1589 55.6961C66.9873 55.8673 66.3538 56.4076 65.7334 56.8951C65.113 57.3958 64.0702 58.1468 63.4235 58.5816C62.7635 59.0164 61.6943 59.6752 61.0476 60.031C60.3876 60.3867 59.292 60.9401 58.6057 61.2563C57.9193 61.5594 56.5729 62.0732 55.6358 62.3763C54.6854 62.6925 53.3259 63.0614 52.5999 63.2196C51.8739 63.3645 50.7388 63.549 50.092 63.6412C49.432 63.7202 47.8877 63.7861 46.6601 63.7861C45.2478 63.7861 43.8223 63.7071 42.8323 63.5753C41.9611 63.4435 40.7468 63.2327 40.1264 63.0878C39.506 62.9429 38.5821 62.7057 38.0805 62.5476C37.5657 62.3895 36.5361 62.0205 35.7706 61.7175C35.005 61.4013 33.3419 60.6239 32.0747 59.9783C30.57 59.2141 29.118 58.5948 27.9169 58.1995C26.9005 57.8569 25.4354 57.4616 24.6434 57.3167C23.8646 57.1586 22.5051 56.9741 21.6075 56.8951C20.7232 56.816 19.3768 56.7897 18.6113 56.8424C17.8457 56.8951 16.6313 57.0137 15.9054 57.1191C15.1794 57.2245 14.0178 57.4616 13.3315 57.6329C12.6451 57.8042 11.3911 58.1863 10.5596 58.4762C9.72801 58.7529 8.42126 59.2799 7.65569 59.6357C6.89013 59.9914 5.67577 60.6239 4.9498 61.0192C4.22383 61.4276 3.15467 62.0337 2.5739 62.3631C1.86113 62.7716 1.37275 62.9692 1.05596 62.9692C0.76557 62.9692 0.488381 62.8638 0.290388 62.6662C0.118795 62.5081 0 62.2182 0 62.0074C0 61.8097 0.0527979 61.533 0.131995 61.3881C0.197992 61.2432 0.633575 60.9269 1.08236 60.6898C1.54434 60.4526 2.83789 59.7147 3.95984 59.0691C5.0818 58.4235 6.65253 57.6066 7.4577 57.2508C8.24967 56.8951 9.50362 56.4076 10.2296 56.1572C10.9556 55.9069 12.1435 55.5643 12.8695 55.3798C13.5955 55.2085 14.955 54.9714 15.9054 54.8528C17.1065 54.7079 18.3341 54.6552 22.3071 54.7342V52.323C22.3071 50.597 22.2675 49.925 22.1487 49.925C22.0695 49.925 21.5811 50.373 21.0664 50.9263C20.5516 51.4797 19.9312 52.0068 19.6936 52.1122C19.3372 52.2703 19.2184 52.2703 18.9016 52.1122C18.7037 52.02 18.4661 51.7828 18.3737 51.5851C18.2417 51.3085 18.2549 51.1635 18.4001 50.8078C18.5057 50.5838 19.4164 49.556 22.3071 46.6969V45.2738C22.3071 44.4965 22.2675 43.8377 22.2015 43.7981C22.1487 43.7718 21.8451 44.1012 21.5151 44.536C21.1852 44.984 20.8156 45.3924 20.6836 45.4583C20.5648 45.5242 20.3272 45.5769 20.1556 45.5769C19.9972 45.5901 19.7068 45.4715 19.4956 45.3134C19.2316 45.1157 19.1392 44.9444 19.1392 44.5887C19.1392 44.1934 19.39 43.7981 20.8552 41.9535C21.8055 40.7545 22.6767 39.7267 22.8087 39.6477C22.9275 39.5818 23.1783 39.5291 23.3631 39.5291ZM20.6572 61.085C21.6735 61.1114 23.1915 61.23 24.023 61.3354C24.8546 61.4408 25.9502 61.6121 26.4649 61.7175C27.1117 61.8493 27.4549 61.9942 27.6265 62.205C27.7585 62.3763 27.8641 62.6135 27.8509 62.732C27.8509 62.8638 27.7717 63.1273 27.6661 63.325C27.5737 63.5358 27.3493 63.7729 27.1777 63.8784C26.9005 64.0365 26.7157 64.0233 25.871 63.8388C25.3298 63.7334 24.4058 63.5753 23.8251 63.4963C23.2443 63.4172 21.8451 63.3118 20.7232 63.2723C19.5484 63.2327 17.9513 63.2591 16.9613 63.3513C16.011 63.4304 14.7702 63.5885 14.1894 63.7071C13.6087 63.8125 12.9487 63.9442 12.7375 63.9838C12.4207 64.0365 12.2623 63.9706 11.9059 63.6412C11.6815 63.4172 11.4835 63.101 11.4835 62.9297C11.4835 62.7716 11.5759 62.5081 11.6815 62.3368C11.7871 62.1787 11.9851 61.9942 12.1039 61.9283C12.2359 61.8624 13.0807 61.678 13.9914 61.533C14.9022 61.3749 16.3541 61.2036 17.2253 61.1377C18.0965 61.0719 19.6408 61.0455 20.6572 61.085ZM21.4755 8.15705C21.6471 8.15705 21.8847 8.20976 22.0035 8.27564C22.1355 8.34152 24.4718 11.7277 27.1909 15.786C29.91 19.8442 32.1671 23.1777 32.2067 23.1777C32.2463 23.1777 33.8171 21.781 35.7046 20.055C37.6053 18.3289 39.374 16.7215 39.638 16.4843C39.968 16.2076 40.2716 16.0627 40.5488 16.0627C40.892 16.0495 41.09 16.1681 41.4463 16.5502C41.6971 16.8269 43.4659 19.08 48.8381 26.0764L49.1548 25.8392C49.3264 25.7207 50.9104 24.3899 52.6527 22.8746C54.4082 21.3726 55.979 20.0945 56.1638 20.0155C56.4014 19.9232 56.5993 19.9364 56.8501 20.0418C57.0877 20.1604 58.7113 22.4662 62.1959 27.6575C64.9414 31.7553 67.2249 35.2206 67.2777 35.3655C67.3173 35.5104 67.3041 35.7871 67.2645 35.9848C67.2117 36.2219 67.0269 36.4328 66.7497 36.5645C66.4065 36.749 66.2614 36.7621 65.9314 36.6304C65.6146 36.5118 64.6642 35.1679 56.2958 22.5189L53.2995 25.1277C51.6627 26.5507 50.3032 27.7498 50.3032 27.7893C50.3032 27.8288 51.3592 29.2518 52.6659 30.9515C54.6854 33.5999 55.0286 34.1138 55.0418 34.5091C55.0418 34.8121 54.9362 35.0756 54.7382 35.2733C54.5798 35.4314 54.3026 35.5631 54.1178 35.5631C53.9331 35.5631 53.6691 35.4841 53.5239 35.3918C53.3787 35.2864 50.4088 31.4917 46.9241 26.946C43.4395 22.4003 40.562 18.6979 40.5224 18.6979C40.4828 18.6979 38.9384 20.0945 37.0905 21.8074C35.2426 23.5203 33.7115 24.9696 33.6851 25.0355C33.6719 25.1014 35.5198 27.8947 37.7901 31.2414C40.0736 34.6013 42.0007 37.4868 42.0931 37.6713C42.1855 37.8558 42.2251 38.1325 42.1855 38.2906C42.1459 38.4619 41.9743 38.7122 41.8027 38.8571C41.6443 39.0152 41.3275 39.1207 41.0768 39.1207C40.7336 39.1207 40.5752 39.0152 40.2188 38.5541C39.968 38.251 35.6914 31.9793 30.6888 24.6271C25.6994 17.2748 21.5679 11.2007 21.5283 11.148C21.4887 11.0953 17.1461 17.2221 11.8795 24.7852C6.61294 32.3482 2.17791 38.6595 2.01952 38.8176C1.84793 39.0021 1.57074 39.1207 1.31995 39.1207C1.09556 39.1207 0.805168 39.0021 0.659974 38.8571C0.50158 38.699 0.395984 38.4091 0.395984 38.1588C0.382785 37.8821 0.554378 37.4868 0.871165 37.0125C1.14835 36.6172 5.72857 30.0292 11.0612 22.3871C16.3937 14.7451 20.8552 8.4074 20.974 8.31517C21.0796 8.23611 21.3172 8.15705 21.4755 8.15705ZM21.5019 17.1167C21.6867 17.1036 21.9771 17.209 22.1223 17.3407C22.2807 17.4725 22.8087 18.1576 23.2839 18.856C23.7855 19.5938 24.155 20.2921 24.155 20.4766C24.155 20.6611 24.023 20.9509 23.8514 21.1222C23.6931 21.3067 23.4423 21.4648 23.2971 21.478C23.1519 21.5043 22.8879 21.478 22.7031 21.4253C22.5183 21.3858 22.1751 21.0564 21.9111 20.6743C21.6603 20.3185 21.4227 20.055 21.3831 20.0945C21.3435 20.134 19.9708 22.0709 18.3341 24.4031C16.6841 26.7352 15.2058 28.7116 15.0342 28.7907C14.823 28.8961 14.5986 28.9093 14.3874 28.8302C14.2026 28.7775 13.9782 28.5535 13.8858 28.3559C13.7803 28.1319 13.7407 27.8552 13.8066 27.6575C13.8594 27.4731 15.3774 25.1936 17.1989 22.5848C19.0072 19.9759 20.644 17.6833 20.8288 17.4725C21.0268 17.2748 21.3172 17.1167 21.5019 17.1167ZM25.3958 26.0764C25.6598 26.0764 25.9106 26.1818 26.0822 26.3663C26.267 26.5639 26.5177 27.2491 26.7817 28.2505C27.0061 29.1201 27.2305 29.9765 27.2965 30.1346C27.3493 30.3323 27.8905 30.7802 28.8013 31.36C29.6724 31.9134 30.2928 32.4141 30.4116 32.6249C30.504 32.8357 30.7812 33.5604 31.0056 34.2455C31.296 35.0888 31.4015 35.6027 31.3488 35.8267C31.296 36.0111 31.1244 36.2878 30.966 36.4591C30.8208 36.6172 30.5436 36.7621 30.3588 36.7621C30.174 36.7621 29.8704 36.6436 29.6592 36.4855C29.3952 36.2878 29.2104 35.9189 28.4845 33.6526L27.1249 32.7962C26.3725 32.3218 25.6994 31.8475 25.6334 31.7421C25.5674 31.6367 25.2374 30.5167 24.8942 29.265C24.5642 28.0265 24.3266 26.9197 24.3662 26.8274C24.419 26.7484 24.5774 26.5376 24.7226 26.3663C24.8942 26.195 25.145 26.0764 25.3958 26.0764ZM9.20003 37.5395C9.54322 37.5264 9.78081 37.6186 9.9656 37.8162C10.2032 38.0666 10.2296 38.3169 10.322 42.3488L11.8267 44.1934C13.1335 45.8009 13.3183 46.1039 13.3315 46.5256C13.3315 46.855 13.2391 47.1185 13.0675 47.2898C12.9091 47.4479 12.6319 47.5533 12.3679 47.5533C12.1435 47.5533 11.8531 47.4742 11.7343 47.382C11.6287 47.2898 11.2724 46.8681 10.3616 45.6559L10.2956 47.7509L12.2755 49.7273C13.8462 51.3085 14.2554 51.7828 14.2554 52.0595C14.2554 52.2967 14.1102 52.5733 13.8726 52.8237C13.6615 53.0345 13.3711 53.219 13.2391 53.219C13.1071 53.219 12.8167 53.1004 12.6055 52.9555C12.3811 52.8237 11.7871 52.2571 10.3616 50.7024L10.2956 51.9145C10.2296 53.0082 10.2032 53.1399 9.86001 53.4298C9.66202 53.6011 9.37163 53.746 9.20003 53.746C9.04164 53.7592 8.75125 53.6406 8.54006 53.4825C8.19687 53.2321 8.18367 53.1794 8.18367 52.0331C8.18367 51.3743 8.14408 50.8473 8.07808 50.8473C8.02528 50.8473 7.4841 51.348 6.86373 51.9541C6.16415 52.6524 5.59658 53.1004 5.34579 53.1531C5.0818 53.2058 4.85741 53.1663 4.64621 53.0345C4.48782 52.9159 4.28983 52.6919 4.21063 52.5206C4.13144 52.3625 4.10504 52.0858 4.15783 51.9014C4.21063 51.7169 5.1346 50.676 8.18367 47.6192V46.7232C8.18367 46.2357 8.14408 45.8141 8.07808 45.7877C8.02528 45.7482 7.66889 46.1303 7.28611 46.6441C6.63934 47.5006 6.57334 47.5533 6.07176 47.5533C5.71977 47.5533 5.45578 47.4655 5.27979 47.2898C5.1214 47.1317 5.0158 46.855 5.0158 46.5651C5.0158 46.1698 5.25339 45.8009 8.18367 42.1511V40.1089C8.18367 38.2379 8.21007 38.0402 8.44766 37.8031C8.61926 37.6318 8.89645 37.5395 9.20003 37.5395Z" fill="#ECEDEE"/>
</svg>
