<svg width="76" height="62" viewBox="0 0 76 62" fill="none" xmlns="http://www.w3.org/2000/svg">
<path fill-rule="evenodd" clip-rule="evenodd" d="M68.1761 0.00124553C68.5621 -0.0134496 69.2302 0.104112 69.6459 0.236368C70.0764 0.383319 70.7296 0.691917 71.086 0.941734C71.4423 1.17686 71.9619 1.70588 72.2439 2.11734C72.526 2.51411 72.8526 3.21948 72.9863 3.66033C73.1496 4.21875 73.1941 4.74777 73.1199 5.35027C73.0753 5.83521 72.8675 6.55527 72.6745 6.96674C72.4666 7.36351 72.1697 7.83375 71.7095 8.2893L72.0361 8.8771C72.333 9.40613 72.3627 9.70003 72.3924 11.8602C72.4369 14.2114 72.4369 14.2408 72.0658 14.6082C71.8728 14.8139 71.5313 14.9756 71.3235 14.9756C71.1156 14.9756 70.789 14.8139 70.5812 14.6082C70.2249 14.2555 70.21 14.182 70.21 12.257C70.21 11.1695 70.1507 10.1262 70.0764 9.93515C69.9577 9.62656 69.8686 9.61186 68.2949 9.61186C66.9884 9.61186 66.6024 9.65595 66.4985 9.83229C66.4094 9.96454 66.3501 14.858 66.3501 22.3672C66.3501 33.1975 66.3798 34.6671 66.5728 34.6671C66.6915 34.6671 67.2854 34.8581 67.8644 35.0932C68.4582 35.3136 69.2302 35.681 70.21 36.2835V18.6494L70.5812 18.282C70.7742 18.0763 71.1156 17.9146 71.3235 17.9146C71.5313 17.9146 71.8579 18.0763 72.4369 18.6494V28.3922C72.4221 37.3563 72.4369 38.1351 72.6745 38.3408C72.8081 38.4584 73.1941 38.9286 73.5356 39.3695C73.8622 39.8104 74.3818 40.6774 74.6935 41.2799C74.9905 41.8824 75.421 43.0433 75.6288 43.8515C76 45.321 76 45.3357 76 52.1543C76 57.1653 75.9406 59.1344 75.807 59.5606C75.7179 59.8692 75.3913 60.3982 75.1092 60.7215C74.8272 61.0448 74.2779 61.4563 73.877 61.6473C73.4762 61.8531 72.912 62 72.5409 62C72.1994 62 71.6204 61.8677 71.2493 61.6914C70.8781 61.5151 70.3882 61.2065 70.1655 60.986C69.928 60.7803 69.6014 60.3395 69.4232 60.0162C69.2302 59.6488 69.0966 59.0169 68.9481 57.1506H7.04005L6.95098 58.2821C6.89159 59.0169 6.75798 59.6488 6.56498 60.0162C6.38683 60.3395 6.06021 60.7803 5.82268 60.986C5.59999 61.2065 5.11007 61.5151 4.73892 61.6914C4.36776 61.8677 3.78877 62 3.43246 62C3.07616 62 2.51201 61.8531 2.09632 61.6473C1.71032 61.4563 1.17586 61.0595 0.908632 60.7656C0.656249 60.4717 0.329635 59.9868 0.210867 59.6929C0.00302204 59.2079 -0.0266701 58.1793 0.0178681 51.9338C0.0624063 45.13 0.0920984 44.6744 0.38902 43.6311C0.552326 43.0286 0.893786 42.1028 1.14617 41.5738C1.39855 41.0447 1.84393 40.2512 2.1557 39.8104C2.45262 39.3695 2.88316 38.7964 3.53638 38.1204L3.58092 23.7927C3.62546 10.4789 3.64031 9.43552 3.87784 8.97997C4.14507 8.52442 4.14507 8.49503 3.78877 8.02479C3.58092 7.77497 3.26916 7.21655 3.091 6.81979C2.83862 6.26137 2.74954 5.80582 2.74954 4.98289C2.74954 4.11588 2.82377 3.70442 3.12069 3.07253C3.32854 2.63167 3.78877 1.97039 4.14507 1.60302C4.51622 1.25033 5.1843 0.794783 5.62968 0.589051C6.26806 0.295148 6.6986 0.221673 7.55967 0.206978C8.52466 0.206978 8.82158 0.280453 9.63811 0.662526C10.232 0.956429 10.8258 1.38259 11.1673 1.76466C11.479 2.11734 11.8502 2.69045 12.0135 3.02844C12.1768 3.38113 12.3549 4.0718 12.3995 4.57143C12.4737 5.21802 12.4292 5.74704 12.2659 6.30546C12.1323 6.74631 11.8353 7.3782 11.5978 7.70149C11.2415 8.17174 11.1821 8.34808 11.3157 8.5832C11.39 8.74485 11.4939 8.8918 11.5087 8.90649C11.5384 8.93588 12.058 8.46564 12.6519 7.87784C13.3793 7.15777 14.0919 6.62875 14.9085 6.20259C15.5617 5.8646 16.6306 5.45314 17.2838 5.2768C18.4567 4.98289 18.7684 4.98289 37.9941 4.98289C56.6407 4.98289 57.5612 4.99759 58.6301 5.2621C59.2388 5.40905 60.1741 5.74704 60.7086 6.01155C61.243 6.27607 62.0447 6.7757 62.4901 7.11369C62.9355 7.45168 63.5293 7.9954 63.7817 8.33339C64.0489 8.67137 64.3162 8.95058 64.3755 8.95058C64.4498 8.95058 64.5834 8.78893 64.6725 8.5832C64.8061 8.34808 64.8061 8.18643 64.717 8.14235C64.6279 8.09826 64.4052 7.81905 64.2122 7.51046C64.0192 7.21655 63.752 6.56997 63.6035 6.08503C63.4254 5.46783 63.366 4.9682 63.4402 4.42448C63.4848 4.01302 63.6332 3.41052 63.752 3.10192C63.8856 2.80802 64.1677 2.30838 64.3904 1.98509C64.6131 1.67649 65.0585 1.23564 65.3851 1.01521C65.7117 0.780088 66.3055 0.47149 66.7212 0.309844C67.1221 0.148197 67.7753 0.0159407 68.1613 0.00124553H68.1761ZM66.4094 3.10192C66.1422 3.36643 65.8453 3.88076 65.7562 4.24814C65.6078 4.74777 65.6078 5.05637 65.7414 5.49722C65.8304 5.82052 66.0383 6.26137 66.2016 6.4818C66.3798 6.71692 66.7806 7.02552 67.1072 7.18716C67.4338 7.34881 67.9683 7.48107 68.2949 7.48107C68.6215 7.48107 69.156 7.34881 69.4826 7.18716C69.8092 7.02552 70.21 6.71692 70.3733 6.4818C70.5515 6.26137 70.7593 5.84991 70.8484 5.5707C70.9375 5.29149 70.9672 4.79186 70.9078 4.46857C70.8633 4.14527 70.6703 3.67503 70.4921 3.41052C70.2991 3.146 69.9131 2.80802 69.631 2.64637C69.349 2.48472 68.8739 2.32308 68.5918 2.27899C68.2949 2.23491 67.8198 2.27899 67.4784 2.41125C67.1517 2.52881 66.6767 2.83741 66.4094 3.10192ZM5.74845 3.1607C5.49606 3.41052 5.1843 3.91015 5.08037 4.26283C4.94676 4.64491 4.91707 5.11515 4.97645 5.42375C5.03584 5.70296 5.22884 6.1732 5.40699 6.45241C5.58514 6.73162 6.03052 7.11369 6.40167 7.29003C6.75798 7.48107 7.27759 7.62802 7.52997 7.62802C7.7972 7.62802 8.27228 7.52515 8.5692 7.3929C8.88097 7.27534 9.26696 7.05491 9.41542 6.92265C9.56388 6.7904 9.81627 6.40832 9.96473 6.08503C10.1132 5.76174 10.2468 5.2621 10.2468 4.98289C10.2468 4.70369 10.0983 4.17466 9.90534 3.82198C9.72719 3.4546 9.34119 3.01375 9.05912 2.82271C8.77704 2.64637 8.24259 2.45533 7.87143 2.41125C7.50028 2.38186 6.98067 2.42594 6.71344 2.52881C6.44621 2.61698 6.01568 2.91088 5.74845 3.1607ZM15.8883 8.17174C15.4429 8.43625 14.6858 9.02406 14.2107 9.4943C13.7356 9.96454 13.1269 10.7728 12.8449 11.3018C12.5628 11.8308 12.2362 12.7125 12.1174 13.2856C11.9244 14.1527 11.8799 15.9308 11.8799 24.2629V34.2262L17.7441 34.2409C16.5712 33.0359 15.9922 32.3158 15.6953 31.875C15.3984 31.4341 14.9827 30.5965 14.7897 30.0381C14.5819 29.465 14.374 28.6127 14.3295 28.1277C14.2552 27.5252 14.3146 26.9227 14.4779 26.2174C14.6115 25.6442 14.8936 24.8654 15.1163 24.4686C15.339 24.0866 15.8735 23.44 16.2892 23.0432C16.7197 22.6464 17.4917 22.1174 17.9964 21.8823C18.6645 21.559 19.2435 21.4121 20.0452 21.3386C20.6984 21.2945 21.4556 21.3239 21.901 21.4267C22.3018 21.5149 23.0144 21.8088 23.4598 22.0733L24.2763 22.5583C25.4195 21.559 26.1321 21.1475 26.5775 20.9859C27.0229 20.8095 27.8245 20.6479 28.359 20.6038C29.0122 20.545 29.6358 20.6038 30.289 20.7655C30.8234 20.8977 31.5509 21.1916 31.9221 21.3974C32.2932 21.6178 32.9019 22.1174 33.2879 22.4995C33.6887 22.8816 34.1935 23.6163 34.4459 24.116C34.6983 24.645 34.9506 25.4679 35.01 25.9969C35.0843 26.526 35.0843 27.3783 35.0249 27.9073C34.9655 28.4363 34.7725 29.2593 34.6092 29.7442C34.431 30.2291 34.0302 31.0521 33.7184 31.5811C33.3918 32.1101 32.798 32.9183 32.3823 33.3739L31.6251 34.2262H44.3927C43.2199 32.9183 42.6261 32.1101 42.2994 31.5811C41.9877 31.0521 41.5868 30.2291 41.4087 29.7442C41.2454 29.2593 41.0524 28.4363 40.993 27.9073C40.9188 27.3783 40.9336 26.526 40.993 25.9969C41.0672 25.4679 41.3345 24.6303 41.572 24.116C41.8244 23.6163 42.3291 22.8816 42.7151 22.4995C43.116 22.1174 43.7247 21.6178 44.0958 21.3974C44.467 21.1916 45.1944 20.8977 45.7289 20.7655C46.3821 20.6038 47.0056 20.545 47.6589 20.6038C48.1933 20.6479 48.995 20.8095 49.4404 20.9859C49.8858 21.1475 50.5835 21.559 50.9992 21.9264L51.7415 22.5583C53.0035 21.8088 53.7012 21.5149 54.1169 21.4267C54.5623 21.3239 55.3194 21.2945 55.9727 21.3386C56.7744 21.4121 57.3533 21.559 58.0066 21.8823C58.5262 22.1174 59.2982 22.6464 59.7139 23.0432C60.1444 23.44 60.6789 24.0866 60.9016 24.4686C61.1242 24.8654 61.4063 25.6442 61.5399 26.2174C61.7032 26.9227 61.7626 27.5252 61.6884 28.1277C61.6439 28.6127 61.436 29.465 61.2282 30.0381C61.0352 30.5965 60.6195 31.4341 60.3226 31.875C60.0256 32.3158 59.4466 33.0359 59.031 33.4621L58.2738 34.2409L64.138 34.2262C64.138 15.9308 64.0935 14.1527 63.9005 13.2856C63.7817 12.7125 63.4551 11.8308 63.173 11.3018C62.8909 10.7728 62.2971 9.97924 61.8517 9.53839C61.4063 9.09753 60.664 8.49503 60.1741 8.21582C59.699 7.93662 58.8825 7.58393 58.348 7.45168C57.4424 7.20186 56.0914 7.18716 37.9347 7.20186C20.0304 7.20186 18.4121 7.23125 17.5956 7.46637C17.1057 7.59863 16.3337 7.92192 15.8883 8.17174ZM7.08459 9.77351C5.98598 9.68534 5.94145 9.70003 5.86722 10.0086C5.82268 10.1997 5.79299 16.1806 5.79299 23.3077V36.2835C6.77283 35.681 7.54482 35.3136 8.12382 35.0932C8.71766 34.8581 9.3115 34.6671 9.43027 34.6671C9.62327 34.6671 9.65296 33.2122 9.65296 22.3966C9.65296 14.5053 9.59358 10.0233 9.5045 9.83229C9.41542 9.67064 9.3115 9.53839 9.23727 9.55308C9.17789 9.55308 8.9255 9.62656 8.68797 9.70003C8.43558 9.7882 7.72297 9.81759 7.08459 9.77351ZM26.1618 23.8661C25.6125 24.3511 25.0483 24.7185 24.7514 24.7625C24.499 24.8213 24.0685 24.8066 23.8309 24.7478C23.5786 24.7038 23.0441 24.4246 22.6433 24.1453C22.0643 23.7486 21.708 23.6163 21.0102 23.5428C20.5203 23.4988 19.8374 23.5428 19.4811 23.631C19.1396 23.7192 18.5754 24.0131 18.2191 24.2776C17.8777 24.5421 17.4471 24.9977 17.2541 25.2769C17.0611 25.5414 16.8088 26.1439 16.6751 26.5847C16.4821 27.2754 16.4673 27.5399 16.6158 28.3482C16.7197 28.8772 17.0166 29.7001 17.269 30.185C17.5362 30.67 18.1746 31.5076 18.7091 32.0366C19.2435 32.5657 20.0897 33.271 20.5945 33.609L21.5298 34.2262H28.359C31.0164 31.6105 31.5509 30.9492 31.9517 30.185C32.2487 29.6119 32.5753 28.8625 32.6644 28.4951C32.7683 28.1277 32.8425 27.393 32.8277 26.8346C32.8128 26.1439 32.7089 25.6442 32.4714 25.1593C32.2932 24.7772 31.922 24.2482 31.6548 23.9837C31.4024 23.7192 30.8977 23.3518 30.5414 23.1902C30.1702 22.9991 29.5615 22.8522 29.0271 22.8228C28.5371 22.7934 27.8988 22.8375 27.6167 22.911C27.3346 22.9844 26.6814 23.4253 26.1618 23.8661ZM44.7936 23.6016C44.467 23.8367 44.0067 24.3364 43.7544 24.7478C43.4426 25.2475 43.2644 25.7471 43.2051 26.2908C43.1605 26.7317 43.1754 27.4664 43.2347 27.9073C43.2941 28.3922 43.5911 29.2299 43.9622 29.9646C44.4818 31.008 44.8381 31.4635 46.1297 32.7126L47.6589 34.2262H54.4881C55.9281 33.271 56.7744 32.5657 57.3088 32.0366C57.9175 31.4341 58.4668 30.6994 58.7637 30.1116C59.031 29.5825 59.313 28.7596 59.417 28.2747C59.5506 27.5546 59.5357 27.246 59.3427 26.5847C59.2091 26.1439 58.9567 25.5414 58.7637 25.2769C58.5707 24.9977 58.1402 24.5421 57.7839 24.2776C57.4424 24.0131 56.8783 23.7192 56.522 23.631C56.1805 23.5428 55.5273 23.4988 55.0671 23.5135C54.399 23.5575 54.0724 23.6751 53.434 24.116C52.9886 24.4099 52.4245 24.7038 52.1869 24.7478C51.9494 24.8066 51.5188 24.8066 51.2516 24.7625C50.9695 24.7038 50.4054 24.3364 49.9155 23.8955C49.3216 23.3812 48.8317 23.0726 48.3566 22.9403C47.9706 22.8522 47.4065 22.764 47.0947 22.764C46.7978 22.7787 46.2782 22.8669 45.9516 22.9844C45.625 23.102 45.1053 23.3812 44.7936 23.6016ZM9.05912 37.0918C8.68797 37.224 7.96051 37.562 7.42605 37.8559C6.89159 38.1645 5.95629 38.8993 5.33276 39.5018C4.64984 40.1924 3.98177 41.0154 3.64031 41.6472C3.31369 42.2204 2.898 43.1755 2.705 43.778C2.39324 44.7038 2.33385 45.2329 2.28932 47.1138L2.22993 49.3622C7.0549 49.3622 8.5692 49.4063 8.70281 49.4651C8.83643 49.5385 9.04427 49.759 9.1482 49.9794C9.29666 50.2733 9.3115 50.4937 9.20758 50.7582C9.1185 50.964 8.91066 51.2285 8.71766 51.346C8.45043 51.5224 7.81205 51.5665 5.30307 51.5665H2.22993C2.22993 58.2087 2.25962 58.8993 2.45262 59.1638C2.57139 59.3549 2.83862 59.5606 3.04646 59.6488C3.31369 59.7516 3.55123 59.737 3.93723 59.5753C4.2193 59.4577 4.51622 59.1932 4.6053 58.9875C4.67953 58.7818 4.75376 58.1058 4.75376 57.4739C4.75376 56.6069 4.82799 56.2395 5.05068 55.8574C5.21399 55.6076 5.58514 55.2843 5.86722 55.1668C6.32744 54.9757 10.232 54.9463 38.0089 54.9463C65.7859 54.9463 69.6904 54.9757 70.1507 55.1668C70.4327 55.2843 70.8039 55.6076 70.9672 55.8574C71.1899 56.2395 71.2641 56.6069 71.2641 57.4739C71.2641 58.1058 71.3235 58.7818 71.4126 58.9875C71.5016 59.1932 71.7986 59.4577 72.0806 59.5753C72.4666 59.737 72.7042 59.7516 72.9714 59.6488C73.1793 59.5606 73.4465 59.3549 73.5652 59.1638C73.7582 58.8993 73.7879 58.2087 73.7879 55.1962V51.5665C13.2012 51.5812 13.1418 51.5812 12.7261 51.2726C12.4292 51.0668 12.3253 50.8464 12.3253 50.4937C12.3253 50.1998 12.444 49.9059 12.6519 49.7002L12.9933 49.3622H73.7879C73.684 45.2329 73.6246 44.7038 73.3129 43.778C73.1199 43.1755 72.7042 42.2204 72.3776 41.6472C72.0361 41.03 71.368 40.1777 70.6851 39.5018C70.0022 38.8258 69.1411 38.1645 68.5176 37.8265C67.9386 37.5032 66.9736 37.0771 66.3649 36.8713L65.2515 36.5039C16.304 36.4599 11.3454 36.4893 10.618 36.6509C10.128 36.7538 9.43027 36.9595 9.05912 37.0918Z" fill="#B4BBC1"/>
</svg>
