<svg width="62" height="62" viewBox="0 0 62 62" fill="none" xmlns="http://www.w3.org/2000/svg">
<path fill-rule="evenodd" clip-rule="evenodd" d="M12.6785 0C13.5746 0 14.1922 0.0726563 14.8582 0.254297C15.3789 0.399609 16.2387 0.738672 16.7715 1.00508C17.498 1.36836 18.0066 1.76797 18.7816 2.53086C19.6656 3.41484 19.9078 3.7418 20.3801 4.72266C20.6828 5.35234 20.9977 6.18789 21.252 7.26562H40.748L40.9055 6.57539C41.0023 6.18789 41.3172 5.35234 41.6199 4.72266C42.0922 3.7418 42.3223 3.41484 43.2184 2.54297C43.9813 1.78008 44.5262 1.36836 45.2285 1.00508C45.7613 0.726562 46.6332 0.3875 47.166 0.242188C47.941 0.0363281 48.3891 -0.0121094 49.4062 0.0242187C50.1328 0.0605469 50.9926 0.169531 51.4043 0.290625C51.8039 0.399609 52.5668 0.726562 53.0996 1.00508C53.8141 1.36836 54.3348 1.76797 55.1098 2.53086C55.9816 3.40273 56.2359 3.75391 56.7082 4.72266C57.0473 5.41289 57.35 6.24844 57.459 6.80547C57.568 7.3625 57.6406 8.40391 57.6406 10.8984H61.1523L62 11.7461V36.3887C62 54.2984 61.9637 61.1039 61.8668 61.3098C61.7941 61.4551 61.6125 61.673 61.4672 61.782C61.225 61.9879 59.4449 62 31 62C2.55508 62 0.775 61.9879 0.532812 61.782C0.3875 61.673 0.205859 61.4551 0.133203 61.2977C0.0363281 61.1039 0 54.3105 0 36.4492C0 17.0379 0.0363281 11.7945 0.145313 11.5523C0.230078 11.3707 0.448047 11.1527 0.629687 11.068C0.871875 10.9469 1.46523 10.8984 4.35938 10.8984V9.32422C4.35938 8.44023 4.43203 7.33828 4.54102 6.80547C4.65 6.22422 4.92852 5.44922 5.27969 4.72266C5.75195 3.76602 6.01836 3.40273 6.89023 2.53086C7.66523 1.76797 8.18594 1.36836 8.90039 1.00508C9.4332 0.726562 10.1961 0.411719 10.5957 0.302734C10.9953 0.19375 11.3465 0.0847656 11.3707 0.0605469C11.3949 0.0242187 11.9883 0 12.6785 0V0ZM10.1113 3.08789C9.66328 3.29375 9.06992 3.7418 8.58555 4.22617C8.05273 4.75898 7.66523 5.28776 7.42305 5.8125C7.21719 6.24844 6.98711 6.89023 6.91445 7.2293C6.8418 7.58047 6.78125 8.53711 6.78125 9.34844V10.8379C8.33125 10.9711 9.10625 11.1164 9.50586 11.2617C9.90547 11.3949 10.4746 11.6613 10.7773 11.8309C11.0801 12.0125 11.6129 12.4242 11.9641 12.7633C12.3273 13.1023 12.7875 13.6473 12.9934 13.9863C13.2113 14.3133 13.5141 14.943 13.6836 15.3789L13.9863 16.166L14.0469 46.8633C15.0277 46.0156 15.7906 45.5434 16.3719 45.2527C17.1832 44.8531 17.4617 44.6594 17.5828 44.3809C17.6676 44.175 17.9945 43.6785 18.3094 43.2547L18.8906 42.5039C18.8906 13.0055 18.8543 7.67734 18.7574 7.2293C18.6848 6.89023 18.4547 6.24844 18.2488 5.8125C18.0066 5.28776 17.6191 4.75898 17.0863 4.22617C16.5535 3.69336 16.0247 3.30586 15.5 3.06367C15.0641 2.85781 14.4223 2.62773 14.0711 2.55508C13.732 2.48242 13.1266 2.42188 12.7391 2.43398C12.3637 2.43398 11.7703 2.50664 11.4434 2.59141C11.1043 2.66406 10.5109 2.89414 10.1113 3.08789ZM46.4395 3.08789C45.9914 3.29375 45.398 3.7418 44.9137 4.22617C44.3809 4.75898 43.9934 5.28776 43.7512 5.8125C43.5453 6.24844 43.3152 6.89023 43.2426 7.2293C43.1457 7.67734 43.1094 13.0781 43.1094 25.4297V42.9883C43.8602 44.1629 44.0781 44.5262 44.0781 44.5625C44.0781 44.5988 44.3082 44.6957 44.5867 44.7805C44.8773 44.8773 45.4828 45.1437 45.943 45.3859C46.4152 45.6402 47.0449 46.0641 47.3719 46.3426L47.9531 46.8633L48.0137 16.166C48.5223 14.8461 48.8855 14.1801 49.1277 13.8168C49.382 13.4535 49.8664 12.9086 50.2055 12.6059C50.5566 12.3031 51.1016 11.9035 51.4164 11.7219C51.7434 11.5402 52.4457 11.2859 52.9785 11.1406C53.5113 11.0074 54.2379 10.8984 54.577 10.8984H55.2188C55.2188 8.54922 55.1582 7.58047 55.0855 7.2293C55.0129 6.89023 54.7828 6.24844 54.577 5.8125C54.3348 5.28776 53.9473 4.75898 53.4145 4.22617C52.8816 3.69336 52.3529 3.30586 51.8281 3.06367C51.3922 2.85781 50.7504 2.62773 50.3992 2.55508C50.0602 2.48242 49.4547 2.42188 49.0672 2.43398C48.6918 2.43398 48.0984 2.50664 47.7715 2.59141C47.4324 2.66406 46.8391 2.89414 46.4395 3.08789ZM21.3125 25.3691C21.3125 40.2395 21.3246 41.0508 21.5184 40.9902C21.6395 40.966 21.9785 40.8812 22.2812 40.8207C22.584 40.748 23.0805 40.6875 23.3953 40.6875C23.9523 40.6875 24.0008 40.6633 25.0664 39.5977L26.1562 38.5078C26.1562 34.9355 26.2047 34.3059 26.3258 34.0516C26.4105 33.8699 26.6285 33.652 26.8102 33.5672C26.9797 33.4945 27.234 33.4219 27.3672 33.4219C27.5004 33.4219 27.7547 33.4945 27.9242 33.5672C28.1059 33.652 28.3238 33.8699 28.4086 34.0516C28.5297 34.2816 28.5781 34.8629 28.5781 35.9043C28.5781 37.2848 28.6023 37.418 28.784 37.3574C28.9051 37.3332 29.3047 37.2484 29.668 37.1758C30.0312 37.1031 30.6488 37.0547 31.0242 37.0547C31.4117 37.0547 32.1504 37.1395 32.659 37.2484C33.216 37.3574 34.0879 37.6602 34.7539 37.9871C35.7348 38.4594 36.0617 38.7016 36.9578 39.6219C37.7812 40.4453 38.0961 40.6875 38.3504 40.6875C38.5441 40.6875 39.0164 40.7723 39.416 40.857C39.8156 40.9539 40.2637 41.0629 40.409 41.0992L40.6875 41.1719V9.6875H35.8438C35.8438 15.2699 35.8074 16.057 35.6742 16.3113C35.5895 16.5051 35.3715 16.723 35.1898 16.7957C35.0203 16.8805 34.766 16.9531 34.6328 16.9531C34.4996 16.9531 34.2453 16.8805 34.0758 16.7957C33.8941 16.723 33.6762 16.5051 33.5914 16.3113C33.4582 16.057 33.4219 15.2699 33.4219 12.8359V9.6875H21.3125V25.3691ZM2.42188 52.4336C3.97187 52.4336 4.92852 52.3488 5.53398 52.252C6.15156 52.1551 7.30195 51.8523 8.07695 51.598C8.86406 51.3316 9.85703 51.0531 10.293 50.9805C10.7289 50.9078 11.2012 50.823 11.3465 50.7867L11.625 50.7383L11.5645 16.5293C11.0801 15.5 10.7289 14.9551 10.4625 14.6766C10.1961 14.3738 9.65117 13.9863 9.20312 13.7684L8.42813 13.3809L2.43398 13.3082L2.42188 52.4336ZM52.4336 13.9379C52.143 14.1195 51.707 14.4707 51.477 14.725C51.2469 14.9793 50.9199 15.4879 50.7504 15.8633L50.4355 16.5293L50.375 50.7383C50.7988 50.8109 51.2832 50.9078 51.707 50.9805C52.143 51.0531 53.148 51.3316 53.9473 51.598C54.7465 51.8645 55.8969 52.1551 56.4902 52.252C57.0957 52.3488 58.0281 52.4336 58.5852 52.4336H59.5781V13.3203C54.9039 13.3324 53.7898 13.3809 53.4629 13.4777C53.1965 13.5625 52.7363 13.7684 52.4336 13.9379ZM28.2754 40.1547C27.9484 40.3242 27.4277 40.6633 27.1371 40.9055C26.8465 41.1477 26.35 41.7168 26.0473 42.1648C25.7445 42.6129 25.4176 43.0125 25.3086 43.0609C25.2117 43.1094 24.5336 43.1578 23.7949 43.1578C22.6203 43.1699 22.3902 43.2062 21.7969 43.4848C21.4336 43.6543 20.8887 44.0297 20.598 44.3324C20.2711 44.6473 19.8957 45.2043 19.6656 45.7129C19.4598 46.173 19.2055 46.6211 19.1207 46.6937C19.0238 46.7664 18.7332 46.8996 18.4668 46.9844C18.2004 47.0691 17.6555 47.2992 17.2559 47.5051C16.8563 47.6988 16.2266 48.1711 15.8633 48.5465C15.4879 48.9219 15.052 49.4668 14.8824 49.7695C14.7008 50.0602 14.5312 50.4234 14.4949 50.5566C14.4223 50.7746 14.4949 50.8109 15.2941 50.9441C15.7785 51.0289 16.7957 51.3195 17.5586 51.5859C18.3336 51.8523 19.3871 52.1551 19.9199 52.252C20.4527 52.3488 21.3852 52.4336 21.9785 52.4336C22.6445 52.4336 23.5285 52.3246 24.2188 52.1672C24.8605 52.034 25.5629 51.9129 25.793 51.925C26.1078 51.925 26.3137 52.034 26.5559 52.3004C26.7496 52.5184 26.8828 52.809 26.8828 53.0027C26.8828 53.1844 26.7738 53.5113 26.6406 53.7293C26.459 54.032 26.2531 54.1652 25.7687 54.3105C25.4176 54.4074 24.6668 54.577 24.0977 54.6738C23.5406 54.7707 22.5598 54.8555 21.918 54.8555C21.2883 54.8555 20.2832 54.7707 19.6777 54.6617C19.0844 54.5648 17.8855 54.2379 17.0137 53.9473C16.1539 53.6566 15.0883 53.3539 14.6523 53.2812C14.2285 53.2207 13.4051 53.1602 12.8359 53.1602C12.2789 53.1602 11.4555 53.2207 11.0195 53.2812C10.5957 53.3539 9.53008 53.6566 8.6582 53.9473C7.76211 54.25 6.53906 54.5527 5.8125 54.6617C5.12227 54.7707 4.06875 54.8555 3.4875 54.8555H2.42188V59.5781H59.5781V54.8555C57.8465 54.8555 56.793 54.7586 56.127 54.6617C55.4609 54.5527 54.2137 54.2258 53.3418 53.9352C52.482 53.6566 51.4164 53.3539 50.9805 53.2934C50.5566 53.2207 49.7332 53.1602 49.1641 53.1602C48.607 53.1602 47.7836 53.2207 47.3477 53.2812C46.9238 53.3539 45.8582 53.6566 44.9863 53.9473C44.1266 54.2379 42.9035 54.5648 42.2617 54.6738C41.4383 54.8191 40.6875 54.8676 39.5977 54.8191C38.6047 54.7828 37.6965 54.6617 36.9336 54.4801C36.2797 54.3227 35.6621 54.0926 35.5047 53.9473C35.3352 53.802 35.202 53.4992 35.1535 53.2207C35.093 52.7969 35.1414 52.6758 35.432 52.3367C35.6984 52.034 35.8922 51.925 36.207 51.925C36.4492 51.9129 37.1516 52.034 37.7812 52.1672C38.4836 52.3246 39.3676 52.4336 40.0215 52.4336C40.627 52.4336 41.5473 52.3488 42.0801 52.252C42.6129 52.1551 43.6785 51.8523 44.4414 51.5859C45.2164 51.3195 46.2336 51.0289 46.718 50.9441C47.5051 50.8109 47.5898 50.7746 47.5172 50.5566C47.4809 50.4234 47.2992 50.0602 47.1297 49.7695C46.9602 49.4668 46.5121 48.9219 46.1488 48.5465C45.7734 48.1711 45.1316 47.6988 44.7199 47.4809C44.2961 47.275 43.6422 47.0207 43.2668 46.9117C42.8793 46.8148 42.4918 46.6574 42.407 46.5848C42.3102 46.5 42.0922 46.1125 41.9105 45.7129C41.7289 45.3133 41.3656 44.7441 41.1113 44.4535C40.8328 44.1508 40.3 43.7754 39.8398 43.5574C39.1738 43.2305 38.8832 43.1578 37.8539 43.1094L36.643 43.0488C35.5895 41.632 35.0687 41.0629 34.8145 40.857C34.548 40.6391 34.0516 40.3363 33.7004 40.1547C33.3492 39.9852 32.7438 39.7551 32.3684 39.6582C31.9809 39.5492 31.3391 39.4766 30.9395 39.4766C30.5398 39.4887 29.9223 39.5734 29.5469 39.6703C29.1836 39.7672 28.6145 39.9852 28.2754 40.1547ZM27.343 14.5312C27.4883 14.5312 27.7668 14.6039 27.9484 14.7008C28.1301 14.7855 28.348 15.0035 28.4328 15.1852C28.5418 15.4152 28.5781 16.9531 28.5781 21.5547C28.5781 26.1441 28.5418 27.682 28.4328 27.9242C28.348 28.0938 28.1301 28.3117 27.9484 28.4086C27.7668 28.5055 27.5004 28.5781 27.3672 28.5781C27.234 28.5781 26.9797 28.5055 26.798 28.4086C26.6164 28.3117 26.3984 28.0938 26.3137 27.9242C26.1926 27.682 26.1562 26.1441 26.1684 21.5184C26.1684 16.2266 26.1926 15.4031 26.3621 15.1488C26.459 14.9914 26.6648 14.7855 26.8102 14.7008C26.9555 14.6039 27.1855 14.5312 27.343 14.5312ZM34.6086 21.7969C34.7539 21.7969 35.0324 21.8695 35.2141 21.9664C35.3957 22.0512 35.6137 22.2691 35.6984 22.4508C35.8074 22.6809 35.8438 23.8555 35.8438 27.0039C35.8438 30.3582 35.8074 31.3027 35.6742 31.5691C35.5895 31.7508 35.3715 31.9688 35.1898 32.0535C35.0203 32.1383 34.766 32.2109 34.6328 32.2109C34.4996 32.2109 34.2453 32.1383 34.0758 32.0535C33.9062 31.9688 33.6883 31.7508 33.5914 31.5691C33.4582 31.3027 33.4219 30.3703 33.434 26.9676C33.434 23.3227 33.4582 22.6566 33.6277 22.4145C33.7246 22.257 33.9305 22.0512 34.0758 21.9664C34.2211 21.8695 34.4512 21.7969 34.6086 21.7969ZM30.9758 50.7383C31.1211 50.7383 31.3996 50.8109 31.5812 50.9078C31.7629 50.9926 31.9809 51.2105 32.0656 51.3922C32.1504 51.5617 32.2109 51.816 32.2109 51.9492C32.2109 52.0824 32.1383 52.3367 32.0414 52.5184C31.9566 52.7 31.7387 52.918 31.557 53.0027C31.3875 53.0875 31.1332 53.1602 31 53.1602C30.8668 53.1602 30.6125 53.0875 30.443 53.0027C30.2734 52.918 30.0555 52.7 29.9586 52.5184C29.8617 52.3367 29.7891 52.0703 29.8012 51.9129C29.8012 51.7676 29.8859 51.5133 29.9949 51.3559C30.0918 51.1984 30.2977 50.9926 30.443 50.9078C30.5883 50.8109 30.8184 50.7383 30.9758 50.7383Z" fill="#E75C54"/>
</svg>
