<svg width="54" height="65" viewBox="0 0 54 65" fill="none" xmlns="http://www.w3.org/2000/svg">
<path fill-rule="evenodd" clip-rule="evenodd" d="M26.2172 1C26.8372 1 27.0728 1.06152 27.6431 1.39375C28.0151 1.61523 28.4739 2.02129 28.6599 2.29199C28.8955 2.61191 29.0567 3.05488 29.1435 3.58398C29.2055 4.02695 29.2551 5.71269 29.1931 10.3762L28.8583 10.6715C28.6599 10.8314 28.3995 10.9668 28.2631 10.9668C28.1267 10.9668 27.8663 10.8314 27.3331 10.3762L27.2711 6.84473C27.2091 3.49785 27.1967 3.31328 26.9612 3.14102C26.8248 3.04258 26.5768 2.93184 26.4032 2.89492C26.2296 2.85801 25.932 2.89492 25.7336 2.99336C25.5228 3.07949 25.2996 3.32559 25.2004 3.54707C25.064 3.8793 25.0392 9.10879 25.0392 32.4385C25.0392 57.4908 25.064 60.973 25.2252 61.3545C25.3244 61.5883 25.5228 61.8344 25.6592 61.9082C25.7956 61.9697 26.0808 62.0312 26.2792 62.0312C26.5272 62.0312 26.7752 61.9205 27.2711 61.416V37.9141C27.2711 17.2914 27.2959 14.3629 27.4571 13.9814C27.5811 13.6861 27.7423 13.5262 27.9903 13.477C28.1763 13.44 28.4491 13.44 28.6103 13.477C28.7715 13.5139 28.9575 13.7354 29.0691 13.9814C29.2179 14.3383 29.2551 15.1873 29.2551 23.333L33.1361 22.7424C35.2564 22.4225 37.0295 22.1271 37.0667 22.0902C37.1039 22.041 37.0791 21.9918 37.0047 21.9672C36.9303 21.9426 36.5459 21.7088 36.1368 21.4504C35.7276 21.192 35.058 20.6137 34.6488 20.1707C34.2396 19.74 33.6941 18.9895 33.4461 18.5219C33.1981 18.0543 32.8757 17.2299 32.7145 16.6885C32.4913 15.8518 32.4541 15.4826 32.5037 14.2891C32.5533 13.1447 32.6277 12.7018 32.9129 11.9512C33.0989 11.4467 33.4709 10.6961 33.7189 10.29C33.9792 9.88398 34.5744 9.19492 35.0456 8.75195C35.5044 8.30898 36.1739 7.79219 36.5087 7.59531C36.8559 7.39844 37.4635 7.11543 37.8727 6.95547C38.2819 6.80781 39.063 6.62324 39.6086 6.53711C40.3526 6.43867 40.8609 6.43867 41.6545 6.53711C42.2373 6.62324 43.0432 6.80781 43.4524 6.95547C43.8616 7.09082 44.5312 7.41074 44.9404 7.64453C45.3371 7.87832 46.0439 8.43203 46.4903 8.875C46.9367 9.31797 47.507 10.0439 47.7674 10.4746C48.0278 10.9176 48.3626 11.6928 48.5238 12.1973C48.685 12.7018 48.8586 13.5385 48.9082 14.043C48.9578 14.6582 48.9206 15.298 48.809 15.9502C48.7098 16.4916 48.5114 17.2422 48.3626 17.6113C48.2262 17.9805 47.8914 18.6326 47.6062 19.051C47.3335 19.4816 46.7879 20.1461 46.3787 20.5275C45.9819 20.9213 45.4487 21.352 45.2007 21.4873C44.9528 21.6227 44.7544 21.7703 44.7544 21.8195C44.7544 21.8811 45.0148 21.9795 45.3495 22.0533C45.6719 22.1271 46.3167 22.3609 46.8003 22.5824C47.2839 22.8039 48.003 23.1977 48.4122 23.4807C48.8214 23.7514 49.6026 24.4404 50.1481 25.0064C50.9293 25.8309 51.2765 26.323 51.7973 27.332C52.1568 28.0457 52.566 29.067 52.7148 29.6084C52.9752 30.5682 52.9876 30.802 53 37.2988C53 43.5373 52.9876 44.0418 52.7768 44.4971C52.6528 44.7678 52.3676 45.1984 52.1568 45.4568C51.9337 45.7275 51.4377 46.0967 51.0161 46.2936C50.4333 46.5766 50.0985 46.6504 49.491 46.6504C49.0694 46.6504 48.5238 46.5643 47.8542 46.2812V53.0119C47.8542 56.9371 47.8046 60.0625 47.7302 60.4932C47.6558 60.8992 47.4946 61.4529 47.3707 61.7236C47.2343 61.9943 46.8871 62.4619 46.5895 62.7695C46.2795 63.0771 45.7339 63.4586 45.2751 63.6555C44.6676 63.9262 44.3204 64 43.6384 64C42.8945 64 42.6465 63.9385 41.9273 63.5693C41.4685 63.3479 40.9601 63.0156 40.4766 62.5234L39.9806 62.9787C39.7078 63.2248 39.187 63.557 38.8274 63.717C38.3563 63.9262 37.9471 64 37.3147 64C36.5955 64 36.3103 63.9385 35.6656 63.6186C35.244 63.4217 34.686 63.0402 34.438 62.7941C34.1776 62.548 33.8181 62.0312 33.2849 60.9854L33.2229 46.7734L33.5329 46.4658C33.6941 46.2936 33.9792 46.1582 34.1528 46.1582C34.3264 46.1582 34.5992 46.2936 35.0828 46.7734V53.541C35.0828 59.398 35.1076 60.3701 35.2812 60.7639C35.3804 61.0223 35.5664 61.3422 35.678 61.4652C35.7896 61.5883 36.112 61.7975 36.3847 61.9205C36.6575 62.0436 37.0791 62.1543 37.3147 62.1543C37.5503 62.1543 37.9719 62.0559 38.2447 61.9328C38.5174 61.8098 38.9142 61.4898 39.4846 60.7639L39.6086 44.657L39.9186 44.4232C40.0922 44.2879 40.3402 44.1771 40.4766 44.1771C40.613 44.1771 40.8733 44.2879 41.4065 44.6816L41.4313 52.5936C41.4685 59.841 41.4809 60.5301 41.6793 60.8992C41.8033 61.1084 42.0513 61.4283 42.2373 61.6006C42.4357 61.7729 42.7829 61.9697 43.0184 62.0436C43.254 62.1174 43.7128 62.1543 44.0476 62.1051C44.4568 62.0559 44.7544 61.9205 45.0768 61.6252C45.3247 61.416 45.6223 61.0592 45.7339 60.8623C45.9075 60.5301 45.9323 59.0166 45.9943 45.3215C46.0563 30.3221 46.0563 30.1375 46.3043 29.9652C46.4407 29.8668 46.6763 29.793 46.8251 29.793C46.9863 29.793 47.2219 29.8422 47.3583 29.916C47.4946 29.9898 47.6682 30.2236 47.7302 30.4328C47.817 30.6912 47.8542 33.2383 47.8542 37.2373C47.8542 43.4143 47.8666 43.648 48.1022 44.0295C48.2386 44.251 48.5238 44.5217 48.7222 44.6201C48.9206 44.7186 49.2926 44.8047 49.5282 44.8047C49.7637 44.8047 50.1233 44.7063 50.3341 44.5832C50.5325 44.4725 50.7929 44.2018 50.9169 44.0049C51.1153 43.6727 51.1401 43.1559 51.1773 38.1602C51.2021 35.0963 51.1649 32.1432 51.0905 31.4541C51.0161 30.7773 50.8301 29.8176 50.6441 29.3008C50.4705 28.7963 50.1481 28.0826 49.9249 27.7135C49.7141 27.3443 49.1934 26.6922 48.7842 26.2492C48.375 25.8186 47.6806 25.2156 47.2343 24.9326C46.7879 24.6373 46.0687 24.2559 45.6223 24.0959C45.1759 23.9359 44.5312 23.7268 44.1964 23.6529C43.8492 23.5791 43.3656 23.3453 42.5969 22.7178L39.0506 22.7793L38.5794 23.2469C38.3315 23.5053 37.9223 23.776 37.6867 23.8621C37.4511 23.9359 35.5788 24.2559 33.5329 24.5635C31.487 24.8711 29.689 25.1418 29.5278 25.1787C29.2551 25.2402 29.2551 25.2648 29.2551 29.4238L31.6605 29.4484C34.0412 29.4854 34.0784 29.4854 34.4008 29.793C34.5868 29.9652 34.81 30.2482 34.9092 30.4328C35.0456 30.7158 35.0828 31.8848 35.0828 43.082L34.7728 43.3896C34.6116 43.5619 34.3264 43.6973 34.1528 43.6973C33.9792 43.6973 33.7065 43.5619 33.2229 43.082V31.2695H29.2551L29.2179 46.4289C29.1931 60.0256 29.1683 61.6498 28.9947 62.0312C28.8831 62.265 28.6351 62.6465 28.4367 62.8803C28.2383 63.1141 27.7919 63.434 27.4571 63.5939C27.0728 63.7662 26.6016 63.877 26.2172 63.877C25.8328 63.877 25.3616 63.7662 24.9772 63.5939C24.6301 63.434 24.1961 63.1141 23.9977 62.8803C23.7993 62.6465 23.5513 62.265 23.4397 62.0312C23.2661 61.6498 23.2289 59.9764 23.1173 31.2203L22.6462 31.1219C22.3982 31.0727 21.9766 30.925 21.7162 30.7896C21.4682 30.6666 21.0218 30.2975 20.7242 29.9652C20.3647 29.5715 20.1167 29.1285 19.9927 28.6855C19.8811 28.2795 19.8191 27.7627 19.8563 27.3936C19.8935 27.049 20.0795 26.483 20.2779 26.1139C20.4762 25.757 20.7986 25.3141 21.0094 25.1418C21.2202 24.9818 21.5798 24.748 21.8154 24.625C22.051 24.502 22.4602 24.3666 23.1793 24.2559V20.1953L22.1502 19.8877C21.5922 19.7277 20.687 19.5186 20.1415 19.4447C19.5959 19.3709 18.5915 19.334 17.9096 19.3709C17.2276 19.4078 16.1364 19.5801 15.4917 19.7523C14.8469 19.9123 13.6442 20.3307 12.8258 20.6875C12.0074 21.032 10.7799 21.4627 10.0979 21.6227C9.24235 21.8441 8.36199 21.9549 7.24604 22.0041C6.04329 22.0533 5.39852 22.0164 4.70415 21.8688C4.19577 21.758 3.31541 21.4504 2.74504 21.1797C2.18706 20.909 1.61669 20.5398 1.46789 20.3553C1.3315 20.1584 1.15791 19.7893 1.09591 19.5186C1.00911 19.2109 0.984315 16.75 1.00911 12.751C1.04631 7.05391 1.07111 6.43867 1.2571 6.06953C1.3811 5.86035 1.60429 5.58965 1.75308 5.49121C1.91427 5.38047 2.24906 5.24512 2.49705 5.18359C2.88143 5.08516 3.12942 5.10977 3.86099 5.36816C4.35697 5.54043 5.18773 5.725 5.69611 5.78652C6.31608 5.87266 7.04765 5.87266 7.86601 5.78652C8.54798 5.7127 9.55233 5.52812 10.0979 5.36816C10.6435 5.2082 11.5982 4.86367 12.2058 4.59297C12.8134 4.32227 13.7681 3.96543 14.3137 3.79316C14.8593 3.6332 15.7273 3.41172 16.2356 3.32559C16.744 3.23945 17.8352 3.16563 18.6535 3.17793C19.5711 3.17793 20.5506 3.26406 21.1954 3.39941C21.7782 3.52246 22.4602 3.69473 22.7081 3.78086C23.1793 3.95313 23.1793 3.95313 23.2537 3.60859C23.2909 3.42402 23.3777 3.1041 23.4397 2.90723C23.5017 2.69805 23.7249 2.3166 23.9481 2.0582C24.1713 1.7998 24.6053 1.45527 24.9153 1.29531C25.312 1.09844 25.6964 1.0123 26.2172 1ZM15.4297 5.40508C14.8841 5.54043 13.7681 5.94648 12.9498 6.29102C12.1314 6.63555 10.9659 7.05391 10.3459 7.21387C9.72593 7.37383 8.67197 7.5584 7.99 7.63223C7.17164 7.71836 6.39047 7.71836 5.69611 7.64453C5.11333 7.58301 4.28257 7.42305 3.83619 7.27539C3.38981 7.14004 2.99303 7.0293 2.93103 7.0293C2.88143 7.0293 2.84423 9.72402 2.84423 13.034C2.83183 18.6203 2.85663 19.0387 3.05502 19.2355C3.17902 19.3586 3.69979 19.6047 4.20817 19.777C4.91494 20.023 5.46052 20.1215 6.50207 20.1707C7.50643 20.2076 8.1388 20.1707 8.91996 20.0107C9.50274 19.9 10.3955 19.6416 10.9039 19.457C11.4123 19.2602 12.3422 18.9033 12.9498 18.6449C13.5574 18.3988 14.5989 18.0543 15.2437 17.8943C15.9876 17.7098 16.9672 17.5744 17.9096 17.5252C19.0379 17.476 19.7075 17.5006 20.6994 17.6729C21.4186 17.7836 22.2246 17.9682 22.4974 18.0543C22.7701 18.1527 23.0305 18.2266 23.0801 18.2266C23.1421 18.2266 23.1669 15.4457 23.1421 12.0496L23.1173 5.87266C22.2494 5.55273 21.5798 5.36816 21.0714 5.26973C20.563 5.15898 19.6703 5.04824 19.0875 5.02363C18.5047 4.98672 17.674 4.99902 17.2276 5.06055C16.7812 5.10977 15.9752 5.26973 15.4297 5.40508ZM38.6166 8.66582C38.2695 8.77656 37.6619 9.08418 37.2527 9.34258C36.8435 9.60098 36.2607 10.0932 35.9508 10.4377C35.6408 10.7699 35.244 11.3236 35.058 11.6559C34.872 11.9881 34.6364 12.591 34.5372 12.9971C34.4256 13.4031 34.3388 14.1537 34.3388 14.6582C34.3388 15.1627 34.4256 15.8887 34.5248 16.2578C34.624 16.627 34.8596 17.2422 35.0456 17.6113C35.244 17.9805 35.7524 18.6449 36.1987 19.0879C36.6451 19.5309 37.2899 20.0354 37.6247 20.2199C37.9719 20.4045 38.5794 20.6383 38.9886 20.7367C39.3978 20.8475 40.179 20.9336 40.7245 20.9336C41.3569 20.9336 42.0017 20.8475 42.5225 20.6998C42.9688 20.5645 43.6632 20.2322 44.0724 19.9738C44.4816 19.7154 45.0768 19.2109 45.3991 18.8664C45.7339 18.5096 46.1927 17.8205 46.4283 17.3406C46.6639 16.8361 46.9119 16.0609 46.9863 15.5811C47.0979 14.9412 47.0979 14.4736 46.9863 13.7969C46.9119 13.2924 46.7259 12.6033 46.5895 12.2588C46.4407 11.9266 46.1555 11.3975 45.9447 11.0898C45.7339 10.7822 45.3123 10.3023 45.0024 10.0193C44.6924 9.72402 44.0848 9.29336 43.6384 9.07187C43.192 8.83809 42.6093 8.59199 42.3365 8.53047C42.0637 8.45664 41.5305 8.38281 41.1585 8.3459C40.7865 8.30898 40.1914 8.32129 39.8566 8.38281C39.5094 8.43203 38.9514 8.55508 38.6166 8.66582ZM21.927 26.9629C21.7906 27.1967 21.6914 27.5658 21.6914 27.7627C21.6914 27.9719 21.803 28.3164 21.9394 28.5379C22.0758 28.7471 22.3486 29.0178 22.5594 29.1162C22.7577 29.2146 22.9809 29.3008 23.0553 29.3008C23.1297 29.3008 23.1793 28.6855 23.1793 27.7012C23.1793 26.8275 23.1421 26.1016 23.0801 26.1016C23.0305 26.1016 22.8073 26.2 22.5718 26.3107C22.3486 26.4338 22.051 26.7291 21.927 26.9629ZM39.4226 17.2422C39.6334 17.2422 39.9558 17.3775 40.1666 17.5498C40.365 17.7221 40.5758 17.8574 40.6254 17.8574C40.6874 17.8574 40.9229 17.7221 41.1585 17.5498C41.3941 17.3775 41.7661 17.2422 41.9645 17.2422C42.1629 17.2299 42.4233 17.3283 42.5349 17.4514C42.6465 17.5744 42.7705 17.7959 42.8201 17.9559C42.8697 18.1158 42.8077 18.3742 42.6589 18.6326C42.5225 18.8418 42.2001 19.1494 41.9397 19.2848C41.6793 19.4324 41.2701 19.5801 41.0345 19.6293C40.7741 19.6785 40.3526 19.6293 39.9806 19.5186C39.6334 19.4201 39.187 19.1617 38.9514 18.9279C38.6662 18.6449 38.5546 18.4234 38.5546 18.1404C38.5546 17.9066 38.6538 17.6359 38.8026 17.4883C38.939 17.3529 39.2118 17.2422 39.4226 17.2422Z" fill="#E75C54" stroke="#E75C54"/>
</svg>
