<svg width="74" height="64" viewBox="0 0 74 64" fill="none" xmlns="http://www.w3.org/2000/svg">
<path fill-rule="evenodd" clip-rule="evenodd" d="M36.9225 1.00365C44.5637 0.989683 45.1548 1.00365 46.2102 1.26901C46.9138 1.4366 47.5893 1.71593 48.0115 1.99526C48.3773 2.24665 48.898 2.7634 49.1654 3.15446C49.4468 3.53155 49.7564 4.20193 49.869 4.62092C49.9816 5.03991 50.0801 5.97565 50.0801 6.67396C50.0801 7.55384 50.0097 8.11249 49.869 8.39182C49.7564 8.62924 49.4609 8.90857 49.2357 9.0203C49.0106 9.13203 48.6588 9.22979 48.4618 9.22979C48.2648 9.22979 47.9411 9.14599 47.7159 9.03426C47.5049 8.9365 47.2375 8.72701 47.1249 8.60131C46.9842 8.41975 46.8857 7.87506 46.8294 6.86949C46.7872 5.96168 46.6746 5.26337 46.5479 5.08181C46.4354 4.90024 46.1961 4.69075 46.0132 4.59298C45.7458 4.45332 43.7475 4.41142 36.9928 4.41142C30.2381 4.41142 28.2399 4.45332 27.9725 4.59298C27.7896 4.69075 27.5503 4.90024 27.4377 5.08181C27.3111 5.26337 27.1985 5.96168 27.1563 6.86949C27.1 7.87506 27.0015 8.41975 26.8608 8.60131C26.7482 8.72701 26.4808 8.9365 26.2557 9.03426C26.0446 9.14599 25.7209 9.22979 25.5239 9.22979C25.3269 9.22979 24.9751 9.13203 24.7499 9.0203C24.5107 8.90857 24.2293 8.62924 24.1167 8.39182C23.976 8.11249 23.9056 7.55384 23.9056 6.67396C23.9056 5.97565 24.0041 5.03991 24.1167 4.62092C24.2293 4.20193 24.5248 3.54551 24.7781 3.18239C25.0314 2.81927 25.5521 2.30251 25.9461 2.02319C26.3964 1.71593 27.0437 1.4366 27.7051 1.26901C28.6761 1.03158 29.4219 1.00365 36.9225 1.00365ZM69.1481 12.5119L69.9924 12.861C70.5271 13.0705 71.09 13.4476 71.4981 13.8666C71.8781 14.2297 72.3425 14.9001 72.9476 16.1431L72.9898 22.2184C73.0179 27.9726 73.0039 28.3357 72.7365 29.2295C72.5113 29.9837 72.3003 30.3468 71.7092 30.9753C71.2167 31.506 70.696 31.8971 70.1894 32.1205C69.7532 32.3021 64.0257 33.6429 56.5533 35.2909C49.475 36.8551 43.6631 38.14 43.635 38.14C43.6209 38.14 43.5928 39.4389 43.5646 41.031C43.5365 43.3355 43.4942 44.0058 43.3254 44.2572C43.2128 44.4248 42.9032 44.6623 42.6499 44.774C42.284 44.9416 41.313 44.9835 36.9928 44.9835C32.6726 44.9835 31.7017 44.9416 31.3217 44.774C31.0825 44.6623 30.7729 44.4248 30.6603 44.2572C30.4914 44.0058 30.4492 43.3355 30.4211 41.031C30.3929 39.4389 30.3648 38.14 30.3366 38.14C30.3226 38.14 24.5107 36.8551 17.4323 35.2909C9.95994 33.6429 4.23251 32.3021 3.79627 32.1205C3.30374 31.911 2.76899 31.506 2.3046 31.0172C1.798 30.4586 1.50248 29.9977 1.27733 29.3412C0.967735 28.4474 0.967735 28.3357 1.0381 16.1431L1.43212 15.3331C1.64321 14.9001 2.09352 14.2577 2.44533 13.9085C2.79713 13.5593 3.3741 13.1404 3.75405 12.9867C4.11993 12.8191 4.73911 12.6376 5.11907 12.5817C5.51309 12.5258 20.0779 12.4839 69.1481 12.5119ZM4.86576 16.1152C4.65468 16.2828 4.41545 16.6459 4.34509 16.9113C4.26065 17.1906 4.20437 19.5928 4.21844 22.6374C4.21844 26.3106 4.27473 28.0144 4.38731 28.3496C4.48581 28.615 4.71097 28.9362 4.90798 29.0759C5.13314 29.2435 9.5237 30.277 17.7841 32.1066L30.3085 34.8859C30.4633 33.5591 30.5899 33.0004 30.6884 32.7909C30.787 32.5814 31.0825 32.3021 31.3358 32.1904C31.7017 32.0367 32.7571 31.9948 36.9928 31.9948C41.2286 31.9948 42.284 32.0367 42.664 32.1904C42.9032 32.3021 43.1987 32.5814 43.2972 32.7909C43.3957 33.0004 43.5224 33.5591 43.5787 34.0339L43.6772 34.8859C64.462 30.277 68.8525 29.2435 69.0777 29.0759C69.2747 28.9362 69.4999 28.615 69.5984 28.3496C69.711 28.0144 69.7672 26.3245 69.7672 22.6374C69.7813 19.5788 69.725 17.1766 69.6406 16.8694C69.5562 16.5481 69.3451 16.2548 69.0777 16.0733C68.6555 15.7939 68.4163 15.7939 36.9506 15.7939H5.25979L4.86576 16.1152ZM33.7562 41.7852H40.2295V35.2211H33.7562V41.7852ZM4.55617 35.3188C4.78133 35.3607 5.06278 35.4445 5.18943 35.5283C5.30201 35.5981 5.48495 35.7937 5.6116 35.9613C5.79454 36.2266 5.82268 37.8188 5.89304 47.4416C5.94933 57.7766 5.97748 58.6425 6.20263 58.9917C6.35743 59.2291 6.66702 59.4246 6.97661 59.5084C7.31435 59.6062 17.8967 59.6481 36.9928 59.6481C56.089 59.6481 66.6573 59.6062 66.995 59.5084C67.3609 59.4246 67.6142 59.2291 67.8112 58.9218C68.0786 58.4749 68.0926 58.2235 68.0786 47.7209C68.0786 41.7992 68.1349 36.7434 68.1911 36.492C68.2474 36.2266 68.4304 35.8775 68.5992 35.7238C68.754 35.5562 69.0777 35.3747 69.3029 35.3188C69.528 35.2769 69.9502 35.2909 70.2316 35.3607C70.5694 35.4445 70.8649 35.64 71.0478 35.9194C71.3152 36.3244 71.3293 36.5339 71.2589 59.3129L70.893 60.081C70.696 60.5 70.2738 61.1145 69.9502 61.4358C69.6265 61.757 69.0918 62.162 68.754 62.3296C68.4304 62.4832 67.7408 62.7067 67.2483 62.8184C66.4884 62.9721 61.1691 63 36.9928 63C12.8025 63 7.48321 62.9721 6.73738 62.8184C6.23078 62.7067 5.55531 62.4832 5.21757 62.3296C4.89391 62.162 4.35916 61.757 4.0355 61.4358C3.71183 61.1145 3.27559 60.5 2.72677 59.3129L2.68456 47.8186C2.65641 36.3803 2.65641 36.3244 2.93786 35.9194C3.10673 35.6819 3.44446 35.4445 3.68369 35.3607C3.92292 35.2909 4.31694 35.2769 4.55617 35.3188Z" fill="#B4BBC1" stroke="#E8EFF0" stroke-width="0.8"/>
</svg>
