<svg width="71" height="71" viewBox="0 0 71 71" fill="none" xmlns="http://www.w3.org/2000/svg">
<path fill-rule="evenodd" clip-rule="evenodd" d="M47.7947 0.0138943C48.614 3.10562e-09 48.975 0.0694716 49.7943 0.41683C50.3497 0.653033 51.1134 1.08376 51.5022 1.37554C51.8771 1.66732 52.5714 2.36204 53.0158 2.9317C53.474 3.50137 53.9183 4.04325 53.9878 4.14051C54.1127 4.27945 54.2377 4.18219 54.5432 3.72368C54.7654 3.39022 55.3069 2.75108 55.7235 2.30646C56.1539 1.86184 56.8066 1.29217 57.1954 1.04207C57.5703 0.805871 58.2368 0.472407 58.6534 0.305675C59.181 0.0972603 59.7087 0 60.3197 0C60.8196 0 61.5 0.083366 61.8471 0.194521C62.1942 0.305675 62.8469 0.569667 63.3051 0.778082C63.7633 1.00039 64.4576 1.50059 64.8464 1.87573C65.3046 2.30646 65.7351 2.9317 66.0267 3.54305C66.4849 4.48787 66.4988 4.57123 66.4988 6.25245C66.4988 7.72525 66.4433 8.14207 66.1656 8.96184C65.985 9.48982 65.5685 10.4624 65.2491 11.1155C64.9297 11.7685 64.1938 12.9217 63.6245 13.6859C63.0413 14.4501 61.9304 15.7006 61.125 16.4648C60.3197 17.229 59.181 18.2155 58.5701 18.6462C57.973 19.0769 56.8205 19.8133 56.0151 20.2718C55.1958 20.7581 54.3905 21.1194 54.1683 21.1194C53.96 21.1194 53.4601 20.9526 53.0574 20.7581C52.6686 20.5497 51.8355 20.0773 51.2245 19.6883C50.6135 19.3131 49.586 18.5906 48.9334 18.0904C48.2807 17.5763 47.1838 16.6037 46.5034 15.909C45.8091 15.2143 44.8509 14.0888 44.3649 13.3941C43.8789 12.7133 43.1847 11.5323 42.8097 10.7681C42.4487 10.0039 42.046 8.97573 41.9211 8.47554C41.7961 7.97534 41.6572 7.19726 41.6156 6.73875C41.5739 6.28024 41.6156 5.52994 41.6989 5.07143C41.7822 4.61292 42.0183 3.90431 42.1988 3.51526C42.3932 3.11233 42.8375 2.4593 43.1985 2.07025C43.5735 1.68121 44.115 1.20881 44.4205 1.02818C44.726 0.847554 45.3786 0.555773 45.8785 0.361252C46.5034 0.125049 47.0866 0.0277887 47.7808 0.0138943H47.7947ZM45.4758 2.87613C45.2814 2.98728 44.9759 3.22348 44.8093 3.39022C44.6288 3.54305 44.3511 3.93209 44.1983 4.23777C44.0456 4.54344 43.8651 5.1409 43.8095 5.55773C43.7401 6.05793 43.7679 6.71096 43.8928 7.43346C44.0178 8.14207 44.2816 8.97573 44.6565 9.72603C44.962 10.3791 45.573 11.4072 46.0035 12.0186C46.4339 12.6299 47.4198 13.7554 48.1835 14.5335C48.9472 15.2977 50.072 16.298 50.683 16.7427C51.2939 17.1873 52.3076 17.8681 52.9324 18.2294C53.5712 18.5906 54.1127 18.8963 54.1544 18.8963C54.1961 18.8963 54.7098 18.6045 55.293 18.2432C55.8901 17.882 56.9315 17.1734 57.6258 16.6732C58.3062 16.1591 59.4032 15.2143 60.0419 14.5751C60.6807 13.936 61.5833 12.9078 62.0276 12.2965C62.4858 11.6851 63.1246 10.6153 63.4717 9.93444C63.805 9.23973 64.1799 8.28102 64.3049 7.78082C64.4576 7.19726 64.5132 6.54423 64.4715 5.90509C64.4298 5.32153 64.291 4.71018 64.1244 4.37671C63.9716 4.07104 63.5689 3.57084 63.2218 3.26517C62.8191 2.90391 62.2776 2.59824 61.6388 2.38982C60.9029 2.13973 60.5418 2.08415 60.0558 2.15362C59.7087 2.2092 59.1116 2.41761 58.7367 2.61213C58.3479 2.80665 57.6953 3.30685 57.2787 3.73757C56.8621 4.18219 56.1956 5.07143 55.8207 5.75225C55.4319 6.41918 55.0014 7.12779 54.8487 7.32231C54.6404 7.5863 54.446 7.66967 54.1127 7.65577C53.8767 7.65577 53.6267 7.61409 53.5573 7.5863C53.5018 7.55851 53.113 6.93327 52.6964 6.18297C52.252 5.391 51.5578 4.4184 51.0301 3.86262C50.4886 3.27906 49.8498 2.76497 49.4332 2.55656C49.0444 2.37593 48.4196 2.1953 48.0447 2.15362C47.5448 2.09804 47.1421 2.15362 46.5867 2.36204C46.1701 2.51487 45.6702 2.75108 45.4758 2.87613ZM46.3228 40.0573C61.4861 40.0851 61.6944 40.0851 61.986 40.363C62.2498 40.6131 62.2914 40.7937 62.2776 43.0724L62.7913 42.6695C63.0829 42.4611 63.5689 42.1554 63.8744 42.0025C64.1799 41.8497 64.7076 41.6413 65.0547 41.5579C65.4296 41.4468 66.1239 41.4051 66.7904 41.4329C67.6375 41.4885 68.0818 41.5857 68.6233 41.8636C69.026 42.072 69.5815 42.475 69.8592 42.7528C70.123 43.0446 70.4701 43.5587 70.6229 43.9061C70.7756 44.2534 70.9423 44.8787 70.9839 45.2955C71.0256 45.7123 70.9839 46.4348 70.8867 46.8933C70.8034 47.3519 70.484 48.2272 70.2063 48.8386C69.9147 49.4499 69.4009 50.3252 69.0538 50.7838C68.7067 51.2423 68.1373 51.8814 67.7763 52.201C67.4292 52.5344 66.7765 52.9791 66.3322 53.2014C65.9017 53.4237 64.6937 53.8683 63.6661 54.1879C62.6386 54.5074 61.5694 54.8965 61.3056 55.0354C61.0417 55.1883 60.7085 55.4939 60.5696 55.7162C60.4307 55.9802 60.3336 56.4249 60.3336 56.8973C60.3336 57.5225 60.278 57.7309 59.9864 58.0088C59.792 58.2172 59.5004 58.3562 59.2643 58.3562C59.0561 58.3562 58.7367 58.2172 58.5562 58.0366C58.3895 57.8699 58.2507 57.6337 58.2507 57.5225C58.2507 57.4114 57.9591 57.7448 57.5981 58.2867C57.237 58.8147 56.6677 59.6067 56.3206 60.0235C55.9734 60.4542 55.2791 61.1767 54.7793 61.6352C54.2794 62.0937 53.5573 62.7051 52.4881 63.511L39.8521 63.4971L39.0467 62.8718C38.6162 62.5245 38.2136 62.2466 38.1441 62.2605C38.0886 62.2605 37.797 62.7746 37.4915 63.3998C37.186 64.0251 36.5056 65.1922 35.9641 65.998C35.4364 66.8039 34.4644 67.9988 33.8118 68.6519C33.1592 69.3049 32.2705 70.1108 31.0346 71H18.3986L17.385 70.1941C16.8434 69.7495 15.8992 68.8603 15.3021 68.2072C14.705 67.5681 13.8857 66.5538 13.4969 65.9425C12.8721 64.9977 12.761 64.8865 12.6638 65.1505C12.6083 65.3033 12.4277 65.5395 12.2472 65.6646C12.0528 65.8035 11.789 65.8452 11.4835 65.8035C11.2336 65.7479 10.942 65.5812 10.8309 65.4006C10.7059 65.2339 10.6226 64.7892 10.6226 64.3585C10.6226 63.9695 10.5254 63.4415 10.4143 63.2192C10.2893 62.983 9.95608 62.6773 9.60893 62.5106C9.28956 62.3438 8.30367 61.9965 7.42887 61.7325C6.55407 61.4546 5.38767 61.0378 4.86001 60.7877C4.31847 60.5376 3.61029 60.093 3.27704 59.8012C2.94378 59.4955 2.40223 58.9119 2.08286 58.4951C1.7496 58.0783 1.27749 57.328 0.999773 56.8278C0.735944 56.3276 0.402687 55.5773 0.263829 55.1605C0.0972002 54.6742 0.0138857 53.9656 0 53.2153C0 52.3121 0.0694287 51.8814 0.291601 51.409C0.444344 51.0616 0.833144 50.5198 1.15252 50.1863C1.47189 49.8667 1.91623 49.5055 2.15229 49.3943C2.37446 49.2832 2.92989 49.0887 3.36035 48.9775C3.99909 48.8108 4.37401 48.7969 5.13772 48.9219C5.66538 48.9914 6.45687 49.2137 6.87344 49.4082C7.29001 49.6027 7.84544 49.9084 8.0815 50.1029C8.33145 50.2836 8.5675 50.4364 8.60916 50.4364C8.65082 50.4364 8.67859 49.9084 8.67859 49.2554C8.67859 48.1299 8.69248 48.0605 9.0535 47.7965C9.44231 47.5186 9.59505 47.5047 20.0232 47.5186C25.8553 47.5186 30.6181 47.4769 30.6181 47.4074C30.6181 47.3519 30.5347 46.6155 30.4237 45.7818C30.3126 44.9342 30.1876 43.6004 30.1321 42.7945C30.0487 41.7108 30.0765 41.2106 30.2154 40.8354C30.3126 40.5575 30.5347 40.2658 30.6875 40.1824C30.8819 40.0712 35.5614 40.0434 46.3228 40.0573ZM32.326 43.5865C32.3815 44.4202 32.4926 45.49 32.576 45.9902C32.6454 46.4904 32.7426 47.0323 32.7842 47.199L32.8398 47.5186C39.13 47.5325 40.1853 47.5742 40.352 47.6992C40.4769 47.7965 40.6436 48.0049 40.7269 48.1716C40.8519 48.4078 40.8519 49.0331 40.7547 50.6031C40.6852 51.7703 40.5325 53.3264 40.4214 54.0489C40.3103 54.7714 40.0881 55.9247 39.9215 56.6194C39.7688 57.3002 39.4772 58.3562 39.2967 58.9397L38.9495 60.0235C39.741 60.7182 40.1159 61.0378 40.2964 61.1628C40.588 61.3851 41.1018 61.4129 46.2395 61.4129H51.8632C52.8908 60.5932 53.6129 59.8845 54.1405 59.3149C54.6543 58.7452 55.418 57.7865 55.8207 57.1751C56.2373 56.5638 56.9177 55.3411 57.3342 54.4658C57.7508 53.5904 58.3479 52.1176 58.6534 51.2006C58.945 50.2836 59.3477 48.6857 59.5559 47.6575C59.7503 46.6294 59.9725 45.1288 60.0558 44.3229C60.1392 43.517 60.1947 42.6973 60.1947 42.475V42.0998H32.2427L32.326 43.5865ZM64.2077 44.2256C63.9438 44.4063 63.4578 44.837 63.1246 45.1705C62.7913 45.5039 62.3748 46.018 62.1942 46.3237C62.0137 46.6294 61.736 47.5464 61.5694 48.3384C61.4028 49.1442 61.0556 50.5198 60.7918 51.3951C60.5279 52.2843 60.3335 53.0069 60.3613 53.0207C60.3752 53.0207 61.3889 52.7012 62.6108 52.3121C63.8328 51.9092 65.0964 51.4507 65.4296 51.284C65.749 51.1172 66.2766 50.7143 66.5821 50.3947C66.9015 50.0752 67.332 49.5472 67.5403 49.2415C67.7485 48.9358 68.0818 48.38 68.2762 47.991C68.4706 47.6159 68.7067 46.9211 68.79 46.4626C68.9149 45.8652 68.9149 45.4761 68.8177 45.0732C68.7344 44.7675 68.5261 44.3924 68.3456 44.2256C68.179 44.0589 67.8318 43.8366 67.5819 43.7115C67.332 43.5865 66.8321 43.4892 66.471 43.4892C66.11 43.4892 65.5546 43.5865 65.2491 43.6977C64.9436 43.8088 64.4854 44.045 64.2077 44.2256ZM10.817 50.881C10.8587 51.5896 10.9975 52.7845 11.1086 53.5487C11.2197 54.3129 11.4974 55.7301 11.7335 56.675C11.9695 57.6337 12.3861 59.0092 12.6499 59.7317C12.9276 60.4681 13.4275 61.6213 13.7747 62.3022C14.1218 62.9969 14.7328 64.0528 15.1355 64.6642C15.5381 65.2755 16.3019 66.2481 16.8295 66.8178C17.3572 67.4014 18.0931 68.0961 18.468 68.3879L19.1484 68.902H30.3265C31.354 68.0822 32.1038 67.3458 32.6732 66.7483C33.2286 66.137 34.0478 65.1088 34.4644 64.4558C34.8949 63.8166 35.5475 62.6495 35.9085 61.8853C36.2696 61.1211 36.8111 59.7456 37.1166 58.8286C37.4221 57.9115 37.797 56.5777 37.9497 55.8413C38.1025 55.1188 38.3246 53.7988 38.4496 52.8957C38.5607 51.9926 38.6579 50.881 38.6579 50.4225V49.5888H10.7059L10.817 50.881ZM2.49943 51.7703C2.34669 51.9926 2.15229 52.4233 2.09675 52.729C2.02732 53.1041 2.06898 53.5765 2.22172 54.1879C2.34669 54.6881 2.65218 55.4661 2.88823 55.9247C3.13818 56.3832 3.77692 57.2029 4.30458 57.7448C5.12384 58.5646 5.44321 58.7869 6.24858 59.0926C6.79013 59.2871 7.91487 59.6622 8.74802 59.9401C9.59505 60.218 10.3726 60.482 10.4837 60.5098C10.6504 60.5654 10.5948 60.2597 10.2338 59.162C9.98385 58.3701 9.62282 56.9806 9.42842 56.0636C9.23402 55.1049 8.94242 54.1462 8.74802 53.7988C8.55362 53.4793 8.0815 52.8957 7.67882 52.4928C7.27613 52.1037 6.56796 51.6035 6.10973 51.3812C5.49875 51.1033 5.0683 50.9922 4.51287 50.9922C4.09629 51.0061 3.54086 51.0894 3.27704 51.1867C3.01321 51.284 2.66606 51.5479 2.49943 51.7703ZM35.4503 10.0039C35.6169 10.0039 35.9085 10.1568 36.1029 10.3513C36.2973 10.5458 36.4501 10.8237 36.4501 10.9765C36.4501 11.1294 36.4084 11.3656 36.3529 11.4906C36.2973 11.6157 35.8113 12.0603 35.2698 12.4632C34.7421 12.88 33.9368 13.5748 33.4924 14.0055C33.062 14.4362 32.5204 15.1448 32.2982 15.5616C32.0761 15.9785 31.8261 16.6732 31.7289 17.09C31.6178 17.5624 31.5762 18.3127 31.6317 19.0352C31.6734 19.7716 31.8261 20.5219 32.0205 21.0499C32.201 21.5084 32.6593 22.356 33.0481 22.9256C33.423 23.4953 34.2978 24.5096 34.9643 25.1765C36.089 26.302 36.1724 26.4409 36.1446 26.9133C36.1168 27.2607 35.9918 27.4969 35.7558 27.6914C35.5058 27.8859 35.3114 27.9276 34.9921 27.8581C34.7699 27.8025 34.1867 27.3718 33.7007 26.8994C33.2147 26.4409 32.4093 25.5517 31.9233 24.9403C31.4234 24.329 30.7708 23.3286 30.4792 22.7172C30.1737 22.1059 29.8405 21.2305 29.7155 20.772C29.6044 20.2996 29.5072 19.3409 29.5072 18.5489C29.5072 17.7431 29.6044 16.8121 29.7294 16.3258C29.8543 15.8673 30.1598 15.0892 30.4237 14.589C30.6875 14.0888 31.2013 13.3386 31.5623 12.9217C31.9372 12.5049 32.7704 11.7407 33.4091 11.2405C34.0478 10.7403 34.7005 10.254 34.8532 10.1706C35.006 10.0873 35.2698 10.0039 35.4503 10.0039ZM43.6012 17.7847C43.7956 17.7847 44.115 17.9515 44.3233 18.1599C44.6704 18.5211 44.6843 18.6045 44.601 19.3826C44.5455 19.8411 44.3649 20.647 44.2122 21.1888C44.0456 21.7168 43.6707 22.6616 43.3652 23.273C43.0597 23.8843 42.6153 24.6624 42.3793 25.0098C42.1432 25.3571 41.6017 26.0658 41.1573 26.6076C40.7269 27.1356 39.8799 28.0526 39.2828 28.6362C38.6718 29.2059 37.7553 30.0673 37.2138 30.5258C36.6861 30.9843 34.6449 32.5683 32.7009 34.0411C30.7569 35.5278 28.7296 37.084 28.1881 37.5286C27.6604 37.9593 26.7439 38.8069 26.1746 39.4043C25.5914 40.0157 24.9249 40.8076 24.6888 41.1967C24.4389 41.5718 24.1751 42.2387 24.0918 42.6556C24.0084 43.0724 23.9112 43.5587 23.8696 43.7254C23.8418 43.9061 23.6335 44.1423 23.3975 44.2534C23.1753 44.3646 22.8837 44.4618 22.7726 44.4618C22.6615 44.4618 22.4116 44.309 22.2172 44.1145C21.9672 43.8505 21.87 43.6143 21.87 43.1697C21.87 42.8501 21.995 42.1832 22.1478 41.683C22.3005 41.1828 22.7171 40.3491 23.0781 39.8072C23.4252 39.2654 24.3278 38.2372 25.0499 37.5147C25.8553 36.7088 28.0075 34.9581 30.4792 33.0824C32.7287 31.3595 34.9782 29.6227 35.4781 29.2059C35.978 28.789 36.9638 27.8859 37.6859 27.1773C38.408 26.4826 39.3938 25.4127 39.8798 24.8014C40.3659 24.19 41.0046 23.2174 41.3101 22.6478C41.6017 22.0781 41.9627 21.2305 42.1155 20.772C42.2682 20.3135 42.4348 19.591 42.4904 19.1742C42.5737 18.6601 42.7125 18.3127 42.9208 18.0904C43.1013 17.9237 43.4068 17.7847 43.6012 17.7847ZM8.60916 20.3413C9.22013 20.3691 9.84499 20.508 10.2754 20.6886C10.6643 20.8554 11.2752 21.2305 11.6363 21.5084C12.0112 21.7863 12.6499 22.4393 13.8163 23.8982L14.1496 23.3703C14.3301 23.0924 14.7605 22.5783 15.0938 22.2309C15.4409 21.8836 16.0241 21.3973 16.3991 21.1472C16.774 20.8971 17.3294 20.6192 17.6349 20.5219C17.9404 20.4247 18.6902 20.3552 19.3151 20.3552C20.3148 20.3552 20.537 20.4108 21.4674 20.8554C22.2033 21.2305 22.7032 21.5918 23.2308 22.1753C23.6752 22.6616 24.0779 23.2869 24.2306 23.6898C24.3695 24.065 24.5222 24.6902 24.5778 25.0793C24.6194 25.4544 24.6055 26.1908 24.5222 26.7049C24.4389 27.2329 24.2723 27.9415 24.1473 28.3027C24.0223 28.6779 23.703 29.4004 23.4391 29.9423C23.1892 30.4703 22.606 31.3873 22.1755 31.9708C21.7451 32.5544 21.1063 33.3464 20.7592 33.7076C20.412 34.0828 19.69 34.7636 19.1623 35.236C18.6208 35.7084 17.6904 36.4309 17.0795 36.8478C16.4685 37.2646 15.5659 37.8342 15.066 38.1121C14.5661 38.39 13.9829 38.6262 13.7469 38.6262C13.5108 38.6262 12.8721 38.3483 12.2195 37.9732C11.6085 37.6258 10.6365 37.0145 10.0672 36.6115C9.49785 36.2086 8.44253 35.3194 7.72047 34.6524C7.0123 33.9716 5.99864 32.8462 5.48487 32.1654C4.9711 31.4706 4.29069 30.3869 3.97132 29.7339C3.66584 29.0808 3.31869 28.1777 3.19372 27.7192C3.06875 27.2607 2.97155 26.3575 2.97155 25.7045C2.97155 24.8569 3.04098 24.3012 3.24926 23.7593C3.41589 23.3147 3.80469 22.6755 4.20738 22.2309C4.58229 21.8141 5.23493 21.2861 5.63761 21.0638C6.05418 20.8415 6.66516 20.5775 7.0123 20.4663C7.35944 20.3691 8.0815 20.3135 8.60916 20.3413ZM6.30413 23.1341C6.12361 23.2869 5.85978 23.537 5.72093 23.6898C5.59595 23.8427 5.38767 24.19 5.27658 24.454C5.15161 24.718 5.0683 25.3294 5.0683 25.8018C5.0683 26.3575 5.19327 27.0661 5.41544 27.7192C5.60984 28.2888 5.97087 29.0947 6.20693 29.4838C6.45687 29.8867 6.85956 30.498 7.12339 30.8454C7.37333 31.1928 8.09539 31.9986 8.72025 32.6378C9.34511 33.2769 10.3032 34.1245 10.8309 34.5274C11.3724 34.9303 12.2333 35.5139 12.7471 35.8335C13.2609 36.1391 13.733 36.4031 13.7885 36.4031C13.8441 36.4031 14.4551 36.0419 15.1355 35.5973C15.8297 35.1526 16.8573 34.4024 17.4266 33.916C17.9959 33.4436 18.9263 32.5405 19.4817 31.9153C20.0371 31.29 20.7731 30.3313 21.1202 29.8033C21.4535 29.2614 21.8978 28.3583 22.0922 27.7887C22.3977 26.9133 22.4532 26.566 22.4116 25.6072C22.3699 24.6207 22.3144 24.3984 21.9395 23.8843C21.7034 23.5509 21.2035 23.1202 20.7592 22.8701C20.1343 22.5227 19.8427 22.4393 19.1623 22.4393C18.6624 22.4532 18.1625 22.5505 17.8848 22.6894C17.6349 22.8145 17.1767 23.1618 16.8573 23.4397C16.5379 23.7315 16.0519 24.3151 15.7603 24.7319C15.4826 25.1487 15.0799 25.8296 14.8855 26.2186C14.6217 26.7466 14.3995 26.9828 14.1357 27.0661C13.9274 27.1356 13.5803 27.1356 13.372 27.0661C13.0804 26.9828 12.8443 26.691 12.4 25.8296C12.0667 25.2182 11.4974 24.3568 11.1086 23.9399C10.7337 23.5092 10.1644 23.0229 9.85888 22.8423C9.55339 22.6616 9.02573 22.481 8.67859 22.4393C8.26202 22.3838 7.81767 22.4532 7.34556 22.6061C6.95676 22.745 6.48464 22.9812 6.30413 23.1341ZM39.8104 29.456C40.0881 29.456 40.588 29.7616 41.56 30.5397C42.296 31.1511 43.3096 32.082 43.8095 32.6239C44.3094 33.1658 44.8787 33.9438 45.087 34.3468C45.2953 34.7497 45.5313 35.4305 45.6147 35.8474C45.7257 36.3753 45.7258 36.7227 45.6286 36.9867C45.5452 37.209 45.3508 37.4313 45.1981 37.5147C45.0453 37.5842 44.7815 37.6536 44.6149 37.6536C44.4344 37.6536 44.1567 37.5147 44.0039 37.3479C43.8373 37.1673 43.6568 36.7783 43.6012 36.4726C43.5457 36.1669 43.3929 35.6945 43.2541 35.4305C43.1152 35.1665 42.8236 34.7219 42.6153 34.4579C42.3932 34.18 41.7961 33.5965 41.2962 33.138C40.7963 32.6795 40.0326 32.0125 39.6021 31.6374C38.9495 31.0955 38.8106 30.901 38.7968 30.498C38.769 30.1507 38.8523 29.9423 39.0884 29.7339C39.2689 29.581 39.6021 29.456 39.8104 29.456Z" fill="#B4BBC1"/>
</svg>
