<svg width="68" height="71" viewBox="0 0 68 71" fill="none" xmlns="http://www.w3.org/2000/svg">
<path fill-rule="evenodd" clip-rule="evenodd" d="M49.6788 0C49.8715 0 50.1331 0.0831869 50.2707 0.180238C50.3946 0.27729 50.5598 0.499121 50.6286 0.693224C50.7387 0.970514 50.6699 1.34485 50.2294 2.63425C49.9404 3.50771 49.7064 4.24253 49.7339 4.24253C49.7476 4.2564 50.078 4.36731 50.4497 4.49209C50.8351 4.61687 51.95 5.11599 52.9274 5.58739C53.9184 6.07264 55.3638 6.91838 56.1621 7.45909C56.9605 7.98594 57.9791 8.76235 58.4196 9.17829C59.1216 9.81605 59.2317 9.98243 59.2317 10.3984C59.2317 10.745 59.1354 10.9529 58.9014 11.1332C58.7224 11.2718 58.4196 11.3827 58.2269 11.3827C58.0066 11.3827 57.5111 11.0777 56.9192 10.5925C56.3961 10.1488 55.3638 9.41398 54.648 8.92873C53.9322 8.45733 53.1063 7.95821 52.831 7.8057C52.5419 7.66706 52.2942 7.58387 52.2529 7.62546C52.2253 7.66706 52.2942 8.41574 52.4181 9.2892C52.5695 10.4815 52.6383 12.1314 52.6383 15.8055C52.6521 19.7985 52.6108 21.1156 52.4043 22.8071C52.2529 23.944 52.129 24.9422 52.129 25.0115C52.1152 25.0808 55.1986 25.9682 58.9839 26.9941C62.7693 28.0062 65.8802 28.8243 65.9077 28.8104C65.9353 28.7827 65.8802 28.1172 65.7976 27.313C65.715 26.5089 65.5085 25.2611 65.3571 24.5401C65.2057 23.8192 64.8616 22.5991 64.6 21.8366C64.3385 21.074 63.7879 19.743 63.375 18.8834C62.9758 18.0377 62.1637 16.6374 61.5993 15.8055C60.8835 14.7379 60.5669 14.1556 60.5669 13.8645C60.5669 13.6288 60.6908 13.3238 60.8422 13.1713C60.9936 13.0187 61.2689 12.894 61.4616 12.894C61.6543 12.894 61.9159 12.9494 62.0535 13.0187C62.1774 13.0742 62.6592 13.6842 63.1272 14.3636C63.5952 15.043 64.2422 16.0967 64.5863 16.7067C64.9304 17.3167 65.426 18.315 65.6875 18.925C65.949 19.5351 66.3344 20.5056 66.5271 21.074C66.7199 21.6425 67.0364 22.7377 67.2292 23.5003C67.4219 24.2628 67.6696 25.6216 67.7935 26.5228C67.9036 27.4101 68 28.6856 68 30.5712L66.2518 33.1916C64.7928 35.3822 64.3936 35.8674 63.9393 36.1031C63.5952 36.2695 63.1547 36.3665 62.7693 36.3527C62.4252 36.3388 59.7685 35.6733 56.8504 34.883C53.7808 34.0373 51.3994 33.3163 51.2067 33.1638C51.014 33.0113 50.7387 32.6924 50.5873 32.429C50.3946 32.1101 50.2707 31.514 50.0367 29.0877L49.2108 30.2939C48.6052 31.1812 48.2473 31.5556 47.8343 31.7497C47.5315 31.9022 47.0635 32.0269 46.8019 32.0269C46.5404 32.0269 45.3566 31.7774 44.1866 31.4724C43.0166 31.1535 42.0393 30.9178 42.0255 30.9455C42.0117 30.9732 40.7591 35.6456 39.245 41.3439C37.7171 47.056 36.4782 51.7561 36.4782 51.8116C36.4782 51.8809 38.3227 51.9641 40.5664 52.0057C42.8239 52.0611 44.8886 52.0611 45.1501 52.0195C45.5631 51.9641 46.2376 51.3263 50.0367 47.4858C53.9322 43.5345 54.5379 42.966 55.3362 42.5917C55.8318 42.356 56.699 42.051 57.2633 41.9262C57.9516 41.7737 58.6398 41.7321 59.3281 41.7737C59.9613 41.8291 60.9661 42.051 61.9434 42.3699C62.8106 42.6471 63.8567 42.9938 64.2559 43.1324C64.779 43.3265 65.0268 43.5067 65.1782 43.8118C65.2883 44.0336 65.3847 44.3802 65.3847 44.5743C65.3847 44.7684 65.3158 45.0596 65.2332 45.2398C65.1506 45.4062 62.0122 48.6366 51.4683 59.2707L53.2302 63.1527C54.9095 66.8823 54.9783 67.0764 54.9921 68.9065H59.9475C64.8891 68.9065 64.9029 68.9065 65.2195 69.2253C65.4122 69.4056 65.5223 69.6967 65.5223 69.9463C65.5223 70.182 65.3847 70.5009 64.9029 71L0.551644 70.9861L0.276344 70.6118C0.111164 70.39 -0.0127202 70.0849 0.00104474 69.9186C0.00104474 69.7383 0.152459 69.4472 0.675528 68.9065H6.40176L6.41552 67.9082C6.42929 66.9516 6.48435 66.7713 7.54425 64.4421C8.16367 63.0834 8.67298 61.9465 8.67298 61.9049C8.67298 61.8633 8.02602 61.8356 5.78233 61.8356L4.74996 60.8235L4.84631 59.4232C4.90137 58.6606 5.05279 57.6485 5.17667 57.191C5.30056 56.7335 5.58962 55.9848 5.82363 55.5272C6.04387 55.0697 6.55317 54.3904 6.95235 54.0021C7.35154 53.6278 8.03979 53.1148 8.48027 52.8653C8.92075 52.6296 9.66405 52.3245 10.1183 52.2136C10.7928 52.0334 11.8114 51.9918 20.0979 51.9918L20.442 52.3384C20.6347 52.5325 20.7861 52.8514 20.7861 53.0732C20.7861 53.2812 20.6623 53.5724 20.4833 53.7526C20.1667 54.0576 20.0979 54.0576 15.349 54.0992C10.6827 54.1408 10.5037 54.1547 9.88429 54.4597C9.51264 54.626 8.89322 55.0697 8.5078 55.4441C8.02602 55.8877 7.6406 56.4146 7.37907 56.9969C7.11753 57.5653 6.95235 58.2308 6.81471 59.7559H27.0492C41.819 59.7559 47.4351 59.7143 47.8343 59.5895C48.3023 59.4648 49.5136 58.2863 62.8381 44.8932L61.4616 44.4218C60.7046 44.1584 59.7135 43.9088 59.2592 43.8533C58.6949 43.7979 58.1443 43.8533 57.5386 44.0059C57.0431 44.1445 56.3411 44.4079 55.9694 44.6159C55.5152 44.8655 53.9735 46.349 51.2205 49.1912C47.8618 52.6573 47.0084 53.4614 46.389 53.7665C45.7145 54.0853 45.4667 54.1269 44.1178 54.1408C43.2919 54.1408 38.4741 54.1269 24.2274 54.0715L23.8557 53.6971C23.5667 53.3782 23.5116 53.2257 23.5942 52.893C23.6355 52.6712 23.8144 52.3661 23.9934 52.2275C24.2687 52.0057 24.6954 51.9779 29.2929 51.9918C33.9317 51.9918 34.2758 51.9779 34.3446 51.7561C34.3722 51.6175 35.6386 46.8619 37.1527 41.1775C38.6531 35.4931 39.9195 30.7376 39.947 30.585C39.9883 30.3632 39.713 30.2523 37.8547 29.7532C36.6847 29.4343 35.5009 29.0461 35.2394 28.8797C34.9641 28.7133 34.6199 28.339 34.4548 27.9924C34.2621 27.618 34.1382 27.1189 34.1244 26.6891C34.1244 26.3148 34.0693 25.7186 33.9317 24.7481L33.2159 25.7879C32.8305 26.3564 32.3763 26.9664 32.1973 27.1328C32.0184 27.2992 31.7018 27.4933 31.4953 27.5764C31.2751 27.6596 30.9447 27.729 30.7382 27.729C30.518 27.729 27.9026 27.0635 24.9156 26.2593C21.0064 25.2056 19.3546 24.6926 19.038 24.4569C18.7902 24.2767 18.4736 23.9162 18.3497 23.6805C18.1846 23.3616 18.0607 22.5298 17.9506 20.9354C17.8542 19.6737 17.7716 18.2457 17.7579 17.7465C17.7579 16.9285 17.8129 16.7622 18.3222 15.8748C18.6388 15.348 19.3133 14.3497 19.8364 13.6565C20.3457 12.9772 21.2404 11.8819 21.8461 11.2441C22.4379 10.6063 23.5667 9.55263 24.365 8.91486C25.1634 8.26323 26.3334 7.4175 26.9804 7.01543C27.6273 6.61336 28.6459 6.03105 29.2516 5.72603C29.8573 5.42101 30.9447 4.93575 31.6605 4.6446C32.3763 4.36731 33.5325 3.97911 34.207 3.79887C34.8952 3.61863 35.9689 3.36907 36.6159 3.25815C37.2628 3.14724 38.5567 2.99473 39.5065 2.91154C40.6352 2.82835 41.8603 2.82835 43.0579 2.91154C44.0489 2.99473 45.508 3.17497 46.2926 3.32748C47.0635 3.46612 47.7104 3.57704 47.7104 3.56317C47.7242 3.54931 47.9582 2.88381 48.2335 2.07967C48.5226 1.27553 48.8805 0.485257 49.0319 0.318883C49.1971 0.138645 49.4861 0 49.6788 0ZM36.4782 5.40715C35.6798 5.57352 34.441 5.8924 33.7252 6.1281C33.0094 6.3638 31.8257 6.80746 31.1099 7.14021C30.3941 7.45909 29.3067 8.01367 28.701 8.38801C28.0953 8.76235 27.1731 9.38625 26.6363 9.77446C26.1132 10.1627 25.2047 10.8975 24.6403 11.3966C24.076 11.8957 23.1813 12.8246 22.6444 13.4485C22.1214 14.0724 21.3918 15.0152 21.0339 15.5421C20.6623 16.0689 20.387 16.5265 20.4145 16.5542C20.4283 16.5819 21.6258 16.9285 23.0574 17.3029C24.5027 17.6911 27.531 18.5091 29.8022 19.1191C32.0734 19.743 34.0005 20.2421 34.0693 20.2421C34.1519 20.2421 34.4135 19.7014 34.675 19.0221C34.9365 18.3566 35.5835 16.9147 36.1341 15.8055C36.6847 14.6963 37.5381 13.1158 38.0474 12.2701C38.5567 11.4382 39.4652 10.0656 40.0709 9.21988C40.6628 8.38801 41.6538 7.09861 42.2733 6.37766L43.3882 5.06054C42.1356 4.92189 41.53 4.8803 41.2271 4.89416C40.9243 4.89416 40.0571 4.93575 39.3 5.00508C38.543 5.06053 37.2766 5.24077 36.4782 5.40715ZM42.1219 9.9131C41.4749 10.7727 40.5526 12.1314 40.0709 12.9217C39.5753 13.712 38.832 15.043 38.3915 15.8748C37.9511 16.7206 37.2766 18.1347 36.9049 19.0359C36.5195 19.9233 36.2029 20.6997 36.2029 20.769C36.2029 20.8244 36.6159 20.977 37.1252 21.1156C37.6482 21.2404 40.7591 22.0723 44.0489 22.9596C47.3388 23.8469 50.0505 24.5401 50.0642 24.5124C50.078 24.4847 50.2019 23.6667 50.3395 22.6684C50.5323 21.2404 50.5735 19.8678 50.5873 16.0828C50.5873 12.2146 50.546 10.9391 50.3395 9.42785C50.2019 8.40187 50.0505 7.30658 49.9954 7.01543C49.9128 6.54403 49.8302 6.44698 49.3485 6.28061C49.0456 6.16969 48.2473 5.934 47.559 5.73989C46.8845 5.55966 46.21 5.40715 46.0862 5.40715C45.9623 5.40715 45.2878 6.07264 44.572 6.87678C43.87 7.68092 42.7688 9.03964 42.1219 9.9131ZM20.0566 21.1295C20.1117 22.0307 20.1943 22.7793 20.2355 22.8071C20.2768 22.8348 22.6582 23.4864 25.5351 24.2628C29.7609 25.3997 30.7933 25.6354 30.9172 25.4829C30.9998 25.3859 31.5366 24.5956 32.1147 23.736L33.1746 22.1832C32.0597 21.8781 29.1277 21.0879 25.948 20.2283C22.7683 19.3825 20.0841 18.6477 20.0015 18.6061C19.8777 18.5507 19.8501 18.6755 19.8914 19.0082C19.919 19.2716 19.9878 20.2144 20.0566 21.1295ZM36.1341 25.677C36.1892 26.7862 36.2442 27.0635 36.4507 27.1605C36.5746 27.2298 38.8183 27.8676 41.4336 28.5747C44.0489 29.2818 46.3615 29.8641 46.5817 29.8641C46.9258 29.878 47.091 29.6977 48.0959 28.2558C48.7015 27.3546 49.1833 26.5921 49.142 26.5643C49.1007 26.5228 46.1963 25.7047 42.6725 24.7481C39.1486 23.8053 36.1892 23.015 36.079 23.015C35.9414 23.015 35.9139 23.1675 35.9827 23.6667C36.024 24.041 36.0928 24.9422 36.1341 25.677ZM52.2942 30.8346L52.3768 31.514C62.4665 34.2453 62.8519 34.3285 63.0859 34.1205C63.2236 33.9957 63.7879 33.2332 64.3247 32.4013C64.8753 31.5833 65.2883 30.8901 65.247 30.8623C65.2057 30.8346 62.3288 30.0443 58.8463 29.1154C55.3638 28.1726 52.4181 27.3823 52.2942 27.3408C52.0877 27.2853 52.0739 27.4239 52.1428 28.7133C52.184 29.5036 52.2529 30.4603 52.2942 30.8346ZM48.1371 61.7385C48.0821 61.7524 48.6877 63.2359 49.4999 65.0244C50.2982 66.8129 51.1104 68.4212 51.2893 68.5876C51.4683 68.7678 51.7573 68.9065 51.9363 68.9065C52.1015 68.9203 52.3905 68.7956 52.5832 68.643C52.831 68.4489 52.9274 68.2548 52.9136 67.9082C52.8998 67.6448 52.2666 66.0781 51.3994 64.151C50.5735 62.3486 49.8715 60.8651 49.8302 60.8789C49.7889 60.8928 49.4173 61.0869 49.0043 61.3087C48.5914 61.5167 48.206 61.7108 48.1371 61.7385ZM10.6827 62.5565C10.5175 62.9586 9.91182 64.2619 9.36122 65.4542C8.81063 66.6466 8.37015 67.7557 8.38391 67.9221C8.38391 68.0746 8.54909 68.3658 8.7418 68.5599C8.93451 68.754 9.22358 68.9065 9.40252 68.9065C9.5677 68.9203 9.843 68.8094 10.0082 68.6708C10.1871 68.5321 10.9442 67.0486 11.7701 65.1908C12.5685 63.43 13.2154 61.9465 13.2154 61.9049C13.2154 61.8633 12.7199 61.8356 12.1142 61.8356H11.013L10.6827 62.5565ZM15.2113 62.5565C15.0324 62.9586 14.3441 64.4698 13.6972 65.9117C13.0365 67.3675 12.4721 68.6292 12.4308 68.7262C12.3895 68.8649 14.1652 68.8926 21.0752 68.8649L29.7747 68.8233C31.22 63.4577 31.6467 61.8772 31.6467 61.8633C31.6467 61.8494 28.0265 61.8217 23.5942 61.8217H15.5279L15.2113 62.5565ZM32.858 65.3294C32.3487 67.2566 31.9495 68.851 31.9633 68.8649C31.9908 68.8926 35.8175 68.8926 40.4838 68.8649L48.963 68.8371L45.7696 61.8217L33.7803 61.8356L32.858 65.3294Z" fill="#B4BBC1"/>
</svg>
