<svg width="66" height="71" viewBox="0 0 66 71" fill="none" xmlns="http://www.w3.org/2000/svg">
<path fill-rule="evenodd" clip-rule="evenodd" d="M28.8403 0.00147607C29.5752 -0.0123935 30.1021 0.0708238 30.6429 0.278867C31.0588 0.431432 31.8769 0.80591 32.4454 1.09717C33.0139 1.4023 33.7903 1.94321 34.1508 2.30382C34.5113 2.66443 34.9966 3.34404 35.2324 3.80173C35.5513 4.43973 35.6622 4.89742 35.7315 5.74347C35.787 6.57564 35.7454 7.06107 35.5651 7.6852C35.4403 8.1429 34.9966 9.16924 34.5945 9.97368C34.0399 11.0694 33.6517 11.6103 33.0832 12.1651C32.6534 12.5534 31.9185 13.0666 31.4471 13.3024C30.9618 13.5243 30.1714 13.7878 29.6723 13.871C28.9929 13.9958 28.5214 13.9958 27.8004 13.871C27.2735 13.7878 26.4555 13.5243 25.9979 13.3024C25.5403 13.0805 24.8887 12.6644 24.5559 12.3731C24.2092 12.0818 23.7101 11.4993 23.4328 11.0832C23.1555 10.6672 22.8227 9.9182 22.684 9.4189C22.5038 8.75316 22.4483 8.19838 22.4899 7.26912C22.5454 6.14568 22.6147 5.88216 23.1971 4.56456C23.5576 3.76012 24.0845 2.77538 24.3756 2.3593C24.6529 1.95708 25.166 1.41617 25.5126 1.15265C25.8592 0.902996 26.5109 0.542388 26.9685 0.348215C27.5786 0.0985628 28.0777 0.0153456 28.8403 0.00147607ZM26.4832 3.09438C26.2197 3.35791 25.6929 4.21782 25.3046 5.00838C24.7223 6.2289 24.6113 6.57564 24.5697 7.40781C24.5282 8.12903 24.5836 8.57285 24.8055 9.14151C24.9718 9.5992 25.3185 10.154 25.679 10.5285C26.0118 10.8613 26.6219 11.2913 27.0378 11.4855C27.5924 11.7212 28.05 11.8183 28.7017 11.8322C29.4227 11.8322 29.7832 11.749 30.5042 11.4022C31.0034 11.1665 31.5857 10.7642 31.8076 10.5146C32.0294 10.2511 32.5147 9.4189 32.9029 8.65607C33.5685 7.35233 33.6101 7.19977 33.6101 6.2289C33.624 5.42447 33.5546 5.06386 33.3189 4.6339C33.1525 4.32877 32.8475 3.91269 32.6256 3.71851C32.4176 3.51047 31.7105 3.08051 31.0588 2.76152C30.2962 2.38704 29.6307 2.15126 29.187 2.12352C28.7155 2.08191 28.2441 2.15126 27.7311 2.33156C27.3151 2.48412 26.7466 2.83086 26.4832 3.09438ZM12.479 6.2289C13.2 6.2289 14.0597 6.32599 14.6975 6.49242C15.266 6.63112 16.084 6.90851 16.5 7.10268C16.9437 7.31073 17.5399 7.75455 17.9282 8.15677C18.2887 8.54511 18.7185 9.15537 18.8849 9.51598C19.1067 10.0014 19.2038 10.5285 19.287 12.6782L23.5437 14.7448C25.887 15.8821 28.0223 16.9639 28.2857 17.1304C28.5492 17.2968 29.0067 17.6713 29.284 17.9625C29.5613 18.2677 29.9634 18.8502 30.1714 19.2663C30.3794 19.6824 30.6013 20.4313 30.6845 20.9306C30.7676 21.4299 30.8508 21.846 30.8786 21.8599C30.8924 21.8876 31.9046 21.3883 33.0971 20.7503C34.3034 20.1262 35.5651 19.4882 35.9118 19.3495C36.3416 19.1692 36.8685 19.086 37.5756 19.0721C38.3937 19.0721 38.7819 19.1553 39.3782 19.4188C39.7941 19.613 40.4181 20.0152 40.737 20.3204C41.0836 20.6255 41.5273 21.2496 41.7769 21.7628C42.1651 22.5395 42.2206 22.803 42.2067 23.7045C42.1929 24.3148 42.0958 25.0083 41.9571 25.3689C41.8324 25.7156 41.4719 26.3259 40.6261 27.4493L45.9088 38.5865C48.8206 44.703 51.3441 50.0428 51.8571 51.1662L53.5487 50.6392C54.4916 50.3479 55.4206 49.9873 55.6286 49.8347C55.8227 49.696 56.0861 49.4187 56.2109 49.2245C56.3219 49.0303 56.5437 48.4617 56.6962 47.9346C56.9181 47.2273 57.1399 46.8389 57.6391 46.3119C58.1798 45.7571 58.9286 45.2855 61.4244 43.9402C63.1437 43.0248 64.6966 42.2481 64.8908 42.2065C65.1126 42.151 65.3761 42.2342 65.6118 42.4145C65.9029 42.6365 66 42.8306 66 43.1912C66 43.4686 65.9029 43.7738 65.7504 43.9125C65.6256 44.0511 64.2113 44.8417 62.6168 45.6878C61.0223 46.5338 59.5248 47.4076 59.2891 47.6295C59.0118 47.893 58.7761 48.3091 58.6651 48.7391C58.5681 49.1135 58.374 49.6683 58.2214 49.9457C58.0828 50.237 57.7777 50.6808 57.5559 50.9166C57.3479 51.1662 56.8626 51.5407 56.4882 51.7487C56.1139 51.9568 54.8382 52.4145 53.6597 52.7751C52.4811 53.1218 51.3164 53.524 51.0945 53.6627C50.8727 53.8153 50.5954 54.065 50.4845 54.2453C50.3735 54.4256 50.2071 55.3132 50.124 56.2286C49.9992 57.4214 49.8605 58.0733 49.6387 58.5171C49.4584 58.8638 49.1534 59.3493 48.9592 59.5989C48.7651 59.8624 48.2798 60.2646 47.9055 60.5004C47.3786 60.8333 46.5189 61.0968 44.3004 61.6377C42.692 62.0261 41.2361 62.4422 41.042 62.5392C40.8479 62.6502 38.7958 64.5919 36.4664 66.8665C32.6534 70.6113 32.1958 71.0135 31.7798 70.9997C31.4609 70.9997 31.2529 70.8887 31.0588 70.6113C30.8924 70.4033 30.7676 70.0843 30.7676 69.8901C30.7676 69.6127 31.5857 68.7528 38.1996 62.2757L37.7559 61.8874C37.4508 61.6239 36.1891 59.4879 33.9567 55.4658C32.1265 52.151 30.421 49.0997 30.1853 48.6974C29.9357 48.2952 29.5197 47.8098 29.2563 47.6295C28.9097 47.3798 27.9252 47.0886 25.7899 46.5893C24.1538 46.2148 22.7811 45.8958 22.7395 45.8958C22.6979 45.8958 22.6979 46.4783 22.7256 47.1857C22.7534 47.8791 22.6979 48.8084 22.6147 49.2245C22.5315 49.6406 22.2958 50.334 22.1017 50.7501C21.9076 51.1662 20.2576 54.1066 15.1134 63.0247L14.9193 65.9373C14.8084 67.5462 14.6697 69.0025 14.5866 69.1966C14.5172 69.3908 14.2815 69.7514 14.0597 70.0149C13.8378 70.2646 13.4218 70.5975 13.1307 70.7361C12.8395 70.8887 12.3265 70.9997 11.9244 70.9997C11.3004 70.9997 10.8013 70.7778 7.16849 68.9192C4.67269 67.6432 2.9395 66.6724 2.66219 66.395C2.41261 66.1453 2.10756 65.6876 1.99664 65.3825C1.84412 65.0219 1.80252 64.5503 1.84412 63.9955C1.89958 63.1911 2.03824 62.9415 6.08698 56.1593C8.41639 52.248 10.3021 48.9471 10.3576 48.6697C10.413 48.3646 10.3437 47.8514 10.1912 47.2827C10.0525 46.7834 9.91387 46.1316 9.87227 45.8264C9.81681 45.3688 9.87227 45.2162 10.1357 44.9527C10.316 44.7862 10.621 44.6337 10.8151 44.6337C11.0092 44.6337 11.3004 44.7446 11.4668 44.8833C11.6748 45.0498 11.8966 45.5629 12.1324 46.3812C12.3265 47.0608 12.479 47.9346 12.479 48.323C12.479 48.6974 12.3542 49.3216 12.2294 49.7099C12.0908 50.0844 11.0924 51.9568 9.99706 53.8708C8.90168 55.7709 7.8895 57.5462 7.4874 58.2397L10.4685 59.7653C12.1046 60.5975 13.505 61.291 13.5882 61.291C13.6576 61.291 14.1429 60.5559 14.6559 59.6544C15.1689 58.7667 16.6248 56.2147 17.8866 54.0095C19.1622 51.8042 20.313 49.6406 20.4378 49.2245C20.5626 48.8084 20.6597 48.0872 20.6597 47.6295C20.6597 47.1024 20.2714 45.0775 19.5782 42.0539C18.9958 39.4465 18.4412 37.2551 18.3718 37.1719C18.2887 37.1025 16.2643 36.201 13.8655 35.1746C11.1618 34.0235 9.44244 33.3577 9.35924 33.4409C9.27605 33.5103 9.22059 34.2592 9.22059 35.1192C9.22059 36.5755 9.26218 36.8112 9.87227 38.8501C10.2466 40.0706 10.4962 41.1524 10.4408 41.2772C10.3992 41.4159 10.2605 41.6378 10.1357 41.7765C10.0109 41.9152 9.74748 42.0262 9.52563 42.0123C9.31765 42.0123 9.0542 41.9707 8.92941 41.9014C8.80462 41.8459 8.63824 41.6795 8.55504 41.5269C8.48571 41.3743 8.13908 40.348 7.8063 39.2384C7.33487 37.6989 7.16849 36.9222 7.11303 35.9097C7.07143 35.1469 7.09916 34.1899 7.19622 33.6212C7.29328 33.0942 7.51513 32.3175 8.04202 31.1941H7.37647C7.01597 31.1941 6.32269 31.0831 5.82353 30.9306C5.29664 30.7641 4.5063 30.3619 3.95168 29.9736C3.41092 29.5991 2.67605 28.9611 2.30168 28.545C1.94118 28.1289 1.41429 27.3938 1.13697 26.8945C0.859664 26.3952 0.485294 25.4937 0.318907 24.8834C0.0693276 24.0513 0 23.4271 0 22.3869C0 21.5964 0.0970588 20.6394 0.207983 20.1678C0.332773 19.7101 0.998319 18.1151 1.70546 16.6311C2.39874 15.147 3.11975 13.7878 3.28613 13.6075C3.46639 13.4411 3.75756 13.3024 3.97941 13.3024C4.1874 13.3024 4.5063 13.4411 4.68655 13.6214C4.85294 13.7878 4.9916 14.0791 4.9916 14.2732C4.9916 14.4674 4.43697 15.7711 3.75756 17.1858C3.07815 18.6005 2.4126 20.1262 2.30168 20.5839C2.17689 21.0416 2.07983 21.8599 2.07983 22.3869C2.07983 22.914 2.17689 23.7323 2.30168 24.19C2.4126 24.6477 2.71765 25.3966 2.95336 25.8404C3.20294 26.2981 3.7437 27.0193 4.17353 27.4354C4.60336 27.8654 5.28277 28.3924 5.69874 28.6282C6.29496 28.9472 6.61387 29.0443 7.27941 29.0443C7.86177 29.0443 8.25 28.9611 8.58277 28.7669C8.84622 28.6143 9.22059 28.2676 9.42857 28.0041C9.63656 27.7406 11.4529 24.1206 13.4496 19.9597C16.3336 13.9958 17.1101 12.2483 17.1655 11.7074C17.221 11.1665 17.1655 10.8613 16.9021 10.3343C16.7218 9.95981 16.3752 9.50211 16.1534 9.33568C15.9176 9.15538 15.363 8.87798 14.9055 8.71155C14.4479 8.55898 13.6298 8.39255 13.1029 8.35094C12.5483 8.29546 11.7441 8.33707 11.2311 8.43416C10.7319 8.53125 9.95546 8.7809 9.4979 8.98894C9.04034 9.19698 8.25 9.72403 7.72311 10.154C7.14076 10.6533 6.66933 10.9445 6.44748 10.9445C6.25336 10.9445 5.94832 10.792 5.7542 10.5978C5.56008 10.4036 5.40756 10.0985 5.40756 9.90433C5.40756 9.71016 5.60168 9.33568 5.85126 9.05829C6.10084 8.7809 6.68319 8.28159 7.14076 7.94872C7.59832 7.62972 8.25 7.22751 8.59664 7.07494C8.94328 6.92238 9.69202 6.67273 10.2605 6.52016C10.8845 6.35373 11.7718 6.24277 12.479 6.2289ZM18.7185 16.3398C18.5244 16.4785 18.2193 16.8946 18.0391 17.2691C17.7756 17.7961 17.7202 18.1012 17.7756 18.6421C17.8172 19.1831 18.1639 19.9459 19.287 22.0679C20.0773 23.5797 20.7706 24.8141 20.8261 24.8141C20.8954 24.8141 21.9076 24.287 23.0861 23.6352C24.2647 22.9833 25.2353 22.373 25.2353 22.276C25.2214 22.1927 24.75 21.208 24.1676 20.0984C23.5853 18.9889 22.9197 17.7406 22.6702 17.3245C22.4206 16.9084 22.0046 16.423 21.755 16.2566C21.4916 16.0901 21.0063 15.9237 20.6597 15.8821C20.313 15.8405 19.8139 15.8821 19.5504 15.9515C19.287 16.0347 18.9126 16.215 18.7185 16.3398ZM27.6063 22.1373C27.9113 22.692 28.1887 23.122 28.2441 23.0943C28.3134 23.0665 28.4382 22.7475 28.5353 22.373C28.674 21.8321 28.6878 21.5409 28.5492 20.9306C28.4521 20.4868 28.2025 19.9459 27.9529 19.6269C27.7172 19.3218 27.1487 18.8779 26.6912 18.6283C26.2336 18.3648 25.7761 18.1567 25.6651 18.1567C25.5403 18.1567 25.7622 18.6838 26.2752 19.6407C26.7189 20.4729 27.3151 21.5964 27.6063 22.1373ZM15.3076 20.9584C15.0303 21.5131 13.7685 24.0929 12.5206 26.6865C11.2727 29.2801 10.2744 31.4021 10.2882 31.416C10.316 31.416 12.9782 32.4285 16.2227 33.649L22.1155 35.882L23.6408 32.8584C22.9891 32.3869 22.5592 31.9985 22.2542 31.6795C21.8798 31.2912 20.8954 29.5852 19.2038 26.3952C17.845 23.8155 16.5139 21.3051 16.2643 20.8197L15.8206 19.9597L15.3076 20.9584ZM32.8613 23.2607C30.837 24.3287 28.9929 25.2718 28.771 25.355C28.466 25.466 28.1887 25.466 27.7588 25.3689C27.4122 25.2857 26.9824 25.0221 26.6912 24.7309C26.2475 24.287 26.1782 24.2593 25.887 24.4396C25.7206 24.5506 24.7223 25.1054 23.6685 25.6879L21.7689 26.742C22.9752 29.0582 23.5576 29.9736 23.8349 30.2648C24.1122 30.5561 24.6391 30.9583 25.0273 31.1525C25.5403 31.416 25.9979 31.5269 26.8298 31.5686C27.7588 31.624 28.05 31.5824 28.6324 31.3328C29.0067 31.1663 31.4748 29.8903 34.1092 28.5034C36.7298 27.1164 39.0731 25.8266 39.295 25.6324C39.5168 25.4521 39.7803 25.1053 39.905 24.8696C40.016 24.6477 40.113 24.1484 40.1269 23.76C40.1269 23.2468 40.0437 22.9001 39.7664 22.4424C39.5584 22.0818 39.184 21.7073 38.879 21.527C38.574 21.3606 38.1164 21.1941 37.8529 21.1525C37.5895 21.1109 37.1735 21.1387 36.9517 21.208C36.716 21.2635 34.8857 22.1927 32.8613 23.2607ZM28.8403 33.4964C28.3828 33.6351 27.5647 33.7322 26.7744 33.7461H25.471C24.2647 36.2981 24.2647 36.3119 24.5697 36.3813C24.75 36.409 26.6912 36.8251 28.9097 37.2828C31.1143 37.7405 33.305 38.2398 33.7626 38.3924C34.2202 38.5449 34.9412 38.9055 35.3571 39.1829C35.7731 39.4742 36.3971 39.9874 36.7298 40.3341C37.0626 40.6808 39.0176 43.4964 41.0836 46.5754C43.1496 49.6683 45.5206 53.0802 46.3664 54.1759C47.2122 55.2577 47.9193 56.1315 47.9471 56.1177C47.9609 56.0899 48.0441 55.6322 48.1134 55.0774C48.1828 54.5227 48.4046 53.7737 48.5849 53.4131C48.7651 53.0525 49.1395 52.5532 49.4168 52.3035L49.916 51.8458C41.4719 34.0651 38.9483 28.7946 38.879 28.656C38.7542 28.4479 38.1996 28.7114 34.1647 30.8473C31.655 32.1788 29.2563 33.3716 28.8403 33.4964ZM21.4223 40.7225C21.7689 42.2204 22.1017 43.4964 22.1571 43.538C22.2126 43.5935 23.724 43.9541 25.5126 44.3563C27.8282 44.8694 29.0483 45.2023 29.7416 45.5352C30.2824 45.7987 30.9202 46.2287 31.1975 46.5338C31.4609 46.8251 32.5563 48.5033 33.6101 50.2508C34.6639 52.0123 35.5929 53.524 35.6899 53.6073C35.8008 53.7321 36.5912 53.5934 39.0315 52.997C40.7786 52.5809 42.2345 52.2203 42.2622 52.2064C42.2761 52.2064 40.8202 49.9873 39.0176 47.2689C37.2151 44.5643 35.5374 42.1371 35.3017 41.8875C35.066 41.624 34.6223 41.2495 34.3172 41.0276C34.0122 40.8195 33.4853 40.5283 33.1387 40.4035C32.792 40.2925 29.9912 39.6545 26.8992 39.0165C23.8071 38.3646 21.1727 37.8237 21.0202 37.7821C20.8815 37.7544 20.7706 37.7821 20.7845 37.8515C20.7845 37.9208 21.0756 39.2107 21.4223 40.7225ZM36.9239 55.7986C36.8962 55.8819 37.3677 56.9082 37.95 58.0871C38.7958 59.7653 39.1147 60.2785 39.4059 60.4172C39.7525 60.5698 40.1408 60.5004 42.595 59.8902C44.1479 59.5018 45.6454 59.1273 45.9227 59.058C46.2416 58.9748 46.5189 58.7945 46.6021 58.6142C46.7408 58.3506 46.713 58.2258 46.505 57.8791C46.3525 57.6433 45.6454 56.6863 44.9244 55.757C44.2034 54.8139 43.5378 54.065 43.4685 54.065C43.3853 54.0788 41.9017 54.4394 40.1546 54.8694C38.4076 55.3132 36.9517 55.7293 36.9239 55.7986ZM3.85462 64.3562C3.86849 64.5781 4.00714 64.8555 4.20126 64.9942C4.36765 65.119 6.17017 66.0621 8.18067 67.0885C11.2727 68.6557 11.9105 68.9331 12.1878 68.8221C12.3958 68.7528 12.5761 68.5448 12.6315 68.2812C12.7008 68.0593 12.7702 66.8527 12.784 65.6044L12.8256 63.3298C7.98655 60.7778 6.53067 60.0289 6.48908 60.0289C6.43361 60.0289 5.82353 60.9165 5.11639 61.9983C4.1874 63.413 3.84076 64.0649 3.85462 64.3562Z" fill="#B4BBC1"/>
</svg>
