<svg width="54" height="77" viewBox="0 0 54 77" fill="none" xmlns="http://www.w3.org/2000/svg">
<path fill-rule="evenodd" clip-rule="evenodd" d="M27.4181 0.0148607L52.9042 0L53.2163 0.416101C53.4838 0.757897 53.5135 0.936226 53.4392 1.70898C53.3798 2.19939 53.1717 2.97215 52.9637 3.41797C52.7556 3.86379 52.2503 4.59197 51.8194 5.00807C51.3587 5.46875 50.6751 5.95915 50.155 6.19693C49.2782 6.61303 49.2336 6.61303 42.3531 6.68733V8.91644L45.8156 8.96102C49.2336 8.99074 49.2782 8.99074 50.155 9.40684C50.6751 9.64462 51.3587 10.135 51.8194 10.5957C52.2503 11.0118 52.7556 11.74 52.9637 12.1858C53.1717 12.6316 53.3946 13.4044 53.4541 13.8948C53.5432 14.727 53.5284 14.8162 52.7705 15.6038H37.8949V17.8329H38.6379C39.2323 17.8329 39.4552 17.9072 40.124 18.5759V24.5945L40.5252 24.8323C40.763 24.966 41.4614 25.5753 42.1153 26.1698C42.7543 26.779 43.5865 27.6707 43.9581 28.1611C44.3296 28.6515 44.9537 29.7215 45.3401 30.5388C45.7413 31.3561 46.202 32.6342 46.737 34.6998V71.8517L46.2763 72.8176C46.0237 73.3526 45.5184 74.0808 45.1618 74.4374C44.7754 74.8238 44.0621 75.2993 42.3531 76.087H22.2911L21.2806 75.6411C20.6564 75.3439 20.0025 74.8981 19.5121 74.4077C19.0515 73.9619 18.5611 73.2634 17.9072 71.8517V34.6998L18.249 33.3623C18.4422 32.6342 18.9029 31.3561 19.3041 30.5388C19.6905 29.7215 20.3146 28.6515 20.6861 28.1611C21.0577 27.6707 21.8899 26.779 22.5289 26.1698C23.1827 25.5753 23.8812 24.966 24.5202 24.5945V21.5926C24.5202 18.5908 24.5202 18.5759 24.8917 18.2044C25.1741 17.9072 25.397 17.8329 26.7493 17.8329V13.3747H20.2403C14.9053 13.3747 13.5679 13.4192 12.7802 13.6124C12.2452 13.7313 11.413 14.0434 10.9226 14.3109C10.4322 14.5635 9.58517 15.2174 9.05019 15.7524C8.45576 16.3468 7.89105 17.075 7.59384 17.6546C7.3412 18.1598 7.02913 19.0217 6.89538 19.5864C6.73191 20.2849 6.68733 20.9388 6.73191 21.771C6.7765 22.4248 6.89538 23.1976 6.98455 23.48C7.07371 23.7623 8.81242 27.3735 10.8632 31.5048C13.4341 36.7357 14.6675 39.3958 14.9202 40.2726C15.1134 40.971 15.3511 42.0559 15.4403 42.6949C15.5443 43.4528 15.6038 48.3568 15.6038 70.8857L15.2323 71.2572C14.8756 71.6287 14.8459 71.6287 12.3047 71.6287C9.97155 71.6436 9.70406 71.6139 8.99074 71.064L8.84214 43.0218L8.42604 41.8775C8.20312 41.2385 6.47928 37.6274 4.59197 33.8528C2.68979 30.0633 0.980809 26.4967 0.787619 25.932C0.59443 25.3673 0.341797 24.327 0.222911 23.6286C0.0891644 22.9301 0 21.8601 0 21.2509C0 20.6416 0.104025 19.527 0.237772 18.7988C0.356657 18.0558 0.683594 16.8967 0.936227 16.1982C1.20372 15.4997 1.73871 14.3703 2.15481 13.6719C2.64521 12.8397 3.37339 11.948 4.32447 11.0118C5.2607 10.0607 6.15234 9.33254 6.98455 8.84214C7.683 8.42604 8.81242 7.89105 9.51087 7.62356C10.2093 7.37092 11.3833 7.04399 12.1115 6.9251C13.1666 6.73191 14.6081 6.68733 18.9772 6.68733C22.0236 6.68733 24.5202 6.67247 24.5202 6.64275C24.5202 6.62789 24.4162 6.34553 24.2824 6.0186C24.1041 5.57278 24.0595 5.11209 24.1041 4.23531C24.1487 3.41797 24.2676 2.85326 24.4756 2.45202C24.654 2.12509 25.0552 1.60496 25.3673 1.30774C25.6793 0.995669 26.2589 0.594429 26.675 0.386379L27.4181 0.0148607ZM26.6304 3.26936C26.4075 3.61116 26.3035 3.99754 26.3035 4.41364C26.3035 4.7703 26.4075 5.24584 26.5264 5.49847C26.6453 5.73624 26.9277 6.07804 27.1506 6.24151C27.3883 6.40498 27.6707 6.53872 27.7896 6.53872C27.9085 6.53872 28.28 6.27123 28.6069 5.94429C28.9338 5.61736 29.6026 5.17154 30.093 4.94862C30.8509 4.59197 31.1778 4.53252 32.3221 4.53252C33.4664 4.53252 33.7933 4.59197 34.5512 4.94862C35.0862 5.1864 35.7549 5.66194 36.2156 6.12262C36.6466 6.56844 37.1667 7.29662 37.4045 7.80189C37.7908 8.63409 37.8206 8.82728 37.8503 11.0267L37.8949 13.3747C50.1401 13.3747 50.9723 13.3449 50.9723 13.1517C50.9723 13.0329 50.6602 12.6019 50.259 12.2155C49.8429 11.7846 49.3228 11.4279 48.9661 11.3239C48.5649 11.205 47.1085 11.1456 44.6119 11.1456H40.867C40.124 10.4025 40.124 10.3728 40.124 7.80189C40.124 5.23098 40.124 5.1864 40.4955 4.82974L40.8522 4.45822C47.1085 4.45822 48.5649 4.38392 48.9661 4.26503C49.3228 4.16101 49.8429 3.80435 50.259 3.38825C50.6602 2.98701 50.9723 2.57091 50.9723 2.45202C50.9723 2.25883 49.6051 2.22911 39.485 2.22911C28.8595 2.22911 27.9679 2.24397 27.4924 2.48174C27.21 2.63035 26.8236 2.98701 26.6304 3.26936V3.26936ZM29.9295 7.7573C29.5877 8.11396 29.2459 8.66381 29.1419 8.99074C29.0527 9.31768 28.9784 9.77836 28.9784 10.031C28.9784 10.2688 29.0527 10.7443 29.1419 11.0712C29.2459 11.4576 29.558 11.9034 30.0335 12.3641C30.4645 12.7802 30.9846 13.1369 31.3116 13.2261C31.6236 13.3004 32.0843 13.3747 32.3221 13.3747C32.5599 13.3747 33.0354 13.2855 33.3623 13.1815C33.7041 13.0774 34.2391 12.7208 34.6255 12.3344C35.1159 11.8589 35.3685 11.4576 35.5023 10.9226C35.636 10.4768 35.6658 9.91211 35.6063 9.51087C35.5617 9.13935 35.3388 8.57464 35.1011 8.24771C34.8781 7.93563 34.4323 7.47495 34.1054 7.23718C33.6596 6.9251 33.288 6.80622 32.6193 6.74677C32.0397 6.70219 31.5196 6.76163 31.1332 6.89538C30.8063 7.01427 30.2713 7.40065 29.9295 7.7573ZM11.0712 9.42171C10.5808 9.57031 9.6149 9.97155 8.91644 10.3431C8.21799 10.6997 7.22232 11.3387 6.70219 11.7697C6.18207 12.2007 5.43903 12.9586 5.03779 13.449C4.63655 13.9394 4.0124 14.9053 3.65574 15.6038C3.28422 16.3022 2.8384 17.4019 2.66007 18.0558C2.37772 19.0366 2.31827 19.6013 2.31827 21.2509C2.31827 22.9153 2.37772 23.4651 2.67493 24.5202C2.92756 25.4119 4.05698 27.849 6.61303 32.9908C8.5895 36.9586 10.3431 40.6292 10.5214 41.1642C10.6997 41.6992 10.9078 42.5314 10.9969 43.0218C11.0712 43.5122 11.1456 45.6373 11.1456 47.7327V51.5667H13.3747C13.3747 45.6373 13.3004 43.4379 13.2112 42.8732C13.1369 42.2936 12.9288 41.3574 12.7654 40.7927C12.6019 40.1983 10.8335 36.4237 8.69353 32.0992C5.32014 25.2781 4.88918 24.2973 4.66627 23.1827C4.48794 22.306 4.44336 21.5332 4.5028 20.6564C4.54739 19.9282 4.74057 18.8731 4.96349 18.2044C5.17154 17.5505 5.58764 16.5846 5.89971 16.0645C6.21179 15.5443 6.91024 14.6824 7.46009 14.1326C8.00994 13.5976 8.87186 12.8991 9.39198 12.587C9.91211 12.275 10.8632 11.844 11.5171 11.6211L12.7059 11.2199L26.7493 11.1456C26.7493 9.7635 26.779 9.25824 26.8236 9.13935C26.8831 8.94616 26.0806 8.91644 20.0917 8.9313C16.3617 8.94616 13.0031 9.00561 12.6316 9.06505C12.2601 9.12449 11.5617 9.28796 11.0712 9.42171V9.42171ZM28.9784 17.8329H35.6658V14.5635C33.7636 15.4849 33.5258 15.5295 32.3221 15.5295C31.1481 15.5295 30.8806 15.47 30.093 15.0836C29.6026 14.8459 29.1568 14.623 29.1122 14.5932C29.0527 14.5635 29.0082 15.2768 28.9933 16.1833L28.9784 17.8329ZM26.7493 21.6967C26.7493 23.3165 26.7493 23.3314 27.0911 23.2422C27.2694 23.1827 28.0273 22.9747 28.7555 22.7666C29.9147 22.4397 30.3902 22.3951 32.3221 22.3951C34.254 22.3951 34.7444 22.4397 35.963 22.7666C36.7357 22.9896 37.4936 23.1976 37.6422 23.2422C37.88 23.3165 37.8949 23.1827 37.8949 21.6967V20.062H26.7493V21.6967ZM28.0868 25.293C27.5518 25.4862 26.6156 25.932 26.0063 26.2886C25.3524 26.675 24.4013 27.4478 23.688 28.1462C22.945 28.9041 22.2317 29.7958 21.8007 30.5388C21.4143 31.1927 20.9388 32.2329 20.7456 32.8422C20.5375 33.4515 20.2998 34.358 20.2255 34.8484C20.1214 35.4429 20.062 41.6398 20.062 53.35C20.062 65.6399 20.1214 71.1383 20.2255 71.5544C20.3295 71.9408 20.6416 72.4015 21.1171 72.8473C21.5481 73.2783 22.0682 73.6201 22.41 73.7092C22.7518 73.7984 26.5859 73.8578 32.3221 73.8578C39.2026 73.8578 41.8478 73.7984 42.2788 73.6795C42.6206 73.5755 43.1556 73.2188 43.542 72.8176C43.9432 72.4312 44.2998 71.8962 44.4039 71.5544C44.5376 71.1086 44.5822 66.6801 44.5822 53.4243C44.5822 42.1599 44.5228 35.5469 44.4336 34.9227C44.3444 34.3877 44.1067 33.4515 43.9135 32.8422C43.7054 32.2329 43.2299 31.1927 42.8435 30.5388C42.4274 29.8106 41.6992 28.8893 40.9562 28.1462C40.2131 27.4032 39.2918 26.6899 38.5636 26.2589C37.9097 25.8725 36.8695 25.397 36.2602 25.1889C35.6509 24.9958 34.7444 24.758 34.254 24.6688C33.7636 24.5945 32.8274 24.5202 32.1735 24.5351C31.5196 24.5351 30.5537 24.6391 30.0187 24.7431C29.4837 24.8471 28.6218 25.0998 28.0868 25.293V25.293ZM11.1456 69.3996H13.3747V53.7959H11.1456V69.3996ZM32.3221 8.91644C32.5301 8.91644 32.8571 9.07991 33.0651 9.28796C33.2732 9.49601 33.4367 9.82295 33.4367 10.031C33.4367 10.239 33.2732 10.566 33.08 10.774C32.8719 10.9821 32.545 11.1456 32.337 11.1456C32.1289 11.1456 31.7871 10.9821 31.5791 10.774C31.371 10.566 31.2075 10.239 31.2224 10.031C31.2224 9.82295 31.3859 9.48115 31.5791 9.28796C31.7723 9.07991 32.114 8.91644 32.3221 8.91644ZM23.0193 35.6658H41.6101L42.3531 36.4088V61.9693L41.6249 62.7123H23.0341L22.2911 61.9693V47.8516L22.6626 47.48C22.8558 47.272 23.1976 47.1085 23.4057 47.1085C23.6137 47.1085 23.9406 47.272 24.5202 47.8516V60.4832H40.124V44.8794H23.0341L22.2911 44.1364L22.306 36.3939L23.0193 35.6658ZM24.5202 42.6503H40.124V37.8949H24.5202V42.6503Z" fill="#B4BBC1"/>
</svg>
